<?xml version="1.0" standalone="no"?>
<!DOCTYPE svg PUBLIC "-//W3C//DTD SVG 1.1//EN" "http://www.w3.org/Graphics/SVG/1.1/DTD/svg11.dtd" >
<svg xmlns="http://www.w3.org/2000/svg" xmlns:xlink="http://www.w3.org/1999/xlink" version="1.1">
<metadata>
Created by FontForge 20190801 at Mon May 12 05:55:31 2014
 By www-data
Copyright (c) 2014 by Antonio Rodrigues Jr. All rights reserved.
</metadata>
<defs>
<font id="SlaberlinBold" horiz-adv-x="269" >
  <font-face 
    font-family="SlaberlinBold"
    font-weight="400"
    font-stretch="normal"
    units-per-em="1000"
    panose-1="2 0 5 6 0 0 0 2 0 2"
    ascent="750"
    descent="-250"
    x-height="498"
    cap-height="700"
    bbox="-40 -229 987.069 913"
    underline-thickness="50"
    underline-position="-100"
    unicode-range="U+0020-2212"
  />
<missing-glyph horiz-adv-x="252" 
 />
    <glyph glyph-name=".notdef" horiz-adv-x="252" 
 />
    <glyph glyph-name=".null" horiz-adv-x="0" 
 />
    <glyph glyph-name="nonmarkingreturn" horiz-adv-x="333" 
 />
    <glyph glyph-name="space" unicode=" " horiz-adv-x="252" 
 />
    <glyph glyph-name="exclam" unicode="!" horiz-adv-x="159" 
d="M20 58q0 27 16.5 43.5t42.5 16.5q27 0 43.5 -16.5t16.5 -43.5q0 -26 -16.5 -42t-43.5 -16q-26 0 -42.5 16t-16.5 42zM134 179h-110v519h110v-519z" />
    <glyph glyph-name="quotedbl" unicode="&#x22;" horiz-adv-x="236" 
d="M207 421h-76l-11 278h96zM105 421h-78l-7 278h93z" />
    <glyph glyph-name="numbersign" unicode="#" horiz-adv-x="460" 
d="M208 0l25 117h-59q-2 -10 -4 -19t-3 -19l-8 -33q-2 -8 -4 -23t-4 -23h-86l21 117h-66v88h84q2 11 5 23t5 22l8 39h-102v89h122l7 39l16 77h87l-23 -116h58l14 66v-1l8 51h89l-25 -116h67v-89h-85l-3 -13q-2 -6 -3 -12.5l-3 -19.5l-7 -31q0 -4 -0.5 -4.5t-0.5 0v0v-3.5
h102v-88h-118q-3 -11 -6 -23.5t-5 -22.5l1 1l-14 -72h-90zM269 289h-58l-10 -46q-1 -5 -2.5 -9.5t-2.5 -9.5l-4 -19h58z" />
    <glyph glyph-name="dollar" unicode="$" horiz-adv-x="505" 
d="M20 183h79q25 -29 53 -48.5t61 -27.5v161q-31 10 -60.5 22t-53 31t-37.5 47t-14 69q0 28 8.5 56t28 50.5t51 38.5t77.5 21v95h99v-95q37 -5 69 -19v19h103v-168l-79 -2q-19 27 -41 43.5t-52 23.5v-149q34 -10 65.5 -22t55.5 -31t38 -48t14 -73q0 -75 -44 -117.5
t-129 -52.5v-99h-99v97q-23 2 -46.5 8.5t-43.5 14.5v-26h-103v181zM375 167q0 29 -17.5 46t-45.5 28v-134q63 15 63 60zM157 445q0 -23 15 -38t41 -26v121q-31 -7 -43.5 -21.5t-12.5 -35.5z" />
    <glyph glyph-name="uni0025" unicode="%" horiz-adv-x="510" 
d="M400 109q0 14 -7 25t-24 11t-23 -10.5t-6 -25.5q0 -14 6 -23.5t23 -9.5t24 9.5t7 23.5zM482 109q0 -46 -28.5 -77.5t-84.5 -31.5q-27 0 -48 8.5t-35.5 23.5t-22.5 35t-8 42q0 47 30 78t84 31q56 0 84.5 -31t28.5 -78zM126 0h-106l364 682h106zM182 573q0 14 -7 25t-25 11
q-17 0 -23.5 -10.5t-6.5 -25.5q0 -14 6.5 -23.5t23.5 -9.5q18 0 25 9.5t7 23.5zM264 573q0 -46 -28.5 -77.5t-85.5 -31.5q-26 0 -47 8.5t-35.5 23.5t-22.5 35t-8 42q0 47 30 78t83 31q57 0 85.5 -31t28.5 -78z" />
    <glyph glyph-name="ampersand" unicode="&#x26;" horiz-adv-x="652" 
d="M632 415v-103h-59q-3 -24 -7.5 -46t-12.5 -41q-5 -18 -12.5 -38.5t-17.5 -37.5q10 -12 17.5 -23t18.5 -23h73v-103h-137l-24 29l-25 29q-82 -64 -199 -64q-98 0 -163 59q-64 61 -64 149q0 62 36 109t112 92q-31 42 -47 74t-16 61q0 69 52 115q26 21 58.5 34t70.5 13
q37 0 68 -12.5t55 -33.5q48 -46 48 -112q0 -51 -31 -87.5t-93 -74.5q15 -19 29 -35t27.5 -32t27 -33t29.5 -37l7 18q6 11 8.5 23t4.5 28h-62v103h228zM231 323q-48 -29 -70.5 -55t-22.5 -61q0 -45 31 -78q33 -36 80 -36q79 0 132 49zM270 456q35 20 54.5 39t19.5 47
q0 27 -18.5 45t-44.5 18q-27 0 -45.5 -17t-18.5 -43q0 -14 10.5 -31.5t27.5 -40.5z" />
    <glyph glyph-name="quotesingle" unicode="'" horiz-adv-x="133" 
d="M105 436h-78l-7 263h93z" />
    <glyph glyph-name="parenleft" unicode="(" horiz-adv-x="306" 
d="M181 -95q-29 36 -57.5 79.5t-51.5 95.5t-37.5 114t-14.5 137t14.5 137.5t37.5 114.5t51.5 95t57.5 79h105q-36 -45 -67 -94t-54 -101.5t-36 -110t-13 -120.5q0 -64 13 -121.5t36 -110t54 -101t67 -93.5h-105z" />
    <glyph glyph-name="parenright" unicode=")" horiz-adv-x="305" 
d="M20 -95q36 45 67 93.5t54 101t36 110t13 121.5q0 63 -13 120.5t-36 110t-54 101.5t-67 94h105q28 -36 57 -79t51.5 -95t37 -114.5t14.5 -137.5t-14.5 -137t-37 -114t-51.5 -95.5t-57 -79.5h-105z" />
    <glyph glyph-name="asterisk" unicode="*" horiz-adv-x="396" 
d="M265 497q18 -23 37.5 -49t35.5 -46l-63 -48l-76 95l-74 -93l-66 45l69 99l-108 40l26 75l110 -37v121h84v-121l113 36l23 -76z" />
    <glyph glyph-name="plus" unicode="+" horiz-adv-x="484" 
d="M198 30v178h-178v88h178v178h87v-178h179v-88h-179v-178h-87z" />
    <glyph glyph-name="comma" unicode="," horiz-adv-x="206" 
d="M20 -134l69 263h97l-74 -263h-92z" />
    <glyph glyph-name="hyphen" unicode="-" horiz-adv-x="261" 
d="M20 205v92h221v-92h-221z" />
    <glyph glyph-name="period" unicode="." horiz-adv-x="166" 
d="M20 63q0 27 17 45.5t45 18.5q27 0 45.5 -18.5t18.5 -45.5q0 -28 -18.5 -45.5t-45.5 -17.5q-28 0 -45 17.5t-17 45.5z" />
    <glyph glyph-name="slash" unicode="/" horiz-adv-x="395" 
d="M20 0l262 698h93l-263 -698h-92z" />
    <glyph glyph-name="zero" unicode="0" horiz-adv-x="536" 
d="M268 -8q-54 0 -99.5 24t-78.5 68t-51.5 107.5t-18.5 142.5q0 78 18.5 141.5t51.5 108t78.5 69t99.5 24.5t99.5 -24.5t78.5 -69t51.5 -108t18.5 -141.5q0 -79 -18.5 -142.5t-51.5 -107.5t-78.5 -68t-99.5 -24zM268 85q31 0 58.5 17t47.5 49.5t31.5 78.5t11.5 104
q0 57 -11.5 102.5t-31.5 77.5t-47.5 49t-58.5 17q-33 0 -61 -17t-49 -49t-32.5 -77.5t-11.5 -102.5q0 -58 11.5 -104t32.5 -78.5t49 -49.5t61 -17z" />
    <glyph glyph-name="one" unicode="1" 
d="M184 684v-583h65v-101h-229v101h63v482h-63v101h164z" />
    <glyph glyph-name="two" unicode="2" horiz-adv-x="462" 
d="M28 93q59 64 103.5 113.5t77.5 87t54.5 65t34.5 48.5t18.5 36.5t5.5 29.5q0 45 -28.5 76t-79.5 31q-34 0 -60 -16.5t-41 -45.5h-93v164h100v-20q43 20 94 20q48 0 86.5 -15.5t66 -44t42 -67.5t14.5 -85q0 -31 -11.5 -62t-29.5 -60t-39 -55.5t-40 -47.5l-86 -96l-46 -51
h170v67h101v-165h-414v93z" />
    <glyph glyph-name="three" unicode="3" horiz-adv-x="497" 
d="M477 198q0 -50 -19.5 -88.5t-52.5 -64t-77 -38.5t-92 -13q-65 0 -115 22.5t-101 74.5l81 69q29 -38 63.5 -54.5t71.5 -16.5q64 0 100.5 28.5t36.5 80.5q0 56 -45 83.5t-126 27.5h-40v100h42q60 0 99.5 24.5t39.5 72.5q0 38 -32 62.5t-78 24.5q-42 0 -70 -14t-54 -44
l-75 -1v148h101v-9q21 7 45 11t52 4q45 0 85 -11.5t69 -34t46 -56.5t17 -79q0 -47 -20.5 -82.5t-55.5 -58.5q48 -23 76 -63.5t28 -104.5z" />
    <glyph glyph-name="four" unicode="4" horiz-adv-x="515" 
d="M495 101v-101h-228v101h63v72h-310v74l326 436h86v-408h58v-102h-58v-72h63zM330 275v55.5t-0.5 50.5t-0.5 52v60l-163 -218h164z" />
    <glyph glyph-name="five" unicode="5" horiz-adv-x="502" 
d="M75 684h361v-165h-101v62h-159q-1 -25 -2.5 -53.5t-2.5 -57.5q14 1 28.5 1h26.5q52 0 98.5 -12.5t81.5 -40.5t55.5 -71.5t20.5 -106.5q0 -46 -18 -89.5t-50 -78t-76.5 -55.5t-97.5 -21q-68 0 -119 24.5t-101 71.5l80 73q29 -38 65.5 -52.5t74.5 -14.5q30 0 56 11t44.5 30
t29.5 44t11 54q0 66 -45.5 100.5t-123.5 34.5q-27 0 -69 -6.5t-79 -17.5z" />
    <glyph glyph-name="six" unicode="6" horiz-adv-x="507" 
d="M20 271q0 67 20.5 134t65.5 124t117.5 100t176.5 62l29 -90q-114 -26 -181 -72t-96 -114q27 15 57 21t70 6t78 -15t66.5 -43t46 -68.5t17.5 -90.5t-16 -92.5t-46 -73t-72.5 -48t-95.5 -17.5q-57 0 -101 21.5t-74 59t-46 88t-16 108.5zM123 257q0 -33 9.5 -63.5t27 -53.5
t43 -36.5t57.5 -13.5q59 0 92.5 37t33.5 94t-34 88.5t-82 31.5q-41 0 -78 -17.5t-67 -43.5q-1 -5 -1.5 -10.5t-0.5 -12.5z" />
    <glyph glyph-name="seven" unicode="7" horiz-adv-x="467" 
d="M122 0l198 581h-200v-62h-100v165h427v-71l-208 -613h-117z" />
    <glyph glyph-name="eight" unicode="8" horiz-adv-x="525" 
d="M20 198q0 64 28.5 104.5t75.5 63.5q-35 23 -55 58.5t-20 82.5q0 45 16.5 79t46 56.5t69 34t84.5 11.5h4q37 0 66 -10h-1q64 -15 103 -57t39 -114q0 -47 -20 -82.5t-55 -58.5q48 -23 76 -63.5t28 -104.5q0 -45 -15.5 -80.5t-43 -61t-64 -40.5t-78.5 -19l-13 -2
q-3 0 -5 -0.5t-4 -0.5h-31l-30 3q-41 5 -77.5 20.5t-64 40.5t-43.5 60t-16 80zM399 198q0 48 -37 75.5t-100 33.5q-66 -5 -101 -32t-35 -77q0 -32 13 -55l-3 3q23 -27 56.5 -41t68.5 -14t70 14.5t58 40.5q10 22 10 52zM259 590q-45 -2 -76 -25t-31 -59q0 -42 31.5 -66
t79.5 -29q46 5 78 29.5t32 65.5q0 37 -32.5 60.5t-79.5 23.5h-2z" />
    <glyph glyph-name="nine" unicode="9" horiz-adv-x="507" 
d="M487 411q0 -68 -20.5 -134.5t-66 -123.5t-118 -100t-176.5 -62l-28 90q114 26 181 72t96 114q-27 -15 -57 -21t-70 -6q-41 0 -78.5 15t-66.5 43t-46 68.5t-17 90.5t16 92.5t46 73.5t72.5 48.5t95.5 17.5q57 0 101 -22t74 -59.5t46 -88t16 -108.5zM384 425q0 33 -9.5 63.5
t-27 53.5t-43 36.5t-57.5 13.5q-59 0 -92.5 -37t-33.5 -94t34 -88.5t82 -31.5q41 0 78 17t67 43q1 6 1.5 11.5t0.5 12.5z" />
    <glyph glyph-name="colon" unicode=":" horiz-adv-x="166" 
d="M20 63q0 27 17 45.5t45 18.5q27 0 45.5 -18.5t18.5 -45.5q0 -28 -18.5 -45.5t-45.5 -17.5q-28 0 -45 17.5t-17 45.5zM20 434q0 27 17 45.5t45 18.5q27 0 45.5 -18.5t18.5 -45.5q0 -28 -18.5 -45t-45.5 -17q-28 0 -45 17t-17 45z" />
    <glyph glyph-name="semicolon" unicode=";" horiz-adv-x="214" 
d="M20 -141l73 263h97l-74 -263h-96zM68 434q0 27 17.5 45.5t45.5 18.5q27 0 45 -18.5t18 -45.5q0 -28 -18 -45t-45 -17q-28 0 -45.5 17t-17.5 45z" />
    <glyph glyph-name="less" unicode="&#x3c;" horiz-adv-x="298" 
d="M165 60l-145 174l145 174h113l-135 -174l5 -7l-1 1l20 -25l-1 1q20 -23 48 -59t62 -85h-111z" />
    <glyph glyph-name="equal" unicode="=" horiz-adv-x="458" 
d="M20 130v96h418v-96h-418zM20 310v99h418v-99h-418z" />
    <glyph glyph-name="greater" unicode="&#x3e;" horiz-adv-x="299" 
d="M20 60l134 173l-27 33l-23 30l-84 112h114l145 -174l-145 -174h-114z" />
    <glyph glyph-name="question" unicode="?" horiz-adv-x="416" 
d="M135 63q0 25 17.5 43t45.5 18q25 0 43 -18t18 -43q0 -28 -18 -45.5t-43 -17.5q-28 0 -45.5 17.5t-17.5 45.5zM20 682h100v-13q20 7 42 11t46 4q37 0 71 -10.5t60 -32.5t41.5 -55.5t15.5 -78.5q0 -31 -13.5 -60t-35.5 -55.5t-48.5 -49t-52.5 -40.5v-158h-97l-3 219
q39 24 66 42t44.5 34t25.5 32t8 36q0 39 -24.5 58.5t-62.5 19.5q-34 0 -58.5 -14.5t-49.5 -44.5h-75v156z" />
    <glyph glyph-name="at" unicode="@" horiz-adv-x="671" 
d="M401 307q-17 6 -35 9.5t-36 3.5q-13 0 -26 -2t-23 -7.5t-16.5 -14t-6.5 -20.5q0 -20 16 -30.5t44 -10.5q21 0 43.5 12t39.5 32v28zM334 592q-38 0 -68.5 -10.5t-55.5 -27.5h71v-2q11 2 24 3t27 1q75 0 119.5 -36t44.5 -106v-170q0 -6 7 -6q9 0 18 5.5t15.5 19t11 37
t4.5 59.5q0 56 -16 99.5t-44.5 73t-68.5 45t-89 15.5zM180 527q-32 -35 -48 -84t-16 -103q0 -53 13.5 -98.5t41 -79t69 -52.5t97.5 -19q50 0 91.5 13t80.5 48h-8q-55 0 -81 31q-24 -20 -53 -29t-58 -9q-64 0 -104.5 35t-40.5 95q0 34 12.5 59.5t34 42t49.5 24.5t60 8
q20 0 41.5 -3t39.5 -8v10q0 56 -71 56q-20 0 -41 -10t-43 -37h-66v110zM651 362q0 -45 -9 -80t-24 -60t-35 -41t-42 -23l41 -61q-52 -51 -114 -74t-134 -23q-77 0 -135.5 25.5t-98.5 70.5t-60 107.5t-20 137.5q0 67 20 128.5t59.5 108t98.5 74.5t136 28q71 0 129.5 -22.5
t100 -64t64.5 -100.5t23 -131z" />
    <glyph glyph-name="A" unicode="A" horiz-adv-x="711" 
d="M464 201h-217q-10 -26 -17 -45t-17 -48h53v-108h-246v108h72q22 63 43.5 122.5l43 119t42.5 119.5t44 123h-60v108h201l210 -592h75v-108h-246v108h53zM284 308h142q-10 29 -18 52t-16 45.5t-17 46.5t-20 56z" />
    <glyph glyph-name="B" unicode="B" horiz-adv-x="622" 
d="M23 0v108h67v484h-70v108h348q41 0 76.5 -15.5t62 -42.5t42 -63t15.5 -76q0 -36 -13.5 -69t-35.5 -59q40 -29 63.5 -72t23.5 -96q0 -43 -16.5 -81t-45 -66t-66.5 -44t-81 -16h-370zM198 108h196q21 0 39.5 9t32.5 23.5t22 34t8 40.5q0 20 -8 37t-22 29.5t-32.5 19.5
t-39.5 7h-196v-200zM198 592v-176h171q38 0 63 25.5t25 62.5t-25 62.5t-63 25.5h-171z" />
    <glyph glyph-name="C" unicode="C" horiz-adv-x="612" 
d="M587 700v-180h-81q-39 49 -80.5 65t-91.5 16q-53 0 -92 -20.5t-64.5 -55t-37.5 -79.5t-12 -93t12 -93t37.5 -80t64.5 -56t92 -21q49 0 92.5 19.5t86.5 72.5l79 -70q-50 -59 -112.5 -94t-147.5 -35q-80 0 -138.5 30.5t-97 80.5t-57.5 114.5t-19 132.5q0 69 19 133
t57.5 113.5t97 79t138.5 29.5q82 0 144 -32l3 -1v24h108z" />
    <glyph glyph-name="D" unicode="D" horiz-adv-x="705" 
d="M90 592h-70v108h329q87 0 150 -28t104.5 -75.5t61.5 -111t20 -133.5q0 -73 -21 -137t-63 -112t-105 -75.5t-147 -27.5h-326v108h67v484zM576 351q0 114 -62 177.5t-170 63.5h-147v-484h147q58 0 101.5 17.5t72.5 49t43.5 76.5t14.5 100z" />
    <glyph glyph-name="E" unicode="E" horiz-adv-x="573" 
d="M442 530v62h-245v-175h107v65h108v-236h-108v63h-107v-201h248v62h108v-170h-531v108h68q0 124 -0.5 241t-0.5 243h-69v108h530v-170h-108z" />
    <glyph glyph-name="F" unicode="F" horiz-adv-x="542" 
d="M415 530v62h-217v-175h79v65h107v-236h-107v63h-79v-201h68v-108h-243v108h67q0 124 -0.5 241t-0.5 243h-69v108h502v-170h-107z" />
    <glyph glyph-name="G" unicode="G" horiz-adv-x="614" 
d="M585 700v-180h-79q-39 49 -80.5 65t-91.5 16q-53 0 -92 -20.5t-64.5 -55t-37.5 -79.5t-12 -93t13.5 -93t40.5 -80t67.5 -56t94.5 -21q41 0 76.5 10.5t66.5 38.5v157h-189v108h296v-301q-47 -54 -107.5 -87t-144.5 -33q-80 0 -140 30.5t-100.5 80.5t-61 114.5t-20.5 132.5
q0 69 19 133t57.5 113.5t97 79t138.5 29.5q42 0 77.5 -8t64.5 -22v-1q0 -1 1 -1h2v23h108z" />
    <glyph glyph-name="H" unicode="H" horiz-adv-x="683" 
d="M89 592h-69v108h246v-108h-69v-175h290v175h-70v108h246v-108h-69v-484h67v-108h-241v108h67v201h-290v-201h66v-108h-240v108h66v484z" />
    <glyph glyph-name="I" unicode="I" horiz-adv-x="285" 
d="M89 592h-69v108h245v-108h-69v-484h67v-108h-241v108h67v484z" />
    <glyph glyph-name="J" unicode="J" horiz-adv-x="532" 
d="M512 700v-108h-72v-378q0 -110 -54 -166t-157 -56q-32 0 -59.5 6.5t-52 21t-48.5 38t-49 56.5l82 76q28 -43 60 -66.5t79 -23.5q50 0 70.5 31.5t20.5 83.5v377h-66v108h246z" />
    <glyph glyph-name="K" unicode="K" horiz-adv-x="674" 
d="M89 592h-69v108h246v-108h-69v-484h66v-108h-240v108h66v484zM194 359l232 233h-18v108h246v-108h-83l-233 -233l239 -251h74v-108h-240v108h17z" />
    <glyph glyph-name="L" unicode="L" horiz-adv-x="545" 
d="M89 592h-69v108h246v-108h-69v-484h221v62h107v-170h-502v108h66v484z" />
    <glyph glyph-name="M" unicode="M" horiz-adv-x="804" 
d="M715 108h66v-108h-240v108h66v357q-41 -64 -79 -125t-79 -124l-48 -76l-44 71l-160 253v-356h66v-108h-240v108h65v484h-68v108h151l230 -367l231 367h152v-108h-69v-484z" />
    <glyph glyph-name="N" unicode="N" horiz-adv-x="744" 
d="M552 592h-68v108h240v-108h-66v-592h-87l-377 499v-361l2 -30h67v-108h-240v108h65v484h-68v108h153l379 -499v391z" />
    <glyph glyph-name="O" unicode="O" horiz-adv-x="695" 
d="M566 353q0 49 -14 94t-41.5 79.5t-68.5 54.5t-95 20t-94.5 -20t-68 -54t-41.5 -79t-14 -95t14 -95.5t41.5 -80t68 -54.5t94.5 -20t95 20t68.5 54t41.5 79.5t14 96.5zM675 354q0 -70 -20.5 -135t-62 -114.5t-103 -79.5t-142.5 -30t-142 30t-102.5 79.5t-62 114.5
t-20.5 135q0 69 20.5 133.5t62 113.5t102.5 78.5t142 29.5t142.5 -29.5t103 -78.5t62 -113.5t20.5 -133.5z" />
    <glyph glyph-name="P" unicode="P" horiz-adv-x="583" 
d="M89 592h-69v108h335q42 0 80 -16.5t66.5 -45t45 -66.5t16.5 -81q0 -44 -16.5 -81.5t-45 -66t-66.5 -44.5t-80 -16h-158v-175h66v-108h-240v108h66v484zM197 391h158q20 0 38.5 8t32 21.5t21.5 31.5t8 39q0 20 -8 38.5t-21.5 32.5t-32 22t-38.5 8h-158v-201z" />
    <glyph glyph-name="Q" unicode="Q" horiz-adv-x="695" 
d="M675 354q0 -55 -12.5 -107t-37.5 -96.5t-63 -79t-89 -53.5q10 -14 22.5 -29t24.5 -30t22.5 -29t18.5 -25h-125l-69 91q-5 -1 -10 -1h-10q-81 0 -142 30t-102.5 79.5t-62 114.5t-20.5 135q0 69 20.5 133.5t62 113.5t102.5 78.5t142 29.5t142.5 -29.5t103 -78.5t62 -113.5
t20.5 -133.5zM566 353q0 49 -14 94t-41.5 79.5t-68.5 54.5t-95 20t-94.5 -20t-68 -54t-41.5 -79t-14 -95t14 -95.5t41.5 -80t68 -54.5t94.5 -20t95 20t68.5 54t41.5 79.5t14 96.5z" />
    <glyph glyph-name="R" unicode="R" horiz-adv-x="637" 
d="M543 108h74v-108h-240v108h42l-97 175h-125v-175h66v-108h-241v108h67v484h-69v108h335q43 0 80.5 -16.5t66 -45t45 -66.5t16.5 -81q0 -63 -34.5 -113.5t-88.5 -76.5zM197 391h158q21 0 39 8t32 21.5t22 31.5t8 39q0 20 -8 38.5t-22 32.5t-32 22t-39 8h-158v-201z" />
    <glyph glyph-name="S" unicode="S" horiz-adv-x="531" 
d="M20 0v180l75 1q25 -35 68.5 -55.5t98.5 -20.5q31 0 56.5 6t44 17t28.5 26t10 33q0 25 -14.5 44t-37.5 33.5t-51.5 25t-56.5 19.5l-20 7q-35 12 -68.5 25.5t-60 35t-42.5 53.5t-16 81q0 37 13 72t41 61.5t72 42.5t106 16q67 0 122 -20v17h108v-184h-80l-8 15
q-28 34 -61.5 49t-78.5 15q-59 0 -91 -22.5t-32 -55.5q0 -18 12 -32.5t31.5 -26.5t43.5 -22t48 -19l19 -6q29 -10 66 -26.5t69.5 -42t54.5 -60.5t22 -81q0 -50 -19 -88.5t-53 -64.5t-79.5 -39.5t-99.5 -13.5q-71 0 -132 26v-21h-108z" />
    <glyph glyph-name="T" unicode="T" horiz-adv-x="616" 
d="M20 530v170h576v-170h-108v62h-123v-484h66v-108h-241v108h66v484h-128v-62h-108z" />
    <glyph glyph-name="U" unicode="U" horiz-adv-x="746" 
d="M89 592h-69v108h246v-108h-69v-345q0 -36 12 -62.5t33 -44t49 -26.5t60 -12q3 -1 6 -1h31q3 0 6 1q32 3 60 12t49 26.5t33.5 43.5t12.5 63v345h-69v108h246v-108h-69v-356q-2 -51 -20 -92.5t-49.5 -72t-74 -50t-93.5 -25.5l-35 -3h-13q-11 0 -23.5 0.5t-23.5 2.5
q-50 7 -92 26t-73.5 50t-50 72t-20.5 92v356z" />
    <glyph glyph-name="V" unicode="V" horiz-adv-x="716" 
d="M96 592h-76v108h246v-108h-51q19 -55 36.5 -103.5t34.5 -95.5t34.5 -96.5t37.5 -105.5q18 51 36 100.5t35.5 98.5t35 99t36.5 103h-51v108h246v-108h-77q-52 -146 -105.5 -296.5t-104.5 -295.5h-102z" />
    <glyph glyph-name="W" unicode="W" horiz-adv-x="991" 
d="M93 592h-73v108h246v-108h-54q14 -50 26 -93.5t24 -85.5t24.5 -86.5t27.5 -97.5q32 117 65 236.5t65 234.5h106l131 -469l100 361h-56v108h246v-108h-74q-40 -147 -82 -296.5t-83 -295.5h-102l-131 470q-34 -118 -67.5 -235.5t-66.5 -234.5h-105z" />
    <glyph glyph-name="X" unicode="X" horiz-adv-x="666" 
d="M100 592h-78v108h246v-108h-33q26 -37 47.5 -69.5t50.5 -73.5q14 21 25.5 37.5t22.5 33t22.5 33.5t26.5 39h-30v108h246v-108h-80l-168 -239q43 -62 86 -122t86 -123h74v-108h-240v108h29q-24 35 -48.5 71.5t-51.5 75.5l-102 -147h29v-108h-240v108h77l171 245z" />
    <glyph glyph-name="Y" unicode="Y" horiz-adv-x="663" 
d="M99 592h-79v108h246v-108h-36q27 -38 50 -70t52 -74q14 20 26 37t24 33.5t25 34t28 39.5h-38v108h246v-108h-77l-179 -264q0 -59 -0.5 -109.5t-0.5 -110.5h64v-108h-240v108h68v219z" />
    <glyph glyph-name="Z" unicode="Z" horiz-adv-x="560" 
d="M134 592v-62h-108v170h490v-93l-346 -499h262v62h108v-170h-520v94l348 498h-234z" />
    <glyph glyph-name="bracketleft" unicode="[" horiz-adv-x="197" 
d="M20 -92v853h157v-84h-69v-685h69v-84h-157z" />
    <glyph glyph-name="backslash" unicode="\" horiz-adv-x="395" 
d="M282 2l-262 682h92l263 -682h-93z" />
    <glyph glyph-name="bracketright" unicode="]" horiz-adv-x="197" 
d="M20 -92v84h70v685h-70v84h157v-853h-157z" />
    <glyph glyph-name="asciicircum" unicode="^" horiz-adv-x="365" 
d="M20 558l118 141h90l117 -141h-120l-43 50q-11 -12 -21.5 -26t-19.5 -24h-121z" />
    <glyph glyph-name="underscore" unicode="_" horiz-adv-x="539" 
d="M20 -192v88h499v-88h-499z" />
    <glyph glyph-name="grave" unicode="`" 
d="M138 543l-118 141h111l118 -141h-111z" />
    <glyph glyph-name="a" unicode="a" horiz-adv-x="518" 
d="M51 500h101v-7q36 11 78 11q45 0 82.5 -11.5t64.5 -34t42 -56t15 -76.5v-225h64v-101h-165v24q-28 -19 -62 -24t-73 -5q-38 0 -70.5 9.5t-56.5 28.5t-37.5 47t-13.5 65q0 44 15.5 76t42.5 53t63 31.5t76 10.5q31 0 59.5 -1t56.5 -8v12q0 44 -28 67t-77 23q-32 0 -55.5 -9
t-48.5 -40h-73v140zM333 207q-24 9 -50 10t-55 1q-20 0 -39 -3.5t-34 -11.5t-24.5 -22t-9.5 -35q0 -30 24 -44.5t67 -14.5q35 0 67 13.5t54 42.5v64z" />
    <glyph glyph-name="b" unicode="b" horiz-adv-x="543" 
d="M185 495q20 5 39 7.5t39 2.5q50 0 97 -14.5t83 -45.5t58 -79t22 -115q0 -55 -18 -101.5t-52 -80.5t-82.5 -53t-109.5 -19q-20 0 -38 1t-38 4v-2h-165v101h63v482h-63v101h165v-189zM419 250q0 78 -43 120t-118 42q-37 0 -73 -12v-300q20 -6 40 -8t41 -2q72 0 112.5 44
t40.5 116z" />
    <glyph glyph-name="c" unicode="c" horiz-adv-x="476" 
d="M254 505q26 0 50 -5t45 -13v12h101v-148h-75q-25 28 -54 44.5t-65 16.5t-61.5 -13t-41.5 -34.5t-23 -50.5t-7 -61q0 -31 7.5 -60t24 -52t42 -37t61.5 -14q35 0 69 16.5t65 51.5l64 -68q-41 -43 -88 -68t-113 -25q-62 0 -106.5 21.5t-73 57t-42 81t-13.5 94.5q0 54 15 100
t44.5 80.5t73 54t101.5 19.5z" />
    <glyph glyph-name="d" unicode="d" horiz-adv-x="543" 
d="M461 684l-1 -82v-501h63v-101h-164v3q-38 -6 -76 -6q-61 0 -110 19t-83 53t-52 80.5t-18 101.5q0 67 22 115t58.5 79t83 45.5t96.5 14.5q20 0 39.5 -2.5t39.5 -7.5v88h-62v101h164zM125 250q0 -72 40 -116t112 -44q21 0 41.5 1.5t40.5 7.5v301q-36 12 -73 12
q-75 0 -118 -42t-43 -120z" />
    <glyph glyph-name="e" unicode="e" horiz-adv-x="490" 
d="M464 86q-42 -45 -90 -67.5t-113 -22.5q-60 0 -105 20.5t-75.5 55.5t-45.5 80t-15 95q0 66 18 114t49.5 80t72.5 47.5t88 15.5q111 0 167 -71.5t54 -209.5h-344q7 -63 43.5 -98.5t96.5 -35.5q38 0 70.5 15t63.5 49zM367 314q-5 45 -33 71.5t-84 26.5q-55 -2 -81 -28
t-39 -70h237z" />
    <glyph glyph-name="f" unicode="f" horiz-adv-x="309" 
d="M183 101h66v-101h-229v101h61v305h-41v94h41q0 37 7.5 71t24 59.5t44.5 40.5t70 15q11 0 25 -1.5t37 -6.5l-14 -91q-17 5 -26 7t-17 2q-15 0 -24.5 -7.5t-14.5 -21t-7.5 -31t-2.5 -36.5h81v-94h-81v-305z" />
    <glyph glyph-name="g" unicode="g" horiz-adv-x="544" 
d="M285 504q38 0 76 -6h163v-101h-63v-399q0 -59 -17 -100.5t-47.5 -68t-73 -38.5t-93.5 -12q-65 0 -116.5 25.5t-93.5 69.5l69 74q61 -70 143 -70q64 0 96 25.5t32 85.5v16q-39 -9 -78 -9q-50 0 -96.5 14.5t-83 45.5t-58.5 79t-22 115q0 55 18 101.5t52 80.5t83 53t110 19z
M127 250q0 -78 43 -119.5t117 -41.5q37 0 73 12v300q-20 6 -40 8t-41 2q-72 0 -112 -44t-40 -117z" />
    <glyph glyph-name="h" unicode="h" horiz-adv-x="592" 
d="M407 314q0 50 -29 74t-72 24q-22 0 -40 -9t-33 -22.5t-26.5 -30t-20.5 -30.5v-219h63v-101h-229v101h63v482h-63v101h166v-219q24 20 57.5 31.5t76.5 11.5q39 0 73 -11.5t59.5 -34.5t40.5 -57t15 -78v-226h64v-101h-229v101h64v213z" />
    <glyph glyph-name="i" unicode="i" 
d="M184 499v-398h65v-101h-229v101h63v297h-63v101h164zM65 626q0 26 15.5 42t41.5 16t42.5 -16t16.5 -42t-16.5 -42t-42.5 -16t-41.5 16t-15.5 42z" />
    <glyph glyph-name="j" unicode="j" horiz-adv-x="259" 
d="M239 499v-478q0 -39 -11 -75.5t-35 -65.5t-61 -48.5t-89 -25.5l-23 91q63 8 90 38.5t27 88.5v374h-63v101h165zM121 626q0 26 16 42t42 16t42 -16t16 -42t-16 -42t-42 -16t-42 16t-16 42z" />
    <glyph glyph-name="k" unicode="k" horiz-adv-x="558" 
d="M184 684v-583h65v-101h-229v101h63v482h-63v101h164zM185 258l138 140h-14v101h229v-101h-78l-143 -139q38 -40 74 -79.5t74 -78.5h71v-101h-116z" />
    <glyph glyph-name="l" unicode="l" 
d="M184 684v-583h65v-101h-229v101h63v482h-63v101h164z" />
    <glyph glyph-name="m" unicode="m" horiz-adv-x="916" 
d="M573 0h-230v101h63v213q0 50 -29 74t-72 24q-22 0 -40.5 -9t-33.5 -22.5t-26.5 -30t-20.5 -30.5v-219h65v-101h-229v101h63v297h-63v101h164v-34q25 20 58.5 31.5t75.5 11.5q50 0 91 -18.5t67 -55.5q26 27 65.5 50.5t99.5 23.5q39 0 73.5 -11.5t60 -34.5t40.5 -56.5
t15 -78.5v-226h66v-101h-229v101h62v213q0 49 -29.5 73t-72.5 25q-23 0 -41.5 -9t-32.5 -22.5t-25 -29t-20 -29.5l-1 -2v-219h66v-101z" />
    <glyph glyph-name="n" unicode="n" horiz-adv-x="593" 
d="M507 101h66v-101h-229v101h63v213q0 50 -29.5 74t-72.5 24q-22 0 -40 -9t-33 -22.5t-26.5 -30t-20.5 -30.5v-219h65v-101h-230v101h63v297h-63v101h165v-34q24 20 57.5 31.5t76.5 11.5q39 0 73 -11.5t59.5 -34.5t40.5 -57t15 -78v-226z" />
    <glyph glyph-name="o" unicode="o" horiz-adv-x="508" 
d="M383 248q0 36 -7 66.5t-22.5 53t-40.5 35t-60 12.5t-59 -12.5t-39.5 -34.5t-22.5 -52.5t-7 -66.5t7 -66.5t22.5 -53t39.5 -35.5t59 -13t60 12.5t40.5 35t22.5 53t7 66.5zM488 247q0 -54 -14.5 -100t-44 -80.5t-73.5 -54t-103 -19.5t-102.5 20.5t-72.5 55.5t-43.5 81.5
t-14.5 99.5q0 54 14.5 100t43.5 80.5t72.5 54t102.5 19.5t103 -20t73.5 -55t44 -81.5t14.5 -100.5z" />
    <glyph glyph-name="p" unicode="p" horiz-adv-x="549" 
d="M185 499v-1q36 6 76 6q61 0 110.5 -19t84.5 -53t54 -80.5t19 -101.5q0 -67 -23 -115t-60.5 -79t-85 -45.5t-97.5 -14.5q-39 0 -78 9v-133h64v-100l-83 -1l-63 1h-83v100h64v526h-64v101h165zM419 250q0 73 -40.5 117t-112.5 44q-20 0 -40.5 -2t-40.5 -8v-300
q36 -12 73 -12q75 0 118 41.5t43 119.5z" />
    <glyph glyph-name="q" unicode="q" horiz-adv-x="543" 
d="M523 499v-101h-64v-526h64v-101h-228v101h64v133q-39 -9 -79 -9q-50 0 -96.5 14.5t-83 45.5t-58.5 79t-22 115q0 55 18 101.5t52 80.5t83 53t110 19q19 0 38 -1t38 -4h164zM125 250q0 -78 43 -119.5t118 -41.5q37 0 73 12v300q-20 6 -40.5 8t-41.5 2q-72 0 -112 -44
t-40 -117z" />
    <glyph glyph-name="r" unicode="r" horiz-adv-x="423" 
d="M377 396q-20 8 -39.5 12t-32.5 4q-22 0 -40.5 -9t-33.5 -22.5t-26.5 -30t-20.5 -30.5v-219h65v-101h-229v101h63v297h-63v101h164v-34q25 20 58.5 31.5t75.5 11.5q17 0 39 -3t46 -10z" />
    <glyph glyph-name="s" unicode="s" horiz-adv-x="407" 
d="M20 147h72q50 -62 119 -57q40 2 58.5 17t17.5 35q-1 16 -9.5 27t-22 18.5t-31.5 12.5t-38 10l1 -1q-26 6 -53 15.5t-49.5 26t-38 41t-19.5 59.5q0 31 12.5 58.5t34 47.5t51.5 33t65 16q19 0 44.5 -2.5t43.5 -8.5v2h101v-137l-79 -1q-26 29 -51.5 42t-57.5 10
q-37 -2 -50.5 -15t-12.5 -32q1 -14 9 -23.5t21 -16.5t30 -11.5t35 -8.5q27 -8 54 -18.5t50.5 -27.5t39.5 -41.5t20 -59.5q0 -33 -14 -61t-38 -49.5t-55.5 -35t-66.5 -16.5q-20 0 -46.5 2.5t-46.5 8.5v-6h-100v147z" />
    <glyph glyph-name="t" unicode="t" horiz-adv-x="290" 
d="M62 407h-42v94h42v109h101v-109h82v-94h-82v-216q0 -20 1.5 -38t6.5 -32.5t13.5 -23.5t22.5 -10q9 -1 21.5 1.5t27.5 6.5l14 -90q-22 -4 -38 -6.5t-26 -2.5q-42 0 -70 16t-44.5 43t-23 62t-6.5 72v218z" />
    <glyph glyph-name="u" unicode="u" horiz-adv-x="593" 
d="M86 397h-66v101h230v-101h-63v-213q0 -50 29 -74t72 -24q22 0 40.5 9t33.5 22.5t26.5 30t20.5 30.5v219h-65v101h229v-101h-63v-297h63v-101h-164v34q-25 -20 -58.5 -31.5t-76.5 -11.5q-39 0 -73 11.5t-59.5 34.5t-40.5 57t-15 78v226z" />
    <glyph glyph-name="v" unicode="v" horiz-adv-x="601" 
d="M409 397h-57v101h229v-101h-70l-163 -397h-91l-166 397h-71v101h230v-101h-50l104 -257z" />
    <glyph glyph-name="w" unicode="w" horiz-adv-x="887" 
d="M93 397h-73v101h230v-101h-50q10 -32 20 -60.5l20 -57t20.5 -59t22.5 -65.5q30 85 61 172.5t61 170.5h86l123 -341l82 240h-58v101h229v-101h-69q-35 -97 -71 -198.5t-70 -198.5h-88l-123 338l-125 -338h-88z" />
    <glyph glyph-name="x" unicode="x" horiz-adv-x="539" 
d="M98 398h-74v101h229v-101h-30q14 -19 25.5 -35.5t28.5 -39.5l24.5 35t28.5 40h-42v101h229v-101h-73l-105 -146l108 -151h72v-101h-229v101h34q-14 20 -27 36.5t-30 40.5q-14 -20 -26 -35.5t-30 -41.5h38v-101h-229v101h74l112 152z" />
    <glyph glyph-name="y" unicode="y" horiz-adv-x="603" 
d="M92 398h-72v101h229v-101h-46l102 -254l101 254h-52v101h229v-101h-69l-240 -598h-138v101h69l46 112z" />
    <glyph glyph-name="z" unicode="z" horiz-adv-x="427" 
d="M149 99h157v66h101v-165h-387v87l237 314h-136v-66h-101v164h373v-86z" />
    <glyph glyph-name="braceleft" unicode="{" horiz-adv-x="227" 
d="M141 412q-2 -21 -5.5 -39.5t-19.5 -32.5q16 -14 19.5 -32.5t5.5 -38.5q0 -3 0.5 -5.5t0.5 -4.5v-185q0 -5 0.5 -9.5t0.5 -9.5q0 -11 1 -21.5t4 -19t9 -14t17 -5.5l33 -1v-87h-33q-51 0 -83.5 29t-37.5 91l-1 217q-2 23 -6.5 34.5t-25.5 11.5v102q22 0 26 12t6 35
q0 49 0.5 98t0.5 99q5 63 37.5 92t83.5 29h33v-88l-33 -1q-12 0 -19 -7t-10 -17.5t-3 -22.5v-22v-176q0 -2 -0.5 -5t-0.5 -6z" />
    <glyph glyph-name="bar" unicode="|" horiz-adv-x="128" 
d="M108 -177h-88v924h88v-924z" />
    <glyph glyph-name="braceright" unicode="}" horiz-adv-x="227" 
d="M86 269q1 20 4.5 38.5t19.5 32.5q-16 14 -19 32.5t-5 39.5q0 3 -0.5 6t-0.5 5v176v22t-3 22.5t-10 17.5t-19 7l-33 1v88h33q51 0 84 -29t37 -92l1 -198q2 -23 6 -34.5t26 -11.5v-102q-22 0 -26 -12t-6 -35q0 -54 -0.5 -108t-0.5 -108q-4 -62 -37 -91t-84 -29h-33v87l33 1
q11 0 17.5 5.5t9.5 14t4 19t1 21.5v19v185q0 2 0.5 4.5t0.5 5.5z" />
    <glyph glyph-name="exclamdown" unicode="&#xa1;" horiz-adv-x="156" 
d="M20 541q0 26 16.5 42t42.5 16q27 0 43.5 -16t16.5 -42q0 -27 -16.5 -43.5t-43.5 -16.5q-26 0 -42.5 16.5t-16.5 43.5zM134 -99h-110v519h110v-519z" />
    <glyph glyph-name="cent" unicode="&#xa2;" horiz-adv-x="476" 
d="M290 -94h-97v97q-24 4 -45 15q-66 33 -97 95.5t-31 137.5q0 81 33.5 142.5t99.5 90.5h-1q11 5 20.5 8.5t20.5 5.5v94h97v-89q16 -2 30.5 -6.5t28.5 -9.5v12h101v-148h-75q-27 31 -56 46q-13 7 -29 12v-318q8 2 17 5t16 6q14 7 32 20.5t37 35.5l64 -68q-23 -26 -46 -43
t-46 -29q-31 -14 -74 -19v-93zM123 253q0 -46 16 -86t54 -62v293q-38 -18 -54 -56.5t-16 -88.5z" />
    <glyph glyph-name="sterling" unicode="&#xa3;" horiz-adv-x="472" 
d="M241 592q29 0 55.5 -5.5t49.5 -15.5v20h101v-171h-76q-46 73 -133 73q-48 0 -69.5 -19t-21.5 -50q0 -26 13.5 -48t30.5 -43l7 -9h193v-93h-143q1 -5 1.5 -12.5t0.5 -13.5q0 -32 -11.5 -56t-28.5 -44h242v-105h-430v84q27 11 50.5 24t41 27t27.5 30.5t10 35.5q0 8 -2 15
t-6 15h-123v93h53q-12 19 -20 41.5t-8 50.5q0 78 50 127t146 49z" />
    <glyph glyph-name="yen" unicode="&#xa5;" horiz-adv-x="650" 
d="M116 130v96h157q-1 19 -1.5 40t-0.5 44h-155v99h97l-114 170h-79v105h241v-105h-35q13 -19 25 -35.5l24 -33t24 -34t26 -38.5q14 20 26 36.5t23.5 32.5t24 33t27.5 39h-37v105h241v-105h-76l-116 -170h96v-99l-155 -1q0 -22 -0.5 -39.5t-0.5 -43.5h156v-96h-156v-25h63
v-105h-235v105h67v25h-157z" />
    <glyph glyph-name="brokenbar" unicode="&#xa6;" horiz-adv-x="125" 
d="M20 420v266h85v-266h-85zM20 -1v266h85v-266h-85z" />
    <glyph glyph-name="section" unicode="&#xa7;" horiz-adv-x="399" 
d="M379 339q0 -30 -14 -56.5t-37 -44.5q19 -19 27 -42.5t8 -50.5q0 -37 -14 -65t-38 -47t-55.5 -29t-66.5 -10q-42 0 -82.5 9t-86.5 31l38 76q24 -10 41.5 -16t32.5 -9.5t29 -5t30 -1.5q37 0 58 15t21 51q0 17 -9 29t-24 20.5t-34 15.5t-38 13q-26 7 -51 16t-45 23.5
t-32.5 36t-12.5 53.5q0 38 13 64.5t36 44.5q-33 35 -33 84q0 40 15 67.5t40 45t56.5 25.5t64.5 8q35 0 64.5 -9t61.5 -23l23 -10l-31 -86q-19 12 -34 20.5t-29 14.5t-27 9t-28 3q-35 0 -59 -13.5t-24 -48.5q0 -17 26.5 -29t59.5 -23q26 -8 54 -20t51.5 -30.5t39 -44.5
t15.5 -61zM286 338q0 15 -7 25.5t-18.5 17.5t-26.5 12t-32 10h1l-35 9q-21 -4 -35.5 -17t-14.5 -41q0 -10 7 -17t19 -13t27 -11l30 -10l10 -3l14 -3.5t14 -5.5q20 8 33.5 20t13.5 27z" />
    <glyph glyph-name="dieresis" unicode="&#xa8;" horiz-adv-x="305" 
d="M20 626q0 26 16 42t42 16t42 -16t16 -42t-16 -42t-42 -16t-42 16t-16 42zM169 626q0 26 16 42t42 16t42 -16t16 -42t-16 -42t-42 -16t-42 16t-16 42z" />
    <glyph glyph-name="copyright" unicode="&#xa9;" horiz-adv-x="716" 
d="M348 528q11 0 27.5 -2t30.5 -6v9h84v-119l-55 -1q-17 20 -39 32t-47 12q-26 0 -44.5 -9.5t-30.5 -25t-18 -36t-6 -42.5t6 -43t18 -37t31 -26t45 -10q24 0 49.5 12t49.5 39l52 -55q-32 -34 -68 -52.5t-85 -18.5q-45 0 -79 16t-56.5 42.5t-34 60.5t-11.5 70q0 40 12 75
t35 60.5t56.5 40t77.5 14.5zM605 345q0 49 -18.5 94.5t-51.5 80.5t-78.5 56t-99.5 21q-53 0 -97.5 -21t-77.5 -56t-51.5 -80.5t-18.5 -94.5q0 -50 18.5 -95.5t51.5 -81t77.5 -56.5t97.5 -21q54 0 99.5 21t78.5 56t51.5 81t18.5 96zM696 346q0 -69 -23 -130.5t-66.5 -108
t-106.5 -74t-143 -27.5q-79 0 -141.5 27.5t-106 74t-66.5 108t-23 130.5q0 68 23 129.5t66.5 107.5t106 73t141.5 27q80 0 143 -27t106.5 -73t66.5 -107.5t23 -129.5z" />
    <glyph glyph-name="ordfeminine" unicode="&#xaa;" horiz-adv-x="426" 
d="M45.1855 700.748h81.5625v-5.65332q29.0723 8.88281 62.9902 8.88281q36.3398 0 66.623 -9.28613t52.0869 -27.4551q21.8047 -18.168 33.918 -45.2197q12.1133 -27.0508 12.1133 -61.7734v-181.687h51.6836v-81.5566h-133.247v19.3799
q-22.6113 -15.3428 -50.0684 -19.3799t-58.9512 -4.03711q-30.6875 0 -56.9326 7.6709q-26.2461 7.6709 -45.627 23.0137q-19.3818 15.3428 -30.2842 37.9521q-10.9014 22.6094 -10.9014 52.4873q0 35.5293 12.5166 61.3691q12.5176 25.8398 34.3213 42.7979
q21.8037 16.957 50.876 25.4355t61.374 8.47852q25.0342 0 48.0498 -0.806641q23.0156 -0.807617 45.627 -6.45996v9.68945q0 35.5303 -22.6113 54.1025t-62.1816 18.5723q-25.8418 0 -44.8193 -7.26758t-39.167 -32.2998h-58.9512v113.05zM272.916 464.151
q-19.3809 7.26758 -40.3779 8.0752q-20.9961 0.807617 -44.415 0.807617q-16.1514 0 -31.4951 -2.82617t-27.457 -9.28613t-19.7852 -17.7656q-7.67188 -11.3047 -7.67188 -28.2617q0 -24.2246 19.3818 -35.9336q19.3809 -11.709 54.1064 -11.709q28.2646 0 54.1064 10.9014
t43.6074 34.3184v51.6797z" />
    <glyph glyph-name="guillemotleft" unicode="&#xab;" horiz-adv-x="439" 
d="M163 64l-143 171l143 171h108l-136 -171q15 -19 33 -41.5l36 -45t35.5 -44.5t31.5 -40h-108zM311 64l-143 171l143 171h108l-136 -171q15 -19 33 -41.5l36 -45t35.5 -44.5t31.5 -40h-108z" />
    <glyph glyph-name="logicalnot" unicode="&#xac;" horiz-adv-x="471" 
d="M362 106v165h-342v91h431v-256h-89z" />
    <glyph glyph-name="registered" unicode="&#xae;" horiz-adv-x="716" 
d="M469 252h40v-71h-133v71h12l-32 58h-41v-58h31v-71h-133v71h30v202h-31v71h166q22 0 41 -8.5t33.5 -23t23 -34t8.5 -41.5q0 -29 -15.5 -53.5t-38.5 -39.5zM315 382h63q13 0 23.5 11t10.5 25t-10.5 25t-23.5 11h-63v-72zM606 345q0 49 -18.5 94.5t-52 80.5t-79 56
t-99.5 21q-53 0 -98 -21t-78 -56t-51.5 -80.5t-18.5 -94.5q0 -50 18.5 -95.5t51.5 -81t78 -56.5t98 -21q54 0 99.5 21t79 56t52 81t18.5 96zM696 346q0 -69 -23 -130.5t-66.5 -108t-106.5 -74t-143 -27.5q-79 0 -141.5 27.5t-106 74t-66.5 108t-23 130.5q0 68 23 129.5
t66.5 107.5t106 73t141.5 27q80 0 143 -27t106.5 -73t66.5 -107.5t23 -129.5z" />
    <glyph glyph-name="macron" unicode="&#xaf;" horiz-adv-x="309" 
d="M20 591v93h269v-93h-269z" />
    <glyph glyph-name="degree" unicode="&#xb0;" 
d="M164 574q0 14 -6.5 24t-23.5 10q-15 0 -21 -10t-6 -24t6 -22.5t21 -8.5q17 0 23.5 8.5t6.5 22.5zM249 574q0 -46 -29 -78t-86 -32q-26 0 -47 9t-36 24t-23 35t-8 42q0 48 30.5 79t83.5 31q57 0 86 -31.5t29 -78.5z" />
    <glyph glyph-name="plusminus" unicode="&#xb1;" horiz-adv-x="484" 
d="M192 95v122h-172v97h172v123h97v-123h175v-97h-175v-122h-97zM20 0v88h444v-88h-444z" />
    <glyph glyph-name="twosuperior" unicode="&#xb2;" horiz-adv-x="289" 
d="M24.5205 354.815q34.8115 37.7227 61.0684 66.8994q26.2559 29.1758 45.7266 51.2793q19.4707 22.1025 32.1562 38.3115t20.3564 28.5869q7.66992 12.3779 10.915 21.5137t3.24512 17.3877q0 26.5234 -16.8154 44.7959q-16.8154 18.2715 -46.9072 18.2715
q-20.0605 0 -35.4014 -9.72559q-15.3408 -9.72461 -24.1914 -26.8184h-54.8721v96.665h59.002v-11.7891q25.3721 11.7891 55.4629 11.7891q28.3213 0 51.0371 -9.13672q22.7168 -9.13574 38.9424 -25.9336q16.2256 -16.7988 24.7812 -39.7861
q8.55469 -22.9873 8.55469 -50.1006q0 -18.2715 -6.78516 -36.543q-6.78516 -18.2725 -17.4053 -35.3652q-10.6211 -17.0938 -23.0117 -32.7129t-23.6006 -27.9971l-50.7422 -56.584l-27.1416 -30.0605h100.305v39.4912h59.5928v-97.2539h-244.271v54.8154z" />
    <glyph glyph-name="threesuperior" unicode="&#xb3;" horiz-adv-x="308" 
d="M287.725 420.402q0 -29.3945 -11.4346 -52.0283q-11.4355 -22.6338 -30.7881 -37.625q-19.3516 -14.9912 -45.1543 -22.6338t-53.9512 -7.64258q-38.1172 0 -67.4395 13.2275q-29.3203 13.2275 -59.2285 43.7979l47.5 40.5645q17.0068 -22.3398 37.2383 -32.04
q20.2324 -9.7002 41.9297 -9.7002q37.5312 0 58.9355 16.7549t21.4043 47.3252q0 32.9219 -26.3887 49.0889t-73.8896 16.167h-23.457v58.7891h24.6299q35.1855 0 58.3496 14.4033t23.1641 42.6221q0 22.3398 -18.7656 36.7432t-45.7422 14.4033
q-24.6289 0 -41.0488 -8.23047t-31.668 -25.8672l-43.9814 -0.587891v87.0078h59.2295v-5.29102q12.3145 4.11523 26.3887 6.4668t30.4941 2.35156q26.3887 0 49.8457 -6.76074t40.4639 -19.9883t26.9756 -33.2158t9.96875 -46.4434q0 -27.6309 -12.0215 -48.501
t-32.5469 -34.3916q28.1484 -13.5215 44.5684 -37.3311t16.4199 -61.4346z" />
    <glyph glyph-name="acute" unicode="&#xb4;" 
d="M20 543l117 141h112l-119 -141h-110z" />
    <glyph glyph-name="mu" unicode="&#xb5;" horiz-adv-x="391" 
d="M280 0l-6 31q-17 -13 -39.5 -24t-51.5 -11q-19 0 -35.5 4t-33.5 11v-166h-94v620h94v-272q0 -23 3 -42.5t10.5 -34t21 -22.5t35.5 -8q13 0 25 7.5t22 19t18 25.5t13 26v301h97v-346q0 -21 3 -49t9 -70h-91z" />
    <glyph glyph-name="paragraph" unicode="&#xb6;" horiz-adv-x="415" 
d="M297 -4v586h-29v-586h-98v365q-44 4 -73 20t-46 38t-24 48t-7 51q0 27 6.5 56.5t26.5 53.5t56 39.5t96 15.5h190v-687h-98z" />
    <glyph glyph-name="periodcentered" unicode="&#xb7;" horiz-adv-x="163" 
d="M20 58q0 26 17 44t44 18t44.5 -18t17.5 -44q0 -27 -17.5 -44t-44.5 -17t-44 17t-17 44z" />
    <glyph glyph-name="cedilla" unicode="&#xb8;" horiz-adv-x="255" 
d="M110 -154q-22 0 -44.5 7.5t-45.5 18.5l28 78q16 -9 33 -16t28 -7q18 0 31 11t13 37q0 11 -3.5 30t-8.5 42h81q5 -18 9 -38.5t4 -37.5q0 -60 -33.5 -92.5t-91.5 -32.5z" />
    <glyph glyph-name="onesuperior" unicode="&#xb9;" horiz-adv-x="173" 
d="M114.869 696.982v-338.363h37.7529v-58.6191h-133.006v58.6191h36.5908v279.744h-36.5908v58.6191h95.2529z" />
    <glyph glyph-name="ordmasculine" unicode="&#xba;" horiz-adv-x="408" 
d="M305.159 499.098q0 28.3203 -5.50488 52.3135q-5.50391 23.9941 -17.6914 41.6943q-12.1885 17.7002 -31.8457 27.5342q-19.6582 9.83301 -47.1797 9.83301q-27.5205 0 -46.3926 -9.83301q-18.8711 -9.83398 -31.0596 -27.1406q-12.1875 -17.3066 -17.6914 -41.3008
q-5.50488 -23.9941 -5.50488 -52.3145t5.50488 -52.3145q5.50391 -23.9932 17.6914 -41.6943q12.1885 -17.7002 31.0596 -27.9268q18.8721 -10.2266 46.3926 -10.2266q27.5215 0 47.1797 9.83301q19.6572 9.83398 31.8457 27.5342q12.1875 17.7002 17.6914 41.6943
q5.50488 23.9932 5.50488 52.3145zM387.723 498.311q0 -42.4805 -11.4023 -78.668q-11.4014 -36.1875 -34.5977 -63.3281t-57.7939 -42.4805q-34.5986 -15.3408 -80.9912 -15.3408t-80.5967 16.127q-34.2051 16.127 -57.0078 43.6611q-22.8037 27.5332 -34.2051 64.1143
t-11.4014 78.2754q0 42.4805 11.4014 78.668t34.2051 63.3281q22.8027 27.1406 57.0078 42.4805q34.2041 15.3408 80.5967 15.3408t80.9912 -15.7344q34.5977 -15.7334 57.7939 -43.2676q23.1963 -27.5332 34.5977 -64.1143q11.4023 -36.5811 11.4023 -79.0615z" />
    <glyph glyph-name="guillemotright" unicode="&#xbb;" horiz-adv-x="451" 
d="M285 409l146 -175l-146 -175h-112l126 175l-43 58l-83 117h112zM141 409l146 -175l-146 -175h-112l125 175l-70 98l-25 36l-39 41h121z" />
    <glyph glyph-name="onequarter" unicode="&#xbc;" horiz-adv-x="542" 
d="M59 0l262 698h93l-263 -698h-92zM521.707 59.1484v-59.1484h-133.441v59.1484h36.8721v42.166h-181.433v43.3369l190.797 255.336h50.333v-238.938h33.9453v-59.7344h-33.9453v-42.166h36.8721zM425.138 161.049v32.5029t-0.292969 29.5742
q-0.291992 14.6406 -0.291992 30.4531v35.1377l-95.3984 -127.668h95.9834zM114.869 696.982v-338.363h37.7529v-58.6191h-133.006v58.6191h36.5908v279.744h-36.5908v58.6191h95.2529z" />
    <glyph glyph-name="onehalf" unicode="&#xbd;" horiz-adv-x="602" 
d="M339.389 54.543q34.5352 37.5352 60.582 66.5664t45.3623 51.0244q19.3164 21.9932 31.9004 38.1221q12.585 16.1279 20.1943 28.4443t10.8281 21.4062q3.21973 9.09082 3.21973 17.3018q0 26.3916 -16.6816 44.5732q-16.6826 18.1807 -46.5342 18.1807
q-19.9004 0 -35.1191 -9.67676t-23.999 -26.6855h-54.4346v96.1846h58.5322v-11.7305q25.1689 11.7305 55.0205 11.7305q28.0957 0 50.6309 -9.09082t38.6318 -25.8057t24.584 -39.5879t8.4873 -49.8516q0 -18.1807 -6.73145 -36.3613q-6.73145 -18.1816 -17.2676 -35.1895
q-10.5361 -17.0088 -22.8271 -32.5498q-12.292 -15.542 -23.4131 -27.8584l-50.3389 -56.3027l-26.9248 -29.9111h99.5059v39.2949h59.1182v-96.7705h-242.326v54.543zM59 0l262 698h93l-263 -698h-92zM114.869 696.982v-338.363h37.7529v-58.6191h-133.006v58.6191h36.5908
v279.744h-36.5908v58.6191h95.2529z" />
    <glyph glyph-name="threequarters" unicode="&#xbe;" horiz-adv-x="652" 
d="M276.206 413.698q0 -27.9541 -10.9238 -49.4785q-10.9229 -21.5244 -29.4092 -35.7812t-43.1338 -21.5244q-24.6475 -7.26855 -51.5361 -7.26855q-36.4121 0 -64.4209 12.5791q-28.0098 12.5801 -56.5791 41.6523l45.375 38.5762q16.2451 -21.2451 35.5713 -30.4697
q19.3262 -9.22559 40.0537 -9.22559q35.8516 0 56.2979 15.9346q20.4463 15.9336 20.4463 45.0059q0 31.3086 -25.208 46.6836q-25.208 15.374 -70.583 15.374h-22.4072v55.9082h23.5283q33.6104 0 55.7373 13.6982q22.127 13.6973 22.127 40.5332
q0 21.2451 -17.9258 34.9424t-43.6934 13.6973q-23.5283 0 -39.2129 -7.82617q-15.6855 -7.82812 -30.25 -24.5996l-42.0137 -0.55957v82.7441h56.5781v-5.03223q11.7646 3.91406 25.208 6.15039q13.4453 2.23633 29.1299 2.23633q25.208 0 47.6152 -6.42969
t38.6523 -19.0088t25.7686 -31.5879t9.52344 -44.167q0 -26.2773 -11.4844 -46.125q-11.4834 -19.8477 -31.0898 -32.7061q26.8887 -12.8584 42.5742 -35.502q15.6846 -22.6426 15.6846 -58.4238zM169 0l262 698h93l-263 -698h-92zM631.707 59.1484v-59.1484h-133.441
v59.1484h36.8721v42.166h-181.433v43.3369l190.797 255.336h50.333v-238.938h33.9453v-59.7344h-33.9453v-42.166h36.8721zM535.138 161.049v32.5029t-0.292969 29.5742q-0.291992 14.6406 -0.291992 30.4531v35.1377l-95.3984 -127.668h95.9834z" />
    <glyph glyph-name="questiondown" unicode="&#xbf;" horiz-adv-x="416" 
d="M281 521q0 -25 -17.5 -43t-45.5 -18q-25 0 -43 18t-18 43q0 28 18 45.5t43 17.5q28 0 45.5 -17.5t17.5 -45.5zM396 -98h-100v13q-20 -7 -42 -11t-46 -4q-37 0 -71 10.5t-60 32.5t-41.5 55.5t-15.5 78.5q0 31 13.5 60t35.5 55.5t48.5 49t52.5 40.5v158h103l-3 -219
q-39 -24 -66 -42t-44.5 -34t-25.5 -32t-8 -36q0 -39 24.5 -58.5t62.5 -19.5q34 0 58.5 14.5t49.5 44.5h75v-156z" />
    <glyph glyph-name="Agrave" unicode="&#xc0;" horiz-adv-x="711" 
d="M464 201h-217q-10 -26 -17 -45t-17 -48h53v-108h-246v108h72q22 63 43.5 122.5l43 119t42.5 119.5t44 123h-60v108h201l210 -592h75v-108h-246v108h53zM284 308h142q-10 29 -18 52t-16 45.5t-17 46.5t-20 56zM359 747l-118 141h111l118 -141h-111z" />
    <glyph glyph-name="Aacute" unicode="&#xc1;" horiz-adv-x="711" 
d="M464 201h-217q-10 -26 -17 -45t-17 -48h53v-108h-246v108h72q22 63 43.5 122.5l43 119t42.5 119.5t44 123h-60v108h201l210 -592h75v-108h-246v108h53zM284 308h142q-10 29 -18 52t-16 45.5t-17 46.5t-20 56zM241 747l117 141h112l-119 -141h-110z" />
    <glyph glyph-name="Acircumflex" unicode="&#xc2;" horiz-adv-x="711" 
d="M464 201h-217q-10 -26 -17 -45t-17 -48h53v-108h-246v108h72q22 63 43.5 122.5l43 119t42.5 119.5t44 123h-60v108h201l210 -592h75v-108h-246v108h53zM284 308h142q-10 29 -18 52t-16 45.5t-17 46.5t-20 56zM189 709l127 179h78l127 -179h-100l-66 85l-66 -85h-100z" />
    <glyph glyph-name="Atilde" unicode="&#xc3;" horiz-adv-x="711" 
d="M464 201h-217q-10 -26 -17 -45t-17 -48h53v-108h-246v108h72q22 63 43.5 122.5l43 119t42.5 119.5t44 123h-60v108h201l210 -592h75v-108h-246v108h53zM284 308h142q-10 29 -18 52t-16 45.5t-17 46.5t-20 56zM502 799q-29 -23 -47.5 -32.5t-42.5 -9.5q-13 0 -28.5 3.5
t-42.5 17.5q-31 16 -46 16q-13 0 -33 -11t-54 -40v109q50 42 91 42q14 0 30 -4t44 -18q29 -16 44 -16q11 0 33.5 12t51.5 34v-103z" />
    <glyph glyph-name="Adieresis" unicode="&#xc4;" horiz-adv-x="711" 
d="M464 201h-217q-10 -26 -17 -45t-17 -48h53v-108h-246v108h72q22 63 43.5 122.5l43 119t42.5 119.5t44 123h-60v108h201l210 -592h75v-108h-246v108h53zM284 308h142q-10 29 -18 52t-16 45.5t-17 46.5t-20 56zM223 830q0 26 16 42t42 16t42 -16t16 -42t-16 -42t-42 -16
t-42 16t-16 42zM372 830q0 26 16 42t42 16t42 -16t16 -42t-16 -42t-42 -16t-42 16t-16 42z" />
    <glyph glyph-name="Aring" unicode="&#xc5;" horiz-adv-x="711" 
d="M437 781q0 -52 -34 -81h3l210 -592h75v-108h-246v108h53l-34 93h-217q-10 -26 -17 -45t-17 -48h53v-108h-246v108h72l173 484h-60v108h43q-34 29 -34 81q0 46 28.5 76.5t82.5 30.5q55 0 83.5 -31t28.5 -76zM284 308h142q-10 29 -18 52t-16 45.5t-17 46.5t-20 56zM361 781
q0 17 -8.5 28t-27.5 11t-26.5 -11t-7.5 -28q0 -16 7.5 -27.5t26.5 -11.5t27.5 11t8.5 28z" />
    <glyph glyph-name="AE" unicode="&#xc6;" horiz-adv-x="937" 
d="M806 530v62h-217v-175h79v65h108v-236h-108l1 63h-80v-201h220v62h108v-170h-437v309h-141l-120 -201h47v-108h-246v108l75 -3q38 64 73.5 123.5t70 118.5t69.5 119t73 125h-53v108l170 1h416v-170h-108zM480 412v136q-20 -32 -39.5 -64.5t-41.5 -71.5h81z" />
    <glyph glyph-name="Ccedilla" unicode="&#xc7;" horiz-adv-x="612" 
d="M278 -154q-22 0 -44.5 7.5t-45.5 18.5l28 78q16 -9 33 -16t28 -7q18 0 31 11t13 37q0 5 -0.5 10t-1.5 12q-77 2 -133 33t-93 81t-55 113t-18 130q0 69 19 133t57.5 113.5t97 79t138.5 29.5q82 0 144 -32l3 -1v24h108v-180h-81q-39 49 -80.5 65t-91.5 16q-53 0 -92 -20.5
t-64.5 -55t-37.5 -79.5t-12 -93t12 -93t37.5 -80t64.5 -56t92 -21q49 0 92.5 19.5t86.5 72.5l79 -70q-39 -47 -86 -78.5t-106 -43.5q3 -17 3 -32q0 -60 -33.5 -92.5t-91.5 -32.5z" />
    <glyph glyph-name="Egrave" unicode="&#xc8;" horiz-adv-x="573" 
d="M442 530v62h-245v-175h107v65h108v-236h-108v63h-107v-201h248v62h108v-170h-531v108h68q0 124 -0.5 241t-0.5 243h-69v108h530v-170h-108zM290 747l-118 141h111l118 -141h-111z" />
    <glyph glyph-name="Eacute" unicode="&#xc9;" horiz-adv-x="573" 
d="M442 530v62h-245v-175h107v65h108v-236h-108v63h-107v-201h248v62h108v-170h-531v108h68q0 124 -0.5 241t-0.5 243h-69v108h530v-170h-108zM172 747l117 141h112l-119 -141h-110z" />
    <glyph glyph-name="Ecircumflex" unicode="&#xca;" horiz-adv-x="573" 
d="M442 530v62h-245v-175h107v65h108v-236h-108v63h-107v-201h248v62h108v-170h-531v108h68q0 124 -0.5 241t-0.5 243h-69v108h530v-170h-108zM120 709l127 179h78l127 -179h-100l-66 85l-66 -85h-100z" />
    <glyph glyph-name="Edieresis" unicode="&#xcb;" horiz-adv-x="573" 
d="M442 530v62h-245v-175h107v65h108v-236h-108v63h-107v-201h248v62h108v-170h-531v108h68q0 124 -0.5 241t-0.5 243h-69v108h530v-170h-108zM154 830q0 26 16 42t42 16t42 -16t16 -42t-16 -42t-42 -16t-42 16t-16 42zM303 830q0 26 16 42t42 16t42 -16t16 -42t-16 -42
t-42 -16t-42 16t-16 42z" />
    <glyph glyph-name="Igrave" unicode="&#xcc;" horiz-adv-x="285" 
d="M89 592h-69v108h245v-108h-69v-484h67v-108h-241v108h67v484zM146 747l-118 141h111l118 -141h-111z" />
    <glyph glyph-name="Iacute" unicode="&#xcd;" horiz-adv-x="285" 
d="M89 592h-69v108h245v-108h-69v-484h67v-108h-241v108h67v484zM28 747l117 141h112l-119 -141h-110z" />
    <glyph glyph-name="Icircumflex" unicode="&#xce;" horiz-adv-x="285" 
d="M89 592h-69v108h245v-108h-69v-484h67v-108h-241v108h67v484zM-22 709l127 179h78l127 -179h-100l-66 85l-66 -85h-100z" />
    <glyph glyph-name="Idieresis" unicode="&#xcf;" horiz-adv-x="285" 
d="M89 592h-69v108h245v-108h-69v-484h67v-108h-241v108h67v484zM11 830q0 26 16 42t42 16t42 -16t16 -42t-16 -42t-42 -16t-42 16t-16 42zM160 830q0 26 16 42t42 16t42 -16t16 -42t-16 -42t-42 -16t-42 16t-16 42z" />
    <glyph glyph-name="Ntilde" unicode="&#xd1;" horiz-adv-x="744" 
d="M552 592h-68v108h240v-108h-66v-592h-87l-377 499v-361l2 -30h67v-108h-240v108h65v484h-68v108h153l379 -499v391zM519 799q-29 -23 -47.5 -32.5t-42.5 -9.5q-13 0 -28.5 3.5t-42.5 17.5q-31 16 -46 16q-13 0 -33 -11t-54 -40v109q50 42 91 42q14 0 30 -4t44 -18
q29 -16 44 -16q11 0 33.5 12t51.5 34v-103z" />
    <glyph glyph-name="Ograve" unicode="&#xd2;" horiz-adv-x="695" 
d="M566 353q0 49 -14 94t-41.5 79.5t-68.5 54.5t-95 20t-94.5 -20t-68 -54t-41.5 -79t-14 -95t14 -95.5t41.5 -80t68 -54.5t94.5 -20t95 20t68.5 54t41.5 79.5t14 96.5zM675 354q0 -70 -20.5 -135t-62 -114.5t-103 -79.5t-142.5 -30t-142 30t-102.5 79.5t-62 114.5
t-20.5 135q0 69 20.5 133.5t62 113.5t102.5 78.5t142 29.5t142.5 -29.5t103 -78.5t62 -113.5t20.5 -133.5zM351 747l-118 141h111l118 -141h-111z" />
    <glyph glyph-name="Oacute" unicode="&#xd3;" horiz-adv-x="695" 
d="M566 353q0 49 -14 94t-41.5 79.5t-68.5 54.5t-95 20t-94.5 -20t-68 -54t-41.5 -79t-14 -95t14 -95.5t41.5 -80t68 -54.5t94.5 -20t95 20t68.5 54t41.5 79.5t14 96.5zM675 354q0 -70 -20.5 -135t-62 -114.5t-103 -79.5t-142.5 -30t-142 30t-102.5 79.5t-62 114.5
t-20.5 135q0 69 20.5 133.5t62 113.5t102.5 78.5t142 29.5t142.5 -29.5t103 -78.5t62 -113.5t20.5 -133.5zM233 747l117 141h112l-119 -141h-110z" />
    <glyph glyph-name="Ocircumflex" unicode="&#xd4;" horiz-adv-x="695" 
d="M566 353q0 49 -14 94t-41.5 79.5t-68.5 54.5t-95 20t-94.5 -20t-68 -54t-41.5 -79t-14 -95t14 -95.5t41.5 -80t68 -54.5t94.5 -20t95 20t68.5 54t41.5 79.5t14 96.5zM675 354q0 -70 -20.5 -135t-62 -114.5t-103 -79.5t-142.5 -30t-142 30t-102.5 79.5t-62 114.5
t-20.5 135q0 69 20.5 133.5t62 113.5t102.5 78.5t142 29.5t142.5 -29.5t103 -78.5t62 -113.5t20.5 -133.5zM181 709l127 179h78l127 -179h-100l-66 85l-66 -85h-100z" />
    <glyph glyph-name="Otilde" unicode="&#xd5;" horiz-adv-x="695" 
d="M566 353q0 49 -14 94t-41.5 79.5t-68.5 54.5t-95 20t-94.5 -20t-68 -54t-41.5 -79t-14 -95t14 -95.5t41.5 -80t68 -54.5t94.5 -20t95 20t68.5 54t41.5 79.5t14 96.5zM675 354q0 -70 -20.5 -135t-62 -114.5t-103 -79.5t-142.5 -30t-142 30t-102.5 79.5t-62 114.5
t-20.5 135q0 69 20.5 133.5t62 113.5t102.5 78.5t142 29.5t142.5 -29.5t103 -78.5t62 -113.5t20.5 -133.5zM494 799q-29 -23 -47.5 -32.5t-42.5 -9.5q-13 0 -28.5 3.5t-42.5 17.5q-31 16 -46 16q-13 0 -33 -11t-54 -40v109q50 42 91 42q14 0 30 -4t44 -18q29 -16 44 -16
q11 0 33.5 12t51.5 34v-103z" />
    <glyph glyph-name="Odieresis" unicode="&#xd6;" horiz-adv-x="695" 
d="M566 353q0 49 -14 94t-41.5 79.5t-68.5 54.5t-95 20t-94.5 -20t-68 -54t-41.5 -79t-14 -95t14 -95.5t41.5 -80t68 -54.5t94.5 -20t95 20t68.5 54t41.5 79.5t14 96.5zM675 354q0 -70 -20.5 -135t-62 -114.5t-103 -79.5t-142.5 -30t-142 30t-102.5 79.5t-62 114.5
t-20.5 135q0 69 20.5 133.5t62 113.5t102.5 78.5t142 29.5t142.5 -29.5t103 -78.5t62 -113.5t20.5 -133.5zM215 830q0 26 16 42t42 16t42 -16t16 -42t-16 -42t-42 -16t-42 16t-16 42zM364 830q0 26 16 42t42 16t42 -16t16 -42t-16 -42t-42 -16t-42 16t-16 42z" />
    <glyph glyph-name="multiply" unicode="&#xd7;" horiz-adv-x="417" 
d="M80 442l128 -126l124 127l62 -62l-124 -127l127 -125l-62 -62l-126 125l-126 -126l-63 60l126 128l-126 125z" />
    <glyph glyph-name="Oslash" unicode="&#xd8;" horiz-adv-x="695" 
d="M675 354q0 -70 -20.5 -135t-62 -114.5t-103 -79.5t-142.5 -30q-31 0 -55 3l-29 -93h-92l36 119q-1 0 -1.5 1t-1.5 1q-45 22 -79.5 56.5t-57.5 77t-35 92t-12 102.5q0 69 20.5 133.5t62 113.5t102.5 78.5t142 29.5q18 0 34.5 -1t33.5 -5q7 22 15 47t13 45h93l-37 -121
q43 -23 76 -56.5t55.5 -75t33.5 -89.5t11 -99zM347 601q-54 0 -94.5 -20t-68 -54t-41.5 -79t-14 -95q0 -73 28 -132t83 -91l144 469q-10 2 -18 2h-19zM566 353q0 51 -14 95t-43 79q-10 13 -21 23t-22 18q-36 -120 -71 -231.5t-71 -232.5q6 -1 11.5 -1h11.5q54 0 95 20
t68.5 54t41.5 79.5t14 96.5z" />
    <glyph glyph-name="Ugrave" unicode="&#xd9;" horiz-adv-x="746" 
d="M89 592h-69v108h246v-108h-69v-345q0 -36 12 -62.5t33 -44t49 -26.5t60 -12q3 -1 6 -1h31q3 0 6 1q32 3 60 12t49 26.5t33.5 43.5t12.5 63v345h-69v108h246v-108h-69v-356q-2 -51 -20 -92.5t-49.5 -72t-74 -50t-93.5 -25.5l-35 -3h-13q-11 0 -23.5 0.5t-23.5 2.5
q-50 7 -92 26t-73.5 50t-50 72t-20.5 92v356zM376 747l-118 141h111l118 -141h-111z" />
    <glyph glyph-name="Uacute" unicode="&#xda;" horiz-adv-x="746" 
d="M89 592h-69v108h246v-108h-69v-345q0 -36 12 -62.5t33 -44t49 -26.5t60 -12q3 -1 6 -1h31q3 0 6 1q32 3 60 12t49 26.5t33.5 43.5t12.5 63v345h-69v108h246v-108h-69v-356q-2 -51 -20 -92.5t-49.5 -72t-74 -50t-93.5 -25.5l-35 -3h-13q-11 0 -23.5 0.5t-23.5 2.5
q-50 7 -92 26t-73.5 50t-50 72t-20.5 92v356zM258 747l117 141h112l-119 -141h-110z" />
    <glyph glyph-name="Ucircumflex" unicode="&#xdb;" horiz-adv-x="746" 
d="M89 592h-69v108h246v-108h-69v-345q0 -36 12 -62.5t33 -44t49 -26.5t60 -12q3 -1 6 -1h31q3 0 6 1q32 3 60 12t49 26.5t33.5 43.5t12.5 63v345h-69v108h246v-108h-69v-356q-2 -51 -20 -92.5t-49.5 -72t-74 -50t-93.5 -25.5l-35 -3h-13q-11 0 -23.5 0.5t-23.5 2.5
q-50 7 -92 26t-73.5 50t-50 72t-20.5 92v356zM207 709l127 179h78l127 -179h-100l-66 85l-66 -85h-100z" />
    <glyph glyph-name="Udieresis" unicode="&#xdc;" horiz-adv-x="746" 
d="M89 592h-69v108h246v-108h-69v-345q0 -36 12 -62.5t33 -44t49 -26.5t60 -12q3 -1 6 -1h31q3 0 6 1q32 3 60 12t49 26.5t33.5 43.5t12.5 63v345h-69v108h246v-108h-69v-356q-2 -51 -20 -92.5t-49.5 -72t-74 -50t-93.5 -25.5l-35 -3h-13q-11 0 -23.5 0.5t-23.5 2.5
q-50 7 -92 26t-73.5 50t-50 72t-20.5 92v356zM240 830q0 26 16 42t42 16t42 -16t16 -42t-16 -42t-42 -16t-42 16t-16 42zM389 830q0 26 16 42t42 16t42 -16t16 -42t-16 -42t-42 -16t-42 16t-16 42z" />
    <glyph glyph-name="Yacute" unicode="&#xdd;" horiz-adv-x="663" 
d="M99 592h-79v108h246v-108h-36q27 -38 50 -70t52 -74q14 20 26 37t24 33.5t25 34t28 39.5h-38v108h246v-108h-77l-179 -264q0 -59 -0.5 -109.5t-0.5 -110.5h64v-108h-240v108h68v219zM217 747l117 141h112l-119 -141h-110z" />
    <glyph glyph-name="germandbls" unicode="&#xdf;" horiz-adv-x="523" 
d="M503 186q0 -66 -25 -108.5t-65 -67t-90 -34.5t-99 -10v94q31 0 63.5 7t59.5 22t44 39.5t17 60.5q0 31 -17 52t-41 34.5t-50.5 21t-44.5 11.5q-6 1 -16.5 3t-14.5 3v86q28 11 49.5 20t36 22t22 31t7.5 47q0 18 -8 30.5t-20 21t-26 12t-25 3.5q-36 0 -60 -20.5t-24 -55.5
v-511h-156v101h59v399q0 39 10.5 72t32 56.5t56 37t82.5 13.5q37 0 69.5 -11.5t56.5 -33t37.5 -51t13.5 -65.5t-6 -59.5t-16.5 -39t-24.5 -26.5t-31 -21q44 -13 67 -27h-1q31 -19 54.5 -56t23.5 -103z" />
    <glyph glyph-name="agrave" unicode="&#xe0;" horiz-adv-x="518" 
d="M51 500h101v-7q36 11 78 11q45 0 82.5 -11.5t64.5 -34t42 -56t15 -76.5v-225h64v-101h-165v24q-28 -19 -62 -24t-73 -5q-38 0 -70.5 9.5t-56.5 28.5t-37.5 47t-13.5 65q0 44 15.5 76t42.5 53t63 31.5t76 10.5q31 0 59.5 -1t56.5 -8v12q0 44 -28 67t-77 23q-32 0 -55.5 -9
t-48.5 -40h-73v140zM333 207q-24 9 -50 10t-55 1q-20 0 -39 -3.5t-34 -11.5t-24.5 -22t-9.5 -35q0 -30 24 -44.5t67 -14.5q35 0 67 13.5t54 42.5v64zM262 543l-118 141h111l118 -141h-111z" />
    <glyph glyph-name="aacute" unicode="&#xe1;" horiz-adv-x="518" 
d="M51 500h101v-7q36 11 78 11q45 0 82.5 -11.5t64.5 -34t42 -56t15 -76.5v-225h64v-101h-165v24q-28 -19 -62 -24t-73 -5q-38 0 -70.5 9.5t-56.5 28.5t-37.5 47t-13.5 65q0 44 15.5 76t42.5 53t63 31.5t76 10.5q31 0 59.5 -1t56.5 -8v12q0 44 -28 67t-77 23q-32 0 -55.5 -9
t-48.5 -40h-73v140zM333 207q-24 9 -50 10t-55 1q-20 0 -39 -3.5t-34 -11.5t-24.5 -22t-9.5 -35q0 -30 24 -44.5t67 -14.5q35 0 67 13.5t54 42.5v64zM144 543l117 141h112l-119 -141h-110z" />
    <glyph glyph-name="acircumflex" unicode="&#xe2;" horiz-adv-x="518" 
d="M51 500h101v-7q36 11 78 11q45 0 82.5 -11.5t64.5 -34t42 -56t15 -76.5v-225h64v-101h-165v24q-28 -19 -62 -24t-73 -5q-38 0 -70.5 9.5t-56.5 28.5t-37.5 47t-13.5 65q0 44 15.5 76t42.5 53t63 31.5t76 10.5q31 0 59.5 -1t56.5 -8v12q0 44 -28 67t-77 23q-32 0 -55.5 -9
t-48.5 -40h-73v140zM333 207q-24 9 -50 10t-55 1q-20 0 -39 -3.5t-34 -11.5t-24.5 -22t-9.5 -35q0 -30 24 -44.5t67 -14.5q35 0 67 13.5t54 42.5v64zM53 518l127 179h78l127 -179h-100l-66 85l-66 -85h-100z" />
    <glyph glyph-name="atilde" unicode="&#xe3;" horiz-adv-x="518" 
d="M51 500h101v-7q36 11 78 11q45 0 82.5 -11.5t64.5 -34t42 -56t15 -76.5v-225h64v-101h-165v24q-28 -19 -62 -24t-73 -5q-38 0 -70.5 9.5t-56.5 28.5t-37.5 47t-13.5 65q0 44 15.5 76t42.5 53t63 31.5t76 10.5q31 0 59.5 -1t56.5 -8v12q0 44 -28 67t-77 23q-32 0 -55.5 -9
t-48.5 -40h-73v140zM333 207q-24 9 -50 10t-55 1q-20 0 -39 -3.5t-34 -11.5t-24.5 -22t-9.5 -35q0 -30 24 -44.5t67 -14.5q35 0 67 13.5t54 42.5v64zM406 595q-29 -23 -47.5 -32.5t-42.5 -9.5q-13 0 -28.5 3.5t-42.5 17.5q-31 16 -46 16q-13 0 -33 -11t-54 -40v109
q50 42 91 42q14 0 30 -4t44 -18q29 -16 44 -16q11 0 33.5 12t51.5 34v-103z" />
    <glyph glyph-name="adieresis" unicode="&#xe4;" horiz-adv-x="518" 
d="M51 500h101v-7q36 11 78 11q45 0 82.5 -11.5t64.5 -34t42 -56t15 -76.5v-225h64v-101h-165v24q-28 -19 -62 -24t-73 -5q-38 0 -70.5 9.5t-56.5 28.5t-37.5 47t-13.5 65q0 44 15.5 76t42.5 53t63 31.5t76 10.5q31 0 59.5 -1t56.5 -8v12q0 44 -28 67t-77 23q-32 0 -55.5 -9
t-48.5 -40h-73v140zM333 207q-24 9 -50 10t-55 1q-20 0 -39 -3.5t-34 -11.5t-24.5 -22t-9.5 -35q0 -30 24 -44.5t67 -14.5q35 0 67 13.5t54 42.5v64zM126 626q0 26 16 42t42 16t42 -16t16 -42t-16 -42t-42 -16t-42 16t-16 42zM275 626q0 26 16 42t42 16t42 -16t16 -42
t-16 -42t-42 -16t-42 16t-16 42z" />
    <glyph glyph-name="aring" unicode="&#xe5;" horiz-adv-x="518" 
d="M51 500h101v-7q36 11 78 11q45 0 82.5 -11.5t64.5 -34t42 -56t15 -76.5v-225h64v-101h-165v24q-28 -19 -62 -24t-73 -5q-38 0 -70.5 9.5t-56.5 28.5t-37.5 47t-13.5 65q0 44 15.5 76t42.5 53t63 31.5t76 10.5q31 0 59.5 -1t56.5 -8v12q0 44 -28 67t-77 23q-32 0 -55.5 -9
t-48.5 -40h-73v140zM333 207q-24 9 -50 10t-55 1q-20 0 -39 -3.5t-34 -11.5t-24.5 -22t-9.5 -35q0 -30 24 -44.5t67 -14.5q35 0 67 13.5t54 42.5v64zM264 617q0 17 -8.5 28t-27.5 11t-26.5 -11t-7.5 -28q0 -16 7.5 -27.5t26.5 -11.5t27.5 11t8.5 28zM340 617
q0 -46 -28.5 -76.5t-83.5 -30.5q-54 0 -82.5 31t-28.5 76q0 46 28.5 76.5t82.5 30.5q55 0 83.5 -31t28.5 -76z" />
    <glyph glyph-name="ae" unicode="&#xe6;" horiz-adv-x="1008" 
d="M51 500h101v-7q36 11 78 11q45 0 82.5 -11.5t64.5 -34t42 -56t15 -76.5v-225h64v-101h-165v24q-28 -19 -62 -24t-73 -5q-38 0 -70.5 9.5t-56.5 28.5t-37.5 47t-13.5 65q0 44 15.5 76t42.5 53t63 31.5t76 10.5q31 0 59.5 -1t56.5 -8v12q0 44 -28 67t-77 23q-32 0 -55.5 -9
t-48.5 -40h-73v140zM333 207q-24 9 -50 10t-55 1q-20 0 -39 -3.5t-34 -11.5t-24.5 -22t-9.5 -35q0 -30 24 -44.5t67 -14.5q35 0 67 13.5t54 42.5v64zM982 86q-42 -45 -90 -67.5t-113 -22.5q-60 0 -105 20.5t-75.5 55.5t-45.5 80t-15 95q0 66 18 114t49.5 80t72.5 47.5
t88 15.5q111 0 167 -71.5t54 -209.5h-344q7 -63 43.5 -98.5t96.5 -35.5q38 0 70.5 15t63.5 49zM885 314q-5 45 -33 71.5t-84 26.5q-55 -2 -81 -28t-39 -70h237z" />
    <glyph glyph-name="ccedilla" unicode="&#xe7;" horiz-adv-x="476" 
d="M210 -154q-22 0 -44.5 7.5t-45.5 18.5l28 78q16 -9 33 -16t28 -7q18 0 31 11t13 37q0 5 -0.5 10.5t-1.5 11.5q-61 1 -104.5 22.5t-71.5 57t-41.5 81t-13.5 93.5q0 54 15 100t44.5 80.5t73 54t101.5 19.5q26 0 50 -5t45 -13v12h101v-148h-75q-25 28 -54 44.5t-65 16.5
t-61.5 -13t-41.5 -34.5t-23 -50.5t-7 -61q0 -31 7.5 -60t24 -52t42 -37t61.5 -14q35 0 69 16.5t65 51.5l64 -68q-28 -29 -58 -50t-67 -32q4 -17 4 -37q0 -60 -33.5 -92.5t-91.5 -32.5z" />
    <glyph glyph-name="egrave" unicode="&#xe8;" horiz-adv-x="490" 
d="M464 86q-42 -45 -90 -67.5t-113 -22.5q-60 0 -105 20.5t-75.5 55.5t-45.5 80t-15 95q0 66 18 114t49.5 80t72.5 47.5t88 15.5q111 0 167 -71.5t54 -209.5h-344q7 -63 43.5 -98.5t96.5 -35.5q38 0 70.5 15t63.5 49zM367 314q-5 45 -33 71.5t-84 26.5q-55 -2 -81 -28
t-39 -70h237zM248 543l-118 141h111l118 -141h-111z" />
    <glyph glyph-name="eacute" unicode="&#xe9;" horiz-adv-x="490" 
d="M464 86q-42 -45 -90 -67.5t-113 -22.5q-60 0 -105 20.5t-75.5 55.5t-45.5 80t-15 95q0 66 18 114t49.5 80t72.5 47.5t88 15.5q111 0 167 -71.5t54 -209.5h-344q7 -63 43.5 -98.5t96.5 -35.5q38 0 70.5 15t63.5 49zM367 314q-5 45 -33 71.5t-84 26.5q-55 -2 -81 -28
t-39 -70h237zM130 543l117 141h112l-119 -141h-110z" />
    <glyph glyph-name="ecircumflex" unicode="&#xea;" horiz-adv-x="490" 
d="M464 86q-42 -45 -90 -67.5t-113 -22.5q-60 0 -105 20.5t-75.5 55.5t-45.5 80t-15 95q0 66 18 114t49.5 80t72.5 47.5t88 15.5q111 0 167 -71.5t54 -209.5h-344q7 -63 43.5 -98.5t96.5 -35.5q38 0 70.5 15t63.5 49zM367 314q-5 45 -33 71.5t-84 26.5q-55 -2 -81 -28
t-39 -70h237zM79 520l127 179h78l127 -179h-100l-66 85l-66 -85h-100z" />
    <glyph glyph-name="edieresis" unicode="&#xeb;" horiz-adv-x="490" 
d="M464 86q-42 -45 -90 -67.5t-113 -22.5q-60 0 -105 20.5t-75.5 55.5t-45.5 80t-15 95q0 66 18 114t49.5 80t72.5 47.5t88 15.5q111 0 167 -71.5t54 -209.5h-344q7 -63 43.5 -98.5t96.5 -35.5q38 0 70.5 15t63.5 49zM367 314q-5 45 -33 71.5t-84 26.5q-55 -2 -81 -28
t-39 -70h237zM112 626q0 26 16 42t42 16t42 -16t16 -42t-16 -42t-42 -16t-42 16t-16 42zM261 626q0 26 16 42t42 16t42 -16t16 -42t-16 -42t-42 -16t-42 16t-16 42z" />
    <glyph glyph-name="igrave" unicode="&#xec;" 
d="M184 499v-398h65v-101h-229v101h63v297h-63v101h164zM78 543l-118 141h111l118 -141h-111z" />
    <glyph glyph-name="iacute" unicode="&#xed;" 
d="M184 499v-398h65v-101h-229v101h63v297h-63v101h164zM30 543l117 141h112l-119 -141h-110z" />
    <glyph glyph-name="icircumflex" unicode="&#xee;" 
d="M184 499v-398h65v-101h-229v101h63v297h-63v101h164zM-31 520l127 179h78l127 -179h-100l-66 85l-66 -85h-100z" />
    <glyph glyph-name="idieresis" unicode="&#xef;" 
d="M184 499v-398h65v-101h-229v101h63v297h-63v101h164zM-30 626q0 26 16 42t42 16t42 -16t16 -42t-16 -42t-42 -16t-42 16t-16 42zM119 626q0 26 16 42t42 16t42 -16t16 -42t-16 -42t-42 -16t-42 16t-16 42z" />
    <glyph glyph-name="ntilde" unicode="&#xf1;" horiz-adv-x="593" 
d="M507 101h66v-101h-229v101h63v213q0 50 -29.5 74t-72.5 24q-22 0 -40 -9t-33 -22.5t-26.5 -30t-20.5 -30.5v-219h65v-101h-230v101h63v297h-63v101h165v-34q24 20 57.5 31.5t76.5 11.5q39 0 73 -11.5t59.5 -34.5t40.5 -57t15 -78v-226zM443 595q-29 -23 -47.5 -32.5
t-42.5 -9.5q-13 0 -28.5 3.5t-42.5 17.5q-31 16 -46 16q-13 0 -33 -11t-54 -40v109q50 42 91 42q14 0 30 -4t44 -18q29 -16 44 -16q11 0 33.5 12t51.5 34v-103z" />
    <glyph glyph-name="ograve" unicode="&#xf2;" horiz-adv-x="508" 
d="M383 248q0 36 -7 66.5t-22.5 53t-40.5 35t-60 12.5t-59 -12.5t-39.5 -34.5t-22.5 -52.5t-7 -66.5t7 -66.5t22.5 -53t39.5 -35.5t59 -13t60 12.5t40.5 35t22.5 53t7 66.5zM488 247q0 -54 -14.5 -100t-44 -80.5t-73.5 -54t-103 -19.5t-102.5 20.5t-72.5 55.5t-43.5 81.5
t-14.5 99.5q0 54 14.5 100t43.5 80.5t72.5 54t102.5 19.5t103 -20t73.5 -55t44 -81.5t14.5 -100.5zM257 543l-118 141h111l118 -141h-111z" />
    <glyph glyph-name="oacute" unicode="&#xf3;" horiz-adv-x="508" 
d="M383 248q0 36 -7 66.5t-22.5 53t-40.5 35t-60 12.5t-59 -12.5t-39.5 -34.5t-22.5 -52.5t-7 -66.5t7 -66.5t22.5 -53t39.5 -35.5t59 -13t60 12.5t40.5 35t22.5 53t7 66.5zM488 247q0 -54 -14.5 -100t-44 -80.5t-73.5 -54t-103 -19.5t-102.5 20.5t-72.5 55.5t-43.5 81.5
t-14.5 99.5q0 54 14.5 100t43.5 80.5t72.5 54t102.5 19.5t103 -20t73.5 -55t44 -81.5t14.5 -100.5zM139 543l117 141h112l-119 -141h-110z" />
    <glyph glyph-name="ocircumflex" unicode="&#xf4;" horiz-adv-x="508" 
d="M383 248q0 36 -7 66.5t-22.5 53t-40.5 35t-60 12.5t-59 -12.5t-39.5 -34.5t-22.5 -52.5t-7 -66.5t7 -66.5t22.5 -53t39.5 -35.5t59 -13t60 12.5t40.5 35t22.5 53t7 66.5zM488 247q0 -54 -14.5 -100t-44 -80.5t-73.5 -54t-103 -19.5t-102.5 20.5t-72.5 55.5t-43.5 81.5
t-14.5 99.5q0 54 14.5 100t43.5 80.5t72.5 54t102.5 19.5t103 -20t73.5 -55t44 -81.5t14.5 -100.5zM88 505l127 179h78l127 -179h-100l-66 85l-66 -85h-100z" />
    <glyph glyph-name="otilde" unicode="&#xf5;" horiz-adv-x="508" 
d="M383 248q0 36 -7 66.5t-22.5 53t-40.5 35t-60 12.5t-59 -12.5t-39.5 -34.5t-22.5 -52.5t-7 -66.5t7 -66.5t22.5 -53t39.5 -35.5t59 -13t60 12.5t40.5 35t22.5 53t7 66.5zM488 247q0 -54 -14.5 -100t-44 -80.5t-73.5 -54t-103 -19.5t-102.5 20.5t-72.5 55.5t-43.5 81.5
t-14.5 99.5q0 54 14.5 100t43.5 80.5t72.5 54t102.5 19.5t103 -20t73.5 -55t44 -81.5t14.5 -100.5zM401 595q-29 -23 -47.5 -32.5t-42.5 -9.5q-13 0 -28.5 3.5t-42.5 17.5q-31 16 -46 16q-13 0 -33 -11t-54 -40v109q50 42 91 42q14 0 30 -4t44 -18q29 -16 44 -16
q11 0 33.5 12t51.5 34v-103z" />
    <glyph glyph-name="odieresis" unicode="&#xf6;" horiz-adv-x="508" 
d="M383 248q0 36 -7 66.5t-22.5 53t-40.5 35t-60 12.5t-59 -12.5t-39.5 -34.5t-22.5 -52.5t-7 -66.5t7 -66.5t22.5 -53t39.5 -35.5t59 -13t60 12.5t40.5 35t22.5 53t7 66.5zM488 247q0 -54 -14.5 -100t-44 -80.5t-73.5 -54t-103 -19.5t-102.5 20.5t-72.5 55.5t-43.5 81.5
t-14.5 99.5q0 54 14.5 100t43.5 80.5t72.5 54t102.5 19.5t103 -20t73.5 -55t44 -81.5t14.5 -100.5zM121 626q0 26 16 42t42 16t42 -16t16 -42t-16 -42t-42 -16t-42 16t-16 42zM270 626q0 26 16 42t42 16t42 -16t16 -42t-16 -42t-42 -16t-42 16t-16 42z" />
    <glyph glyph-name="divide" unicode="&#xf7;" horiz-adv-x="166" 
d="M20 63q0 27 17 45.5t45 18.5q27 0 45.5 -18.5t18.5 -45.5q0 -28 -18.5 -45.5t-45.5 -17.5q-28 0 -45 17.5t-17 45.5zM20 434q0 27 17 45.5t45 18.5q27 0 45.5 -18.5t18.5 -45.5q0 -28 -18.5 -45t-45.5 -17q-28 0 -45 17t-17 45z" />
    <glyph glyph-name="oslash" unicode="&#xf8;" horiz-adv-x="508" 
d="M76 -92l46 120q-53 34 -77.5 92t-24.5 130q0 54 14.5 100t43.5 80.5t72.5 54t102.5 19.5q13 0 25 -1.5t24 -3.5q9 23 18.5 47.5t17.5 45.5h93l-47 -123q54 -35 79 -92.5t25 -129.5q0 -54 -14.5 -100t-44 -80.5t-73.5 -54t-103 -19.5q-14 0 -26 1t-24 3q-8 -20 -18 -46
t-17 -43h-92zM383 248q0 39 -8.5 72t-26.5 55q-15 -38 -28.5 -74l-27 -72t-27.5 -72.5t-29 -75.5q5 -1 8 -0.5t9 0.5q35 0 60 12.5t40.5 35t22.5 53t7 66.5zM125 249q0 -39 8 -71.5t25 -54.5q15 39 28.5 74.5t27 70.5t27.5 71t29 75q-5 1 -17 1q-35 0 -59 -12.5t-39.5 -34.5
t-22.5 -52.5t-7 -66.5z" />
    <glyph glyph-name="ugrave" unicode="&#xf9;" horiz-adv-x="593" 
d="M86 397h-66v101h230v-101h-63v-213q0 -50 29 -74t72 -24q22 0 40.5 9t33.5 22.5t26.5 30t20.5 30.5v219h-65v101h229v-101h-63v-297h63v-101h-164v34q-25 -20 -58.5 -31.5t-76.5 -11.5q-39 0 -73 11.5t-59.5 34.5t-40.5 57t-15 78v226zM300 543l-118 141h111l118 -141
h-111z" />
    <glyph glyph-name="uacute" unicode="&#xfa;" horiz-adv-x="593" 
d="M86 397h-66v101h230v-101h-63v-213q0 -50 29 -74t72 -24q22 0 40.5 9t33.5 22.5t26.5 30t20.5 30.5v219h-65v101h229v-101h-63v-297h63v-101h-164v34q-25 -20 -58.5 -31.5t-76.5 -11.5q-39 0 -73 11.5t-59.5 34.5t-40.5 57t-15 78v226zM182 543l117 141h112l-119 -141
h-110z" />
    <glyph glyph-name="ucircumflex" unicode="&#xfb;" horiz-adv-x="593" 
d="M86 397h-66v101h230v-101h-63v-213q0 -50 29 -74t72 -24q22 0 40.5 9t33.5 22.5t26.5 30t20.5 30.5v219h-65v101h229v-101h-63v-297h63v-101h-164v34q-25 -20 -58.5 -31.5t-76.5 -11.5q-39 0 -73 11.5t-59.5 34.5t-40.5 57t-15 78v226zM130 505l127 179h78l127 -179h-100
l-66 85l-66 -85h-100z" />
    <glyph glyph-name="udieresis" unicode="&#xfc;" horiz-adv-x="593" 
d="M86 397h-66v101h230v-101h-63v-213q0 -50 29 -74t72 -24q22 0 40.5 9t33.5 22.5t26.5 30t20.5 30.5v219h-65v101h229v-101h-63v-297h63v-101h-164v34q-25 -20 -58.5 -31.5t-76.5 -11.5q-39 0 -73 11.5t-59.5 34.5t-40.5 57t-15 78v226zM164 626q0 26 16 42t42 16t42 -16
t16 -42t-16 -42t-42 -16t-42 16t-16 42zM313 626q0 26 16 42t42 16t42 -16t16 -42t-16 -42t-42 -16t-42 16t-16 42z" />
    <glyph glyph-name="yacute" unicode="&#xfd;" horiz-adv-x="603" 
d="M92 398h-72v101h229v-101h-46l102 -254l101 254h-52v101h229v-101h-69l-240 -598h-138v101h69l46 112zM187 543l117 141h112l-119 -141h-110z" />
    <glyph glyph-name="ydieresis" unicode="&#xff;" horiz-adv-x="603" 
d="M92 398h-72v101h229v-101h-46l102 -254l101 254h-52v101h229v-101h-69l-240 -598h-138v101h69l46 112zM169 626q0 26 16 42t42 16t42 -16t16 -42t-16 -42t-42 -16t-42 16t-16 42zM318 626q0 26 16 42t42 16t42 -16t16 -42t-16 -42t-42 -16t-42 16t-16 42z" />
    <glyph glyph-name="dotlessi" unicode="&#x131;" 
d="M184 499v-398h65v-101h-229v101h63v297h-63v101h164z" />
    <glyph glyph-name="OE" unicode="&#x152;" horiz-adv-x="894" 
d="M764 530v69h-245v-182h107v65h107v-236h-107v63h-107v-208h248v69h107v-170h-518q-86 0 -149.5 28t-105 75.5t-61.5 111t-20 134.5q0 72 21.5 136t63.5 111.5t105 75.5t146 28h516v-170h-108zM412 602h-51q-58 0 -101.5 -19t-72.5 -52.5t-43.5 -80t-14.5 -100.5
q0 -57 16 -103.5t46 -79.5t73 -51t97 -18h51v504z" />
    <glyph glyph-name="oe" unicode="&#x153;" horiz-adv-x="853" 
d="M827 86q-42 -45 -90 -67.5t-113 -22.5q-63 0 -109.5 22t-76.5 59q-29 -39 -75 -61.5t-110 -22.5q-59 0 -102.5 20.5t-72.5 55.5t-43.5 81.5t-14.5 99.5q0 54 14.5 100t43.5 80.5t72.5 54t102.5 19.5q62 0 107.5 -21.5t74.5 -59.5q32 41 77.5 61t98.5 20q111 0 167 -71.5
t54 -209.5h-344q7 -63 43.5 -98.5t96.5 -35.5q38 0 70.5 15t63.5 49zM253 415q-35 0 -59 -12.5t-39.5 -34.5t-22.5 -52.5t-7 -66.5t7 -66.5t22.5 -53t39.5 -35.5t59 -13q34 0 58.5 12t40 33t23 50.5t8.5 64.5v6v8q-1 34 -8.5 63.5t-23 51t-40 33.5t-58.5 12zM730 314
q-5 45 -33 71.5t-84 26.5q-55 -2 -81 -28t-39 -70h237z" />
    <glyph glyph-name="Scaron" unicode="&#x160;" horiz-adv-x="531" 
d="M233 715l-120 145h106l47 -51l46 51h106l-121 -145h-64zM20 0v180l75 1q25 -35 68.5 -55.5t98.5 -20.5q31 0 56.5 6t44 17t28.5 26t10 33q0 25 -14.5 44t-37.5 33.5t-51.5 25t-56.5 19.5l-20 7q-35 12 -68.5 25.5t-60 35t-42.5 53.5t-16 81q0 37 13 72t41 61.5t72 42.5
t106 16q67 0 122 -20v17h108v-184h-80l-8 15q-28 34 -61.5 49t-78.5 15q-59 0 -91 -22.5t-32 -55.5q0 -18 12 -32.5t31.5 -26.5t43.5 -22t48 -19l19 -6q29 -10 66 -26.5t69.5 -42t54.5 -60.5t22 -81q0 -50 -19 -88.5t-53 -64.5t-79.5 -39.5t-99.5 -13.5q-71 0 -132 26v-21
h-108z" />
    <glyph glyph-name="scaron" unicode="&#x161;" horiz-adv-x="407" 
d="M20 147h72q50 -62 119 -57q40 2 58.5 17t17.5 35q-1 16 -9.5 27t-22 18.5t-31.5 12.5t-38 10l1 -1q-26 6 -53 15.5t-49.5 26t-38 41t-19.5 59.5q0 31 12.5 58.5t34 47.5t51.5 33t65 16q19 0 44.5 -2.5t43.5 -8.5v2h101v-137l-79 -1q-26 29 -51.5 42t-57.5 10
q-37 -2 -50.5 -15t-12.5 -32q1 -14 9 -23.5t21 -16.5t30 -11.5t35 -8.5q27 -8 54 -18.5t50.5 -27.5t39.5 -41.5t20 -59.5q0 -33 -14 -61t-38 -49.5t-55.5 -35t-66.5 -16.5q-20 0 -46.5 2.5t-46.5 8.5v-6h-100v147zM157 580l-94 121h96l44 -59l44 59h96l-94 -121h-92z" />
    <glyph glyph-name="Ydieresis" unicode="&#x178;" horiz-adv-x="663" 
d="M199 783q0 26 16.5 43t42.5 17t42.5 -17t16.5 -43t-16.5 -42.5t-42.5 -16.5t-42.5 16.5t-16.5 42.5zM352 783q0 26 16 43t42 17t43 -17t17 -43t-17 -42.5t-43 -16.5t-42 16.5t-16 42.5zM99 591h-79v108h246v-108h-36q27 -38 50 -70t52 -74q14 20 26 37t24 33.5t25 34
t28 39.5h-38v108h246v-108h-77l-179 -264q0 -59 -0.5 -109.5t-0.5 -110.5h64v-108h-240v108h68v219z" />
    <glyph glyph-name="Zcaron" unicode="&#x17d;" horiz-adv-x="560" 
d="M134 592v-62h-108v170h490v-93l-346 -499h262v62h108v-170h-520v94l348 498h-234zM234 792l-94 121h96l44 -59l44 59h96l-94 -121h-92z" />
    <glyph glyph-name="zcaron" unicode="&#x17e;" horiz-adv-x="427" 
d="M149 99h157v66h101v-165h-387v87l237 314h-136v-66h-101v164h373v-86zM167 580l-94 121h96l44 -59l44 59h96l-94 -121h-92z" />
    <glyph glyph-name="circumflex" unicode="&#x2c6;" horiz-adv-x="372" 
d="M20 505l127 179h78l127 -179h-100l-66 85l-66 -85h-100z" />
    <glyph glyph-name="caron" unicode="&#x2c7;" horiz-adv-x="320" 
d="M114 580l-94 121h96l44 -59l44 59h96l-94 -121h-92z" />
    <glyph glyph-name="breve" unicode="&#x2d8;" horiz-adv-x="264" 
d="M131 628q18 0 27 16t9 39h77q-2 -25 -9.5 -47.5t-22 -39t-34.5 -26.5t-47 -10q-53 0 -81.5 36t-29.5 87h76q1 -23 9 -39t26 -16z" />
    <glyph glyph-name="dotaccent" unicode="&#x2d9;" horiz-adv-x="163" 
d="M20 620q0 26 17 44t44 18t44.5 -18t17.5 -44q0 -27 -17.5 -44t-44.5 -17t-44 17t-17 44z" />
    <glyph glyph-name="ring" unicode="&#x2da;" horiz-adv-x="263" 
d="M167 577q0 17 -8.5 28t-27.5 11t-26.5 -11t-7.5 -28q0 -16 7.5 -27.5t26.5 -11.5t27.5 11t8.5 28zM243 577q0 -46 -28.5 -76.5t-83.5 -30.5q-54 0 -82.5 31t-28.5 76q0 46 28.5 76.5t82.5 30.5q55 0 83.5 -31t28.5 -76z" />
    <glyph glyph-name="ogonek" unicode="&#x2db;" horiz-adv-x="100" 
 />
    <glyph glyph-name="tilde" unicode="&#x2dc;" horiz-adv-x="334" 
d="M314 595q-29 -23 -47.5 -32.5t-42.5 -9.5q-13 0 -28.5 3.5t-42.5 17.5q-31 16 -46 16q-13 0 -33 -11t-54 -40v109q50 42 91 42q14 0 30 -4t44 -18q29 -16 44 -16q11 0 33.5 12t51.5 34v-103z" />
    <glyph glyph-name="hungarumlaut" unicode="&#x2dd;" horiz-adv-x="366" 
d="M20 482l110 201h102l-121 -201h-91zM134 482l110 201h102l-122 -201h-90z" />
    <glyph glyph-name="endash" unicode="&#x2013;" horiz-adv-x="503" 
d="M20 189v88h463v-88h-463z" />
    <glyph glyph-name="emdash" unicode="&#x2014;" horiz-adv-x="705" 
d="M20 189v88h665v-88h-665z" />
    <glyph glyph-name="quoteleft" unicode="&#x2018;" horiz-adv-x="198" 
d="M178 684l-61 -222h-97l65 222h93z" />
    <glyph glyph-name="quoteright" unicode="&#x2019;" horiz-adv-x="198" 
d="M178 684l-61 -222h-97l65 222h93z" />
    <glyph glyph-name="quotesinglbase" unicode="&#x201a;" horiz-adv-x="223" 
d="M94 -81h-74l93 210h90z" />
    <glyph glyph-name="quotedblleft" unicode="&#x201c;" horiz-adv-x="315" 
d="M178 684l-61 -222h-97l65 222h93zM295 684l-61 -222h-97l65 222h93z" />
    <glyph glyph-name="quotedblright" unicode="&#x201d;" horiz-adv-x="315" 
d="M178 684l-61 -222h-97l65 222h93zM295 684l-61 -222h-97l65 222h93z" />
    <glyph glyph-name="quotedblbase" unicode="&#x201e;" horiz-adv-x="308" 
d="M131 -141l59 263h98l-74 -263h-83zM20 -141l59 263h98l-74 -263h-83z" />
    <glyph glyph-name="bullet" unicode="&#x2022;" horiz-adv-x="249" 
d="M20 233q0 47 28.5 76t75.5 29t76 -29t29 -76t-29 -75.5t-76 -28.5t-75.5 28.5t-28.5 75.5z" />
    <glyph glyph-name="ellipsis" unicode="&#x2026;" horiz-adv-x="588" 
d="M20 61q0 26 17 44t44 18q26 0 44 -18t18 -44q0 -27 -18 -44t-44 -17q-27 0 -44 17t-17 44zM233 61q0 26 17 44t44 18q26 0 44 -18t18 -44q0 -27 -18 -44t-44 -17q-27 0 -44 17t-17 44zM445 61q0 26 17 44t44 18q26 0 44 -18t18 -44q0 -27 -18 -44t-44 -17q-27 0 -44 17
t-17 44z" />
    <glyph glyph-name="guilsinglleft" unicode="&#x2039;" horiz-adv-x="286" 
d="M163 63l-143 171l143 171h103l-136 -171q15 -19 33 -41.5l36 -45t35.5 -44.5t31.5 -40h-103z" />
    <glyph glyph-name="guilsinglright" unicode="&#x203a;" horiz-adv-x="279" 
d="M20 63l125 171l-125 171h97l142 -171l-142 -171h-97z" />
    <glyph glyph-name="fraction" unicode="&#x2044;" horiz-adv-x="340" 
d="M111 0h-91l209 684h91z" />
    <glyph glyph-name="Euro" unicode="&#x20ac;" horiz-adv-x="531" 
d="M505 592v-179h-74q-27 42 -55 65.5t-57 23.5q-36 0 -62 -26.5t-42 -62.5h155v-90h-179v-50h179v-92h-160q15 -39 42 -64.5t67 -25.5q30 0 59.5 23.5t60.5 69.5l72 -73q-38 -54 -86 -85t-108 -31q-42 0 -76.5 14.5t-61 39.5t-45 59t-28.5 73h-86v92h72v26v24h-72v90h89
q10 38 28.5 71.5t44.5 58.5t60 39.5t75 14.5q44 0 87 -19v14h101z" />
    <glyph glyph-name="trademark" unicode="&#x2122;" horiz-adv-x="953" 
d="M593 292v-101h-165v101h33v291h-33v101h122l132 -243l133 243h118v-101h-30v-291h30v-101h-165v101h30v157q-29 -54 -59.5 -111.5t-56.5 -105.5l-115 213v-153h26zM304 292v-101h-164v101h25v294h-39v-31h-106v129h394v-129h-106v31h-37v-294h33z" />
    <glyph glyph-name="minus" unicode="&#x2212;" horiz-adv-x="484" 
d="M20 208v88h444v-88h-444z" />
    <glyph glyph-name="percent" horiz-adv-x="510" 
d="M400 109q0 14 -7 25t-24 11t-23 -10.5t-6 -25.5q0 -14 6 -23.5t23 -9.5t24 9.5t7 23.5zM482 109q0 -46 -28.5 -77.5t-84.5 -31.5q-27 0 -48 8.5t-35.5 23.5t-22.5 35t-8 42q0 47 30 78t84 31q56 0 84.5 -31t28.5 -78zM126 0h-106l364 682h106zM182 573q0 14 -7 25t-25 11
q-17 0 -23.5 -10.5t-6.5 -25.5q0 -14 6.5 -23.5t23.5 -9.5q18 0 25 9.5t7 23.5zM264 573q0 -46 -28.5 -77.5t-85.5 -31.5q-26 0 -47 8.5t-35.5 23.5t-22.5 35t-8 42q0 47 30 78t83 31q57 0 85.5 -31t28.5 -78z" />
    </font>
</defs>
</svg>
