<svg xmlns="http://www.w3.org/2000/svg" viewBox="0 0 111.06 117.55"><defs><style>.cls-1{fill:#f3f4f6;}</style></defs><g id="Layer_2" data-name="Layer 2"><g id="Layer_4" data-name="Layer 4"><circle class="cls-1" cx="57.91" cy="113.02" r="4.53" transform="translate(-16.23 9.91) rotate(-8.59)"/><path class="cls-1" d="M0,25.81a3,3,0,1,1,2.91,3.12A3,3,0,0,1,0,25.81Z"/><path class="cls-1" d="M82.19.92a2.64,2.64,0,1,1,4,3.44L71.4,21.5a2.63,2.63,0,1,1-4-3.44Z"/><path class="cls-1" d="M55.58,31.77a2.64,2.64,0,1,1,4,3.45l-4.43,5.14a2.64,2.64,0,0,1-4-3.45Z"/><path class="cls-1" d="M32.09,28.85A2.64,2.64,0,0,1,27,27.49l6.56-24.6a2.64,2.64,0,1,1,5.1,1.36Z"/><path class="cls-1" d="M66.45,64.74A2.64,2.64,0,1,1,64.22,60L89.53,48.18A2.64,2.64,0,0,1,91.75,53Z"/><path class="cls-1" d="M62.74,90.15a2.64,2.64,0,1,1,.74-5.23l35,4.93a2.64,2.64,0,1,1-.74,5.23Z"/><path class="cls-1" d="M108.17,45.32a2.64,2.64,0,0,1-2.23-4.79l1.37-.63a2.64,2.64,0,0,1,2.23,4.79Z"/></g></g></svg>