<svg xmlns="http://www.w3.org/2000/svg" viewBox="0 0 112.33 120.21"><defs><style>.cls-1{fill:#f3f4f6;}</style></defs><g id="Layer_2" data-name="Layer 2"><g id="Layer_4" data-name="Layer 4"><circle class="cls-1" cx="42.25" cy="4.53" r="4.53" transform="matrix(0.96, -0.29, 0.29, 0.96, 0.52, 12.56)"/><path class="cls-1" d="M112.31,82.32A3,3,0,1,1,109,79.66,3,3,0,0,1,112.31,82.32Z"/><path class="cls-1" d="M34.65,119a2.64,2.64,0,0,1-4.46-2.82L42.3,97a2.64,2.64,0,0,1,4.47,2.82Z"/><path class="cls-1" d="M56.45,84.57A2.64,2.64,0,1,1,52,81.74L55.63,76a2.64,2.64,0,1,1,4.46,2.82Z"/><path class="cls-1" d="M80.12,84a2.64,2.64,0,1,1,5.25.6l-2.89,25.3a2.64,2.64,0,0,1-5.25-.6Z"/><path class="cls-1" d="M40.87,53.54A2.64,2.64,0,1,1,43.78,58L20.47,73.31a2.64,2.64,0,1,1-2.9-4.41Z"/><path class="cls-1" d="M40.82,27.87a2.64,2.64,0,1,1,0,5.28l-35.31.24a2.64,2.64,0,0,1,0-5.28Z"/><path class="cls-1" d="M2.45,78.86a2.64,2.64,0,1,1,2.9,4.41l-1.26.83a2.64,2.64,0,0,1-2.9-4.41Z"/></g></g></svg>