<svg xmlns="http://www.w3.org/2000/svg" viewBox="0 0 49.32 49.58"><defs><style>.cls-1{fill:#fff;}</style></defs><g id="Layer_2" data-name="Layer 2"><g id="Layer_4" data-name="Layer 4"><path class="cls-1" d="M24.85,26.47a7.11,7.11,0,0,1-5.33-2.67A21.85,21.85,0,0,1,15.71,17,66.84,66.84,0,0,1,12.26.6L11,.71a68.35,68.35,0,0,0,3.53,16.72,23.23,23.23,0,0,0,4.06,7.24,8.41,8.41,0,0,0,6.3,3.11ZM37.44.62A57.42,57.42,0,0,1,34.12,17a21.8,21.8,0,0,1-3.89,6.82,7.22,7.22,0,0,1-5.38,2.68v1.31a8.48,8.48,0,0,0,6.34-3.11,22.88,22.88,0,0,0,4.15-7.24A58.42,58.42,0,0,0,38.74.68ZM11.61,1.3H38.09V0H11.61ZM38.09.65l.65,0A.67.67,0,0,0,38.56.2a.63.63,0,0,0-.47-.2ZM11.61.65V0a.68.68,0,0,0-.48.21.71.71,0,0,0-.17.5Z"/><path class="cls-1" d="M41.4,7.53h7.27V6.23H41.4ZM48,6.84a12.54,12.54,0,0,1-2.51,5.68,38.57,38.57,0,0,1-5.95,6.53A38.45,38.45,0,0,1,32,24.33a16.28,16.28,0,0,1-7.22,2.14v1.31a17.6,17.6,0,0,0,7.83-2.29A40,40,0,0,0,40.43,20a39,39,0,0,0,6.15-6.76,13.62,13.62,0,0,0,2.74-6.34ZM41.4,6.23a.65.65,0,1,0,0,1.3ZM24.79,26.47a.66.66,0,0,0-.65.66.65.65,0,0,0,.65.65ZM48.67,6.88l.65,0a.69.69,0,0,0-.17-.49.67.67,0,0,0-.48-.2Z"/><path class="cls-1" d="M7.92,7.53H.65V6.23H7.92ZM1.3,6.84a12.46,12.46,0,0,0,2.52,5.68,38.48,38.48,0,0,0,5.94,6.53,38.75,38.75,0,0,0,7.55,5.28,16.32,16.32,0,0,0,7.22,2.14v1.31a17.56,17.56,0,0,1-7.82-2.29A39.66,39.66,0,0,1,8.9,20a39,39,0,0,1-6.15-6.76A13.55,13.55,0,0,1,0,6.92Zm6.62-.61a.65.65,0,0,1,0,1.3ZM24.53,26.47a.66.66,0,0,1,.65.66.65.65,0,0,1-.65.65ZM.65,6.88,0,6.92a.65.65,0,0,1,.18-.49.63.63,0,0,1,.47-.2Z"/><path class="cls-1" d="M13.24,48.93V38h-1.3v10.9ZM37,48.28H12.59v1.3H37ZM36.34,38v10.9h1.3V38Zm-23.75.65H37v-1.3H12.59Zm0,10.25h-.65a.65.65,0,0,0,.65.65Zm24.4,0v.65a.65.65,0,0,0,.65-.65ZM37,38h.65a.65.65,0,0,0-.65-.65Zm-24.4,0v-.65a.65.65,0,0,0-.65.65Z"/><path class="cls-1" d="M27.77,26.59a21.72,21.72,0,0,0,.8,6.29c.66,2.26,1.86,4.53,4,5.48l.53-1.19c-1.59-.71-2.64-2.5-3.28-4.65a20.49,20.49,0,0,1-.74-5.89Zm4.8,11.77a.65.65,0,1,0,.53-1.19ZM29.08,26.63a.66.66,0,0,0-.64-.67.65.65,0,0,0-.67.63Z"/><path class="cls-1" d="M22.33,26.59a21.72,21.72,0,0,1-.8,6.29c-.66,2.26-1.86,4.53-4,5.48L17,37.17c1.6-.71,2.65-2.5,3.28-4.65A20.54,20.54,0,0,0,21,26.63Zm-4.8,11.77A.65.65,0,1,1,17,37.17ZM21,26.63a.65.65,0,1,1,1.3,0Z"/><path class="cls-1" d="M18.82,44.13H31.28v-1.3H18.82Zm12.46,0a.65.65,0,0,0,0-1.3Zm-12.46-1.3a.65.65,0,0,0,0,1.3Z"/></g></g></svg>