<svg xmlns="http://www.w3.org/2000/svg" viewBox="0 0 144.78 94.41"><defs><style>.cls-1{opacity:0.44;}.cls-2{fill:#f1f1f1;opacity:0.94;}</style></defs><g id="Layer_2" data-name="Layer 2"><g id="Layer_4" data-name="Layer 4"><g class="cls-1"><path class="cls-2" d="M122.32,16a1.51,1.51,0,0,0,1.52,2.42l6.51-1.58,3.59,5.7a1.5,1.5,0,0,0,2.77-.67l.43-6.67,6.51-1.58a1.49,1.49,0,0,0,.18-2.83l-6.24-2.54L138,1.61A1.51,1.51,0,0,0,135.37.53l-4.29,5.09-6.24-2.54A1.48,1.48,0,0,0,123,5.24l3.6,5.7Z"/><path class="cls-2" d="M.35,82.27a1.5,1.5,0,0,0,1.53,2.41l6.51-1.57L12,88.8a1.5,1.5,0,0,0,2.77-.67l.43-6.67,6.51-1.57a1.49,1.49,0,0,0,.18-2.83l-6.24-2.55.43-6.66a1.51,1.51,0,0,0-2.65-1.08L9.12,71.86,2.87,69.31a1.48,1.48,0,0,0-1.82,2.17l3.59,5.69Z"/><path class="cls-2" d="M86.75,89.62a3.63,3.63,0,0,0,5.68,4l13-10.25,13.38,9.41a3.7,3.7,0,0,0,5.52-4.35L119,72.69l13-10.25a3.73,3.73,0,0,0-2.28-6.68l-16.29.51L108,40.53a3.61,3.61,0,0,0-6.92.22L96.37,56.81l-16.29.51a3.77,3.77,0,0,0-2,6.82l13.38,9.42Z"/></g></g></g></svg>