<svg xmlns="http://www.w3.org/2000/svg" viewBox="0 0 151.49 91.3"><defs><style>.cls-1{opacity:0.44;}.cls-2{fill:#f1f1f1;opacity:0.94;}</style></defs><g id="Layer_2" data-name="Layer 2"><g id="Layer_4" data-name="Layer 4"><g class="cls-1"><path class="cls-2" d="M22.75,76.85a1.51,1.51,0,0,0-1.26-2.57l-6.64.88-3-6a1.49,1.49,0,0,0-2.82.37L7.92,76.08,1.28,77A1.49,1.49,0,0,0,.8,79.75l5.94,3.19L5.61,89.53a1.51,1.51,0,0,0,2.52,1.35l4.81-4.61,5.94,3.19a1.48,1.48,0,0,0,2-2l-3-6Z"/><path class="cls-2" d="M151,23.86a1.5,1.5,0,0,0-1.26-2.56l-6.64.88-3-6a1.49,1.49,0,0,0-2.82.37l-1.14,6.58-6.64.88a1.49,1.49,0,0,0-.48,2.8L135,30l-1.14,6.58a1.52,1.52,0,0,0,2.53,1.36l4.8-4.61,5.94,3.18a1.48,1.48,0,0,0,2-1.95l-3-6Z"/><path class="cls-2" d="M65.89,7.43a3.63,3.63,0,0,0-5.23-4.58l-14,8.82L34.36.89c-2.66-2.33-6.73.24-5.94,3.75l3.67,16.22-14,8.82a3.73,3.73,0,0,0,1.55,6.89l16.26,1.21L39.58,54a3.61,3.61,0,0,0,6.9.51L52.86,39l16.25,1.21a3.77,3.77,0,0,0,2.71-6.58L59.51,22.9Z"/></g></g></g></svg>