<?xml version="1.0" standalone="no"?>
<!DOCTYPE svg PUBLIC "-//W3C//DTD SVG 1.1//EN" "http://www.w3.org/Graphics/SVG/1.1/DTD/svg11.dtd" >
<svg xmlns="http://www.w3.org/2000/svg" xmlns:xlink="http://www.w3.org/1999/xlink" version="1.1">
<metadata>
Created by FontForge 20190801 at Tue Oct  4 22:07:02 2016
 By www-data
Copyright (c) 2016 by Adam Ladd. All rights reserved.
</metadata>
<defs>
<font id="CheddarGothicSerif" horiz-adv-x="424" >
  <font-face 
    font-family="CheddarGothicSerif"
    font-weight="400"
    font-stretch="condensed"
    units-per-em="1000"
    panose-1="0 0 0 0 0 0 0 0 0 0"
    ascent="900"
    descent="-100"
    x-height="860"
    cap-height="864"
    bbox="-12 -179.182 1469 1033.67"
    underline-thickness="50"
    underline-position="-100"
    unicode-range="U+000D-1F953"
  />
<missing-glyph horiz-adv-x="650" 
 />
    <glyph glyph-name=".notdef" horiz-adv-x="650" 
 />
    <glyph glyph-name=".null" horiz-adv-x="0" 
 />
    <glyph glyph-name="nonmarkingreturn" unicode="&#xd;" horiz-adv-x="245" 
 />
    <glyph glyph-name="space" unicode=" " horiz-adv-x="198" 
 />
    <glyph glyph-name="exclam" unicode="!" horiz-adv-x="209" 
d="M44 660q-7 24 0 44q2 6 1 8q-2 4 -1.5 12.5t-0.5 12.5q-3 18 0 36q0 3 -0.5 12t0.5 12t-0.5 9t-1.5 7q2 10 2 22q0 1 -1.5 13t0.5 13h12q28 3 51 -2l6 5q8 -3 28 -2t27 -4q3 -4 2 -16.5t0 -16.5q1 -3 1 -27v-26q0 -19 -3 -25q3 -8 3 -41q2 -43 -3 -64q0 -1 -3 -43
q0 -24 -3 -30q-1 -1 -1 -5q0 -19 -4 -63.5t-3 -68.5q1 -23 -8 -83q-2 -14 -2 -20q0 -11 -0.5 -32t-0.5 -32q-3 -36 -4 -39v-20q0 -13 -3 -18q-7 -3 -15 -3.5t-17.5 0t-14.5 0.5q-5 2 -4.5 7.5t-1.5 7.5q-1 1 -6 13l3 13q-2 7 -4 19q0 23 -4 42q-1 4 -1 39l-6 73q-1 4 -2 22
t-3 28q-2 7 -2 23t-3 24q-1 2 -1 14v22q0 2 -2 9.5t-2 12.5l-2 22v65q0 13 -2 19zM171 104q-6 -9 -6 -32q0 -4 -1 -15.5t0 -17.5q0 -2 -2.5 -15t0.5 -16q-4 -5 -8 -8q-28 9 -45 1q-11 4 -61 1q-7 10 -7 24q0 6 -0.5 19.5t0.5 24.5t4 20q1 4 -1 13q-2 6 3 22q35 7 108 2
q7 -1 10 -9q4 -8 6 -14z" />
    <glyph glyph-name="quotedbl" unicode="&#x22;" horiz-adv-x="359" 
d="M316 848q-1 -4 -6.5 -21t-5.5 -20q-1 -12 1 -47q0 -8 -2 -11q-4 -9 -4 -29q0 -25 -8 -44q-18 5 -67 2q-8 12 -11 18q0 1 1 5.5t0 6.5q-6 15 -4 39q0 8 -1 12q-5 14 -5 43q0 4 -0.5 5t-0.5 2.5t-1 3.5t-2.5 8.5t-3.5 16.5q0 2 -2 8.5t-1 9.5q2 6 10 6q5 0 9 -1.5t9 -0.5
q36 7 45 4q14 -4 30 2h5h8.5h5.5q3 -3 3 -5.5t-1 -6.5t-1 -6zM153 862q8 0 10 -6q1 -8 -3 -18q-7 -16 -8 -27q-3 -5 -3 -24.5t-2 -27.5q-1 -4 -1 -12q3 -20 -4 -39q-1 -2 2 -12l-12 -18q-22 2 -33.5 1.5t-19.5 -0.5t-14 3q-1 3 -1.5 6t-2 11.5t-4.5 20.5q0 11 -4 19
q-2 3 -2 21q1 14 -3 39.5t-4 28.5q0 4 -2 10.5t-2 9.5q0 11 4 14q16 0 16 4q16 -6 30 -2q13 4 33 0q6 -1 16.5 -1.5t13.5 -0.5z" />
    <glyph glyph-name="numbersign" unicode="#" horiz-adv-x="499" 
d="M397 602h61q5 -4 5 -15v-60l-8 -13q-4 -2 -5 -2q-5 -1 -14 -1q-22 3 -27 1q-6 -2 -27 -2q-6 -7 -4 -17q0 -4 -8 -56q-10 -48 -9 -63q0 -5 1 -8q29 -5 59 1q1 -1 2.5 -2t2.5 -2.5t2 -2.5v-66q-5 -9 -11 -9q-7 -1 -21.5 -3t-21.5 -4q-29 -3 -33 -5q0 -1 -1 -3.5t-1 -3.5
q1 -11 -7 -61q-4 -26 -8 -39q-2 -8 -2 -13q0 -19 -5 -33q-5 -16 -7 -50q0 -2 -6 -52q-3 -8 -12 -13q-10 -3 -33 -3q-10 1 -30 1l-3 3l-6 6v13q4 10 6 42q3 35 12 68q1 4 3.5 22t6.5 27q-1 10 3 28.5t4 27.5q0 3 2 11q4 10 2 25q-3 2 -9 0t-9 -2t-11 -0.5t-12 -0.5
q-14 0 -19 -8q-7 -45 -7 -46q-1 -9 -4 -24.5t-4 -22.5q-2 -7 -2 -8q1 -12 -3 -33.5t-4 -24.5q-2 -18 -8.5 -50t-7.5 -41q-1 -6 -9 -12h-35q-3 0 -15.5 1.5t-15.5 -1.5q-6 6 -4 11q10 42 10 63q0 7 3 17.5t3 15.5q3 28 4 31q2 4 2 14q0 23 9 57q2 8 2 11q0 28 5 48
q-18 6 -38 -2q-2 0 -8 2t-8 0q-18 -7 -29 5v77q1 3 2 3l14 7q5 0 14.5 1t18 0.5t16.5 -4.5q4 4 14.5 4h13.5q7 19 7 34q2 26 5 39q2 6 2.5 19t3.5 20q2 5 2 16v13q-2 4 -7.5 6.5t-6.5 4.5q-15 -4 -20 -5h-22q-5 -1 -20 -5l-9 22l5 10q-4 7 -5 15t-0.5 18t-0.5 15l8 9h83
q13 11 11 26q-1 6 2 16t3 14q0 17 5 28q2 2 2 8q-1 23 4 56q6 43 6 44q1 6 2 20t3 22q1 3 1 11l11 18q6 4 34 4t48 -3q0 -1 1.5 -3t2.5 -4q2 -2 2 -5l-6 -5q-6 -16 -11.5 -46t-7.5 -38q0 -9 -3.5 -27t-2.5 -28q-3 -12 -6.5 -42t-8.5 -46q-1 -3 -1 -16q3 -3 11.5 -0.5
t10.5 2.5h20h20q10 5 9 12q-1 5 1.5 13.5t2.5 13.5q0 17 2 26q1 5 0.5 18.5t1.5 18.5q2 6 3 18.5t2 16.5q6 22 6 44l8 19q-4 6 -0.5 21t2.5 20q1 4 4 8.5t3 7.5l6 2q44 2 53 5h9l8 -6q0 -2 0.5 -3.5t0.5 -2.5q1 -6 -2 -14.5t-3 -12.5q0 -9 -2 -25q-4 -20 -10 -58
q-2 -11 -6 -45t-9 -52q-1 -3 -1 -19q0 -20 2 -25zM234 510q-7 -29 -13.5 -80.5t-9.5 -70.5h12q7 3 42 5q9 3 10 4l7 38q1 6 3 21t4 23q3 9 5 27t5 27q0 2 -3 6h-62z" />
    <glyph glyph-name="dollar" unicode="$" horiz-adv-x="413" 
d="M262 843q6 0 22 -4t22 -4q6 -4 18 -13.5t18 -13.5q7 -5 13.5 -17t11.5 -16q8 -25 2 -102l1 -2v-3q3 -30 -5 -42q-16 -1 -53.5 -16.5t-58.5 -14.5l-8 16v113q-29 19 -59 15q-15 -1 -31 -13q-1 -22 -0.5 -69t0.5 -68q23 -27 24 -30q10 -15 29 -34l24 -23q18 -16 31 -37
l17 -22q6 -7 20 -19q1 -2 9.5 -10t11.5 -13q3 -4 9 -10.5t9 -10.5q2 -3 5.5 -6t8.5 -7t8 -6q1 -3 1.5 -16.5t4.5 -20.5q4 -6 0 -11q-4 -9 -4 -33v-175l-9 -14l-5 -13q-13 -18 -39 -40l-6 2q-10 -4 -40 -21q-4 -17 3 -70l-9 -8h-88q-10 5 -9 15q0 2 1 6.5t1 6.5t-5 18
q-2 7 0 18t1 17l-40 16q-37 26 -70 70l-2 25q-2 17 0 25q2 7 -1 14q-8 33 0 60q2 5 -3 24l7 14q2 3 9 4t10 3q8 -2 13 -4q12 4 25 5t30 0.5t24 -0.5q8 -4 10 -15q1 -4 -2 -11.5t-3 -12.5q3 -6 4 -11q-5 -15 -4 -41t0 -41l23 -18q21 -11 35 -4q2 1 16 5q2 2 7 8t9 10v133
q-16 33 -44 62q-30 30 -43 52q-4 7 -16 19q-39 39 -51 56q-7 11 -23.5 29t-23.5 27q-1 1 -13 23q1 11 0 28t-0.5 31t5.5 30q-5 11 -5 31q0 49 -1 73q0 25 3 31q4 4 14.5 18.5t19.5 20.5q31 21 56 30q1 0 9.5 0.5t13.5 0.5q4 3 4 13v64q10 3 43.5 3.5t53.5 -1.5q4 -4 4 -13
q0 -24 1 -28q1 -6 -0.5 -18.5t-0.5 -18.5z" />
    <glyph glyph-name="percent" unicode="%" horiz-adv-x="534" 
d="M329 862q22 -2 27 -1q10 4 17 1q6 -2 18 0t17 -1q4 -4 2 -12l-24 -82l-3 -14l-3 -18t-4 -18q-19 -67 -29 -114q-1 -6 -5 -21t-6 -23q-2 -9 -14 -43q-6 -20 -15.5 -61t-15.5 -61q-5 -15 -12 -45.5t-12 -45.5q-5 -16 -4 -20q1 -12 -8 -45q-2 -7 -7.5 -24.5t-8.5 -27.5
q-6 -18 -6 -27q0 -7 -4 -19.5t-2 -18.5q-18 -38 -29 -83q-2 -11 -6 -19q-2 -5 -8 -15q-4 0 -15 -1.5t-17 -0.5q-6 2 -17 -0.5t-16 -2.5l-21 6q-5 8 0 18q6 10 15 43l24 85q15 57 20 65q1 15 5.5 31t11 36t9.5 30q19 72 26 90q3 10 6.5 29.5t6.5 29.5q10 42 16 63q2 8 6 25.5
t7 26.5q10 37 12 53q1 6 4.5 15.5t4.5 14.5q7 28 19 84l2 6q6 14 26 90q3 10 10 22zM469 292q4 -6 9.5 -16t8.5 -14q13 -19 6 -35q-2 -8 -2 -14v-60q0 -21 -5 -31q-1 -2 -2 -8t-2 -8q-12 -33 -54 -45q-26 -2 -44 4q-1 0 -27 3q-5 1 -35 21q-6 4 -10.5 16.5t-9.5 16.5
q0 10 -5 48q-2 27 -2 31q1 9 1 25q0 17 9 38l8 18q29 21 78 30q4 -2 43 -4q11 -8 35 -16zM54 597q-5 9 -7 18t-3 20t-2 15q-3 14 -4 40t-1 31v32q24 46 73 60q48 15 90 -19q23 -28 27 -32v-141q-20 -31 -36.5 -42t-51.5 -18q-5 1 -23 1.5t-27 6.5q-26 17 -35 28zM104 662
q1 -6 7 -20l17 -8q3 4 11.5 4t11.5 3q7 20 6 27q-2 57 -6 71l-4 2l-2 1h-28l-10 -9zM419 137q1 4 3 11t2 10v9q-2 11 -2 31t-1 31q0 11 -6 16q-32 0 -36 -1q-2 0 -8 -6q2 -4 2.5 -7.5t-0.5 -9t-1 -7.5q0 -4 1.5 -13t1.5 -10q0 -9 2 -25q2 -19 7 -24q15 -9 35 -5z" />
    <glyph glyph-name="ampersand" unicode="&#x26;" horiz-adv-x="543" 
d="M76 766l16 28q12 27 21 34l12 8q64 53 151 29q31 -8 54 -24q47 -34 48 -79q0 -5 2 -19t2 -22q1 -5 0 -12.5t-1 -9.5v-22q-2 -4 3 -20q-7 -16 -4 -24q6 -12 0 -33v-16l-43 -75q-7 -11 -22 -34.5t-23 -36.5q13 -44 33 -93q4 -12 12 -25q7 -11 17 -33q2 -8 8 -6h3l19 48
q1 7 1 12v6.5t0.5 5.5t1.5 11l12 7q12 3 26 10t22 9q5 1 19 7.5t23 6.5l8 -8q-3 -18 -0.5 -43t1.5 -34q-1 -11 -5 -21.5t-11 -25t-10 -21.5q-6 -16 -21.5 -45.5t-18.5 -35.5q-1 -3 -6.5 -13.5t-6.5 -12.5q-2 -7 13 -16q11 -3 34.5 -2t35.5 -2q2 -7 -0.5 -19.5t-2.5 -16.5
q0 -3 1.5 -19t-0.5 -19q-1 -5 2 -18.5t-1 -19.5l-7 -8l-6 -2q-3 1 -22 -2h-23l-30 3q-24 4 -44 28l-5 3q-3 1 -12 -6q-43 -33 -94 -34q-6 0 -24 -1.5t-28 -0.5q-28 4 -42 3q-1 0 -5 2q-13 1 -34.5 11t-26.5 12q-4 1 -13 10q-2 4 -8.5 8t-8.5 6l-4 4q-13 13 -19 55
q-4 27 -5 56.5t-0.5 67t0.5 52.5q4 25 26 55q2 2 21 30t28 43q15 29 41 50q-24 57 -26 63q-3 10 -7 15q-9 11 -20 33t-14 27q-12 21 -16 45q-2 13 0 42t1 40q0 12 -3 17q3 5 4 15t1 12zM297 137q-41 100 -87 184q0 1 -2 1q-2 1 -3 1q-25 -21 -31 -45q-12 -41 0 -71
q-7 -31 -5 -67q10 -21 17 -26q5 -4 17.5 -8t13.5 -4q23 -8 45 5q26 17 35 30zM178 731q7 -11 7 -41v-42q19 -25 38 -68l3 -6q3 -4 9 -3q36 59 45 81q-7 18 -7 52.5t-3 47.5q-7 10 -17 14q-38 2 -50 0q-14 -7 -25 -35z" />
    <glyph glyph-name="quotesingle" unicode="'" horiz-adv-x="199" 
d="M161 855q1 -6 -4 -18q-7 -15 -7 -36q-2 -36 -5 -43q-1 -4 -1 -12q2 -21 -4 -39q-1 -2 1 -12q-3 -6 -11 -18q-39 -2 -47.5 -1.5t-19.5 5.5q-7 14 -9 38q0 21 -4 29q-2 6 -1 11q1 13 -3 36t-4 32q-1 5 -5 20q1 9 10 18h10q16 -6 30 -2q14 3 33 0q6 -1 16.5 -1.5t14.5 -0.5
q7 0 10 -6z" />
    <glyph glyph-name="parenleft" unicode="(" horiz-adv-x="220" 
d="M46 273q0 7 1 21t0.5 24.5t-3.5 20.5q4 3 2 12t-1 12q3 6 1 14q-4 10 -2 44q0 1 1 3v2q-4 19 -3.5 53t-1.5 53q2 11 1.5 35t2.5 35q-2 8 -2 50v119q0 15 4 23l-6 15q-1 4 3.5 15t0.5 18q6 12 7 15q0 1 -0.5 3.5t-0.5 4.5q3 4 5.5 8.5t5 10t4.5 8.5q10 13 20.5 21.5
t27 18.5t24.5 15q23 -18 33 -42q2 -4 7.5 -11t7 -10.5t-1.5 -10.5l-20 -16q-28 -24 -30 -37q-1 -13 0 -37t0 -36q-3 -60 -1 -96q1 -13 0.5 -37t-0.5 -36q0 -66 -1 -74q0 -3 1.5 -35.5t-5.5 -36.5q5 -9 5 -24q0 -25 0.5 -75.5t0.5 -76.5q0 -13 4 -19q-1 -6 -4 -11l4 -18
q1 -5 -2 -17.5t0 -18.5q3 -3 1.5 -26t-1.5 -26q1 -8 1 -25t2 -25q6 -29 18 -43q5 -7 14.5 -21t11.5 -17q-11 -23 -47 -71l-6 -2h-10q-1 1 -4 4.5t-4 5.5q-8 12 -12 16q-8 7 -14.5 14t-10 12t-9.5 15t-10 16l-12 44l3 8q2 8 -1 10q-2 4 0 11.5t1 10.5q-1 5 -1 13.5v14.5
q-4 19 2 47q1 4 -1 12t-1 13q1 2 0 11t-1 11q-1 10 -1 59l3 3l1 1l2 -1z" />
    <glyph glyph-name="parenright" unicode=")" horiz-adv-x="228" 
d="M170 595l3 -6q0 -7 -1 -21t-0.5 -24.5t3.5 -20.5q-4 -3 -2 -12t1 -12q-3 -6 -1 -14q4 -10 2 -44q0 -1 -1 -3v-2q4 -19 3.5 -53t1.5 -53q-2 -11 -1.5 -35t-2.5 -35q2 -8 2 -50v-119q0 -15 -4 -23l6 -15q1 -4 -3.5 -15t-0.5 -18q-6 -12 -7 -15q0 -1 0.5 -3.5t0.5 -4.5
l-15 -27q-10 -13 -20.5 -21.5t-27 -18.5t-24.5 -15q-23 18 -33 42q-2 4 -7.5 11t-7 10.5t1.5 10.5l20 16q28 24 30 37q1 13 0 37t0 36q2 60 1 96q-1 13 -0.5 37t0.5 36q0 66 1 74q0 3 -1.5 35.5t5.5 36.5q-5 9 -5 24q0 25 -0.5 75.5t-0.5 76.5q0 13 -4 19q2 6 4 11l-4 18
q-1 5 2 17.5t0 18.5q-3 3 -1.5 26t1.5 26q-2 8 -2 25t-1 25q-6 29 -18 43q-5 7 -14.5 21t-11.5 17q11 23 47 71l6 2h10q1 -1 4 -4.5t4 -5.5q8 -12 12 -16q8 -7 14.5 -14t10 -12t9.5 -15t10 -16l12 -44l-2 -8q-3 -8 0 -10q2 -4 0 -11.5t-1 -10.5q1 -5 1 -13.5v-14.5
q4 -19 -2 -47q-1 -4 1 -12t1 -13q-2 -2 -0.5 -11t1.5 -11q1 -10 1 -59l-3 -3l-1 -1z" />
    <glyph glyph-name="asterisk" unicode="*" horiz-adv-x="371" 
d="M222 869q9 -3 12 -7q1 -2 1 -4q-7 -18 -13 -52q-7 -34 -11 -41q-1 -1 -1 -4l-3 -18l4 -2q12 13 37.5 33t36.5 31h8q3 -2 5 -5t4 -7l3 -6q21 -42 25 -47q1 -1 6 -14q-1 -5 -9 -10q-16 1 -44.5 -9t-34.5 -11q-1 0 -5 -4q2 -2 4.5 -5t5 -5.5t4.5 -3.5q7 -5 26 -22.5
t32 -23.5q1 -4 -5 -15q-2 -2 -7 -7.5t-8 -8.5q-10 -10 -19 -22l-18 -25q-2 -1 -10 -1q-1 1 -2 1v1l-1 1q-34 68 -50 102q-6 1 -9 -2l-12 -32q-23 -56 -31 -70q-1 -1 -15 -1q-6 4 -16.5 13.5t-16.5 13.5q-14 9 -26 30l-8 13q2 4 4 5q20 16 30 23q20 15 42 35l-2 6l-47 18
l-6 4q-1 0 -5.5 -1t-7.5 -2q-27 9 -31 10q-2 17 0 25q18 44 33 63q6 1 10 -3q5 -6 17 -14.5t14 -9.5q1 -1 4.5 -2t5.5 -2q19 -21 42 -35l6 3q0 6 -1.5 12.5t-4 14.5t-3.5 12t-5 18.5t-7 22.5q-2 7 -5.5 20t-5.5 18q2 5 9 5h47h8.5h10.5h9z" />
    <glyph glyph-name="plus" unicode="+" horiz-adv-x="548" 
d="M229 484q0 47 3 58q-3 8 -0.5 29t1.5 29q0 9 1 28.5t0 30.5q0 2 2 7t2 6l13 6h15t18.5 -0.5t15.5 -2.5q13 -2 23 2h3h4.5h3.5q4 -8 1 -24.5t-1 -23.5q2 -12 1.5 -17t-2 -16.5t-1.5 -16.5q0 -31 -2 -47q0 -1 -3 -49q5 -1 14.5 -1h13.5q16 -3 31 -3h28q42 2 70 -3
q3 -1 18 -1q11 -6 13 -13q-7 -12 -9 -38t-8 -37l-4 -3q-5 -2 -14.5 0t-13.5 1q-6 -1 -27 1q-29 4 -39 2h-14q-2 0 -10 1.5t-12 1.5h-36q-3 -6 -3 -9q0 -14 -2.5 -45t-1.5 -47v-3q-2 -39 4 -57q-8 -9 -22 -9q-11 -2 -22 0q-22 5 -42 -1h-11q-1 1 -2.5 5t-3.5 6q6 18 0 38
q3 15 3 16q0 17 7 80q2 13 -3 19q-6 4 -18.5 4.5t-14.5 0.5q-37 8 -89 6q-2 0 -7 -1.5t-7 -0.5q-9 2 -29 1.5t-31 1.5q8 39 5 85q3 1 11 3.5t12 4.5h5l36 -3q24 0 31 -3q9 -2 14 0q5 3 19.5 1.5t18.5 -1.5q13 1 39 1h5z" />
    <glyph glyph-name="comma" unicode="," horiz-adv-x="201" 
d="M163 5q-18 -23 -31 -55q-3 -6 -9.5 -16.5t-8.5 -15.5q-10 3 -28 0t-26 -1q-8 6 -4 16q14 44 26 65q-5 3 -17.5 3.5t-17.5 7.5q-2 1 -4 18l-3 30q-4 8 -1 14q2 11 2.5 15t-1.5 14t-2 14q3 10 8 13q40 -5 90 1q3 -2 28 -4q-2 -20 -2 -58v-29.5t1 -31.5z" />
    <glyph glyph-name="hyphen" unicode="-" horiz-adv-x="259" 
d="M218 470v-14q0 -2 -2 -6t-2.5 -6t1.5 -6q3 -2 2 -9t0 -9q7 -14 -3 -24q-3 -2 -14 -2h-104q-31 -3 -36 -5h-12l-9 15v67l1 2q1 2 1 3q3 3 12 -2q10 6 16 3t19 -1q3 0 13 2q1 0 6 -2.5t7 0.5q3 2 8.5 0.5t9.5 0.5q2 1 20 1q14 0 19 -3q3 3 13 2t13 0q6 1 21 -7z" />
    <glyph glyph-name="period" unicode="." horiz-adv-x="209" 
d="M43 4q3 12 -0.5 32t-2.5 28q1 10 1 56l9 8q19 -1 55.5 -0.5t54.5 -0.5q2 -2 5 -14q1 -12 0.5 -21.5t0 -21.5t2.5 -21q5 -17 -6 -44q-4 -1 -15.5 -2t-17.5 -4q-6 -2 -14 0q-12 3 -72 5z" />
    <glyph glyph-name="slash" unicode="/" horiz-adv-x="401" 
d="M289 923q40 7 75 0q7 -7 3 -16t-8.5 -33.5t-11.5 -36.5q-3 -24 -17 -70q0 -20 -15 -64.5t-17 -53.5q-5 -20 -15 -56.5t-13 -48.5q-7 -29 -21 -91t-22 -94q-4 -15 -12 -43t-11 -40l-42 -157q0 -12 -9 -44.5t-9 -44.5q-1 -7 -7 -21q-9 -24 -17 -63q-4 -7 -16 -7
q-15 -1 -33 -1q-5 0 -15.5 -0.5t-16.5 -0.5q-5 3 -5 4q-1 5 5 25q5 12 26 85q15 52 37 145q2 9 33 127l14 56q1 3 3 13t4.5 16.5t6.5 12.5q1 1 1 3.5v3.5q10 53 14 63q2 6 7 38q21 92 25 108q7 24 18 79q3 13 14 48.5t13 47.5q3 17 12 47.5t12 41.5q2 11 10 22z" />
    <glyph glyph-name="zero" unicode="0" horiz-adv-x="408" 
d="M42 746q1 1 1 3q9 36 14 44.5t33 36.5q5 5 17 11q30 16 73 26q5 2 15.5 2h12.5q9 0 29 -5t27 -5q18 -2 43 -20q33 -23 39 -30l13 -26q3 -5 1.5 -30t-1.5 -33v-38t1 -39q1 -9 1 -32.5t2 -36.5q-4 -2 -1.5 -19.5t2.5 -19.5v-81q1 -13 1 -40q-1 -8 1 -23.5t2 -23.5
q-1 -2 0 -6t1 -5q-6 -30 -2 -45q-2 -4 -2 -28.5v-28.5v-109q0 -32 -2 -48q0 -5 -5 -22q-27 -62 -96 -75l-9 -3t-11 -3t-10 0t-15 -1.5t-12 -2.5q-35 0 -71 14q-19 8 -35 18q-27 14 -43 51q-2 4 -3 9.5t-1.5 12.5t-1.5 11q-4 30 -4 111q0 31 -3.5 74t-4.5 65q0 3 3 22t3 23
q-3 90 -3 91q3 40 3 80q-3 26 1.5 67.5t-0.5 58.5q-2 10 -1.5 24.5t-1.5 23.5zM159 727q4 -11 4 -32q2 -43 1.5 -65.5t-2.5 -30t-3 -10t0 -5.5q4 -23 4 -74v-39q-9 -46 1 -163q0 -30 3 -37v-8q-2 -22 1 -39q2 -12 0 -23q-6 -42 -1 -76q-4 -14 12 -26q11 -7 17 -6q3 1 16 1
t23 2t12 8q4 7 0.5 32.5t-3.5 32.5q0 1 1.5 29t1.5 42q0 28 -1 59.5t-2.5 69t-2.5 59.5q-1 24 0 70t0 70q0 6 3 16t3 15q-1 15 -4 42.5t-3 42.5q0 7 1.5 28t0.5 32q0 3 -5 5.5t-12.5 5.5t-9.5 4q-35 2 -49 -12z" />
    <glyph glyph-name="one" unicode="1" horiz-adv-x="300" 
d="M258 4q-20 -3 -59 -3.5t-59 1.5q-10 26 -5 40t0 29q-3 10 -3 42q0 124 -1 186q0 17 2 22q2 2 2 5q-3 16 -3.5 33.5t0 39t0.5 33.5v52.5v51.5q-3 48 -4 53q-2 7 -2 31q0 3 -0.5 8t-0.5 7q-6 6 -17 4q-9 -3 -19.5 -4t-23 -0.5t-19.5 0.5q-2 0 -19 5q-2 4 -2.5 10t0 10.5
t-0.5 10.5q-2 24 -3 28q-1 3 1 11q1 0 41 17q7 3 13 7t8.5 6.5t7.5 8.5t7 8l8 17q2 5 10.5 16.5t10.5 19.5q1 4 5.5 19.5t5.5 24.5q28 7 40 3q4 -1 11.5 1t10.5 1q6 -2 19 0q17 1 35 -6l-3 -44q-2 -3 -2 -19.5v-19.5q-1 -10 -1 -49t-3 -60q0 -5 0.5 -10.5t1.5 -12t1 -10.5
v-37.5t2 -46.5q3 -35 3 -99.5t1 -81.5q1 -18 0.5 -32t0 -31.5t2.5 -31.5q-2 -14 -2 -81v-28t-1 -28q-1 -25 2 -55q2 -16 4 -48q0 -18 -3 -24z" />
    <glyph glyph-name="two" unicode="2" horiz-adv-x="409" 
d="M158 124q12 -4 35.5 -4t35.5 -4q9 3 14 3h42q12 0 33 8.5t24 9.5q1 0 10.5 4t13.5 4.5t9 -1.5q-8 -95 1 -135l-6 -6q-17 -3 -52 -3q-73 2 -110 0q-26 -1 -78 1q-11 1 -19.5 0.5t-19.5 0t-20 2.5q-6 1 -28 -3q-8 15 -6 26q1 3 -2 28q0 4 1 13t0 14q-1 3 -1 31v82
q0 21 10 44q15 36 46 86l16 29q5 10 17.5 31.5t21 38t14.5 33.5l5 10q8 13 41 83q19 40 29 50q3 3 5 6.5t4 8.5t3 7v119q-4 11 -18 17q-18 4 -58 -5q-8 -5 -8 -14q0 -17 1 -41q0 -39 -4 -46q-17 -1 -53.5 -19.5t-56.5 -16.5q-6 2 -10 10.5t-5 9.5v9q0 46 2 54l-3 30
q0 12 1 14q3 6 4 18.5t2 16.5q6 6 18 30q29 38 88 48q5 0 37 11h23q17 0 25 -3q3 -2 11 -2q21 0 45 -12q14 -7 24 -6q5 -5 17 -14.5t17 -16.5q2 -3 7 -11.5t9.5 -14.5t9.5 -11v-47q1 -12 -1 -36v-39q0 -31 -1 -37q-8 -41 -9 -44q-5 -15 -19 -39.5t-19 -35.5q-28 -59 -32 -69
q-4 -8 -9 -17t-11.5 -20t-9.5 -17q-1 -2 -3 -4t-2 -3q-5 -15 -20 -41.5t-17 -30.5q-6 -12 -20 -34l-41 -73v-65z" />
    <glyph glyph-name="three" unicode="3" horiz-adv-x="412" 
d="M151 368q-9 14 -8 23q2 22 0 33q-1 6 -1.5 17t-0.5 15q0 6 -0.5 17t-0.5 16q0 3 3 6q6 3 27 1q37 -2 62 9q9 6 12 23q8 40 3 81v8q2 50 -2 65q2 12 2 17.5t-2 17.5t-2 16q-1 6 -12 17q-16 9 -55 9q-9 -3 -17 -12q0 -5 -3 -16.5t-2 -18.5q1 -6 0 -15t0 -16t6 -15
q-2 -2 -4 -2.5t-4 -2.5l-5 -3q-8 0 -21.5 -6.5t-17.5 -7.5q-6 1 -18.5 -3.5t-18.5 -4.5q-2 0 -11 -1.5t-10 -1.5q-3 1 -4 2.5t-1.5 4t-2.5 5.5q-2 10 -1.5 33.5t-0.5 35.5q-2 16 2 64l6 12q14 37 61 54l10 5q24 14 70 18q14 1 40 0t34 -1l53 -20q38 -34 54 -112l-3 -23
q0 -5 1.5 -29.5t-0.5 -29.5q3 -12 2.5 -35.5t1.5 -35.5q2 -15 -3 -37q-2 -8 -2 -39q-22 -47 -54 -68q3 -4 6.5 -6.5t10 -5.5t8.5 -4q19 -19 25 -35t5 -43q-1 -23 -1 -68q0 -2 3 -17q0 -6 2 -20q1 -7 -1 -24.5t0 -25.5q1 -5 1 -48q0 -5 -2 -19t-1 -22q3 -14 2 -16
q-11 -33 -43 -62q-20 -16 -56 -25q-22 -6 -41 -5q-7 0 -19 -0.5t-18 -0.5q-54 2 -84 19q-3 2 -9 4l-9 3q-22 10 -30 28q-2 5 -9 16.5t-11 21t-6 20.5q0 11 -1.5 54t1.5 57q4 5 10 5q32 1 95 1q15 0 22 -10q1 -10 1 -42t3 -47l12 -9h44q14 7 19 12l10 33q-2 14 -2 18
q-1 22 -1 68l-1 38q0 39 1 39q0 7 -3.5 19t-3.5 17q-6 14 -22 14q-4 0 -12 1t-14.5 1t-11.5 -2q-8 -3 -31 -1z" />
    <glyph glyph-name="four" unicode="4" horiz-adv-x="444" 
d="M187 854q13 3 40.5 3t43.5 4q11 -6 36 -4q7 -5 3 -16l-13 -35q-3 -8 -9.5 -32.5t-12.5 -37.5l-6 -27q-3 -13 -26 -87q-8 -23 -12 -41q-2 -11 -5.5 -18.5t-6.5 -16.5q-4 -28 -18.5 -70.5t-15.5 -46.5q-2 -16 -24 -96q2 -6 9 -4q4 3 14 0q2 -1 5 0t11 0q5 -3 26 1h10t11 1
q2 3 2.5 9.5t2.5 10.5q-4 16 -4 23q0 8 2 94q0 2 0.5 4t0.5 3l3 3q10 0 18.5 3t20 9t22.5 9q7 2 19 6.5t17 5.5q3 1 8 1t6.5 -1t1.5 -3t1 -3q0 -1 0.5 -4t0.5 -4q0 -4 0.5 -14.5t-0.5 -14.5q-4 -18 1 -25q-2 -25 -4 -108q9 -4 37 1q17 -7 17 -9q2 -6 1.5 -9t-1.5 -6v-2
q5 -11 2 -23q-1 -5 -4 -65q0 -1 -1.5 -4t-1.5 -5q-7 -3 -20.5 -2.5t-21.5 -1.5q-1 -11 -1 -68v-71q0 -7 0.5 -21t0.5 -25.5t-1 -22.5q-20 -1 -55 -0.5t-54 -0.5q-2 0 -6 1.5t-6 1.5q-3 6 -2 35.5t1 35.5q-1 12 -0.5 34.5t0.5 33.5v36t-2 35q-2 3 -6 1q-8 -4 -21.5 -4.5
t-23.5 0.5h-10q-12 -4 -51 -2.5t-51 0.5h-28q-3 -2 -11.5 -1t-11.5 0q-4 4 -5 13t-4 13q2 8 2 16t-1 13l-1 6q0 5 -0.5 9.5t-0.5 9.5q-1 16 7 36q7 16 14.5 42t16 57.5t11.5 42.5q30 104 43 156q0 4 1 6q17 45 37 114l13 52q8 32 20 61z" />
    <glyph glyph-name="five" unicode="5" horiz-adv-x="426" 
d="M45 856h85h28q19 3 42 1q14 -2 25 1q17 6 45 2q18 -2 35 3q19 7 36 1q9 -2 25 -4q6 -17 7.5 -38t0.5 -37.5t0 -36.5q-5 -8 -13 -8q-7 0 -20 -0.5t-20 -0.5q-26 0 -39 -3q-7 -3 -16 -1q-19 4 -72 4q-3 0 -8 1.5t-7 1.5l-11 -5q-2 -23 -2 -93t2 -113q0 -11 9 3q25 33 66 40
q48 8 69 2q23 -8 25 -8q3 -1 8 -7t11 -7q6 -7 16 -21q7 -11 8 -31t2 -23q3 -12 3 -35v-48q-1 -7 -1 -14.5t0.5 -17.5t0.5 -15v-14q-6 -17 -2 -43q0 -8 -1 -11q-3 -14 2 -27q0 -1 -2 -10.5t-1 -14.5q1 -13 0 -37t0 -36v-22v-25.5v-19.5q-2 -4 -4.5 -9.5t-4.5 -9t-3 -7.5
q-12 -30 -51 -50q-19 -9 -63 -22q-6 -2 -28 -2q-59 1 -114 23q-7 3 -17 11q-29 25 -48 61q-2 34 -6 41q1 18 1 63q0 11 -0.5 16.5t-0.5 15.5q0 3 -1.5 9.5t-1.5 8.5q4 5 15 7.5t14 4.5l88 30l8 -7l4 -31v-15v-15q4 -19 3 -30q-1 -14 1 -41q0 -10 2 -30q5 -5 11.5 -7t15 -3
t13.5 -2q3 1 12 2t15.5 3.5t12.5 7.5q0 1 3 42q0 10 -0.5 29.5t-0.5 29.5q0 15 0.5 34t0.5 33q0 21 5 29l-4 15q0 1 2.5 10t0.5 14q-4 17 0 52q0 4 -1 13.5t0 14.5l-5 13q-3 3 -11 7.5t-11 8.5l-22 -4q-11 -6 -25 -22.5t-20 -21.5q-16 0 -50.5 -0.5t-51.5 -0.5q-16 0 -21 10
q-1 6 0 34.5t-3 37.5q3 14 2 26v61v82q0 28 -3 36q-1 4 0.5 13.5t-0.5 14.5q-4 9 2 24q1 5 1.5 15t0.5 13v37v33q0 1 1 5q1 3 1 6z" />
    <glyph glyph-name="six" unicode="6" horiz-adv-x="414" 
d="M337 519q27 -44 35 -71q0 -65 2 -199q0 -84 -2 -126q-2 -40 -21 -69q-20 -32 -36 -42q-10 -6 -21.5 -9.5t-28 -5.5t-22.5 -3q-7 -3 -38.5 -2t-37.5 1q-32 9 -65 26q-36 30 -53 61q-8 17 -8 49q1 34 0 68q0 3 2 16t0 16q-1 4 -1 34q0 24 -1 36q0 23 -1 34v34v34
q-1 8 -0.5 27.5t0.5 27.5q0 36 1 53q0 19 3 25q-3 15 -3 61q0 12 0.5 39.5t0.5 38.5q0 7 -4 33q3 11 3 39q-2 28 15 47q5 5 11.5 15t8.5 12q1 1 2.5 3t3 3.5l3 3t3.5 2.5q43 26 56 30q1 1 3 1q30 13 51 11q42 -2 50 -6q5 -2 16.5 -2.5t16.5 -1.5q28 -9 36 -15l10 -5l21 -22
l18 -26q4 -7 7 -19q0 -1 -0.5 -48.5t3.5 -48.5q-2 -12 -9 -17q-2 -1 -9.5 -3.5t-11.5 -4.5q-3 -2 -13 -6t-13 -5l-34 -15q-3 -1 -10.5 -1t-11.5 -3q-9 3 -15 10q0 12 0.5 37t0.5 46t-1 37q-6 10 -21 16q-22 -2 -56 -8q-7 -5 -12 -18q0 -16 1.5 -40t1.5 -42q0 -1 0.5 -10.5
t0.5 -16.5v-11q-4 -17 -4 -88q0 -13 1.5 -16t3 0.5t4 8.5t3.5 5l5 3q17 15 60 19q30 2 57 -12q28 -13 43 -25zM163 258q-5 -21 -1 -66q0 -4 1 -14t1 -14q0 -6 0.5 -17t0.5 -16q0 -3 2 -9l19 -16q3 0 12.5 -3.5t14.5 -2.5q24 8 35 20q2 8 1.5 28t3.5 28q-3 4 -3 21v101
q0 55 -2 82q0 23 -16 38q-12 9 -39 7q-27 -12 -33 -19v-83q0 -4 1 -5q6 -14 0 -36q-3 -9 2 -24z" />
    <glyph glyph-name="seven" unicode="7" horiz-adv-x="364" 
d="M185 5q-12 -4 -13 -4q-4 -1 -14 -1h-14q-7 -1 -24 1.5t-24 -0.5h-39l-10 8q5 10 14 57q5 20 17 60q1 3 3.5 11.5t4.5 16.5t2 12q0 2 21 118q2 10 7 29t7 28q1 5 6 16t7.5 21.5t0.5 21.5q1 9 5 22q0 1 2 5t2 8q0 11 2 22t6 25.5t6 21.5v4t1 4q7 13 11 39t8 36q5 10 7 35
q1 9 7 25q0 1 2 4.5t2 5.5q0 12 6.5 34.5t6.5 33.5q3 14 2 15q-7 2 -14.5 2t-17 -1t-14.5 -1q-32 2 -48 2q-8 -1 -21 -6.5t-20 -6.5t-24.5 -9t-26.5 -8q-6 4 -9 7q-3 15 -4 39t-0.5 53.5t0.5 39.5l8 6h13q3 0 8 -1.5t6 -1.5q4 0 16 2t17 -1q14 -4 33 3q4 1 11 1h11h132
q3 0 13 0.5t15 1.5q4 1 13.5 0.5t13.5 1.5q13 5 23 -8q3 -19 3 -54.5t1 -43.5q-2 -12 -9.5 -37.5t-9.5 -39.5q-1 -7 -23 -103q-2 -11 -23 -86q-13 -51 -15 -71q0 -10 -6 -30q-5 -15 -10 -43.5t-7 -35.5q-2 -12 -6.5 -36t-8.5 -42.5t-10 -35.5q-1 -4 -2 -11.5t-2 -10.5
q-11 -47 -13 -51q-1 -13 -11.5 -55.5t-9.5 -63.5z" />
    <glyph glyph-name="eight" unicode="8" horiz-adv-x="414" 
d="M43 768q0 3 3.5 10.5t2.5 11.5q4 4 11 11.5t13 13.5t12 11q7 6 22 16l18 12q1 0 6.5 1t8.5 2q13 7 39 10t29 4q5 -1 33.5 -4t43.5 -9q34 -15 70 -58q1 -5 7.5 -19t4.5 -23q2 -13 2.5 -32t0 -34.5t0.5 -32.5v-22.5t1 -22.5q1 -8 1 -22v-22q0 -10 -0.5 -21.5t-1.5 -25.5
t-1 -22q-7 -16 -11 -22q-6 -11 -14 -17l-12 -9t-14.5 -10t-14.5 -6q6 -7 19 -13t17 -9q0 -1 2.5 -7t4.5 -9q19 -26 23 -77q1 -7 1.5 -21t0.5 -18q0 -23 3 -28q1 -2 1 -8q0 -4 -3 -13t-1 -15q4 -12 4 -28q0 -51 1 -76v-14q-2 -4 -5.5 -17t-7.5 -19q-21 -31 -34 -41
q-93 -57 -208 -14q-45 31 -69 64l-9 25q0 37 -3 50q-1 3 -1 20q0 2 1.5 13.5t-0.5 13.5q-1 10 -1 28q-2 24 5 36q-6 14 -6 29.5t2.5 34t2.5 28.5q17 53 67 84q-2 5 -8.5 9t-8.5 6q-9 9 -18 14q-12 6 -17 21q-16 40 -15 68q1 21 1 69v70q0 4 -1.5 17.5t-0.5 20.5q1 6 1 37z
M165 348q4 -18 4 -45q-2 -50 -2 -76v-32v-36.5v-30.5q1 -2 4 -7t4 -8q29 -16 58 -12l18 14q2 10 1.5 31.5t3.5 30.5q-3 12 -3 62v20v24v20l-2 70q-3 5 -23 15q-23 -1 -59 -29zM249 528q0 8 -1.5 22.5t-1.5 24.5v57q0 10 0.5 34t0.5 34q-1 9 1 27t1 27q-5 9 -26 17
q-24 -2 -34 -1q-23 -14 -28 -28v-34v-49v-35q1 -33 1 -109q0 -3 2 -9l18 -13q12 -1 34 12.5t26 15.5z" />
    <glyph glyph-name="nine" unicode="9" horiz-adv-x="413" 
d="M247 349l-10 -8q-2 -2 -6 -6.5t-7.5 -7.5t-6.5 -6q-25 -22 -60 -16q-42 7 -57 19q-58 54 -52 86q-3 2 -2.5 19.5t0.5 19.5q-2 24 -2 37q2 28 -2 41q0 1 1.5 7t1.5 10q-1 6 -0.5 11t0 11t-2.5 11q2 6 0 31q-4 26 2 39q-3 18 -3 19q-1 5 -1 15.5v15.5v34q0 3 2.5 15
t-1.5 15q1 3 4 12.5t6 14.5q1 1 23 40q4 3 13.5 10.5t15 11.5t16 8.5t21.5 6.5q8 -1 29.5 3t34.5 2l69 -12q30 -5 66 -25q1 -3 11 -20t14 -26q4 -8 4 -27q3 -19 4 -39.5t0 -51t-1 -39.5q0 -75 3 -150q0 -12 -2 -79v-121v-4q1 -5 0 -5q0 -13 -2 -39q-1 -12 -1 -36
q0 -18 1 -22q2 -6 2 -17v-14t-1 -13.5t0 -16.5q1 -19 -11 -44q-25 -45 -75 -65q-4 -2 -19 -4q-37 -7 -46 -8q-27 -3 -77 13q-2 0 -4.5 1.5t-3.5 1.5q-57 20 -89 83l-4 33q7 16 -1 35q-1 3 -1 18q6 10 14 10q10 0 27.5 10t27.5 10q5 0 23.5 8.5t27.5 5.5q3 -11 3 -37
q0 -11 0.5 -35t0.5 -36q13 -15 55 -15q24 11 28 24l2 85q0 50 3 60q-4 1 -1.5 17t2.5 18q0 5 -1 16t0 18q1 4 0 8q2 2 -2 8l-2 -1q-1 -1 -1 -2zM247 442q9 19 4 34q-5 22 -2 40q6 51 1 72q0 2 1 3q3 2 2 12t-1 12q0 5 0.5 13t0.5 13q0 3 -2 13.5t-2 16.5q0 26 -4 78
q-10 7 -34 13q-3 0 -12 -3.5t-15 -2.5q-8 1 -20 -9q-2 -5 -1 -13.5t-1 -11.5q-7 -20 2 -50q-7 -20 -5 -45q0 -26 2 -39q0 -4 -1 -19.5t2 -18.5q1 -3 0.5 -4.5t-2 -4.5t-1.5 -5q6 -24 2 -74q2 -3 3.5 -10.5t5 -13t9.5 -9.5q24 -3 26 -4q27 5 42 17z" />
    <glyph glyph-name="colon" unicode=":" horiz-adv-x="207" 
d="M169 118q-1 -21 -1 -55.5v-54.5q-2 -2 -15 -5q-12 -1 -21 -0.5t-21 0t-22 -2.5q-17 -5 -43 6q-2 5 -2.5 16.5t-3.5 16.5q-2 4 0 14t3 22t1 26.5t1 23.5q12 -3 32 0.5t28 2.5q10 -1 56 -1zM48 309q2 42 -2 58q-3 10 2 38v10q0 10 3 15q22 -4 36 1q5 2 16 0q14 -5 33 0
q3 1 12 0t13 2q2 -12 2 -13q0 -79 -2 -101l-4 -5q-6 -2 -17.5 -2t-16.5 -1q-12 -3 -36 -1q-4 0 -16.5 -3.5t-19.5 -1.5z" />
    <glyph glyph-name="semicolon" unicode=";" horiz-adv-x="212" 
d="M176 57q-4 -8 -4 -23t-2 -25q-5 -10 -21 -47t-26 -54q-11 -5 -44 1q-2 0 -6 -1t-7.5 -1t-4.5 3q3 13 12 44t13 45q-3 3 -9.5 2t-8.5 1t-9.5 2t-10.5 4q-1 8 -1 46.5t-5 58.5q6 5 14.5 7t12.5 2t17 -1.5t14 -1.5l35 6q3 -2 15.5 -2.5t18.5 -6.5l6 -15q-8 -22 1 -44z
M43 356q1 6 -2 15t-2 15v28v17q9 4 20 4.5t19.5 0t19.5 0.5q10 1 29.5 -1t28.5 -2q0 -5 4 -31t3 -41q-2 -20 5 -28l-8 -9q-7 -3 -22 2q-54 -10 -89 -7q-3 2 -5 9q0 3 -1 14.5t0 13.5z" />
    <glyph glyph-name="less" unicode="&#x3c;" horiz-adv-x="412" 
d="M366 527q-2 -1 -8 -4.5t-9 -4.5q-13 -4 -38.5 -13t-38.5 -13l-54 -21q-12 -6 -79 -31q0 -6 9 -8q3 -1 11 -3.5t13 -4.5q88 -38 97 -43q80 -37 97 -43l5 -6q2 -32 2 -97q-4 -7 -12 -7q-16 7 -30 17q-22 16 -38 17q-4 0 -8 2q-41 19 -46 21q-13 5 -35.5 19t-27.5 17
q-25 13 -79 35q-28 14 -42 22q-15 -2 -19 4q-2 15 -2 48t-2 50q1 5 11 9l63 31q1 1 6 2t7 3q13 9 37.5 22t32.5 18q5 3 19 9t21 10q22 13 38 19q15 4 28 17q25 4 36 14q14 11 35 14q6 -6 5 -10q-2 -6 -0.5 -22t1.5 -22q-1 0 0 -21v-21q0 -15 -6 -25z" />
    <glyph glyph-name="equal" unicode="=" horiz-adv-x="410" 
d="M353 399q9 -3 13 -11q0 -9 0.5 -43t-1.5 -43q-4 -5 -15 -5h-106q-13 0 -14 -1q-8 -4 -15.5 -5t-20 0t-14.5 1q-26 -1 -76 -1q-5 0 -17 -3t-19 -2h-20l-9 16v70q8 10 13 15q66 2 91 -4l36 9q3 1 11 1q9 -3 10 -3q13 3 37.5 3t35.5 2q4 1 13 0t13 1q9 3 28 3h8.5h10h7.5z
M113 473h-65l-8 14v78l6 7l18 -8q18 -4 30 3l6 -2q11 -2 37.5 -2t37.5 2q8 2 13 2q15 1 45 1q33 0 42 4q1 1 13 1h68l9 -8q2 -4 1.5 -21.5t-0.5 -22.5q1 -7 3 -22t3 -22h-23q-27 0 -33 -3q-2 -1 -14 -1q-126 -2 -189 0z" />
    <glyph glyph-name="greater" unicode="&#x3e;" horiz-adv-x="412" 
d="M46 349q2 1 8 4.5t9 4.5q13 4 38.5 13t38.5 13q6 2 17 6t20 7.5t17 7.5q12 6 79 31q0 6 -9 8q-3 1 -11 3.5t-13 4.5q-88 39 -97 43q-80 37 -97 43l-5 6q-2 32 -2 97q4 7 12 7q16 -7 30 -17q22 -16 38 -17q4 0 8 -2q41 -19 46 -21q13 -5 35.5 -19t27.5 -17q25 -13 79 -35
q28 -14 42 -22q15 2 19 -4q2 -15 2 -48t2 -50q-1 -5 -11 -9l-63 -31q-1 -1 -6 -2t-7 -3q-13 -9 -37.5 -22t-32.5 -18q-5 -3 -19 -9t-21 -10q-22 -13 -38 -19q-15 -4 -28 -17q-25 -4 -36 -14q-14 -11 -35 -14q-6 6 -5 10q2 6 0.5 22t-1.5 22v42q0 15 6 25z" />
    <glyph glyph-name="question" unicode="?" horiz-adv-x="403" 
d="M364 670q3 -4 1 -16.5t-2 -16.5q0 -22 1 -34q0 -5 -0.5 -16t-0.5 -17v-26q1 -33 -23 -61q-31 -36 -44 -64q-10 -21 -20 -34q-8 -11 -19 -35v-66v-3l3 -22q-2 -2 -0.5 -10.5t1.5 -10.5q0 -4 -1.5 -10t-1.5 -10t0.5 -11t0.5 -11q0 -1 -0.5 -3t-0.5 -3q-3 -3 -8 -4t-6 -2
q-50 2 -65 -1q-4 -1 -38 -1q-4 4 -6 5q-2 6 -2 7q0 72 3 86q-3 1 -2 6.5t1 6.5q-6 44 2 66v11q0 2 0.5 5t0.5 4l9 8q2 8 6.5 17.5t8 15.5t10.5 16.5t10 15.5q8 12 21 36t17 30q1 2 5.5 6.5l7.5 7.5q8 12 12 20q0 8 1 10q8 21 2 46q1 4 -1 10.5t-2 10.5v45v66q-10 15 -31 15
q-33 2 -49 -1l-6 -3q-3 -2 -6 -8.5t-4 -8.5v-91l-8 -6q-7 0 -18.5 -5t-15.5 -6q-28 -8 -29 -8q-6 0 -18.5 -4t-18.5 -2q-5 4 -5 14v141l22 41q10 4 26 21t26 22l38.5 11t22.5 6.5t13 2.5t21 1q2 1 12 1.5t11 0.5q4 0 13 -2.5t14 -2.5q36 -3 72 -30q6 -5 16 -18t14 -17
q5 -5 6 -17.5t3 -17.5q-1 -3 -1 -12t-1 -15q0 -24 -1 -37q0 -3 1.5 -17.5t-0.5 -17.5zM266 108q2 -13 -1 -54t1 -48q-1 -2 -5.5 -2.5t-5.5 -1.5q-3 0 -11.5 1.5t-11.5 -1.5q-3 -2 -21 3q-13 -5 -34.5 -4.5t-34.5 -0.5q-8 23 -6 35q4 19 -2 30l-1 2v11q3 5 2.5 17.5t3.5 17.5
l6 4q24 2 60.5 0.5t50.5 1.5q8 -4 10 -11z" />
    <glyph glyph-name="at" unicode="@" horiz-adv-x="618" 
d="M435 -3q-28 -2 -34 -5q-4 -2 -32 -2q-15 0 -19 -3q-4 -1 -16 1q-6 1 -17.5 1.5t-15.5 0.5h-26.5t-29.5 2q-7 2 -33.5 5.5t-40.5 9.5q-3 1 -17.5 7t-20 8.5t-16 8t-18 11t-14.5 12.5t-11 14t-10 21.5t-8 18.5q-8 19 -8 95v39q-3 9 -5 42q0 17 4 24q-5 8 0 22q1 2 1 14
q0 20 -2 56t-2 57q0 3 -0.5 9t-0.5 8q-2 24 1 29l-2 44q0 1 -1.5 6t-1.5 8q0 8 2.5 25.5t1.5 27.5q0 6 0.5 16t0 18.5t-3.5 15.5q5 10 5 34q1 6 0 18t-1 17q2 5 6 21.5t10 25.5q24 35 114 69q3 1 20 6t23 10q4 1 17.5 2t20.5 4q3 1 9 1h10q7 1 12 0.5t12 0t12 3.5q2 1 17 1
l7 -3q7 -2 11 0q7 1 19 -3h6h7h6q12 0 18 -2q8 -3 24 -7.5t24 -7.5q48 -21 52 -23q38 -22 49 -37q3 -4 7 -8t7.5 -6.5t6.5 -7.5t4 -12v-50v-22q0 -14 -1 -19l3 -21q1 -3 -0.5 -11.5t0.5 -12.5q1 -2 1 -22v-26q1 -27 -0.5 -75.5t-1.5 -67.5q0 -2 -0.5 -5.5t-0.5 -6.5t1 -5
q2 -7 2 -33v-85q0 -22 -4 -30q0 -24 -22 -41q-4 -3 -22.5 -12t-19.5 -10q-5 0 -14 -3.5t-14 -3.5q-2 0 -9.5 1.5t-12.5 0.5q-8 0 -11.5 -1t-11.5 2.5t-11.5 5t-11.5 5.5t-11 6l-27 14q-5 4 -7.5 11t-3.5 8q-12 -26 -33 -40q-12 -8 -21 -8q-12 0 -24 -6q-10 5 -35 5
q-12 4 -50 42q-2 4 -2 20q0 19 -3 28q-2 8 -2 22l-2 164v14q-5 28 -1 67q0 2 -2 40q6 29 18 45q18 15 51 23q13 4 30 1q4 -1 10.5 -4t12.5 -4.5t11 -0.5q3 -2 11.5 -12t13.5 -12q2 3 2 13q0 4 2 12q7 1 36 1t36 5l10 -7q1 -15 0 -44t-1 -37q1 -14 1 -41v-41q0 -8 -0.5 -24.5
t0 -29.5t4.5 -25q-5 -17 2 -118q4 -7 24 -15q20 3 28 9q3 49 -1 92q-3 3 -1 9t0 9q-2 5 -2 7t2 6t2 6q0 1 -0.5 2.5t-0.5 2.5q-2 12 -4 32l3 31q0 23 -1 34q0 24 -3 30q-2 3 1 10t3 10q0 27 -2 63.5t-2 57.5v22q-1 7 -4.5 13.5t-10 11.5t-13 8.5t-16 7.5t-15 5.5t-16 4.5
t-12.5 4q-2 0 -8.5 2t-9.5 2q-22 2 -39 7q-19 7 -52 1q-19 -3 -57 -13q-60 -16 -78 -33q-5 -4 -9 -9q-2 -2 -3 -8.5t-2 -8.5q-2 -2 -2.5 -6t-1.5 -5q-3 -105 -3 -187q0 -14 3 -22q2 -5 2 -16q0 -79 1 -129q0 -29 2 -34q1 -1 0 -3.5t-1 -3.5q-2 -19 1 -28q5 -11 0 -22
q-4 -8 2 -19q2 -4 0.5 -10t-0.5 -8q4 -7 0 -19q-3 -7 0 -14q2 -9 1 -11q-2 -4 -2 -8q2 -5 8 -15q-1 -2 -1 -5q20 -34 63 -46q9 -2 23.5 -7t19.5 -7q5 -1 22.5 -1t22.5 -2q10 -3 28 -3q7 0 25 2q13 3 40 3q10 1 52 18q23 18 27 31h105q2 -13 -5 -26q-15 -44 -58 -77
q-28 -21 -35 -23q-6 -2 -22.5 -5.5t-22.5 -6.5zM319 285q26 8 31 21v143v25q-1 26 0 26q0 7 -1 23t0 25l-6 14q-13 15 -27 23q-20 -3 -33 -21v-132q0 -3 2 -11.5t0 -10.5q-3 -9 2 -21v-9q1 -18 1 -53q0 -21 1 -24q4 -4 9 -7t11.5 -6t9.5 -5z" />
    <glyph glyph-name="A" unicode="A" horiz-adv-x="450" 
d="M41 95l6 34q1 13 5 39q-30 -3 -31 10q-1 3 -2 5q-1 5 -5.5 19t-3.5 22q1 12 -7 33q-3 7 -3 24q2 3 9.5 3.5t16 0t10.5 -0.5q5 0 15 0.5t14 0.5q0 1 0.5 4t0.5 5l7 26l2 28q2 20 10 62q5 15 5 20q-1 8 3 22q3 18 2 22q0 3 0.5 6t1.5 7t1 6q6 42 11 63q4 14 9.5 23.5
t4.5 15.5q-4 20 3 46q2 5 4 27q1 5 4 18.5t4 21.5l2.5 10t2.5 11.5t1 10.5q-1 1 -1 3.5v8t-2 12.5q-19 69 -19 74q0 1 -0.5 5.5t-1 7.5t0.5 5q2 2 10.5 3.5t11.5 0.5q6 -3 21 -1q0 -2 3 -2t8.5 1t10.5 1q2 0 8.5 1.5t9.5 0.5q4 -1 14 -1t15 -2q4 -1 7 0q5 2 19 0.5t19 -1.5
q3 1 8 -1.5t6 -2.5q5 -2 5 -9q0 -8 5.5 -24.5l6.5 -19.5q4 -21 4 -47q0 -3 1.5 -7t1.5 -7l6 -51l19 -82q2 -8 4 -25t2 -18q2 -13 7 -36.5t7 -32.5l1 -2q1 -3 0 -5q0 -5 5 -38l10 -68q0 -4 4 -12.5t3 -13.5q-1 -16 3 -32.5t4 -23.5q-1 -4 1 -8q5 -15 7 -43t3 -34
q2 -21 11 -79q1 -5 6 -26l7 -21q3 -14 23 -65q3 -22 -1 -22l-4 -1q-3 -1 -4 0t-13.5 1h-27t-18.5 1q-12 2 -26 0q-4 0 -12 -2t-13 -2q-5 1 -5 5l-31 -1l4 2q-8 -3 -11.5 -2t-4 3.5t-0.5 10.5l4 19q1 2 2.5 11t2.5 11q7 28 6 30h1q-1 2 0.5 10t1.5 10q-1 6 -5 21.5t-3 26.5
q0 7 -4 11l-4 4q-2 0 -11 1t-10 0q-5 -1 -22 -1t-24 -1q-8 -1 -19 0t-18 1q-11 -1 -12 -10q-3 -27 -6 -51q-1 -4 1.5 -16t2.5 -15q14 -70 13 -74q-2 -6 -12 -3q-12 2 -31 0q-2 -3 -7 -3t-7 -2l-6 3q-37 -4 -71 0l-1 1q-2 0 -8 -2q-6 -1 -11 1q-10 2 -10 5q-1 2 1.5 9t6 17
t4.5 13q10 27 14 52zM180 285q67 2 88 0q0 2 -2.5 5.5t-1.5 6.5q0 24 -3 36q-1 6 -2 19.5t-3 20.5l-3 24q-2 28 -4 43q0 7 -1.5 20t-1.5 19q0 47 -11 96q-2 15 -8 19q1 -11 -5 -47t-6 -46q0 -11 -2 -13q-4 -7 -4.5 -19.5t-2.5 -17.5t-7 -45q-1 -6 -8 -37.5t-8 -49.5
q0 -2 -2.5 -14t-1.5 -20z" />
    <glyph glyph-name="B" unicode="B" horiz-adv-x="429" 
d="M62 514q-4 46 -3 67q0 53 -5 73q-2 13 0 19q4 10 4 43q0 3 -1 7t-0.5 7.5t2.5 6.5q-7 21 -11 37q-1 3 -8 19.5t-7 20.5q1 9 -4 19.5t-5 19.5l13 8q4 -1 22.5 -2t21.5 0q22 5 42 -1q2 -1 8 -1t18 0.5t22 0.5t18 -1q2 0 7 2t6 2q20 -4 28 -2q6 1 19 0t19 -1q12 0 38 -6
q1 0 15.5 -3t21.5 -6q27 -11 31 -37q1 -8 5 -22q3 -18 2 -33q-3 -24 2 -44q2 -6 -1 -46q-2 -18 -1 -22t4 -53v-71q-9 -20 -13 -28t-16 -20.5t-27 -17.5q4 -3 13.5 -9t13.5 -9q35 -27 36 -51q0 -2 2 -12t0 -12q-2 -5 -2 -13.5v-10.5q-2 -54 2 -75q0 -2 -0.5 -4.5t-0.5 -3.5
q-5 -15 0 -34q4 -13 0 -33q-1 -4 -1 -25q0 -2 2 -9.5t2 -11.5q0 -5 -1.5 -10.5t-1.5 -9.5v-18q-7 -28 -16 -42.5t-29 -33.5q-11 -5 -37 -15q-8 -4 -14 -3q-7 0 -29 -2.5t-29 0.5q-6 1 -20 1q-69 0 -78 1q-17 2 -24 -2q-4 0 -5 -1q-76 0 -89 6q-2 4 6.5 21t8.5 19q0 4 8.5 20
t6.5 21q0 1 3 4t3 4q4 9 4 16q1 14 1 39v137l-2 28q-4 24 1 54q2 7 -2 11q-3 2 -16 2t-18 10l-2 5q-1 5 -1.5 20t-2.5 24q-2 6 -2.5 21.5t-3.5 22.5q-1 2 -1 16q4 6 16 6q25 0 32 6zM183 383q-1 -5 -1.5 -16t-3.5 -17q-2 -4 0 -14v-27q-1 -19 -1 -56q0 -14 2 -20l3 -33
q0 -2 -1 -15t0 -15q1 -6 1 -15.5v-15.5q0 -11 4 -13q28 -2 43.5 2.5t35.5 21.5q11 24 11 37v28q3 9 -2 27q3 5 0 32q-5 31 -1 42q1 4 0 15.5t2 23.5l-3 7q-3 6 -3 7q-11 17 -50 15q-11 -1 -36 -1zM251 507q18 23 16 51q0 20 -0.5 61t-0.5 62q0 4 0.5 10.5t0.5 9.5l-4 21
q-10 12 -18 15q-45 4 -67 -1q-2 -16 1 -27q2 -6 2 -50q-5 -7 -2 -32q3 -13 3 -39q2 -14 2 -20l-2 -46q-2 -9 4 -15h65z" />
    <glyph glyph-name="C" unicode="C" horiz-adv-x="387" 
d="M246 616q-6 7 -6 20q-1 5 0 13.5t1 11.5q0 4 -0.5 11.5t-1 13.5t-1.5 11q-1 6 -1 52l-10 15q-30 9 -49 6q-2 -1 -7 -4t-8 -5q-8 -5 -12 -14q-1 -8 -1 -34t-4 -40q0 -2 2 -8.5t2 -9.5q0 -5 1 -55t-3 -55q3 -5 0.5 -20.5t-2.5 -20.5q0 -8 -0.5 -23t-0.5 -22v-42
q0 -127 1 -191q0 -28 -6 -54q1 -2 2.5 -8t2.5 -8q-4 -12 -5 -14q0 -2 4 -10.5t2 -13.5q13 -10 14 -11q28 -14 45 -7q4 1 12.5 2t9.5 1l7 5q1 1 2 4l2 2q-4 40 1 65q5 21 -1 55q4 4 13 4q33 -2 56 3q8 2 16 0l34 -6l5 -10q-3 -16 -3 -81q0 -4 1 -5q3 -44 -18 -87
q-3 -8 -19 -24l-28 -25q-10 -3 -30.5 -6t-26.5 -4q-33 -5 -58 -1q-6 0 -8 -1q-15 -4 -47 5q-5 1 -17 8q-36 24 -54 35q-22 42 -24 51q-3 24 -3 25q0 56 1 84q0 13 2 37q1 6 1 34v61q-2 7 -2 8q6 14 3 33q-1 6 0.5 15.5t0.5 14.5v42q0 6 1 18.5t0 19.5q-1 4 -1 36q0 35 -1 42
q-5 35 -4.5 90t-0.5 89q-2 16 -4 24q1 5 6 13.5t4 13.5t3 11q31 46 63 56q36 12 55 11q6 0 18.5 3t19.5 2q5 -1 20 -1t22 -2q20 -6 24 -6q12 -6 21 -13t13 -11t7 -4q9 7 19 18q3 4 9 6.5t7 3.5q22 15 23 -2l2 -79q3 -43 -6 -121q-12 -6 -36 -16q-4 -2 -14.5 -8.5t-17.5 -8.5
l-16 -8t-23 -5z" />
    <glyph glyph-name="D" unicode="D" horiz-adv-x="420" 
d="M9 850l8 10q15 8 64 4q13 -1 38 -1t37 -1q6 3 41 0q30 0 41 4q14 4 44 -7q32 -10 63 -34q8 -8 11 -13l18 -34v-30.5t4 -37.5q-6 -5 -2.5 -30t3.5 -30q-1 -12 0 -34t1 -28q0 -56 -1 -85v-109q0 -26 -6 -34q7 -15 7 -49v-56v-156q-16 -45 -66 -86q-32 -15 -84 -13
q-54 3 -109 0h-42l-47 -4l-15 10l18 69l15 43l3 104q1 19 -1 59q0 25 -3 33q-1 4 -1 22q0 31 -0.5 93t-0.5 93v11q7 15 1 40q-6 37 2 76q-7 32 -6 37q1 7 -1 28t2 25q-2 15 -12 40q-21 54 -24 71zM176 743q-4 -4 -4 -5v-14t-1 -14q0 -3 -2 -13.5t-2 -16.5q-1 -33 -1 -98
q0 -12 3 -22l-3 -22q0 -28 1 -34t0 -18.5t-1 -17.5l2 -11q3 -6 3 -19q0 -8 0.5 -24t0.5 -24q0 -37 -1 -44q-2 -6 -1 -23.5t1 -23.5q-1 -1 -1 -3v-3q-6 -16 -3 -24q2 -5 0 -14.5t-1 -13.5v-6t1 -5q1 -3 4 -39q0 -39 1 -59q0 -10 3 -12q21 -2 28 -1t29 8q19 12 23 31
q7 26 7 35v35.5v41.5v35q0 21 -0.5 61t-0.5 60q0 30 -1 34q-3 14 -3 69q0 4 2 26l-3 26q-2 93 -6 112q-5 31 -26 45q-37 2 -48 5z" />
    <glyph glyph-name="E" unicode="E" horiz-adv-x="341" 
d="M296 861q7 -5 9 -10v-17q-1 -11 0 -60.5t-1 -61.5q-10 -3 -28.5 10.5t-26.5 13.5q-3 0 -8.5 4t-8.5 3q-3 0 -11 -4q-17 6 -41 3q-4 -3 -4 -16q3 -24 1 -43v-3q5 -11 3.5 -69.5t-0.5 -70.5v-9.5t0.5 -12t2.5 -9.5q37 0 42 1l45 11q2 0 5 2.5t5.5 4.5t3.5 0q4 -4 2 -22
t0 -21t-0.5 -10.5t0.5 -11.5q-2 -1 -0.5 -10.5t1.5 -10.5v-22l-2 -54q0 -1 -15.5 4.5t-31 12t-17.5 6.5h-28q-3 0 -9 -2q-3 -13 -3.5 -41t-3.5 -43q5 -14 5 -40v-43q-1 -44 0 -44q0 -19 3 -25q0 -1 3 -23q8 1 22 -1q7 0 19 -2q77 23 83 25q3 -2 4 -18.5t2 -18.5
q-2 -22 -2 -67q0 -22 -1 -33q-1 -2 -4 -9q-7 -4 -26 -4q-41 3 -78 -4q-21 -4 -33 4q-4 0 -12.5 -2t-12.5 -2q-3 0 -11 2t-11 2t-11 -2q-2 2 -16.5 2h-16.5h-16t-25.5 1t-14.5 5v15q1 10 8 27.5t8 20.5l8 28q1 4 4.5 10.5t4.5 8.5q1 4 -1 11t0 11q4 1 1.5 13.5t-2.5 13.5
q0 73 -2 219q-3 5 -12 5t-13 4q-1 5 -4 23t-4 29q-1 10 -5 29t-5 22q3 7 13 15q3 1 13 1t15 2q9 67 -2 113q6 17 6 61v28v21q-7 17 -7 22t-5 14t-5 14q-1 12 -7 33q0 2 -4.5 12.5t-5 14.5t0.5 13q6 3 8 2q5 -1 37.5 -1t42.5 -4q8 -2 13 1q4 2 13.5 0.5t13.5 1.5q11 -4 62 -3
t62 0q3 -1 19 4z" />
    <glyph glyph-name="F" unicode="F" horiz-adv-x="328" 
d="M174 374v-115q0 -10 -2 -28q0 -3 -1.5 -8t-1.5 -6q0 -2 2 -9.5t2 -11.5v-75q0 -16 14 -58q8 -23 20 -47q-1 -7 -10 -12q-9 -2 -43 -2t-41 -1q-5 -1 -46.5 0.5t-45.5 -4.5q-5 8 6 33.5t11 30.5q1 11 7 28t8 24q-3 6 -0.5 15t2.5 14v45q0 32 3 41q-3 4 -2.5 26t0.5 25
q-1 9 -1 23.5v23.5q-1 5 0.5 24.5t-2.5 24.5q-4 3 -11.5 3.5t-11.5 2.5q-5 7 -6 8l-4 52q-1 14 -7 49q2 6 13 8q18 0 25 5l2 23q4 18 -1 30q-2 5 -0.5 16t-0.5 17q5 0 3.5 11.5t-1.5 12.5q2 9 2 28v50l-2 46q-4 25 -23 68q-5 10 -9 24.5t-6 20.5q5 8 13 8l128 -2h25
q23 4 38 -4q17 5 62 5q2 0 8 1.5t9 1.5t7 -2q3 -11 -3 -63q-2 -29 0 -34l-5 -49q-8 2 -33.5 13.5t-37.5 12.5q-32 3 -54 -1q1 -10 1.5 -35t3.5 -39q-4 -8 -3 -39t0 -39q-2 -51 1 -74q5 -8 13 -8h19q6 0 17 6t16 6l24 10q10 -3 14 -10q-3 -10 -3 -57q-3 -32 -4 -36
q3 -4 0 -34t-2 -35l-38 18l-29 9l-23 -1z" />
    <glyph glyph-name="G" unicode="G" horiz-adv-x="389" 
d="M145 365l6 -2q-1 -2 4 -9q-3 -4 -2.5 -14t-2.5 -15q0 -2 2 -5l2 -2q1 -4 -1 -6l-2 -3l3 -2v-56q0 -1 -0.5 -1t-0.5 -1l2 -2q-3 -5 -3 -11t1 -13t1 -11q0 -10 2 -32q0 -5 -1.5 -15t-1.5 -11q-1 -20 5 -45q47 -20 75 -6q4 4 5 7.5t0 10t-1 7.5q2 35 1 52v44q-2 32 1 58
q0 3 -1.5 12.5t1.5 12.5q6 15 7 16q-6 2 -7 2q0 3 0.5 25.5t-1.5 26.5q-7 1 -24 -6t-26 -1q-4 22 -4 95q0 2 1 8.5t0 9.5q-1 4 3.5 7.5t8.5 2.5q11 0 36 2t38 0q7 -1 59 -1q4 0 16 -2q7 -1 15 -9q-2 -20 -2 -33q0 -2 -0.5 -6t-0.5 -5q1 -10 0.5 -38t1.5 -38q-3 -3 -1 -21
t2 -21q-2 -11 0.5 -34t-0.5 -33q0 -3 0.5 -5.5t1.5 -6t1 -5.5q-5 -16 -3 -41q0 -67 -1 -75q-2 -20 1 -30q2 -15 -2 -41q-1 -9 4 -14q-4 -6 -2 -17t-1 -18q-7 -4 -12.5 -3t-11.5 0q-17 6 -52 29q-4 -3 -8.5 -7t-9 -7t-12.5 -6q-34 -15 -40 -15q-2 -1 -38 -3q-7 0 -16.5 2
t-20.5 5t-16 4q-34 8 -62 36q-21 20 -28 57q-2 11 -2 51q0 7 0.5 32t-1.5 33q-1 7 -0.5 25t0.5 25v17q-1 18 -3 27q-1 4 -1 42q0 44 -2 56v10l3 29q0 29 1 44q2 22 -1 54q-4 33 -1 49q1 2 0 7t-1 6q0 3 3 3q-1 11 -0.5 36t0.5 35q0 61 6 69q-7 7 0 26q15 35 24 46
q35 45 80 54q30 5 59 5q13 1 27 -2t23 -4q11 -1 20 -4t12.5 -5t11.5 -8t9 -7q27 23 45 30q9 4 11 0q5 -12 7 -68t-1 -68q-2 -9 -2 -42q1 -20 1 -32q-1 -4 -7 -8q-1 0 -3 -1t-4 -1l-2 -1q-3 2 -10 -4.5t-10 -6.5q-9 -2 -36 -19.5t-38 -17.5q-4 0 -5 1.5t-0.5 4t-0.5 6.5
q-3 5 -2 25.5t-2 24.5q2 3 2 20v20q1 13 0 27q-1 7 -8.5 12.5t-16.5 5.5q-28 0 -36 -2l-10 -2q-10 -3 -15 -7q-5 -5 -5 -28l-4 -28q0 -7 -0.5 -22.5t-0.5 -23.5t0.5 -27.5t-0.5 -27.5q0 -2 0.5 -6t-0.5 -7t-5 -5l6 -8q-5 -10 -1 -32q2 -17 0 -51q-1 -7 1 -19q2 -54 1 -69v-3
q6 -7 -4 -19z" />
    <glyph glyph-name="H" unicode="H" horiz-adv-x="442" 
d="M276 676q1 21 1 62q0 10 -2.5 14t-3.5 14l-13 47q-1 2 -3.5 10t-3.5 11t-2 11t1 12q17 4 45.5 5t74.5 0l45 -1l9 -8q0 -12 -8.5 -35.5t-8.5 -35.5q0 -7 -6 -22t-6 -22q0 -84 1 -126q0 -15 -0.5 -43t-0.5 -42q0 -55 4 -70q-3 -9 -0.5 -31.5t1.5 -31.5q-1 -8 -0.5 -31
t-1.5 -31v-24l-3 -22q0 -9 1 -14q4 -15 4 -40v-41q0 -3 -2 -13t1 -14q2 -5 -0.5 -13.5t-2.5 -10.5v-20l13 -37q1 -3 5 -21l3 -18q1 -2 5 -10.5t6 -15.5t0 -11q-2 -2 -35.5 -2h-35.5q-4 0 -12 0.5t-14.5 0t-11.5 -3.5q-6 1 -35.5 0.5t-35.5 1.5q-3 5 -1.5 11.5t6 17t4.5 12.5
q1 7 4.5 22t3.5 27q0 7 3 15t3 14q3 60 5 70v8q-3 4 -1 13.5t0 13.5q-3 7 -3 31v124q-4 7 -14 7q-41 -3 -47 -5q-1 0 -12 2l-12 -6q0 -8 -1.5 -34t-0.5 -40q4 -45 -3 -67q1 -4 0.5 -16t2.5 -16q4 -56 -4 -84q0 -2 2 -9t2 -10q2 -11 7 -19q-4 -1 -0.5 -18t3.5 -18
q0 -5 6.5 -20t6.5 -20q-2 -4 -18 -6l-17 -2q-13 -2 -58.5 -2t-62.5 -4l-10 6l-2 6q-1 10 9.5 37.5t10.5 37.5q0 9 4 19t4 18q0 10 0.5 30t0.5 30q2 25 1 33q-1 3 -0.5 14t0.5 16q-3 27 -3 83q0 5 -2.5 15t-1.5 15v26q-3 6 -14 6q-2 0 -5.5 -1t-6 -0.5t-5.5 3.5q-2 7 -3.5 24
t-1.5 21q-2 7 -6.5 22t-6.5 26t0 22q8 8 23.5 7.5t24.5 2.5q5 14 3 31q-1 9 -1 53q0 36 4 49q1 3 -0.5 9.5t0.5 9.5q1 1 -2 16q-1 1 0 7l1 5q-2 7 1 18q1 5 -0.5 12.5t-1.5 12.5q1 8 -3 20t-4 20q0 3 -6.5 16t-6.5 16q0 7 -6 20.5t-6 21.5q4 4 6 5q54 4 68 3q25 -5 41 -1
q2 1 11.5 1h19t18.5 -0.5t10 -0.5q6 -6 4 -12t-6.5 -16.5t-4.5 -14.5q1 -12 -8 -28.5t-9 -28.5q0 -3 1.5 -11t1.5 -12t-3 -14t-2 -16q3 -14 3.5 -31.5t0 -31.5t0.5 -32v-76v-19q26 -6 60 1q16 -5 30 0v29q0 1 -2 8q4 20 3 30v40.5t-2 40.5q0 1 0.5 3t1.5 3t2 1l1 1v1
q0 2 -4 2z" />
    <glyph glyph-name="I" unicode="I" horiz-adv-x="281" 
d="M229 122q3 -1 8 1.5t9 5t5 0.5q1 -1 3.5 -18.5t2.5 -19.5q0 -13 5.5 -36t5.5 -36q0 -2 -0.5 -5.5t-0.5 -5.5q-2 -4 -19 -3t-18 1q-5 -1 -16 -1t-18 -2q-19 -4 -29 -2q-7 2 -30 2l-30 -3h-67q-12 5 -15 13q-2 13 0.5 44.5t-0.5 46.5q2 4 1 9t-1 9.5t3 4.5q6 1 24.5 -8
t23.5 -9q6 8 6 11q-2 10 3 53q0 27 -1 30q0 2 2 19q1 3 -0.5 8.5t-1.5 7.5q0 4 0.5 15t-0.5 15q-1 5 -1 28q0 5 -0.5 15.5t-0.5 15.5q1 6 1 17t1 20t4 17q-10 22 0 41q-4 6 -2 25t1 24q-4 32 1 52q-3 7 -4 16t-0.5 17t-0.5 17v50q0 9 0.5 27t0.5 27q0 17 -2 49q-5 8 -13 4
l-31 -13q-7 21 -7 38q0 4 -4 12t-4 12q0 11 -5 35.5t-5 35.5q10 12 31 8q6 -1 26.5 -1h25.5q11 -1 32 1q14 2 17 1q6 -3 12.5 -3.5t15.5 0.5t13 1q7 0 64 6q3 -2 4 -8.5t5 -7.5q-3 -17 -2 -63t-1 -62q-5 -9 -23.5 2.5t-25.5 6.5q-1 -8 -1 -54q-2 -21 0 -42q0 -7 -2.5 -19.5
t-1.5 -19.5q2 -26 4 -39q0 -5 -1.5 -16t-0.5 -17t1.5 -16.5t0.5 -13.5q0 -5 -2 -17t0 -19q-4 -3 -3 -36t1 -37q3 -7 2.5 -18.5t0.5 -19.5q1 -4 -2 -21q-4 -26 1 -42q1 -3 1 -16q1 -41 1 -124q0 -25 2 -30q7 -2 11 3t10 4z" />
    <glyph glyph-name="J" unicode="J" horiz-adv-x="313" 
d="M116 856q13 1 54 2l42 2q2 0 12 -2q8 3 38 3t40 -2q5 -1 1.5 -9t-3.5 -10q1 -6 -11 -38t-12 -38q0 -12 -3 -15t-3 -16v-116q0 -7 2 -24t1 -25q-1 -4 -2.5 -29.5t-5.5 -33.5q4 -4 4 -180q0 -4 2 -13.5t2 -13.5q0 -22 -1.5 -65t-1.5 -66q2 -22 0 -33v-11v-13v-9
q-23 -72 -81 -99q-53 -13 -125 0q-5 2 -10 16q-13 41 -23 63q-1 3 -6.5 23.5t-7.5 23.5q4 11 7 12q8 -1 36.5 -13t47.5 -10q3 1 9 2.5t9 3.5q2 1 5.5 3.5t8.5 13t5 22.5v23q0 4 -1 7t0 8q3 15 1 33q-1 14 1 64q3 63 -4 130q-1 3 -1 10v10q0 6 2 25.5t-1 26.5q-1 5 -1 51
q1 6 -0.5 17t-1.5 15q1 11 3.5 32.5t2.5 31.5q2 26 2 83v13q0 12 -5.5 18t-5.5 18q0 11 -24 59q-4 7 3 19z" />
    <glyph glyph-name="K" unicode="K" horiz-adv-x="412" 
d="M167 486q2 8 15 46q2 7 5 26t5 26q6 22 16.5 67t18.5 71l3 16q1 -1 2 1q2 3 4 14q3 15 3 73q1 13 -0.5 19.5t-0.5 9.5h37q5 0 62.5 3t62.5 -1q3 -5 -3.5 -12.5t-6.5 -10.5l-15 -29q-13 -18 -17 -35q-4 -12 -7.5 -15.5t-7.5 -14.5q-4 -10 -13.5 -38t-17.5 -46q0 -1 -2 -5
q-3 -28 -21 -80q-3 -9 -7 -26t-7 -26q-10 -25 -14 -48q-3 -17 -3 -21q5 -24 19.5 -75t17.5 -64q2 -7 8 -21q5 -10 5 -13q2 -18 18 -52l6 -19q7 -34 28 -85q1 -2 15 -33q2 -5 10 -18.5t10 -21.5q1 -4 10 -19t10 -16q1 -5 -5 -13q-39 -4 -72 3q-20 4 -33 0q-8 -2 -31.5 -2.5
t-31.5 0.5q-2 3 -2 7q8 39 4 84q0 2 -4 12t-4 12q-6 31 -11 43q-11 30 -15 46l-12 40q0 1 -0.5 9t-2.5 10q-5 -8 -8.5 -29.5t-4.5 -23.5q-6 -17 -16 -56q-2 -10 -2 -14v-23l5 -12q1 -3 2.5 -13t3.5 -22t2 -13q1 -2 6 -17.5t6 -18.5q-2 -4 3.5 -10t4.5 -9q-4 -2 -22 -2
q-34 -2 -67 2q-5 1 -12.5 -0.5t-14.5 -1.5h-56q-4 2 -8 3t-7 4q2 11 11.5 36t10.5 27q-2 7 5.5 25t7.5 23v29q0 6 3 25.5t-1 24.5v11q0 6 -0.5 19.5t-0.5 20.5q3 67 4 75q2 15 -1 42.5t-3 38.5q0 19 4 25q-4 7 -4 33q-1 30 -1 90q0 15 -3 22q-3 6 -1 11v27q-1 5 0.5 13
t1.5 12q0 1 1.5 15t-3.5 15q2 6 2 18.5t1 19.5q4 17 0 28q-1 4 -5.5 16.5t-8 23.5t-4.5 17q-12 33 -14 56l7 6q5 0 23.5 1t34.5 1t24 -2q5 0 8 1q6 1 82 1l5 -5q-1 -7 -3.5 -20.5t-4.5 -19.5q-1 -3 -4 -10t-5 -12.5t-2 -9.5q0 -5 -4 -18.5t-4 -17.5q0 -6 -2.5 -7t1.5 -7v-62
q0 -1 -1 -44t-1.5 -84.5t-0.5 -44.5q0 -1 2 -7z" />
    <glyph glyph-name="L" unicode="L" horiz-adv-x="313" 
d="M260 147q5 -2 12 -37q13 -43 35 -97q0 -1 -1 -3q-1 0 -3 -2l-3 -3q-1 0 -12.5 -1.5t-16.5 -1.5l-85 -2h-23.5h-23.5h-44h-75q-6 4 -6 14q0 7 1 12.5t2.5 8.5l4.5 9t5 11q0 1 3.5 8.5t6 14.5t2.5 8q-1 3 4 13.5t2 14.5q4 1 3 8t-1 9q1 3 -0.5 12.5t1.5 11.5l1 17
q0 17 -3 22q-2 5 -2 16v37l3 33v37q3 15 -2 39q0 3 2.5 11t-0.5 11q-4 7 0 22q1 2 -1 8q0 4 -1 12t-1 13q0 30 -0.5 89.5t-0.5 89.5q0 15 -3 22q-2 10 -1 14q4 15 4 38v38q0 3 -1.5 9t0.5 8q-1 9 -6 24.5t-5 27.5q0 6 -10 30t-10 30q6 5 28 7.5t33 0.5l13 -8l6 6q1 0 3 1
t3 1q10 -2 50 -2t51 -4q0 -7 -8.5 -22t-6.5 -22q1 -5 -1 -12.5t-6 -18t-6 -17.5q-3 -12 -3 -22v-137v-70q0 -10 -1 -14q-7 -40 -2 -98q0 -5 -1 -15t0 -15t4 -67v-191q0 -10 2 -13l18 -2q5 0 13.5 2.5t18 6t13.5 4.5q5 2 15 8.5t13 6.5z" />
    <glyph glyph-name="M" unicode="M" horiz-adv-x="630" 
d="M164 541q-3 -8 -2 -24t-1 -25q5 -9 1 -16q-2 -4 -1 -13.5t0 -13.5q-2 -8 0 -27q2 -14 1 -20q0 -1 1.5 -9t-2.5 -9q4 -2 4 -10l3 -132q0 -12 -0.5 -35.5t-0.5 -35.5q0 -3 -1 -11t-1 -12q0 -9 2 -29q1 -7 2 -11t1 -10t7 -23t7 -22t7 -21.5t7 -21.5q-2 -6 -22.5 -6t-22.5 -4
q-3 1 -12.5 1t-14.5 4q-13 -11 -33 -8q-11 2 -39 2.5t-39 -1.5q-5 7 -2.5 16t9 24t6.5 19q1 8 6.5 24t6.5 21l3 15v31q0 9 -1 27t-1 26q0 12 -0.5 41t0.5 41q1 16 -1 48q-1 9 0 35.5t-2 36.5q3 64 9 71q-7 9 -2 31q2 9 -0.5 29t-2.5 24q0 72 2 80q1 14 -1.5 36t-2.5 34
q0 20 1 33q1 5 -6.5 26.5t-10.5 25.5q3 16 -4 30t-7 29l10 8q12 -4 70 -4q47 0 70 -1q34 0 45 3q3 -3 5 -15q8 -34 10 -50l5 -44l-1 -1q-1 -2 0 -3q4 -7 6 -15t3.5 -18.5t2.5 -15.5q3 -12 7.5 -37t7.5 -37q3 -10 5 -30t3 -25q7 -30 10 -40q6 -19 10 -48q1 -9 4 -26t3 -25
q1 -10 4 -26.5t4 -22.5q1 -7 8 -34q12 -60 19 -89q3 6 4 20t3 20q7 30 7 39q0 7 3.5 20t2.5 20q0 4 3.5 20.5t-1.5 20.5q6 4 8 15q3 28 2 33q0 6 2.5 18t2.5 18q0 1 3 28q1 5 3 14t3 11q1 8 4.5 31t6.5 36q5 31 7 35q2 7 2 22q1 5 3 27.5t5 34.5q3 10 5 30t4 30q1 4 2 16
t3 19q1 2 0 7t0 8q1 2 2.5 4.5t3 4.5t5.5 3q3 -4 19 -4h33q39 -4 58 1q11 2 16 0t10.5 -1t10.5 0q2 0 12 1t19 2l10 1q5 -1 7 -5.5t-1 -6.5q-3 -17 -12 -42q-2 -6 -7.5 -17t-9 -20t-3.5 -18q0 -4 -2.5 -10t-2.5 -10v-23q1 -46 0 -94q0 -14 -0.5 -42t-0.5 -42
q0 -12 0.5 -38.5t0.5 -39.5q0 -6 -1.5 -35t0.5 -35q1 -24 1 -73q1 -7 0 -20.5t0 -19.5t0 -19.5t1 -19.5q0 -2 -1.5 -6.5t-0.5 -7.5v-8t1 -7t-1.5 -4.5t-2.5 -3.5t2 -2t2 -3q0 -11 0.5 -34t0.5 -34q0 -4 5.5 -21t5.5 -21q3 -8 11 -27t10 -33q4 -18 2 -20q-6 -2 -89 3h-10
q-6 -3 -17.5 -3.5t-15.5 -1.5q-8 -3 -27.5 -0.5t-19.5 10.5q0 10 9.5 39t9.5 38q0 8 3.5 17.5t3.5 17.5v17q1 27 1 80q0 63 -1 94q0 9 -0.5 27t-0.5 27v36v11.5v14.5v12q-2 45 -1 58q0 4 -0.5 17t0.5 18q-5 -7 -8 -38q-1 -6 -4 -18t-5 -21.5t-3 -17.5q-1 -7 -1.5 -22
t-1.5 -22q-5 -26 -7 -58q-1 -6 -4 -16t-4 -16l-5 -66q0 -14 -4 -18q2 -14 -2 -37q-2 -10 -5 -34t-6 -37q4 -4 2 -10q-2 -5 -4 -18.5t-5 -20.5q-2 -4 -7 -58l-6 -6q-2 1 -8 2.5t-9 4.5l-9 -3q-8 3 -18 1h-58q-3 0 -5.5 0.5t-5.5 2t-4 1.5q-4 4 -6 9t-2 11.5t-1 9.5
q-1 8 -8 48q-1 3 -1 9v9q-1 10 -3.5 27.5t-4.5 32t-4 27.5q-1 9 -14 65q-11 59 -10 68q-3 4 -4.5 9.5t-2 13.5t-1.5 11q-1 4 -12 68q-3 24 -10 41q-2 5 -7 34q-1 6 -2.5 13t-3.5 15.5t-3 13.5z" />
    <glyph glyph-name="N" unicode="N" horiz-adv-x="486" 
d="M284 861q30 -4 176 -4q7 -5 5 -11l-11 -52l-10 -25l-9 -32v-84v-46q0 -4 -1 -18.5t0 -22.5q1 -14 1 -42q0 -5 -0.5 -13.5t-0.5 -15t1 -12.5q1 -4 1.5 -15.5t2.5 -17.5q2 -5 2 -15.5v-12.5q3 -40 2 -49l-3 -60q0 -10 1 -14q2 -27 2 -32q-1 -16 1.5 -45.5t2.5 -42.5v-58
q-1 -7 -1 -14v-13q-1 -7 -1 -41v-21q0 -2 -2.5 -9t-1.5 -11q1 -1 1 -5q-4 -1 -10.5 -5t-10 -4.5t-12.5 1.5q-9 -3 -39 4q-4 1 -14 0t-12 -1h-17q-8 4 -13 20q-20 78 -23 93q-1 4 -4.5 10.5t-4.5 9.5q-6 34 -17 61q-13 30 -16 41q-3 7 -5 14.5t-4 17t-3 14.5q-21 70 -28 91
q-10 38 -13 59l-8 9q2 1 0 4t2 4l-8 9q2 2 1 4.5t0 4.5l-6 7q1 9 -12 32q-5 -7 -2 -22q2 -16 2 -93q2 -26 4 -41q3 -30 1 -68q-1 -2 0 -7t1 -6q-1 -33 3 -101q0 -12 -4 -16q2 -5 5 -30l7 -28l25 -69q-1 -3 0 -8.5t1 -7.5q0 -1 -2 -1.5t-3 -2.5q-2 -4 -24 -5.5t-26 1.5
q-1 3 -11 2.5t-11 -0.5q-11 -8 -43 -2q-44 7 -63 -3q-4 0 -10 8q1 12 11 36t11 35q1 6 6 28t4 34q-1 20 0 39q0 17 -2 22q-2 4 -0.5 15t1.5 15q-1 5 -1 17.5t-1 17.5q-4 25 0 50q2 11 0 22q-1 4 1 29t2 26q1 7 -1.5 21t-2.5 17q-1 5 0 30t1 30q0 11 -0.5 32t-1 38t-1.5 33
q-1 8 0.5 24t1.5 23q1 9 1 29t1 30q3 16 1 39q0 2 -2.5 6.5t-0.5 6.5q-8 12 -7 13q1 7 -3 16t-5 13q-2 8 -7 25.5t-6 26.5q0 2 8 10q3 2 21 1.5t20 -2.5q7 3 12 3t14.5 -1t19.5 -1q7 6 25 3t25 0q7 -3 9 -11q4 -18 12 -37q3 -6 6.5 -19t7.5 -20q2 -4 3.5 -9.5t3 -12.5
t2.5 -11q3 -10 10 -37t12 -41q1 -4 5.5 -19.5t8.5 -23.5q4 -7 9.5 -21.5t7.5 -19.5q3 -6 3 -7q0 -12 10 -34q2 -4 8.5 -32.5t9.5 -33.5q6 -11 15 -46q1 -3 3 -8.5t2.5 -8t-1.5 -9.5q2 -4 6 -2q1 -8 6 -22q3 34 -1 60q-1 3 -1 10q2 13 -0.5 57t-2.5 49q0 66 -1 80
q-3 32 -4 39q-2 21 1 28q1 3 1 10v33q0 6 -2.5 11t-3.5 9q-11 45 -14 55q-2 5 -4 10.5t-3 8.5t-2 6.5t-1.5 5.5l-1 4t0 3t1 2.5t1.5 2.5t2 3z" />
    <glyph glyph-name="O" unicode="O" horiz-adv-x="405" 
d="M285 852q12 -12 34 -22q13 -19 26 -26q5 -8 10.5 -27t5.5 -23q0 -3 2.5 -19t-2.5 -19q3 -6 3.5 -13t0 -13t0.5 -13v-37q0 -6 -0.5 -19t-0.5 -20q2 -43 5 -56q2 -11 0 -47q-1 -9 -1 -27q4 -39 -1 -89q-2 -19 -2 -59q0 -22 1 -34q0 -32 4 -44v-20q0 -46 1 -70q1 -27 -8 -78
l-5 -12q-5 -12 -9 -16q-30 -30 -34 -33q-8 -6 -24 -11t-22 -8q-54 -11 -92 -6q-55 7 -107 48q-7 7 -12 15.5t-10.5 23t-7.5 18.5l-6 173q0 12 1 14q4 13 4 62q0 3 1.5 16t-0.5 16q-1 6 -1 37v34v33q0 133 -1 200q0 11 -2 33q-5 20 2 38q0 2 1 10.5t0 11.5q8 11 16 27
q11 10 41 42l42 21q22 3 23 3q51 13 104 -7zM246 117q2 40 2 54q0 10 -0.5 29.5t0.5 34.5t4 28v8q0 9 0.5 24.5t0 28t-3.5 23.5q0 1 0.5 3.5t0.5 4.5q2 10 2 61q-2 5 -5 36q-3 32 -4 36q-5 20 0 39q6 23 3 45q0 5 2 16.5t0 18.5t-2 21.5v17.5q0 26 -3 33q-1 2 -1 14v47
q0 1 -0.5 3t-0.5 3q-6 8 -16 12q-29 4 -48 -1q-14 -9 -18 -15q-3 -4 -4 -8.5t-1 -9.5t-1 -8q3 -10 3.5 -21t0 -25t-0.5 -21q1 -9 -2 -20q-2 -5 -2 -16q0 -28 -0.5 -84.5t-0.5 -84.5q0 -6 0.5 -18t0.5 -18v-34q0 -5 1 -18t-1 -18q-1 -4 1 -11q4 -8 4 -30v-152q0 -23 1 -25
q17 -12 54 -18q3 3 12.5 3t11.5 1z" />
    <glyph glyph-name="P" unicode="P" 
d="M63 495v74q0 98 2 118q3 37 -1 49l-11 32q-8 33 -12 43q-8 25 -11 44q37 6 68 3q5 -3 11 -3.5t14.5 0.5t12.5 1q0 1 28 0h29h6h7h6t16.5 2.5t16.5 -2.5q5 2 15 2t15 1q4 2 17.5 0t17.5 -2q12 1 31 -12q35 -24 45 -55l8 -13v-25q0 -31 0.5 -93.5t0.5 -94.5q0 -13 -0.5 -45
t0.5 -45q1 -18 -10 -34q-9 -16 -12 -20q-7 -8 -16.5 -13.5t-22.5 -11.5t-17 -8q-19 -5 -39.5 -7t-45.5 -2.5t-37 -1.5l-2 -3q-1 -8 -1.5 -24.5t-2.5 -25.5q-1 -1 0 -3t1 -3q1 -2 1 -5q-8 -55 -2 -106q-3 -30 -3 -85q0 -10 3 -18.5t2 -18.5l12 -33q0 -2 7 -20t5 -24
q-2 -1 -6 -5q-75 -4 -135 1q-1 1 -18.5 0.5t-18.5 1.5q-2 10 -1.5 14.5t4.5 17t5 14.5q1 5 5.5 17.5t6.5 20.5q5 23 8 31q3 13 3 36q1 55 -1 163q0 9 0.5 28.5t0.5 26.5q-2 4 -4 4.5t-5 0t-5 -0.5q-14 0 -17 2q-2 4 -2 5q-6 20 -6 30q0 7 -3 18.5t-3 16.5q-2 12 -10 36l7 8
q3 0 21 -1t22 2zM192 743q-2 -135 1 -241q1 -1 1 -2l1 -1l2 -2q27 -3 59 -1q24 17 26 38q0 1 -2 8.5t-2 12.5q-1 18 -1 56q0 62 -1 92q-2 25 -16 37q-30 13 -68 3zM189 746q2 -2 3 -2q-1 1 -1 2h-2z" />
    <glyph glyph-name="Q" unicode="Q" horiz-adv-x="400" 
d="M28 755q2 6 4 23t8 24q28 38 53 48q39 16 67 16q33 2 39 4q19 3 33 -3q8 -4 27 -6q42 -8 76 -45q6 -8 11 -10l16 -39v-86q0 -7 -0.5 -19t-0.5 -18v-39q0 -13 0.5 -37t0.5 -36v-318v-2q-1 -4 0 -6q3 -9 3.5 -20.5t0 -20.5t0.5 -20q2 -47 -8 -72q-3 -3 -12 -15.5t-17 -17.5
q-4 -7 -19 -16q-39 -21 -43 -22q2 -2 5.5 -6.5t5.5 -6.5q6 -9 16 -14q10 -2 13 -1q6 1 14.5 8t12.5 9.5t9 -2.5q0 -12 4.5 -30t11 -38.5t8.5 -28.5q-5 -10 -13 -15.5t-19 -9.5t-16 -7q-29 -5 -68 6q-2 1 -14.5 7.5t-16.5 11.5q-24 28 -36 59q-4 2 -5.5 15t-6.5 18l-11 12
l-45 8q-5 4 -21.5 13.5t-28 20.5t-23.5 29q-7 12 -18 46q1 6 0 15.5t-1 11.5v23l3 19q2 18 -1 24q-2 4 -1 6q3 3 1 25t-2 24v50q0 8 2 20q3 8 1 19q-1 5 2 30v73q0 15 -3 30q-5 24 -1 42q2 8 2 21.5v16.5q2 24 2 37v134q0 25 -1 28zM154 617q-8 -15 -6 -30q3 -21 2 -25
q-2 -16 -2 -25q0 -45 2 -58q-2 -7 -2 -55v-55q0 -14 1 -16q3 -7 3 -36v-47v-55.5v-46.5q0 -6 0.5 -16t0.5 -15q0 -1 1 -4t1 -4q10 -12 17 -15q40 -11 55 -7q9 5 12 15v14l3 35q2 22 -1 39q-1 5 0 20t-2 20q4 16 5 33.5t0.5 40.5t-0.5 33q0 4 -0.5 12t-0.5 13l3 47
q0 4 0.5 10.5t0.5 9.5v35q0 2 0.5 8t0.5 9t-0.5 9t-0.5 10q0 26 -1 39q0 1 -1 7.5t0 9.5q0 2 1.5 5t2 4.5t-1.5 5.5q0 2 -2.5 17t2.5 18q-3 8 -3 36q-1 21 -1 64q0 17 -9 27q-21 8 -70 6q-11 -5 -16 -14v-98q0 -12 6 -30z" />
    <glyph glyph-name="R" unicode="R" horiz-adv-x="454" 
d="M382 249q-7 -33 2 -55q3 -10 3 -21q0 -14 2 -22q0 -1 3 -35l17 -50l9 -15q2 -10 17 -22.5t15 -16.5q-4 -4 -6 -5q-3 -2 -29 -2q-75 -3 -90 -5q-5 2 -12 7t-9 6q-19 10 -26 35q-5 17 -11 51q-3 13 -4 38.5t-3 36.5q-1 6 -2.5 29t-6.5 35q-1 2 -1 8q2 12 -2.5 35.5
t-4.5 25.5q0 1 -1.5 9.5t-2 11t-2.5 9.5t-4 10.5t-6 8t-9 7.5q-4 3 -12.5 4t-9.5 1q0 -1 -1.5 -4t-1.5 -4v-146q0 -5 1 -15t1 -16q0 -5 -0.5 -15t-0.5 -15q0 -18 2 -25q1 -4 -0.5 -6t1.5 -6q7 -11 13 -49q2 -11 9 -28.5t9 -29.5q-3 -8 -29.5 -8.5t-29.5 -1.5q-46 4 -81 -4
q-1 0 -13 2t-22 5t-12 7l17 66q10 35 9 48q0 15 -1 22q0 14 1 16q2 4 1 5q-4 11 -1 47.5t3 47.5v92q0 11 -3 15h-11q-12 0 -19 6q-2 7 -6 13q0 20 -9 49q-2 7 -3.5 23.5t-5.5 24.5q4 8 14 10h23h10t12 2q2 4 2 5v36q2 8 0 14q-5 24 -3 35q2 13 4 39q0 2 1.5 7t2.5 8
q-4 6 -4.5 19.5t-3.5 19.5q5 16 3 57q0 4 -4 11t-4 11q-4 23 -14.5 48t-11.5 38l-1 12q4 2 10 2q90 5 152 0q16 0 24 -3q5 -1 31 -1t36 -4q4 -1 14 -1q46 -5 65 -33q2 -2 5.5 -5t5.5 -5l19 -44v-125v-19q3 -12 1 -28q0 -6 2 -16q6 -34 1 -70q-8 -68 -68 -91l-14 -7
q38 -13 45 -58l4 -22q7 -22 6 -30q-2 -2 -0.5 -15t1.5 -15q-2 -11 3 -17zM279 516v30q2 5 1 15t0 15q3 15 3 92v5q-2 4 -5 33q0 6 -1 9l-8 13l-14 8h-50q-12 0 -16 -9q4 -8 4 -39q1 -60 1 -182q0 -10 6 -13h32q15 0 22 1q9 1 17 9z" />
    <glyph glyph-name="S" unicode="S" horiz-adv-x="403" 
d="M252 120q1 5 3 14t3 17t0 15q0 3 -0.5 10.5t-1.5 11.5q-2 7 -2 20q0 5 0.5 17.5t-0.5 18.5v33l-12 32q-6 17 -25 40q-41 50 -63 89q-4 10 -9 14q-16 12 -32 42l-9 13.5t-10 16.5q-1 2 -18 28l-19 32l-11 22q-1 4 -1.5 12t-1.5 14.5t-3 12.5q-1 3 -1 19v12t-1 11
q-1 3 -0.5 10.5t0.5 11.5l-3 21v3q4 28 8 40q12 40 62 70q24 16 81 28q2 1 6 1q57 -4 87 -18q2 -1 11 -8.5t15 -8.5q7 1 20.5 13.5t21.5 18t18 -1.5q11 -27 7 -162q-2 -37 2 -56l-30 -15q-23 -12 -25 -13q-22 -15 -52 -25q-7 1 -13 9q-2 6 -2 12q0 21 -2 28q-4 13 -1 22
q3 11 3 58q-8 30 -42 30h-14q-13 -3 -14 -3q-6 -2 -9 -5q-1 -1 -10 -12q0 -5 -3 -19t-1 -22q1 -6 -0.5 -19t-1.5 -20l7 -15q10 -29 44 -67q16 -19 27 -40q4 -7 22 -32q4 -5 12 -16t11 -16q4 -7 12 -15q9 -7 13 -15q6 -9 17 -27t19.5 -33t15.5 -29q9 -20 13 -51q1 -7 1 -65
q0 -20 -3 -27q-2 -6 -2 -9q2 -29 1 -37q-1 -6 -1 -37v-37q-13 -38 -41 -60q-25 -18 -44 -25q-18 -8 -29 -8h-9q-34 -11 -85 0q-14 2 -25 10t-17 15t-8 7q-9 0 -33 -19q-29 -22 -35 -12t-6.5 39.5t2 66.5t2.5 42v8q-4 19 -4.5 56t-0.5 42q0 13 -4 20q1 4 3 6.5t3.5 4t5 3.5
t5.5 3q9 0 24 -0.5t24 0.5q7 3 11 1.5t5 -2t3 -5.5t4 -8q1 -13 9.5 -32.5t10.5 -26.5q12 -30 12 -37q1 -10 12.5 -28.5t13.5 -26.5q22 -20 37 -20q23 0 40 19z" />
    <glyph glyph-name="T" unicode="T" horiz-adv-x="364" 
d="M341 862l8 -13q-3 -8 -3 -17.5t1.5 -21.5t1.5 -18q0 -19 1 -28q1 -6 -1.5 -28.5t-4.5 -28.5q-8 -1 -35.5 14.5t-34.5 15.5q-15 0 -23 -3q-2 -11 -2 -35q0 -11 0.5 -32.5t0.5 -32.5q-1 -48 -1 -143q0 -27 -3 -33q-2 -55 -1 -70q0 -5 2 -19t2 -22q0 -5 1 -20t0 -23
q0 -28 2 -41q3 -27 3 -53q0 -4 -1.5 -14.5t-0.5 -15.5q1 -6 1.5 -17t0.5 -14q3 -23 -2 -28q9 -34 13 -45q18 -48 19 -63l-8 -10q-15 -2 -84.5 -2t-82.5 -4q-12 4 -16 12q1 7 11 31.5t11 32.5q0 11 5.5 24.5t6.5 19.5q1 4 0.5 13.5t1.5 13.5v25q0 11 0.5 33t0.5 34
q0 18 -3 24q-1 2 -1 17v79v22q0 1 3 22q2 36 -2 47q0 8 -1 23.5t-1 28t3 23.5q2 15 2 17q-4 10 -4 47q0 5 -1 17.5t-0.5 21.5t3.5 17q-3 8 -3 24q0 12 -0.5 33.5t-0.5 32.5q-3 5 -7 5q-13 0 -18 -4q-6 -4 -12.5 -9t-10.5 -8q-25 -17 -30 -17q-6 17 -13 45t-14 62t-10 44
q3 4 9.5 4.5t7.5 1.5q20 -2 27 -2q28 0 78 0.5t78 0.5q7 0 19 2q10 2 11 2q4 -2 39 1q24 0 30 3q3 -2 14.5 -1t17.5 0z" />
    <glyph glyph-name="U" unicode="U" horiz-adv-x="420" 
d="M8 852l6 6q1 0 2.5 1t2.5 1h17q68 -3 103 0q46 0 51 -6q-2 -20 -18 -74q-12 -42 -12 -46v-27q0 -16 -4 -21q0 -2 2 -6.5t2 -7.5v-21t1 -21q0 -5 2 -19.5t2 -22.5q1 -25 1 -75q1 -23 0.5 -42t0 -42.5t2.5 -42.5q-2 -3 0 -13.5t2 -13.5q0 -33 -2 -39q-2 -8 -2 -24v-163
q0 -16 7 -24q12 -7 18 -8t30 0q24 9 33 17q2 23 -2 35q-5 13 -1 34l3 30q0 4 -0.5 8.5t-1.5 10t-1 8.5q-2 22 1 34q2 7 2 21v17q1 5 -1 17.5t0 17.5t0.5 16.5t1.5 16.5q0 15 0.5 47t0.5 48q0 26 -1 39q0 26 -3 33q-1 4 0 12.5t-1 12.5q2 5 0.5 14t0.5 13q2 2 2 12v12v27
q2 5 0 8q-5 19 -3 78q0 12 -6.5 29.5t-7.5 31.5q0 7 -8 25.5t-9 24.5q7 8 52 8q7 0 20.5 0.5t19.5 0.5q9 0 14 1q41 5 75 -4q1 -4 -9 -29t-10 -33q1 -13 -4 -28.5t-5 -26.5q-2 -28 -4 -36q2 -9 5 -65v-98q7 -31 5 -95v-44t-1 -43q0 -20 -3 -25v-5q3 -14 4 -32t0.5 -32
t0.5 -31q1 0 1 -46l-1 -47q0 -3 -0.5 -8.5t-0.5 -8.5q3 -34 -14 -68q-1 -1 -5.5 -6t-6.5 -8q-32 -39 -92 -49q-4 -1 -14.5 -2t-16.5 -3q-9 -2 -19 0q-37 5 -44 7q-38 10 -56 18q-19 7 -45 37q-3 4 -8 13t-8 13q-4 5 -5 16t-2 13q4 6 1 23.5t-2 23.5v45q0 12 3 24
q1 4 -0.5 12t-1.5 11q-1 3 2 16q0 1 -1.5 7t-1.5 10q0 39 1 59v11q6 31 0 60q-1 10 2 22q1 3 -1 9.5t-2 9.5v161q0 3 1.5 19t-0.5 19v11v14v12q0 14 2 19q4 10 1 16q-3 11 -5 27q0 5 -9 28t-9 29q0 17 -16 49z" />
    <glyph glyph-name="V" unicode="V" horiz-adv-x="411" 
d="M247 855q3 3 35 1t35 -2q4 1 18 1.5t21 2.5q5 2 24.5 1.5t24.5 2.5q2 -2 6.5 -1.5t4.5 -0.5q-2 -15 -10 -35.5t-10 -34.5q-1 -6 -7 -24t-7 -23q0 -4 -1 -12.5t-2 -12.5q0 -5 -4 -28.5t-3 -35.5v-9q-3 -12 -5 -40t-6 -43q-1 -2 -1 -6.5v-7.5q-2 -33 -9 -66q-1 -2 -1 -5
q-3 -24 -7 -70l-5 -41q0 -2 -0.5 -17t-4.5 -22q-1 -1 -1 -5.5v-5.5q0 -28 -5 -48q-2 -8 -3 -23.5t-2 -23.5q-2 -7 -3 -20.5t-2 -20.5q-2 -6 -3 -20.5t-4 -21.5q1 -13 -3.5 -38t-4.5 -37q0 -6 -5 -52q0 -2 -6 -10q-3 -2 -20 -2h-20q-7 0 -21 -0.5t-21 -0.5h-39q-6 -1 -19 2
t-18 0q-10 7 -14 22q-3 17 -7 44q-5 44 -7 50t-3.5 22t-5.5 24q1 8 -3.5 29.5t0.5 28.5q-4 10 -4.5 30.5t-3.5 30.5q-2 10 -4 28t-3 25q-2 12 -4 40.5t-5 44.5q-12 69 -12 71l-2 20q0 28 -4 36v6q1 18 -4 49t-6 42q-1 9 -3.5 26.5t-4 31t-0.5 26.5q0 5 -2 13q-1 4 -8 22
t-7 19q-14 40 -20 66v7l9 8q10 -6 67 -2q20 0 34 -3q2 1 25 1.5t25 0.5q10 -1 18 -8q1 -3 -1 -10l-9 -46q0 -2 -3.5 -15t-3.5 -17q1 -5 -2 -11.5t-2 -11.5q0 -1 1 -6t2 -7q-1 -14 3 -41t4 -40q0 -4 0.5 -8t1.5 -9t1 -8t2 -11l6 -88q0 -1 3 -22q0 -1 1.5 -7t1.5 -10
q0 -21 6 -61q11 -80 13 -88q3 -10 5 -29t3 -23q12 -58 16 -73q1 4 1 11q3 40 4 45q2 6 2.5 21t4.5 23v6q1 8 3.5 36.5t4.5 43.5q1 13 2.5 40.5t3.5 40.5q0 6 1.5 32.5t3.5 40.5t3 41.5t3 41.5q2 16 3 45t2 42v3q3 9 3 19q0 5 -5 19t-5 19q1 8 -10 33t-8 33l4 4z" />
    <glyph glyph-name="W" unicode="W" horiz-adv-x="609" 
d="M-2 852q5 4 21 4q10 0 34.5 0.5t34.5 0.5q65 0 82 3q5 -4 1 -15.5t-3 -16.5q1 -7 -3 -17.5t-4 -16.5q0 -3 -3 -14.5t-1 -16.5q1 -2 -0.5 -13.5t-1.5 -12.5q-2 -16 2 -40.5t4 -36.5q0 -5 2.5 -16t1.5 -17q-2 -12 5 -30v-7t1 -7q3 -32 4 -36q1 -3 1 -14q0 -12 10 -87
q2 -8 4 -23.5t3 -23.5q1 -5 2 -19t3 -22t5 -41l3 -48q0 -11 7 -14q2 1 2 9q3 26 5 31q2 8 2 13q-1 9 7 47q3 12 5 36q1 15 5 45q3 39 4 42q1 2 1 16q2 18 4 28t3 29t4 29q-3 7 -4 20.5t-2 17.5q-2 7 -3.5 20t-1.5 16l-5 39q-4 28 -5 46q-1 17 -13 60l-5 19q-5 20 -5 23
q-4 12 -4 14q7 8 36 4q3 -1 11.5 0.5t10.5 -2.5q3 0 9.5 0.5t11.5 1t9 1.5t11.5 0.5t10.5 -0.5q6 1 27.5 1.5t28.5 -0.5q2 -5 -3.5 -21t-4.5 -27q0 -11 -1 -14.5t-2 -8.5t-2 -15l-7 -38q1 -6 2 -29t3 -38q1 -26 6 -53q4 -16 3 -25q0 -21 7 -38q-8 -30 -1 -44q0 -21 6 -61
t7 -45q11 -82 14 -94q2 -4 2 -12v-10q0 -23 8 -33l2 4q-1 10 0.5 21t4.5 24.5t4 20.5q3 36 3 37q-1 14 3 41t4 37q3 4 1.5 13t0.5 14t2 13.5t1 11.5q2 14 4 39.5t3 35.5t5 32.5t6 34.5q3 3 1 10.5t-1 10.5t4 22q0 31 1 37l4 27q1 5 -4 25t-2 26q-7 16 -9.5 35.5t-4.5 25.5
l11 4h23.5h35.5h24q7 0 32 1t34 0q6 -4 4 -15q-4 -12 -8.5 -29t-8.5 -32q-9 -18 -9 -40q0 -3 -2 -11t-2 -13q-1 -12 -4.5 -33t-4.5 -31q-2 -8 -2 -13q0 -16 -3.5 -44t-3.5 -40q-1 -10 -5 -30q-2 -8 -5.5 -37.5t-9.5 -45.5q-2 -5 1 -21q0 -2 -4 -27t-5 -38q0 -6 -5 -44
q-3 -38 -5 -44q-1 -25 -11 -75v-17q-2 -28 -5 -36q-2 -7 -3 -15t-1.5 -17.5t-1.5 -14.5q-2 -14 -4.5 -40.5t-3.5 -34.5q-3 -10 -14 -16q-16 0 -63.5 -3.5t-72.5 -0.5q-12 28 -12 45q0 55 -16 116q-1 2 -1 8q1 11 -2 31.5t-3 29.5q0 1 -9 49q0 -3 -7 -35.5t-8 -49.5
q0 -7 -2 -21t-2 -18v-17.5t-2 -22.5q-2 -11 -4 -36t-5 -38q-1 -9 -1 -26q0 -9 -8 -14q-28 -4 -55 3q-56 -10 -81 1q-7 7 -7 14l-11 61q0 2 -0.5 17.5t-4.5 23.5q-1 13 -8 70q-6 55 -6 56q-6 18 -4 38q0 9 -1 19.5t-2.5 23t-2.5 19.5q-2 21 -10 58q0 2 -6 38q-7 51 -7 67
q0 32 -7 78q-1 9 -5.5 45t-8.5 55q-2 10 -7 53q-1 8 -3 14.5t-3 14.5q-1 5 -10 38q0 2 -5.5 19t-5.5 25z" />
    <glyph glyph-name="X" unicode="X" horiz-adv-x="426" 
d="M191 656q12 -25 14 -59q0 -23 7 -53q0 -2 6 -5q5 5 5 15q-2 48 9 88q1 4 1 14q1 34 11 71q2 8 2 12q1 4 -1 9t-2 8q2 9 -3 28.5t-4 28.5q1 5 -2.5 16.5t-3.5 15.5q1 3 10 5.5t19 3.5t12 2q8 4 24 6q3 0 10 0.5t13 0.5t10 -1t13 1t14 0q9 -2 37 -2q8 -5 9 -13q-1 -1 -1 -3
l-1 -4q-6 -12 -10.5 -25.5t-11.5 -30.5q-2 -4 -6 -21t-8 -26q-3 -7 -5 -21.5t-3 -17.5q-14 -66 -22 -98q-2 -19 -2 -22q1 -7 -3 -19q-1 -2 -9 -19q0 -16 -9.5 -49t-10.5 -53q1 -7 7.5 -29.5t8.5 -36.5q1 -7 5.5 -20.5t5.5 -20.5q5 -24 17.5 -68.5t17.5 -65.5q1 -4 3.5 -10.5
t3.5 -8.5q10 -27 15 -56q2 -10 8 -22t8 -20q13 -43 23 -60q0 -9 -6 -15q-12 -5 -40 -5h-64q-53 0 -64 -4q-6 11 -5 18.5t4 20t3 18.5q0 10 2.5 26.5t0.5 26.5q0 2 1.5 5t0.5 6q-1 7 -5 21t-10.5 45t-11.5 47q-1 4 -5 28.5t-6 30.5q-1 3 -4 4l-2 -1l-2 -1q-3 -9 -5 -38
t-3 -35q-6 -40 -6 -41t-3 -19q-2 -7 -5.5 -21t-4.5 -21t0.5 -14t1.5 -12q0 -1 3 -22.5t3 -22.5q2 -11 5 -19t4 -21q-1 -1 -4 -3t-4 -3q-8 -1 -57 -1h-35q-7 -2 -61 -2q-7 5 -9 13q1 7 11 35t11 35q2 10 6 18.5t6 19.5q2 9 4 25q10 18 10 36q0 16 7 39q7 24 8 32q1 6 7 37
t6 48q3 7 5 22.5t6 21.5q2 24 10 41q-1 7 -6.5 22t-5.5 24q0 6 -3 11q-5 11 -8.5 32t-6.5 30q-1 3 -2 9.5t-2 9.5q-16 48 -23 91q-7 37 -22 85q-1 4 -2 5.5t-1.5 3t-1.5 5.5q0 2 -12 27.5t-12 28.5q0 10 -2 14t-5.5 9t-6.5 14l5 11q3 3 10 2t11 1q3 2 14.5 1.5t14.5 0.5
q5 1 15.5 -0.5t12.5 -1.5q7 0 19 -2q11 -3 21 1q6 3 33 0.5t33 -8.5l-9 -44q-11 -47 -7 -65l2 -8t2 -9q5 -28 10 -64z" />
    <glyph glyph-name="Y" unicode="Y" horiz-adv-x="390" 
d="M3 854l5 7q10 -2 72 -2q38 -2 79 -2q4 -2 8 -2q5 0 5 -3q-1 -11 -7 -40t-5 -45q0 -2 -1 -9.5t0 -10.5q1 -4 4 -21t3 -26l6 -36q3 -22 3 -23q3 -11 8 -48t11 -51q0 -1 1 -4l3 -6q2 29 6 40q10 28 7 72q-1 6 3 16q5 14 6 28q2 8 4.5 25t3.5 26q0 2 -5 54q-1 14 -4.5 29.5
t-4.5 24.5q4 7 11 11q64 0 84 -1h14q29 -9 47 1l17 -7q5 -4 -12 -48q-19 -46 -22 -63q-1 -5 -2.5 -14.5t-2.5 -14.5q-2 -13 -11 -50q0 -1 -0.5 -2.5t-0.5 -2.5q-1 -22 -10.5 -61t-11.5 -52q-3 -21 -13 -63q-8 -32 -11 -58q-1 -10 -5.5 -28.5t-5.5 -27.5l3 -10v-2
q-8 -17 -16 -63q-11 -46 -10 -66q0 -8 -1 -11q-12 -36 -17 -55q-3 -11 -3 -38q0 -15 11 -90q4 -26 -2 -26h-2q-11 -2 -37.5 -2t-37.5 1q-6 0 -19.5 -1t-21.5 0q-6 1 -25.5 0.5t-24.5 1.5q-9 9 -6 19l35 89l2 6l2 6q14 56 18 85q1 6 3.5 16.5t3.5 13.5q8 34 9 52q0 3 9 41
q2 5 -1 9q-3 2 -11 2t-10 2q-5 5 -7.5 15.5t-5.5 13.5q0 1 1 6t0 7q-1 5 -3.5 13t-4 15t-1.5 14v2q-5 9 -8 19t-6 23.5t-5 19.5t-3 18t-2 18q-19 64 -23 93q-2 13 -7.5 36t-7.5 33q-2 8 -5 23.5t-4 23.5t-4 18.5t-4 14.5q-2 7 -8 24.5t-7 23.5t-6 17.5t-6 16.5z" />
    <glyph glyph-name="Z" unicode="Z" horiz-adv-x="355" 
d="M255 487q6 -1 37 1q1 0 4 -1l6 -2q1 -4 5 -12q-5 -45 -1 -82l-5 -12q-47 -4 -67 -7q-1 -2 -9 -29q-8 -48 -19 -69q-5 -11 -9 -34t-5 -26q-5 -20 -10 -35q-5 -17 -13 -51v-8l1 -2l1 -1q3 0 5 1q6 2 21 -0.5t21 0.5q4 -2 12.5 1t18.5 8t13 6q10 3 30.5 14.5t30.5 13.5
q3 -1 3.5 -5.5t-0.5 -9t1 -8.5v-67v-45q0 -15 -6 -21q-22 -4 -57 -4h-57q-9 0 -35.5 2.5t-35.5 -0.5q-4 -1 -11 1t-11 2q-12 -5 -49.5 -5h-40.5l-12 7l-4 19l22 77q8 14 13.5 43t6.5 33q2 10 4 13q4 7 12 40q20 76 26 92q1 2 1 12q1 6 9 34q-4 2 -18 2q-20 0 -20 1
q-3 5 -6 17q0 21 -6 44.5t-5 39.5q-2 2 0 7q4 2 6 2l73 2q11 16 14 39l12 55q2 10 5 28.5t6 33.5t7 28q13 47 18 68q-12 8 -27 1q-3 -1 -8.5 -1h-9.5l-21 -3l-79 -32q-1 -1 -12 2q-1 1 -1 39q-2 5 -2 17v80q8 17 17 17q57 0 65 -4q15 0 47.5 2.5t47.5 1.5q13 0 16 1
q2 1 9 0.5t10 1.5q7 3 13 -1q16 -7 34 -2q3 -1 26.5 -1.5t26.5 -1.5v-2.5t1 -2.5q1 -2 -0.5 -6.5t-4.5 -10t-3 -7.5q-1 -23 -6 -37q-7 -15 -4 -21q2 -8 -8 -38q-6 -19 -15 -57.5t-14 -56.5q-8 -29 -31 -129z" />
    <glyph glyph-name="bracketleft" unicode="[" horiz-adv-x="249" 
d="M41 923q3 8 13 16q17 0 25 2q2 2 13 0.5t13 -1.5q23 1 68 1h24q6 -3 9 -7t4.5 -11t2.5 -9q-5 -21 -1 -45q-2 -3 -2 -11t-4 -12q-2 -1 -17 4q-2 -5 -20 -3t-20 2l-5 -3q-5 -3 -5 -7q5 -18 0 -51q6 -21 0 -33q-2 -3 -2 -16v-194q0 -17 3 -25q1 -3 1 -9.5v-9.5q0 -2 -1.5 -9
t0.5 -10q-2 -5 -0.5 -20t1.5 -20v-42q0 -33 0.5 -99.5t0.5 -99.5v-168q0 -4 1 -7q4 -3 26.5 -2t27.5 1q5 -6 12 -12q1 -14 1 -37.5v-37.5l-9 -8q-19 8 -57 2q-10 -3 -12 -2q-12 4 -47 0h-31q-8 5 -8 16q0 12 1 17q2 6 1.5 16.5t0.5 15.5q2 24 -2 32q2 7 0 25.5t3 25.5
q-4 3 -1.5 28.5t2.5 28.5q-1 18 -1 55q0 29 -3 43q-1 4 -1 28q0 16 -0.5 48.5t-0.5 48.5q0 6 -0.5 18t-0.5 17v16v6.5t1 7.5q1 4 -1 12t-2 12q3 14 2 25q-1 7 1 21q0 4 -1.5 11.5t-1.5 9.5q3 7 3 25v26v31v26q0 2 3 11t-1 11q-1 4 -0.5 6t2 6t1.5 6q0 4 -1 16.5t1 16.5
q-3 10 -4 22t-0.5 27t0.5 22q-2 29 -6 38l5 18l-3 12q7 11 2.5 45t-3.5 44z" />
    <glyph glyph-name="backslash" unicode="\" horiz-adv-x="398" 
d="M115 913q8 -11 10 -22q3 -11 12 -41.5t12 -47.5q2 -12 10 -42.5t11 -43.5q11 -55 18 -79q4 -16 25 -108q5 -32 7 -38q4 -10 14 -63v-4t1 -3q4 -6 6.5 -12.5t4.5 -16.5t3 -13l14 -56q31 -118 33 -127q19 -78 32 -125q20 -71 31 -96q6 -20 5 -25q0 -2 -5 -4q-6 0 -16.5 0.5
t-15.5 0.5q-18 0 -33 1q-12 0 -16 7q-8 39 -17 63q-6 14 -7 21q0 12 -9 40t-9 40l-42 157q-3 12 -11 40t-12 43q-8 32 -22 94t-21 91q-3 12 -13 48.5t-15 56.5q-1 4 -11.5 41t-10.5 57q-19 61 -21 80q-7 12 -11.5 36.5t-8.5 33.5t3 16q35 7 75 0z" />
    <glyph glyph-name="bracketright" unicode="]" horiz-adv-x="249" 
d="M208 -50q-3 -8 -13 -16q-17 0 -25 -2q-2 -2 -13 -0.5t-13 1.5q-23 -1 -68 -1h-24q-6 3 -9 7t-4.5 11t-2.5 9q5 21 1 44q2 3 2 11t4 12q2 1 17 -4q2 5 20 3t20 -2l5 3q5 3 5 7q-4 14 0 41q-6 21 0 33q2 3 2 16v205q0 17 -3 25q-1 3 -1 9.5v9.5q0 2 1.5 9t-0.5 10
q2 5 0.5 20t-1.5 20v42q0 33 -0.5 99.5t-0.5 99.5v168q0 4 -1 7q-4 3 -26.5 2t-27.5 -1q-4 6 -12 12v37.5t-1 37.5l9 8q19 -8 57 -2q10 3 12 2q12 -4 47 0h7.5h7.5h8h8q8 -5 8 -16q0 -12 -1 -17q-2 -6 -1.5 -16.5t-0.5 -15.5q-2 -24 2 -32q-2 -7 0 -25.5t-3 -25.5
q4 -3 1.5 -28.5t-2.5 -28.5q1 -18 1 -55q0 -29 3 -43q1 -4 1 -28q0 -16 0.5 -48.5t0.5 -48.5q0 -6 0.5 -18t0.5 -17v-16q-1 -2 -1 -7v-7q-1 -4 1 -12t2 -12q-3 -14 -2 -25q1 -7 -1 -21q0 -4 1.5 -11.5t1.5 -9.5q-3 -7 -3 -25v-83q0 -2 -3 -11t1 -11q1 -4 0.5 -6t-2 -6
t-1.5 -6q0 -4 1 -16.5t-1 -16.5q3 -10 4 -22t0.5 -27t-0.5 -22q2 -29 6 -38l-5 -18l3 -12q-7 -11 -2.5 -45t3.5 -44z" />
    <glyph glyph-name="asciicircum" unicode="^" horiz-adv-x="441" 
d="M299 571l-3.5 7t-3.5 8q-2 6 -24 67q-11 34 -18 48q-5 10 -9.5 21.5t-9.5 25.5t-8 22q-5 0 -7 -7q-5 -16 -7 -21q-24 -58 -38 -86q-34 -74 -38 -85q0 -1 -5 -4q-19 -2 -85 -2q-7 3 -6 10q4 12 14 27q14 17 15 33l2 7q2 6 9 19t10 21q4 12 16.5 32t14.5 24q5 9 31 69
l19 38q0 1 -0.5 3.5t-0.5 4.5t1 4t4 4q14 2 42.5 2t44.5 2q5 -5 7 -10l27 -55q1 -1 2 -5.5t3 -6.5q5 -7 34 -62q3 -5 9 -17l9 -18q11 -19 16 -33q4 -15 16 -25q2 -19 11 -31q10 -11 13 -31q-6 -6 -9 -5q-5 2 -19.5 1t-19.5 -1h-37q-10 -1 -22 5z" />
    <glyph glyph-name="underscore" unicode="_" horiz-adv-x="409" 
d="M105 -35q-9 -5 -19.5 -6.5t-18 -0.5t-16.5 0q-3 2 -10 13q5 11 1 21q-1 1 -3 23v24q4 5 14 5h104q18 0 26 2q5 1 13 2t9 1q16 0 46.5 -1.5t46.5 -1.5q12 0 16 2q1 1 5 1.5t5 -0.5q4 -3 27 2l3 -2q4 -2 6.5 -9t5.5 -9q0 -42 4 -60q-4 -8 -7 -12q-25 7 -62 0
q-2 0 -4.5 -0.5t-3.5 -0.5q-66 0 -73 -1q-5 -2 -42.5 -0.5t-42.5 1.5q-20 0 -30 7z" />
    <glyph glyph-name="grave" unicode="`" horiz-adv-x="219" 
d="M189 906q-8 -9 -19 -6q-12 2 -16 2q-2 0 -8.5 0.5t-9.5 -0.5q-1 0 -11 -1.5t-14 -0.5q-4 6 -21.5 26t-24.5 32q-5 10 -13 14q-14 13 -22 32q0 10 10 14h12q12 -1 19 -3q5 -1 17 -1h44q12 -6 16 -20q6 -22 30 -60q13 -19 11 -28z" />
    <glyph glyph-name="a" unicode="a" horiz-adv-x="423" 
d="M260 127q-7 0 -32.5 -1.5t-35.5 -1.5q-4 0 -13 0.5t-13.5 0.5h-6.5q-4 -4 -6 -21q-1 -11 4.5 -29t5.5 -29q0 -4 6 -20t4 -22t-12 -3q-19 6 -57 -2q-38 -4 -76 0q-5 2 -8 0q-6 -1 -14 1t-8 4q-1 2 1.5 9t6 17t4.5 13q10 27 14 52q1 6 3.5 12.5t3.5 9.5q2 11 4 34
q2 11 6.5 33t6.5 34l4 28q8 58 11 66q2 8 1 12q0 13 3 36t4 29q1 7 2.5 19.5t2.5 23t1 19.5q0 7 3 15q0 1 3 19q1 6 1.5 16.5t1.5 19t3 16.5l3 9l3.5 10.5t0.5 8.5q-2 11 2.5 27.5t5.5 32.5q0 12 2 32q4 26 4 38q0 23 10 43l-2 2q-3 3 -4 8t0 16q1 5 -2.5 17t-9 29.5
t-7.5 27.5q-3 12 -1 15q2 2 10.5 3.5t11.5 0.5q6 -3 21 -1q5 1 32.5 0t31.5 -1q7 0 9 1q12 5 28 2q9 -2 27 -2q20 0 22 -2q1 -1 4 -3t5 -5q1 -3 2 -12t1 -10q6 -47 6 -49l3 -18v-7.5t4 -8.5q1 -8 5 -30.5t4 -34.5l3 -36q1 -6 3 -29.5t5 -36.5q4 -23 8 -73l1 -5q1 -5 2 -7
q3 -11 5 -48q2 -20 4 -29q2 -8 3 -22.5t2 -19.5l6 -35q0 -4 3.5 -22.5t3.5 -29.5q0 -16 5 -36q2 -6 2 -18q-1 -12 4 -29q1 -4 4 -29l6 -54q0 -5 2.5 -8.5t3.5 -9.5q10 -50 22 -74q3 -22 -1 -22l-4 -1q-3 -1 -4 0q-5 4 -17 2.5t-18 1.5h-1q-4 -3 -25.5 -1.5t-25.5 1.5l-55 -2
l-2 1l-2 1q-8 -3 -11.5 -2t-4 3.5t-0.5 10.5l4 19q1 3 2.5 11t2.5 11q7 28 6 30q-1 5 0 6.5l2 3t0 6.5q-1 3 -2 10t-3 12zM251 243q-5 65 -7 79q0 1 0.5 4t-1.5 4q-1 1 -1 8q0 3 -4.5 42.5t-6.5 47.5q1 15 -4 41q0 6 -2.5 36t-3.5 33q0 1 -0.5 13t-1.5 13q0 27 -6 51
q-1 2 -4 2q-3 -5 -3 -9l-4 -60q0 -3 -1 -10t0 -11q-2 -6 -4 -22.5t-3.5 -34t-2.5 -21.5q-2 -8 -6.5 -59.5t-7.5 -62.5v-3q5 -9 0 -17v-19q0 -9 -3.5 -26t-4.5 -22q6 0 24.5 -0.5t34 0t23.5 3.5z" />
    <glyph glyph-name="b" unicode="b" horiz-adv-x="411" 
d="M50 536q-3 4 -3 15q0 53 -1 64q-3 34 -1 98q0 10 1 12.5t1 12.5q1 8 -16 60t-18 58q1 1 9 5q64 -6 93 -3h23q4 -1 7.5 -0.5t7.5 0t7 -2.5q1 -1 10 -1h73q32 1 66 -20q25 -17 28 -23q2 -4 7 -11.5t8.5 -13.5t4.5 -13q2 -8 7.5 -25.5t7.5 -26.5l2 -15q0 -9 2 -13
q4 -7 1 -37q-1 -8 -1.5 -22.5t-0.5 -19.5t1 -16t1 -19t-3 -15q-2 -5 -2 -16v-13q-2 -40 -15 -62q-15 -23 -28 -28q-1 0 -11 -6.5t-17 -6.5q4 -6 18 -13q39 -19 52 -45q15 -27 9 -81q0 -3 1 -17t-2 -16q-1 -1 -1 -2q2 -9 1 -51q7 -10 -2 -96q-5 -34 -32 -58l-35 -31
q-4 -3 -14 -6.5t-14 -8.5q-27 0 -36 -5q-18 0 -51.5 1t-49.5 1q-80 2 -133 -4q-3 6 -2.5 8.5t4 8t4.5 9.5q15 37 19 58q3 11 6 18t4 10.5t1 11.5q0 14 1 60t1 59v21q1 21 0 21q-1 16 -2 47.5t-2 47.5q0 24 3 46q1 2 0 17t-1 18q0 42 -1 63q0 2 1.5 6t1.5 6zM168 122
q18 -1 34 0q50 6 55 36q1 9 1 58q0 1 -1.5 8.5t-0.5 12.5q0 9 2.5 16t2.5 7.5t-3 4.5q-3 5 -3 10t1.5 16t1.5 17q0 39 -20 58q-34 10 -70 -1q2 -4 0 -93q0 -14 1.5 -35t1.5 -47.5t-3 -67.5zM169 727q3 -38 3 -112q0 -29 -1 -31q-2 -4 -1.5 -7.5t1.5 -12t1 -13.5q0 -43 1 -52
q7 3 15 3.5t15 0t16 0.5q15 1 25 13l16 18q-3 38 -2 42q2 7 -1 21t0 21q-2 15 -2 41v32q-1 3 -4.5 10.5t-4.5 11.5q-32 26 -77 14z" />
    <glyph glyph-name="c" unicode="c" horiz-adv-x="393" 
d="M231 219l9 6q11 0 37 -2t36.5 -2t35.5 3q2 -1 4.5 -2t4.5 -1t4.5 -2.5t4.5 -6.5q-4 -18 -4 -63q0 -15 3 -22t-1 -27l-2 -20q-21 -47 -50 -69q-15 -2 -27 -11t-29 -9q-8 0 -32.5 -2.5t-37.5 -0.5q-17 1 -49 9q-12 4 -17 4q-27 1 -55 31l-13 12q-6 7 -18 34l-7 11v105
q0 8 -2.5 26t-2.5 26q0 13 2.5 35.5t2.5 35.5q2 23 0 46q-1 7 -1.5 21t-0.5 19q0 7 -1.5 21t-1.5 21q0 10 2.5 37.5t2.5 40.5v30q0 14 -5 15q7 35 7 58q-1 7 -1 22t-2 45.5t-1 46.5q2 28 24 68q12 4 22 16q28 27 62 38q4 1 11 4.5t8 3.5q6 2 21 -0.5t19 2.5q13 -8 31 -6
q35 2 61 -16q2 -1 5 -4q4 -5 9 -3q2 1 17.5 12t18.5 12q11 3 12 3t6 -7q8 -3 6.5 -56t-0.5 -59q2 -9 2 -26.5t1 -24.5t1 -43q0 -2 -1 -5.5t-1 -6.5t3 -6l-7 -7q-12 1 -57 -0.5t-57 2.5l-2 2l-4 3q-1 8 -1 50q0 8 0.5 24t0.5 25q-15 12 -16 13q-7 2 -44 2q-1 0 -2 -1l-2 -2
q-23 -6 -21 -37q2 -21 0 -42q-1 -10 -0.5 -36t0.5 -36q0 -4 -1.5 -11.5t-1.5 -11.5q0 -2 -2 -2.5t-2 -1.5q13 -17 2 -34q0 -1 3 -3.5t2 -4.5q-2 -8 -0.5 -24t-1.5 -24q-2 -5 0 -15t2 -14v-40t-1 -40q-1 -15 -1 -45q0 -8 1 -23.5t1 -23.5q-3 -32 -2 -59q2 -15 2.5 -44
t1.5 -44q0 -6 4 -10q3 -2 1 -9q9 -8 11 -9q3 -1 8 -3t6 -3h27q4 1 9 6q16 14 14 27q-1 9 1 26t2 25q0 14 -4 20q-2 3 -1 9.5t-1 8.5z" />
    <glyph glyph-name="d" unicode="d" horiz-adv-x="423" 
d="M12 847q0 8 -1 9q9 5 37 5.5t37 -2.5q4 -1 20 -1q8 0 24.5 0.5t24.5 0.5q7 0 21.5 -0.5t21.5 -0.5q0 -1 23 0h22q15 0 18 1q2 1 6 0.5t5 -2.5q4 -4 20 -7q11 -3 28 -13.5t24 -19.5l6 -3q16 -18 16 -27q0 -10 4 -15q5 -8 5 -27q1 -1 2.5 -3.5t2.5 -4t1 -4t-2 -4.5
q3 -8 2.5 -25t1.5 -26q3 -10 3 -28.5t1 -23.5q0 -2 -1.5 -10t-0.5 -12q1 -5 1 -15.5t2 -15.5q1 -4 1 -36v-57q1 -13 -1 -36.5t-2 -33.5q-1 -6 -0.5 -18t0.5 -17q-1 -9 0 -26.5t0 -25.5q0 -9 -4 -11q4 -21 -1 -90q0 -2 2.5 -5t2.5 -6q-5 -12 0 -18q2 -2 0 -4q-1 -8 -1 -25.5
t-2 -25.5q-1 -6 -1 -18q1 -13 -12 -43l-3 -6t-3 -7.5t0 -6.5q-16 -20 -30 -28q-23 -11 -30 -14q-28 -9 -38 -16q-6 2 -40 2.5t-46 -0.5q-36 -1 -87 2q-6 -3 -30 -2t-30 0q-3 2 -8.5 3t-7.5 2.5t-1 5.5l18 59q1 5 5.5 15.5t7 20t2.5 15.5q0 11 0.5 46t0.5 45q-2 34 1 62
q1 13 0 36.5t-1 30.5q1 13 -1.5 38.5t-2.5 34.5q-1 16 2.5 47.5t-0.5 55.5q0 94 3 108q1 2 0.5 7t-1.5 8t-1.5 20.5t-0.5 44.5v18q0 3 0.5 8.5t-0.5 7.5q-5 13 -7 31q0 7 -14 38t-14 38zM259 182v93q-2 44 0 88q0 13 1 36t1.5 42t0.5 36v33.5t-1 33.5q-2 6 -2 26q2 7 2 29
q1 5 1.5 14t1.5 16t3 13l-3 10q-2 6 -2 17t-1 16q-5 33 -28 40l-24 9q-5 -5 -16.5 -2t-17.5 0q-2 -4 -2 -7q3 -23 0 -45q-1 -7 0 -18t1 -16q-2 -19 3 -47q2 -14 -2 -21q-1 -6 0 -12v-40v-34l-3 -60q0 -9 1 -30.5t0 -32.5q-1 -10 -1.5 -31.5t-2.5 -32.5q-1 -5 2 -63
q1 -38 0 -75q0 -3 0.5 -8t0.5 -8q-2 -27 1 -34q3 1 12 0.5t13 -0.5q1 3 6 5q37 1 47 37q1 2 1.5 7.5t1.5 9t5 6.5z" />
    <glyph glyph-name="e" unicode="e" horiz-adv-x="338" 
d="M11 845q4 10 24 10q2 0 32.5 -1.5t38.5 -0.5q13 2 42 1.5t42 2.5q14 2 44 -2q2 0 16 2q6 0 9 -1q8 3 20 1.5t15 -0.5q4 -3 8 -12q-6 -11 -2 -27q2 -6 2 -20.5t3 -22.5q-3 -6 -2 -32t-1 -32q-6 -3 -18.5 4t-14.5 7q-5 1 -18 6.5t-22 5.5q-10 0 -28 1t-27 1q-6 0 -8 -2v-23
v-15t-1 -16q0 -4 1 -7q4 -18 -4 -28q6 -20 3 -33q5 -10 5 -26v-91q9 0 20.5 0.5t19.5 0.5q4 0 12.5 3.5t15.5 4.5q3 -2 16 4t16 5q-1 -5 -1 -26.5v-25.5t2 -20t-2 -20q0 -1 2 -16q0 -3 -1 -5l1 -2l1 -1q-1 -2 -1.5 -23t-3.5 -26q-11 2 -34 11.5t-35 10.5q0 1 -14 0h-15
q-5 -30 1 -76q0 -3 -1.5 -5t-4 -3t-3.5 -2q0 -2 1 -5.5t1.5 -6.5t0.5 -6q2 -12 0 -26q-4 -15 1 -25q2 -5 2 -23q-1 -12 1 -34t2 -31q11 -1 66 -1q2 0 64 22q9 0 10 -4v-82q2 -31 4 -38q4 -11 -3 -22q-6 -3 -51 -1t-51 2q-117 -3 -127 -4q-9 -1 -34.5 0t-34.5 5q-3 8 4.5 25
t7.5 23q0 8 8 35t9 33q1 11 0 26t1 26q0 7 -0.5 30t1.5 29q2 16 2 47v38v37v38q0 5 1 20t0 23q-1 15 0 42.5t1 36.5v79q-1 21 2 48q2 12 -2 47q0 7 1 23t0 23q0 4 -3 15q-1 4 -8.5 20.5t-8.5 21.5q0 6 -6.5 20t-6.5 21q0 2 -2.5 7t-2.5 7z" />
    <glyph glyph-name="f" unicode="f" horiz-adv-x="323" 
d="M18 856l59 5q23 -8 36 -2q6 -4 29 -2.5t29 0.5q5 -1 16 1t16 1t19.5 -0.5t19.5 -1.5q4 -1 29 2q20 2 35 -8l-3 -44q0 -26 2 -40q6 -36 -4 -55q-15 3 -40.5 16.5t-35.5 13.5q-13 0 -28.5 -0.5t-26.5 -0.5q-2 -7 -2 -19.5t-1 -18.5q-2 -8 -2 -12q1 -11 -0.5 -31.5
t-1.5 -29.5l2 -30v-39q0 -10 0.5 -30t0.5 -30q9 -7 15 -7q23 3 27 4q1 0 18.5 8t22.5 9q2 0 6.5 2t6.5 2.5t5 -2.5q-5 0 -2.5 -33t2.5 -34q-3 -36 -3 -37q10 -41 -3 -64q-7 0 -30.5 11.5t-30.5 11.5q-21 1 -31 0q-3 -10 -2.5 -28.5t-0.5 -28.5q-2 -9 -1.5 -30t-2.5 -29
q-1 -1 0 -2l1 -3q-2 -50 0 -62q1 -3 0 -9.5t-1 -8.5q-3 -29 -3 -33l1 -9q1 -9 0 -11q7 -36 9 -49q1 -4 11 -28.5t10 -30.5q0 -2 1 -4q2 -5 -4 -8q-17 0 -82 3t-83 2q-2 0 -5.5 -0.5t-5.5 -1t-3 1.5t-1 6q1 6 13 39.5t13 37.5l7 32q-1 1 -1 6v45t2 46q0 7 -1 8q-3 4 -1 9
q3 8 3.5 18t0 18.5t0.5 18.5q2 38 1 57q-1 16 1 70q0 22 1 32q1 9 -1 38.5t2 38.5q3 13 -2 24q-2 5 0 10q3 20 3 60q0 3 1 8t1 8q0 42 -4 75q-1 11 -1 31q0 7 -2 11t-2 10q-1 8 -10 30.5t-11 31.5q-6 24 -6 25t0.5 2.5l1 3t2.5 3.5z" />
    <glyph glyph-name="g" unicode="g" horiz-adv-x="410" 
d="M84 832q12 9 25 14.5t33 11.5t26 8q15 5 38 5q11 1 29.5 -2t29.5 -3q2 0 8 -2q13 -4 22 -10t17 -10q1 0 4 2t8 6.5t10 7.5q14 8 19 11q11 6 17 2l1 -14q0 -2 0.5 -6.5l1 -9t-0.5 -15.5q-4 -38 1 -101q1 -11 1 -46.5v-46.5q-17 -5 -43.5 -2t-40.5 -2q-5 -1 -15.5 1.5
t-14.5 -0.5q-2 1 -7 1q0 2 0.5 7t0.5 7q2 18 0.5 46t0.5 55v11q-4 5 -8.5 8.5t-7.5 5t-10 2.5t-8.5 1h-10h-9.5q-22 -8 -27 -11.5t-13 -13.5q-2 -17 -2 -55t-3 -57q4 -20 1 -42q-2 -16 0 -46q2 -36 -1 -54q-1 -4 0.5 -16.5t-1.5 -16.5l-3 -96q0 -16 -4 -22q4 -10 4 -31
l2 -150q0 -16 2 -19q2 -2 0 -9.5t-2 -9.5q3 -8 15 -18q4 -1 13 -2t16 -2.5t13 -5.5q10 2 26 4l11 10q3 34 3 35q2 5 0.5 15t1.5 15q-2 5 -0.5 16.5t0.5 16.5q-1 6 0 17t1 16q-3 33 -3 37q0 6 1.5 14t1.5 14v61q-8 1 -47 -13l-6 6l-3 6q-1 19 -1 56v54q2 3 4.5 4.5t4.5 2
t4.5 0.5t3.5 1l4 1q5 -1 13.5 -1t11.5 1t11 0t11 1q29 2 40 -2q7 -4 20 -2t21 2t22 -2q1 0 6 -5q0 -4 -0.5 -10t-0.5 -9q-1 -26 2 -73.5t2 -74.5q0 -23 -2.5 -72t-2.5 -72q0 -4 0.5 -13t0.5 -13q2 -16 0 -22q-6 -12 -3 -28q-2 -8 -0.5 -49t-2.5 -51q-4 1 -8 0.5t-8 0t-6 1.5
t-13.5 8.5t-21 13t-12.5 3.5q-5 -5 -9.5 -7.5t-11 -4.5t-10.5 -4q-27 -12 -55 -15q-11 4 -31.5 4h-24.5q-10 1 -27.5 6t-26.5 5q-30 18 -46 38q-9 12 -20 56q0 11 2 28t1 27v30q0 4 -2 61.5t2 76.5q0 3 -1 7t-1.5 6.5t-0.5 6.5v7q1 6 1 19t2 20q5 20 -2 39q3 15 3.5 34t0 34
t0.5 34l3 27q2 23 -1 34q-7 19 -1 33q3 8 3.5 18t0 18t0.5 18q1 11 -1 50q0 3 -0.5 9t-0.5 8q0 41 16 60q14 15 24 30z" />
    <glyph glyph-name="h" unicode="h" horiz-adv-x="422" 
d="M172 121l-4 -2l2 -2q0 -8 4 -20.5t4 -19.5q0 -9 8.5 -32.5t6.5 -33.5q-2 -2 -5 -2h-4q-7 -5 -32.5 -5h-27.5q-21 -4 -36 -1q-3 1 -20.5 1.5t-20.5 -0.5q-21 0 -31 11q-1 15 8 36t11 30q7 28 7 39v17q-2 50 -1 75q1 11 1 31q1 26 1 77l2 50q1 2 -0.5 5t-1.5 4q3 17 3 33
v18v22v19v36t1 36q1 15 0 42t-1 35v37v65v14q0 6 -2 9t-2 8q1 10 -7 26t-9 24q1 3 -13 31l-2 6q-4 6 2 14q2 3 11 3.5t21 -1t14 -1.5q10 0 41.5 0.5t49.5 1.5l30 2q15 -9 16 -10q-7 -15 -19 -63q1 -10 -3.5 -23.5t-4.5 -18.5t-4 -7q7 -4 2 -23q-1 -3 -1 -17q1 -16 -1 -32
q-1 -13 1.5 -36.5t2.5 -29.5q0 -5 -2.5 -32t0.5 -33q2 -11 -0.5 -26.5t-7.5 -19.5h50q20 -2 26 -1h9t9 4q3 33 3 67v24v24q0 7 1.5 33.5t-1.5 33.5q-1 7 -1 21t-1 21q-1 4 2 22q1 7 -1.5 13.5t-2.5 12.5t-3.5 18t-3.5 18q0 7 -7 25t-7 25q3 7 12 7q11 0 47.5 1.5t49.5 0.5
q5 -1 30 1t28 2q2 0 4 -1t3 -1q3 -11 -7 -35t-9 -34q-4 -8 -10 -32q-1 -2 -4 -21q-1 -6 -1 -8v-15.5v-15.5q0 -6 2 -16t2 -14q0 -28 2 -86q0 -4 -0.5 -12.5t0 -15t3.5 -11.5q-5 -2 -4.5 -18t0.5 -18q-3 -29 -2 -36q0 -6 0.5 -18t0.5 -18q-1 -10 -1.5 -21t-1 -24.5
t-0.5 -20.5l-3 -9q3 -10 2 -39.5t0 -38.5l-2 -2q0 -10 1 -28t1 -33.5t-2 -29.5q5 -5 3 -10q-2 -3 -1 -9.5t1 -8.5q-1 -3 -1 -8.5v-8.5v-17q0 -1 1 -4t0 -4.5t-4 -3.5q7 -12 10.5 -27t-1.5 -24q1 -4 4 -1q2 -5 6.5 -14.5t7.5 -15.5t5 -14t1 -14q-2 -3 -6.5 -3.5t-6.5 -2.5
q-5 2 -19 2.5t-26 0t-20 0.5h-37q-3 0 -17 -0.5t-26 0t-16 4.5q-1 4 4 18q2 6 6.5 35.5t6.5 35.5q7 24 8 31q1 48 0 96q1 2 0 5t-1 5q0 1 -3 71q0 8 2 13q3 4 1 13q-3 23 -1 28q1 3 0.5 5t-2 5.5t-1.5 5.5q-37 0 -41 -1q-6 -1 -40 1q2 -39 0.5 -126t2.5 -126z" />
    <glyph glyph-name="i" unicode="i" horiz-adv-x="214" 
d="M8 849q0 4 1 5.5t3.5 1.5t3.5 1h30q30 0 37 3q4 0 5 -1q9 -3 16 1q8 -5 42 -1.5t43 0.5q3 -2 10 -9q-2 -4 -11 -30.5t-13 -32.5q-2 -2 -0.5 -7.5t0.5 -7.5q-11 -30 -11 -36q-1 -14 0 -40t0 -39q-3 -28 1 -65q2 -21 -3 -39q-2 -8 0 -29q2 0 1 -22l-1 -22v-26q0 -2 1 -4.5
t1.5 -4.5t-0.5 -4.5t-3 -4.5q-1 -1 0.5 -2.5t1.5 -2.5q3 -13 -4 -23h2h1.5t1.5 -1q-2 -5 0.5 -20t-3.5 -19q5 -13 1 -43q-1 -2 1 -3q1 0 2 -1t1 -2l4 -60v-57q2 -56 2 -81q0 -3 5 -31l5.5 -16.5t3.5 -22.5q-1 -5 18 -43q1 -5 -5 -10q-8 7 -83 5t-83 -1l-17 7q-2 6 8.5 30
t10.5 28q0 11 5.5 28t6.5 26q1 7 0 9t-1 9q0 8 0.5 34t1.5 40q0 3 -0.5 9t-0.5 9q3 38 1 45q-2 10 -1 31t-1 31q0 4 0.5 15.5t-0.5 15.5q-2 8 -1 22.5t0 22.5q-1 5 -0.5 18.5t0.5 19.5q-1 9 -1 57v56q0 54 -3 68q-1 6 0.5 17t1.5 14q0 46 -1 52q-2 14 2 25q1 4 -3 11t-4 10
q-1 11 -6.5 19.5t-5.5 21.5q-7 33 -17 46z" />
    <glyph glyph-name="j" unicode="j" horiz-adv-x="383" 
d="M336 484q10 -18 2 -28l2 -13v-20q0 -18 -1 -28q0 -15 1.5 -49t0.5 -52v-47q0 -7 0.5 -32.5t-1.5 -32.5q-3 -19 2 -28q3 -5 0 -11q-2 -3 0 -16q0 -24 -3 -36l-3 -19q-4 -19 -13 -28q-3 -3 -6 -6.5t-6 -8.5t-5 -8q-28 -28 -67 -28q-2 0 -8.5 -1.5t-10.5 -0.5q-30 0 -36 2
q-8 2 -18 0q-13 -1 -25 3q-56 10 -57 23l-22 16q-15 11 -19 24q-15 44 -18 87q1 1 1 5q0 37 -3 53l5 4l30 9q3 1 12 5.5t15.5 7t8.5 2.5q7 -1 21 5.5t19 6.5q6 0 10 -4q-3 -21 0 -50q1 -12 -0.5 -23.5t0.5 -21.5l1 -5q1 -6 3 -12t6 -11t10 -6q2 -1 6 -1q4 -1 13 -1
q13 -2 26.5 10.5t12.5 26.5v22v27v23q0 25 2 37q2 8 0 26v17.5v21.5v19v41q2 39 1 58q0 10 1 15q4 16 0 41q-2 16 1 24q-3 7 -3 38q-2 30 2 88q-7 9 -4 15q3 8 3 32q0 7 1.5 23t-0.5 23q-1 13 -6.5 30.5t-7.5 25.5q2 5 -10.5 32t-5.5 34q6 2 31 1.5t32 -2.5q0 -2 13 -1l14 1
q3 0 13 0.5t16 1.5q6 2 6 -5q4 2 27 3l23 2q1 -1 -3 -14q-1 -1 -6.5 -23.5t-10.5 -26.5q1 -1 -6 -29l-7 -28q0 -26 1.5 -44t1.5 -48q-1 -28 -1 -85q0 -28 -1 -42q0 -30 -3 -36z" />
    <glyph glyph-name="k" unicode="k" horiz-adv-x="406" 
d="M13 7q1 2 8.5 22t8.5 23q0 9 3 21t3 23q0 4 7 25v20q4 10 2.5 38.5t-0.5 38.5q5 76 -1 143q-1 7 0.5 21t1.5 18l-3 118v161q0 19 1.5 35.5t1.5 30.5q0 9 -5.5 25t-5.5 29q0 1 -5.5 13t-10 23.5t-4.5 12.5q-3 7 0 15q99 -8 176 -2q8 -6 9 -13q1 -8 -6.5 -23t-7.5 -22
q-1 -12 -9 -30.5t-7 -30.5v-36v-44v-36q-2 -38 0 -51q0 -2 -2 -17q-1 -4 -1 -34q2 4 5 16q2 5 9.5 24.5t9.5 28.5q1 8 5 22.5t5 17.5q1 6 5 17.5t5 13.5q1 4 5.5 15.5t3.5 18.5q6 7 8.5 23.5t7.5 23.5q4 14 4.5 34t3.5 35q1 3 -1 13.5t-2.5 17t2.5 9.5q9 4 18 3q34 -8 96 -2
q48 3 55 -7q-4 -11 -13.5 -24.5t-13.5 -25.5q-1 -4 -16.5 -28t-16.5 -28q-1 -7 -15 -45q-4 -11 -15 -38.5t-15 -43.5q-3 -10 -13 -42.5t-13 -50.5q-2 -16 -5 -23q-6 -12 -13 -33t-10 -29q7 -13 15 -42q1 -4 7.5 -21.5t8.5 -27.5l15 -51q1 -4 6 -14.5t6 -17.5t14 -49
q5 -20 17 -45q8 -17 18 -53q5 -17 26 -50.5t26 -50.5q1 -4 0 -10q-6 -6 -44 -6q-1 0 -4 1t-5 0q-4 -1 -32 -4q-5 0 -42 1.5t-44 0.5q-4 -1 -6 1t-2 6t0.5 7t2.5 8q0 1 2 7.5t3.5 12t1.5 7.5q-2 5 1.5 12.5t0.5 12.5q-2 5 -2 11t-1 11q-1 3 -1 8t-2 7q-8 14 -16 48l-7 27
q-1 4 -3.5 12t-4 14t-1.5 12q-1 1 -1 3v3q-5 10 -9.5 29t-6.5 25q-4 14 -14 42q-8 24 -9 37q0 3 -3 3q-2 0 -2 -3q2 -4 2 -33.5v-34.5q1 -19 -1 -54t-2 -51q1 -18 1 -68q0 -6 1 -6t1 -6q-1 -8 4.5 -22.5t6.5 -18.5l16 -52q2 -6 -2 -10q-10 -3 -59.5 -2.5t-62.5 2.5
q-2 -1 -20 -2t-20 -1q-12 4 -14 5z" />
    <glyph glyph-name="l" unicode="l" horiz-adv-x="320" 
d="M294 151q2 -2 6 -19q-5 -7 -2.5 -61.5t1.5 -63.5l-7 -7q-4 2 -11.5 2t-11.5 3q-13 -7 -33 -2q-3 1 -9 1q-45 -4 -91 -3q-8 1 -27 -1q-60 -4 -83 -1q-2 0 -5.5 1t-6.5 1q-1 6 4.5 28t9.5 29q3 7 7 29q1 7 2.5 11.5t2 5.5t1.5 5.5t0 11.5q-2 13 -1.5 48t0.5 47q0 9 2 33.5
t1 38.5q-1 10 -0.5 30.5t-0.5 31.5q-2 17 -2 49v39q0 37 5 62q3 16 -1 39q-4 34 0 58q0 13 -0.5 41t-0.5 42q0 10 -0.5 30t0.5 31q0 3 -2.5 10t-1.5 11q-2 8 -6.5 20t-7 22.5t-2.5 21.5q0 3 -5.5 14t-5.5 13q122 9 181 6q1 -7 3 -9t-3 -7q-16 -48 -16 -60q-1 -11 -5.5 -24.5
t-4.5 -18.5v-14q0 -27 2 -34q1 -3 -1 -10.5t1 -10.5q-3 -13 -5 -57l-1 -54q-1 -53 1 -53l3 -66q0 -54 -2 -69q-2 -26 -1 -39l-3 -42q-1 -7 0.5 -19.5t1.5 -17.5v-39q0 -1 2 -4t1 -6q-3 -5 -2 -18.5t-3 -18.5q0 -6 -0.5 -24t1.5 -21q3 -4 12 -4h36q2 0 13 4.5t18 5.5
q1 0 10 4.5t10 5.5q5 1 17 6t16 6z" />
    <glyph glyph-name="m" unicode="m" horiz-adv-x="601" 
d="M397 859q7 2 20 1.5t20 0.5q14 3 41 -1q35 -3 40 -5q8 5 33 4.5t34 -7.5q5 -7 2 -15l-20 -55l-12 -41l2 -133q0 -17 -3 -26q-1 -3 -1 -19q-1 -48 0 -96q0 -11 2 -31.5t2 -27.5v-124q0 -49 2 -62q3 -17 3 -50q0 -10 -2 -28q0 -17 -1 -25q-1 -14 -0.5 -16t3 -8.5t4.5 -15.5
q1 -5 7 -21.5t10.5 -31.5t2.5 -21q-9 -6 -58 -6h-28q-12 1 -39 1t-39 -1q-5 0 -9 2q-6 8 -6 9q-1 9 9 33t13 51q1 3 3 9.5t2 9.5q0 5 2.5 10.5t-0.5 9.5q-2 6 -2 11v33.5t2 42.5q1 5 -0.5 14t-1.5 13v246q0 28 -2 42q-1 -3 -7 -34q-11 -44 -19 -97q-2 -10 -5 -29t-5.5 -34.5
t-4.5 -29.5q0 -1 -1.5 -7.5t-1.5 -9.5q0 -32 -5 -53q-1 -2 -6 -20t-6 -27q-1 -6 -2.5 -21.5t-3.5 -23.5q-2 -11 -5 -40.5t-8 -45.5q-3 -8 -4.5 -17t-2.5 -20.5t-2 -17.5q-18 -9 -65 -9q-2 1 -12 16q1 6 -6 34q-2 11 -4.5 32.5t-3.5 28.5l-13 58l-5 30q-1 6 -2 23t-4 26
q-2 6 -2.5 16t-0.5 11q-19 53 -23 91q-1 15 -8 35q-8 36 -8 41q0 10 -2 14q-6 15 -9.5 42.5t-6.5 37.5q0 1 -1 3t-1 4l-6 -18l3 -15v-25.5t0.5 -30t2.5 -25.5q1 -5 -0.5 -14.5t-1.5 -13.5t1 -16.5t-1 -16.5q-1 -5 -1 -31v-34q-1 -41 2 -93q1 -7 -1 -21q0 -23 3 -34
q1 -8 1 -32q0 -13 4 -18t4 -17q0 -4 7.5 -23.5t12.5 -38t2 -22.5q-2 -2 -9.5 -2.5t-10.5 0.5q-37 9 -102 1q-6 -1 -25.5 -1t-23.5 2l-6 1q-6 1 -8 5q0 10 4 18q2 6 12 26t12 28l12 40l-2 92q0 2 -1 8t-1 9t-1.5 9.5t-1.5 12t3 10.5q2 3 -0.5 8.5t-2.5 7.5v37l3 33q1 2 1 17
q0 58 1 87q0 14 -5 27q9 39 1 68q-2 8 -2 20t1 26.5t1 21.5q-2 38 -4 55q-2 16 -2 22q0 2 1 5.5t1.5 5.5t0 5t-1.5 5q-1 3 0.5 9.5t-0.5 9.5q-3 6 -1 14q2 7 -1 11t-3 11t-5 17t-6 15q0 1 -4.5 12t-8 21t-3.5 13q0 7 9 13q11 2 38.5 2t39.5 -3q14 -3 73 -3q4 3 8.5 3.5
t11 -1.5t8.5 -2q5 -3 5 -10q0 -19 10 -55q2 -6 2 -11q-1 -4 4 -22q1 -7 6.5 -32t6.5 -39q2 -21 22 -110q4 -17 16 -71q21 -103 25 -115q2 -7 4 -17q0 -15 8 -33q3 8 10 51q8 41 7 48q6 15 9 46.5t10 46.5q1 3 1 9q0 8 14 88l5 31q0 1 3 12t3 17l3 30q4 32 8 48q2 10 4 30
q0 28 13 62z" />
    <glyph glyph-name="n" unicode="n" horiz-adv-x="445" 
d="M16 854q1 0 7 3q46 -8 63 -2q0 1 4 1l5 -1l31 2q16 3 38 -3l3 4q16 0 20 -11q7 -18 7 -24q-1 -9 0 -18.5t4 -21t4 -17.5q2 -20 2 -29q0 -12 7 -35.5t8 -35.5q1 -16 9 -44.5t10 -38.5q1 -5 2 -20.5t3 -24.5q1 -6 9 -46t14 -61q3 -9 7.5 -55t6.5 -53q1 -2 2.5 -7t2.5 -7
q3 19 0.5 81t-5.5 73q3 7 2.5 18.5t0.5 18.5q1 4 1 16t2 18q-4 4 -4 16q2 56 0 111v41t-2 41q-1 8 -9 29.5t-9 31.5q-3 34 -16 47q2 0 3 1.5t1.5 3.5t1.5 3.5t3 1.5q129 0 170 -3q2 -6 1 -10t-4 -12.5t-4 -13.5q-10 -35 -10 -42q0 -9 -6 -19t-5 -19q0 -37 1 -46q0 -9 -2 -27
q-2 -19 0 -57q2 -59 0 -74q-1 -3 0.5 -7.5t1.5 -6.5q0 -52 1 -78q0 -43 3 -65q4 -25 0 -37q-2 -6 -1.5 -18t-0.5 -18l-2 -38q-3 -45 -2 -50q2 -16 2 -47.5t1 -47.5q0 -3 -1 -6t-1 -4q4 -21 6 -61t2 -46q-9 -17 -35 -10q-2 0 -6.5 1.5t-6.5 1.5q-5 1 -11 0q-22 0 -30 2
q-5 1 -14.5 -1t-16.5 0q-3 1 -8 1t-6 1q-6 0 -9 7t-4 17.5t-1 11.5q-5 12 -7 34t-4 30q-1 4 -5 18t-5 21q-2 8 -8 30.5t-8 34.5q-2 14 -9 39.5t-9 36.5q-4 27 -5 44q0 10 -6 30q-7 18 -15 60q-1 6 -4 27.5t-7 41t-8 33.5q0 2 -3 6q-3 -12 -1 -29q8 -47 6 -68q-1 -8 2 -18
q6 -17 -3 -26q5 -1 5 -9q0 -23 -2 -71q0 -8 1.5 -24t1.5 -24q0 -3 -1 -13t0 -16q2 -23 2 -68q0 -8 -0.5 -22t-0.5 -21q0 -20 17 -52q1 -3 1 -9q0 -7 5 -22t10 -20q-6 -13 -20 -13h-58q-3 0 -38 -1.5t-46 -0.5q-14 1 -16 12q-1 7 2.5 19.5t10.5 29t8 19.5l9 41q0 43 -1 45
q-2 3 1 15q0 1 -1.5 4.5t-1.5 5.5q0 10 2 26q0 4 -1 12t-1 12q0 9 2 33t1 37q-2 15 -3 43t-2 40q-2 12 0 35t2 32v39q-1 3 0.5 7t1.5 6q0 12 -1.5 38t-0.5 40q0 2 -0.5 7t-0.5 7q-2 16 -2 72q0 39 -2 46q-1 4 0 9q1 8 0.5 11t-1.5 3t-2 3t-1 11q0 5 -7 22.5t-5 22.5
q2 6 -5 24.5t-4 25.5z" />
    <glyph glyph-name="o" unicode="o" horiz-adv-x="402" 
d="M363 538q5 -5 5 -7q-3 -13 -3 -63q0 -1 -0.5 -5t-0.5 -6q-2 -7 -0.5 -26.5t1.5 -26.5q0 -5 1 -22t0 -26v-47q2 -21 0 -42q-3 -32 1 -60q2 -17 -1 -26q-2 -2 -0.5 -16t1.5 -16q0 -43 -2 -55q-6 -24 -10 -35q-4 -14 -15 -18l-2 -2q0 -6 -12 -16q-42 -35 -97 -36
q-24 -1 -90 8q-2 0 -4.5 3t-4.5 3h-15q-5 3 -17.5 9t-18.5 11q-31 26 -44 65q-7 23 -4 42v23q-1 13 -1 39l-2 80q-2 29 0 88q0 37 -4 66q-2 17 1 30q3 11 3 34t-1 35q0 7 6 12q-4 7 -6 33v49l3 77q0 3 1.5 9t1.5 9q-1 7 -0.5 13t0 13t-3.5 13q4 3 6 7t4 10l3 9q19 48 73 72
q22 10 43 22q15 -1 34 5q5 2 27 -3q12 -2 38 -4q7 -1 23 -10l14 -7t18 -10q34 -24 45 -55q4 -11 9 -55q1 -5 1 -34q-3 -78 -1 -88q1 -2 0 -7t-1 -6q-1 -8 2 -41q2 -14 -4 -18zM240 113q2 6 2 17q3 50 2 57v31v32q0 3 2 7q2 12 2 19q-2 56 -2 83q1 30 1 90q-1 17 0 52t0 53
q-1 39 0 78q0 54 1 64q2 35 -4 48l2 7q-4 0 -6.5 1.5t-4.5 4t-4 3.5q-8 -1 -40 4q-17 -9 -21 -10q-19 -6 -16 -26v-7q0 -35 2 -42q-2 -8 -2 -11q-2 -17 0 -24q3 0 1 -20t-2 -21v-127q0 -3 -2 -33t1 -32q2 -8 -1 -60q0 -4 -1 -17.5t0 -22.5t4 -18q0 -2 -3.5 -3t-1.5 -4
q3 0 4 -1q1 -39 0 -77q-2 -21 -1 -32q3 -19 1 -42q0 -14 1 -17q20 -20 39 -24q21 -4 32 5z" />
    <glyph glyph-name="p" unicode="p" horiz-adv-x="406" 
d="M12 849l10 10q51 2 102 0q6 -1 14 1q12 1 35.5 -1.5t27.5 -2.5q36 0 40 1q12 3 54 -4q17 -4 28 -15q3 -3 10 -9t11.5 -11t7.5 -10q21 -41 23 -71q0 -5 2 -20.5t2 -24.5q1 -14 -0.5 -41t-1.5 -37q-2 -30 1 -54q4 -66 -23 -106q-18 -27 -44 -47q-11 -8 -42 -15
q-35 -7 -94 -5v-39q2 -11 -1 -19q-1 -10 4 -18q-4 -3 -6 -18l-3 -33q0 -8 2 -22t2 -19q3 -28 0 -55q-1 -3 0 -18.5t1 -19.5q-4 -4 -2 -12q2 -12 5 -20t4 -21q0 -4 11 -29t10 -30q-3 -8 -9 -13q-83 0 -89 1q-7 1 -41 0t-43 2l-6 8l5 13q5 13 5 15q0 6 7 21.5t6 21.5
q-2 10 2 19.5t4 18.5q-1 22 0 46q0 6 1.5 21.5t0.5 23.5q-1 14 0 47t-2 47q3 9 3.5 19t-0.5 23.5t-1 18.5q-1 20 1.5 57.5t2.5 53.5v52v90q1 14 0 39t-1 33q1 13 -0.5 24t-1.5 21q0 4 -5.5 12.5t-5.5 19.5q0 3 -3.5 15t-3.5 14q-2 31 -16 51zM164 670q5 -2 5 -14
q0 -6 -1 -40t2 -40q0 -2 0.5 -5t0.5 -4v-13t-2 -15q-1 -4 1.5 -15t-0.5 -16q3 0 17 -5q22 5 39 -1q3 3 10.5 8.5t11 9t8.5 9.5t7 12q-1 2 -1 6q-1 5 0 17.5t-1 17.5q-2 6 1 61v5q0 3 -2 5q-2 5 -0.5 16.5t0.5 17.5t-3.5 18t-3.5 17l-7 6q-16 14 -32 11q-8 -2 -18 0
q-5 2 -28 2q0 -1 1.5 -21t0.5 -33.5t-6 -16.5z" />
    <glyph glyph-name="q" unicode="q" horiz-adv-x="399" 
d="M303 15q30 -42 54 -106l-3 -3t-2 -3l-1 -1q-2 -1 -2 -2q-3 -1 -9 2q-4 2 -23 -1q-2 -3 -51 -0.5t-52 2.5l-8 7q6 19 6 20v13.5v14.5q-2 5 -4 8.5t-3.5 5.5t-3.5 5.5t-5 7.5q-4 4 -7 5q-13 2 -35.5 9.5l-28.5 9.5q-24 7 -58 31q-5 5 -11.5 15t-10.5 14q-1 1 -1 3
q-1 3 -1 4q-7 0 -8 4q0 2 -4 19.5t-3 26.5q1 10 0.5 32t0.5 32q1 15 -2.5 49t-0.5 53q1 7 0.5 12.5t0 12.5t3.5 12q-2 10 -2 29l2 85q0 6 -1 21.5t-0.5 27.5t3.5 21q1 5 -0.5 14t-1.5 12q1 3 0 9t-1 8v67q2 27 -2 47q-1 4 1 18q2 11 0 32t-1 31q1 3 3 8t2 8q0 2 -2.5 4.5
t-2.5 3.5q1 1 3 3.5t4 4t6 0.5q1 2 -0.5 4.5t-1.5 3.5q7 14 41 41q18 15 62 31l5 -2q17 11 38 8h36q28 0 55 -12q7 -4 33 -13q17 -7 30 -26q3 -4 21 -41q4 -9 2 -22q6 -5 2 -17q-4 -15 0 -40q4 -28 -1 -45q-1 -2 1.5 -4.5t2.5 -4.5q-2 -3 -2 -21.5v-21.5q0 -2 -1.5 -12.5
t-1.5 -15.5q1 -10 -5 -112q0 -1 3 -49q1 -10 0 -28.5t-1 -24.5l-4 -4q6 -3 4 -9q0 -11 -2 -33q-2 -15 0 -46q0 -9 2 -14q3 -5 3.5 -10.5t0 -13t-0.5 -11.5q0 -2 0.5 -5.5t1.5 -4.5q-3 -21 -1 -67q-4 -9 -3.5 -30t-2.5 -33q-2 -1 -4 -1q-1 -7 -4.5 -14t-6 -11t-9.5 -11
l-8.5 -8.5t-11.5 -9.5zM239 332q-4 1 -4 11q-1 31 0 63q1 7 0 12t0.5 11t6.5 11q-4 2 -4 4q-1 18 1 54t2 51q-3 28 -2 40q4 43 1 92l-2 22q-4 15 3 24q-4 7 -4 29q-10 7 -21.5 9.5t-18.5 2t-23 -4t-20 -4.5l-7 -15q3 -6 3 -20q0 -6 -1.5 -31.5t1.5 -31.5q2 -8 -3 -10
q5 -9 5 -29q0 -5 -1 -20t0 -23q2 -18 -2 -29q-5 -17 -1 -44q2 -16 2 -23q0 -3 -1 -9.5t0 -9.5q2 -10 1 -33.5t2 -33.5q-3 -12 -2 -48.5t0 -48.5q0 -9 0.5 -27t0.5 -26q0 -31 1 -37q2 -10 2 -29.5t1 -27.5q0 -4 -0.5 -17.5t1.5 -18.5q6 1 16.5 -4t14.5 -6q14 -4 31 -1
q13 3 27 15q-1 3 -5 3l-1 1v105q0 10 -2 31.5t-2 39t4 31.5z" />
    <glyph glyph-name="r" unicode="r" horiz-adv-x="411" 
d="M13 846q3 12 7 14q27 -1 105 -1q59 0 70 -1q5 0 36.5 1.5t36.5 -4.5q7 4 20 2q27 -10 53 -29q23 -34 26 -43q9 -32 9 -55q1 -25 1 -76q-2 -36 -4 -44q-5 -28 2 -48q3 -10 0 -19q-5 -8 1 -23q-2 -7 -4.5 -25.5t-7.5 -27.5q-4 -8 -32 -43q-5 -5 -11.5 -9.5t-10.5 -6.5
t-14.5 -5.5t-12.5 -4.5q0 -1 -1 -4t0 -5q23 -95 34 -127q10 -28 26 -86q3 -13 9 -29q10 -26 11 -33q1 -3 14 -33q31 -73 32 -78l-7 -6q-32 4 -34 4q-4 0 -12.5 -1.5t-12.5 -0.5q-9 1 -49 1t-49 3q-5 7 -5 10q0 4 3.5 31t-1.5 29q-4 8 -0.5 21.5t0.5 21.5q-2 6 -10 42
q-6 19 -14 57.5t-14 57.5q-3 11 -9 35t-9 35q0 1 -19 41q-2 -9 -2 -32q0 -42 1 -50q1 -9 0 -27.5t-1 -27.5q1 -8 0.5 -26.5t-0.5 -26.5t0.5 -24.5t0.5 -25.5t-1.5 -11.5t0.5 -11.5q-2 -7 3 -25.5t5 -23.5q-1 -7 13 -30t14 -29q0 -1 -0.5 -4.5t-0.5 -5.5q-18 -3 -45 -3.5
t-59 0t-45 0.5q-6 3 -14 1t-15 -0.5t-7 8.5q1 5 10.5 33.5t9.5 35.5q0 6 6 21.5t6 21.5q0 39 -1 61q0 3 -1 13.5t0 16.5v28q-1 7 1 19.5t1 19.5q0 8 1 27.5t0 30.5v62q0 10 -0.5 30t-0.5 29q0 14 0.5 41.5t0.5 40.5q0 5 2 17q3 38 -1 47q-1 2 -1 7.5v8.5q-1 6 0 21t-1 21v42
v39q0 7 -5.5 14.5t-5.5 14.5q0 10 -10 37.5t-11 36.5zM246 726l-19 14q-7 1 -31.5 0.5t-30.5 2.5q-3 -3 -3.5 -8t0 -9.5t-0.5 -9.5l-1 -30q3 -28 3 -40q0 -21 -2 -31q-1 -5 -1 -27q0 -26 2 -30q2 -3 0 -8q0 -2 -0.5 -5.5t-0.5 -7t1 -6.5t0.5 -11t2.5 -11q17 -5 21 -5
q5 -1 28 -1l25 10l20 29v104q0 11 -1.5 23t-4 26.5t-3.5 22.5z" />
    <glyph glyph-name="s" unicode="s" horiz-adv-x="403" 
d="M361 95q-1 -6 -2.5 -12.5t-2.5 -9.5q-16 -37 -26 -47t-18 -17q-9 -6 -21 -6l-21 -9q-7 0 -10 -1q-5 -1 -16.5 -1.5t-16.5 -2.5q-18 1 -37 0q-7 0 -23.5 6t-21.5 7q-3 1 -8 3.5t-6 2.5q-6 4 -10 5q-2 1 -7 6l-5 5q-3 4 -30.5 -17t-39.5 -11q-2 2 -1.5 6t-0.5 7q-1 1 -1 47
t-1 49q0 22 -2 81.5t1 84.5q2 5 5.5 7t12.5 3t10 1q4 1 22.5 0t19.5 -1l2 -1q1 -1 2 -3.5t2 -5.5q1 -4 5 -17.5t8 -25.5l4 -11q-1 -4 14 -38q0 -1 2 -8t4 -13.5t3 -7.5q5 -9 3.5 -12t7.5 -10q22 -22 27 -23h22q20 -2 31 23q0 1 -1 3.5t-1 3.5q4 5 4.5 8t0 9t-0.5 9
q0 61 -2 69q-2 10 -4 13q-7 12 -17.5 33.5t-19.5 38.5t-19 32q-8 12 -19.5 36.5t-16.5 33.5q-3 5 -17 33t-26 40q-3 3 -6 10.5t-3 8.5q-1 2 -7.5 14t-8.5 19q-2 9 -10 24.5t-10 22.5l-11 23q-10 23 -11 33q-2 12 -2 50q0 5 1 14t0 14q-3 11 1 20q5 10 9 32q4 23 24 43
q3 3 8 9t10 11t10 8q29 17 40 17q6 0 29 7q25 8 46 1q3 -1 8 0t7 0q30 -5 48 -11q11 -3 30 -21q2 -2 7 1t15.5 11.5t17.5 13.5q5 3 11 3t8 -2q4 -8 4.5 -51.5t0.5 -46.5q2 -11 -1 -15q6 -24 1 -32q-7 -69 0 -120q-7 -5 -10 -4q-1 1 -4 1q-8 -4 -33 -1.5t-32 1.5
q-33 -3 -34 -3q-16 14 -10 32q1 1 0 7t-1 7q-1 11 0 32.5t1 30.5q-1 5 -1 15v15q0 3 -3.5 8.5t-2.5 9.5q-6 0 -19 4t-22 3q-4 -3 -15 -4t-16 -3q0 -3 -4 -7t-5 -7q-6 -26 -2 -54q2 -11 2 -33q0 -9 4 -17q5 -12 7 -23q3 -9 11.5 -19t11.5 -17q4 -4 4 -6q5 -16 25 -51l20 -30
q4 -6 10 -19.5t10 -20.5q41 -62 41 -63q5 -8 13.5 -20.5t13.5 -22.5q31 -53 35 -86q0 -3 1 -7.5t1.5 -8.5t0.5 -8q0 -6 1 -23.5t0 -23.5q0 -6 -2 -21.5t-1 -23.5t-1 -23.5t-2 -21.5z" />
    <glyph glyph-name="t" unicode="t" horiz-adv-x="366" 
d="M20 697q-4 6 -4.5 33t2.5 39q4 19 -1 44q0 2 1.5 11t-1.5 10q-4 6 -2 18h48q2 0 8 2.5t10 1.5q5 -1 16 -1t17 -2q2 0 4 2l3 2l10 -5q4 5 19 3q16 -1 47 1.5t44 2.5q41 0 62 1q26 0 39 1q14 -6 9 -22q-2 -3 -2 -20.5v-20.5q-2 -38 1 -94q-4 -3 -7.5 -0.5t-4.5 1.5
q-7 0 -26 14t-23 15t-7.5 2t-5 2t-4.5 1.5t-6 0.5q-4 0 -9 1t-8.5 0.5t-7.5 -2.5q5 -22 1 -46q-4 -30 -2 -44v-19.5t1 -18.5q0 -4 -4 -8l6 -3q-5 -8 -1 -17q2 -5 2 -24q0 -3 -2.5 -20t-1.5 -26q0 -1 -2 -3t-2 -3q3 -3 3 -4q-1 -18 1 -53.5t2 -53.5q-2 -7 -2 -40
q0 -22 -1 -26v-23q1 -6 0 -17t-1 -14q0 -32 4 -59q-3 -2 -2 -8t-1 -9q3 -4 2 -17t0 -17v-15.5t1 -15.5q1 -3 -1 -10q-2 -5 2 -8q-2 -10 5.5 -25.5t7.5 -21.5q0 -8 20 -60q-3 -5 -15 -6.5t-23 -0.5t-17 0q-18 -6 -31 -1q-1 1 -12 -2l-6 4q-16 -4 -42 -4.5t-42 6.5
q-3 8 -2 11.5t9 26.5t13 46q1 8 4.5 14.5t2.5 16.5q0 8 1 22t1 23q0 4 -1 16t0 20.5t4 16.5l-1 3q-1 4 -1 6q1 14 4 88q0 9 -0.5 32.5t0.5 32.5q1 8 -1 25q-2 3 -1.5 16.5t0.5 17.5v66q0 10 2 30v13.5v16v13.5v28t1 29q0 3 -0.5 12t1.5 12q1 3 0.5 11t-0.5 11q0 23 2 35
q1 5 0 12.5t-1 11.5q-5 -1 -21 -1q-7 -1 -34 -19t-35 -20q-12 -4 -15 -4z" />
    <glyph glyph-name="u" unicode="u" horiz-adv-x="428" 
d="M44 89q5 9 1 30q-4 43 -2 65q1 15 -1 45q0 2 -2 4.5t-2 5.5q4 5 6 22q0 5 -1 26.5t0 25.5q5 37 1 66q-1 5 2 50q4 44 1 66q-1 8 1 34t0 77q0 4 0.5 10.5t0.5 9.5q1 8 -1 26.5t0 25.5q5 26 3 44q-1 11 -1 24q0 4 -5 14t-4 16t-6 23t-8 21q-1 5 -5.5 18t-3.5 19q5 5 12 3
q18 -3 72 -3q7 2 7 -5q3 0 5 3q0 1 1 2q17 -4 79 0q2 -5 2 -7.5t-2 -7.5t-2 -7q-1 -13 -8.5 -32.5t-8.5 -32.5q0 -3 -3 -15t-3 -15q-1 -14 0 -40t1 -34v-16q0 -9 -1.5 -34.5t-0.5 -39.5q0 -15 2 -45q2 -31 -3 -123q0 -8 -0.5 -32t-1.5 -37q-1 -10 1 -48q0 -2 -1 -6.5
t-1 -7.5t3 -6q-2 -4 -2 -34q-2 -52 0 -78q2 -16 -1 -27q-1 -3 0 -8t1 -7q41 -22 81 -10l11 11q0 84 -2 101q-1 5 -1 14v14q0 41 -2 52q-1 8 3 35v26q0 53 1 60q1 6 1 40q0 6 0.5 17t1 20.5t1.5 17.5v52q0 5 2 13q2 30 -1 72q-3 27 0 53q3 18 2 32q0 4 -2 10q1 0 3.5 0.5
t3.5 1.5q0 1 -9 5q0 10 -3.5 25t-10 33.5t-8.5 24.5q-4 17 -1 19q2 1 5 2t13 0t11 -1q30 2 60 0q0 -1 13 -1l14 1q6 1 16 0.5t22.5 0t16.5 3.5q6 -3 12 -11q2 -10 -11.5 -41.5t-12.5 -40.5q1 -11 -2.5 -18.5t-4.5 -15.5q0 -1 -1.5 -12.5t-1.5 -16.5q0 -2 -1.5 -14.5
t-1.5 -19.5v-37q2 -2 0.5 -10.5t-1.5 -10.5v-110q0 -8 2 -33.5t2 -39.5q0 -43 -3 -65q-5 -30 1 -57q2 -9 1 -12q-3 -7 -3.5 -14t0.5 -17t1 -14q-1 -17 -1 -52t-1 -53q-2 -21 0 -42q0 -44 -14 -60q-3 -3 -7 -11q-3 -5 -18 -16q-8 -6 -18.5 -9.5t-23.5 -6.5t-20 -5
q-27 -10 -78 -6q-13 2 -27 6q-4 1 -13 2t-14 3q-27 9 -51 21q-7 3 -26 25q-9 9 -26 42z" />
    <glyph glyph-name="v" unicode="v" horiz-adv-x="435" 
d="M168 855q1 -1 5.5 -1.5t4.5 -5.5q1 -9 -6.5 -29t-7.5 -28q1 -7 -2.5 -23t-7.5 -20q0 -2 1 -4t-2 -5q-1 -2 1 -7q5 -15 7 -43t4 -38q1 -7 2 -23.5t3 -25.5q2 -6 3 -17t2 -15q9 -47 11 -65q4 -27 5 -43q0 -3 2.5 -9t2.5 -8q1 -9 1 -26v-8q6 -19 5 -32q-2 -2 -2 -9
q5 -10 5 -27.5t3 -25.5q4 -16 2 -25q-3 -5 1 -9q1 -2 1.5 -20t3.5 -35l2 6q2 5 3 5q2 7 3.5 40t5.5 44q-2 10 4 44q1 1 1.5 4t0.5 4t-3 4q1 6 2.5 29.5t6.5 35.5q-2 4 -2.5 8t-0.5 9v8q0 2 2.5 4.5t2.5 4.5q1 7 3.5 28t3.5 32q0 9 4 29t4 31q8 27 6 65q-1 10 3 25
q3 9 2 25.5t1 24.5q3 14 -2 27t-4 26q1 4 -6.5 27t-7.5 25q-1 11 9 13h3q3 1 5 1q18 -1 76.5 1.5t80.5 0.5q0 -2 3.5 -6t2.5 -8q-12 -26 -16 -53q-2 -9 -7 -22t-6 -24q-1 -10 -4 -28.5t-4 -27.5q-2 -28 -4 -38q-1 -4 -3 -15t-2 -15t1 -15q0 -11 -2 -16q-2 -8 -3 -17
t-1.5 -20t-1.5 -17q-2 -11 -4 -35q-1 -11 -5 -32t-5 -28q-1 -9 -5 -36t-5 -42q-3 -37 -11 -86q-1 -3 -3.5 -25t-7.5 -33q-1 -3 1 -8t2 -7q-3 -14 -7 -42v-7t-1 -7q-2 -22 -8 -66q-6 -48 -5 -53q2 -22 -10 -31q-8 5 -43 2.5t-45 -1.5q-39 3 -88 -4q-6 10 -8.5 31.5t-9.5 30.5
q0 6 -1.5 18.5t-0.5 18.5q0 12 -4 36t-3 37q0 9 -3.5 25t-3.5 20q-10 62 -10 73q0 9 -3 25.5t-3 23.5q-1 7 -1 23t-2 25q-6 37 -6 38t0.5 4.5t1.5 5.5q-5 4 -6 10.5t0.5 12t-0.5 12.5q-3 21 -1 37q1 5 -2 17t0 17q-5 20 -9.5 62t-6.5 56q-4 11 -8 43t-8 48q-2 11 -14 48.5
t-13 59.5q5 8 17 8q51 -3 67 -1q61 4 81 -6z" />
    <glyph glyph-name="w" unicode="w" horiz-adv-x="657" 
d="M125 -3q-1 3 -2 7t-2 7t-5 4q2 6 2 16q-3 7 -4 19.5t-3 17.5q-2 12 -4 34.5t-3 31.5q-5 27 -7 58q0 16 -5 46t-5 44q-1 8 -3 23.5t-2 22.5q0 5 -2 9q-3 13 -3 28q0 12 -6 24q-6 17 -6 34q0 1 2 11q-5 11 -7 26t-8 53q-1 4 0 8q0 21 -4 36q-1 3 -1 10q0 22 -8 66q0 2 -1 5
t-0.5 5.5t2.5 4.5q-3 5 -5 32q-1 4 -2.5 27.5t-3.5 29.5q-3 17 -6 31q0 1 -3.5 12t-5.5 19.5t-1 12.5q1 2 -1 11q-8 17 -6 25q5 9 40 9q4 0 11.5 -1t14.5 -1t13 2q5 3 14 -1q7 -2 39 -2t39 3q6 -1 6 -9q1 -8 -4 -22t-5 -21q0 -5 -6.5 -21.5t-5.5 -22.5q0 -3 -2 -12t0 -12
q2 -6 -2 -12q6 -6 5 -13t1.5 -20t2.5 -19t0.5 -24t1.5 -28t3.5 -28.5t3.5 -23.5q1 -10 2.5 -28.5t2.5 -27.5q0 -2 3.5 -27t5.5 -37q0 -2 1.5 -5.5t1.5 -5.5q-2 -17 17 -161q3 -19 4 -22q3 18 6 59.5t5 54.5t11 99q2 10 2 24.5t2 24.5q5 17 5 33q0 10 3 17q3 11 3 32.5
t2 30.5q1 6 1.5 18.5t0.5 16.5q1 9 4 27t4 27q1 5 0 8.5t1 8.5q1 3 -3 18l-4 35q-3 21 -3 22q0 2 -5.5 19.5t-2.5 23.5q63 7 129 2q2 -2 12.5 -0.5t17.5 2t9 -3.5q2 -14 -9 -47q-3 -7 -5 -20t-3.5 -25t-2.5 -15q-3 -5 -1 -12.5t2 -13.5v-23q-2 -14 2 -24q2 -7 2 -19t1 -16
q4 -52 7 -78q1 -4 5 -26.5t5 -34.5q1 -5 2 -28t3 -35l6 -68q1 -10 4.5 -31t4.5 -33q0 -1 2 -11.5t3.5 -20.5t2.5 -11q6 8 25 148q0 8 1 13q0 1 3.5 44t7.5 59q3 12 3 35.5t3 34.5q3 14 3 28q0 11 3 32t3 30q1 9 3 24.5t2 23.5q1 7 -1.5 12.5t-0.5 13.5q1 5 -4 24.5t-5 24.5
q0 4 -4 12t-3 13q-4 12 -2 16q7 11 23 7q12 -4 30 -1q19 3 63 1q5 3 20.5 1t15.5 2q1 -1 10.5 -5.5t10.5 -8.5q-4 -14 -9.5 -37t-10.5 -38.5t-14 -33.5q-1 -2 -1.5 -17.5t0.5 -17.5q0 -1 -1.5 -4l-2.5 -5q-2 -30 -12 -90q-2 -11 -4.5 -39.5t-5.5 -43.5q-10 -72 -14 -83
q-2 -9 -5 -59q-3 -31 -9 -61q-4 -30 -6 -44l-9 -48q-1 -4 -0.5 -7.5t-0.5 -7t-4 -5.5q2 -7 2.5 -9.5t-1.5 -9.5t-2 -9q-2 -7 -3 -20.5t-2 -17.5q-4 -29 -10 -89q0 -3 -2 -13.5t-2 -16.5q1 -5 -3 -8t-10 -2q-2 0 -26 -3q-15 -3 -28 -2q-3 0 -8.5 -1t-9.5 -1t-8 3
q-5 -3 -23 -2t-23 1q-2 0 -5 1.5t-4 1.5q-3 15 -6.5 44.5t-6.5 44.5q-5 38 -5 46q1 3 -2.5 10t-3.5 9q0 39 -3 57q-2 8 -3.5 25t-3.5 26q-5 31 -4 41q1 16 -3 23v16q-2 43 -6 87q1 2 -2 5l-3 2q-6 -2 -3 -8q-2 -8 -2.5 -22.5t-1.5 -20.5l-4 -66q-1 -10 -5 -27.5t-5 -23.5
q-3 -46 -3 -47q-4 -15 -7.5 -44.5t-5.5 -38.5q-3 -14 -6 -46t-8 -49v-25q-1 -5 -3.5 -12.5l-3.5 -10.5q-11 3 -24 1q-30 -6 -58 -5q-21 0 -45 -3q-3 -1 -8.5 0t-7.5 1z" />
    <glyph glyph-name="x" unicode="x" horiz-adv-x="398" 
d="M4 860q25 1 165 -3q5 -1 1.5 -16t-3.5 -17q2 -7 -0.5 -19.5t-1.5 -19.5q1 -8 0.5 -13t-0.5 -9.5t1 -7.5q9 -25 9 -48q1 -11 4 -29t4 -25q0 -4 8.5 -52.5t8.5 -55.5q3 9 19 123q2 9 4 33.5t3 33.5l4 22q1 7 -2.5 27t-1.5 27q0 1 -1.5 11t-0.5 12l-2 12q-2 12 2 13
q70 -7 104 -5h35q17 3 34 0q3 0 5 -4q-4 -16 -12 -28t-11 -27q-1 -2 -11 -23.5t-11 -24.5q-11 -42 -12 -54q-1 -7 -5 -18.5t-5 -14.5q-1 -5 -5 -17.5t-6 -19.5q-2 -9 -7 -24.5t-7 -22.5q-1 -4 -0.5 -11.5t-1.5 -10.5l-14 -57l-11 -56l-3 -7q4 -12 9.5 -34.5t7.5 -29.5
q7 -28 11 -58q1 -10 9 -28.5t9 -32.5q4 -5 8.5 -21t4.5 -24q-1 -11 9 -33t11 -27q1 -4 4 -9.5t4 -8.5q5 -21 6 -23q11 -34 12 -37q13 -40 23 -55q-1 -2 -16 -17q-62 7 -94 8q-2 -1 -7.5 -1.5t-8.5 -3.5q-3 2 -18 3t-20 0q-1 2 -4 4t-4 5q-1 10 4 41t3 41q-1 7 0 11t0 11
q-3 16 -11 48q-2 6 -4.5 19.5t-4.5 19.5q-1 2 -12 47.5t-13 48.5q0 -25 -17 -89q0 -4 -3.5 -17.5t-7 -28.5t-4.5 -18q-2 -12 -6 -24q-2 -5 -2 -13.5t-1 -13.5l4 -36l8 -49q-1 -4 -26 -9q-17 -1 -65.5 1t-64.5 1q-2 1 -6.5 3t-7.5 4t-5 6l19 47q2 4 8.5 19t8.5 24
q2 8 12.5 31.5t12.5 33.5q2 13 10 37l12 48q2 8 7 34t9 37q3 7 6.5 21l4.5 18q15 58 20 70q-1 4 -3 4l-2 5q-7 19 -14.5 52t-10.5 45q-4 14 -13 47.5t-14 52.5l4 5q-9 8 -13 40q-2 20 -4 30q-1 4 -5 15.5t-5 15.5q-1 7 -12 26t-12 26q-2 13 -8.5 27.5t-8.5 20.5q0 3 1.5 7
t-0.5 6z" />
    <glyph glyph-name="y" unicode="y" horiz-adv-x="395" 
d="M2 851l10 9q36 -3 159 -3q2 -7 1.5 -13t-3.5 -18t-3 -14q-2 -10 -5.5 -20.5t-3.5 -14t1 -18.5q7 -32 7 -52q1 -11 10 -47q9 -31 15 -79q0 -3 9 -50q7 8 5 21q-1 7 2.5 19.5t3.5 17.5q1 13 7 43t8 43q2 10 5 35t4 35q1 6 -1.5 27.5t-2.5 24.5q-1 20 -5.5 30t-5.5 24l10 8
q6 2 39 0.5t39 -1.5q46 0 64 1q11 2 20 -6q2 -5 -1 -10q-9 -21 -16 -51q-2 -8 -11 -24t-10 -21q-2 -8 -11.5 -39t-11.5 -49q-1 -16 -11 -48q-3 -9 -7 -29t-7 -29q-6 -24 -8 -37q-2 -11 -8.5 -38t-8.5 -42q-1 -6 -4.5 -9t-4.5 -10q-1 -11 -7.5 -35t-6.5 -38v-95q4 -43 -2 -66
q-1 -5 0.5 -15t1.5 -13v-34q0 -9 4.5 -18t3.5 -18q1 -6 12.5 -38t9.5 -43q-3 -3 -6 -3q-38 5 -76 -3q-3 -1 -7 1t-6 2q-64 0 -81 -3h-5q-1 3 -7.5 5t-7.5 5q-3 -5 0 6q18 58 30 81q0 6 3 11.5t4 22.5q2 42 -1 63v8q5 16 -1 43v25v9.5v12v9.5q0 24 -4 56q-1 12 -6 31.5
t-6 31.5q-2 15 -14 60l-13 53q-16 66 -22 100q-2 13 -17 70q-1 5 -2.5 15t-3 18t-3.5 15q-2 10 -7 19.5t-7 20.5q0 4 -3.5 14t-8 21t-5.5 14q-4 8 -2 13z" />
    <glyph glyph-name="z" unicode="z" horiz-adv-x="400" 
d="M159 481q-2 9 2 19q13 31 15 46q0 4 3 10l4 8q3 10 9 35.5t10 39.5q11 33 25 82q1 2 2 9t3 11q-10 2 -27.5 0.5t-24.5 0.5q-11 2 -35 -3q-17 -3 -19.5 -6t-6.5 -3q-3 0 -20.5 -8.5t-33.5 -16t-19 -5.5l-6 4q-2 2 -2 3q-2 4 -1.5 28t2.5 27l1 1v1q0 3 -1 4q-2 5 1 43
q0 48 3 49q1 0 3 1.5t4 2.5q2 0 5 -2.5t6 -2.5q15 0 52 -1.5t58 -0.5h9q1 -1 2 -1t1.5 -0.5t1.5 -0.5h9q66 3 132 3h7q1 1 4 1q8 2 18 -1t11 -11q0 -4 1.5 -18.5t0.5 -22.5q-1 -6 -1 -36q-2 -11 3 -17q-2 -10 -14 -44q-22 -61 -24 -68l-14 -53q-8 -24 -23 -55
q-6 -15 -14.5 -44t-9.5 -32q-10 -24 -14 -36q-2 -5 -6.5 -22t-7.5 -26q-10 -27 -11 -34q-1 -4 -15 -49q-1 -4 -5 -16t-7 -19q-3 -9 -13 -40l-7 -18l-9 -39q-2 -5 -6 -21.5t-9 -25.5q3 -2 6 1t4 3q11 -2 32 0q9 1 24 -0.5t22 -1.5q11 -1 31.5 10.5t27.5 13.5q5 1 24.5 11
t29.5 10h7q3 -4 3 -28.5t-2 -30.5q-3 -13 -1 -38q4 -38 0 -58q-3 0 -12 -2.5t-14 -1.5q-3 0 -16.5 2.5t-21.5 1.5l-50 -3q-11 0 -32 -0.5t-31 -0.5h-30l-23 5q-3 -2 -14 -2h-55q-14 0 -18 -3q-9 2 -21 11q0 4 -2 27.5t0 27.5q2 19 -1 46q5 3 8.5 11t6.5 10q3 19 15 50.5
t15 46.5q1 5 32 95q1 0 7 2q-2 8 -3 8.5t3 7.5l4 8q3 6 7 17.5t5 13.5q4 10 11.5 37t14.5 41q2 4 3 11.5t2 10.5z" />
    <glyph glyph-name="braceleft" unicode="{" horiz-adv-x="346" 
d="M223 41l14 -12q26 -3 30 -5q3 3 13.5 2t13.5 0l9 -4q3 -1 1 -5q-3 -2 -2.5 -24.5t0.5 -25.5v-17l4 -13q-2 -3 -10 -5q-5 0 -15.5 2.5t-16.5 0.5q-6 3 -17 4t-16 3t-15.5 4t-14.5 3q-17 3 -39 20q-23 17 -24 37q-11 19 -11 62v180q0 29 4 36q-3 3 -1.5 9t-0.5 10
q-3 3 -1 13q4 27 3.5 35.5t-6.5 31.5l-7 6h-72q-6 11 -8 25t-0.5 25t-0.5 24q10 10 17 4q12 -6 24 -1q1 2 10 0.5t11 -1.5l19 4l8 13q1 11 1 35q0 3 0.5 11.5t1.5 13.5q1 3 -2 27v51q0 19 4 25q1 2 -1 6.5t-1 5.5q2 4 0 11.5t-2 10.5v20v22q0 53 -1 79q0 31 11 54l3 12
q5 7 13.5 16.5t10.5 12.5q19 25 66 40q26 7 47 7q5 0 17 2q6 -4 8 -9q5 -15 5 -66l-10 -20q-5 -2 -9.5 2t-5.5 4q-10 2 -14.5 1.5t-14.5 -3t-15 -3.5q-15 -17 -20 -33l3 -11q-5 -16 -3 -21q0 -2 1.5 -6t1.5 -6q-8 -34 -1 -65q5 -17 1 -30q-1 -4 -0.5 -15t-2.5 -15
q-3 -2 -1 -13.5t2 -15.5q-3 -16 1 -31q2 -4 -1 -40v-11q2 -3 2.5 -6t0.5 -7v-6q2 -15 -7 -52q-13 -18 -34 -35l38 -34q3 -8 4 -22.5t4 -20.5q2 -4 0 -11q-4 -13 -4 -70q-1 -46 -1 -137v-76q0 -3 0.5 -9t0.5 -10z" />
    <glyph glyph-name="bar" unicode="|" horiz-adv-x="167" 
d="M128 -61l-6 -6q-43 3 -63 -3q-4 1 -11 8q0 1 -0.5 3t-0.5 3v65q0 8 -0.5 24.5t-0.5 25.5q2 38 0 113q0 72 -2 83q4 3 2 13.5t-1 13.5t1 31v281q0 23 -3 28q3 21 3 22v19q-2 4 -0.5 10t-0.5 9q-1 3 -0.5 9t-1.5 9q-2 1 -1.5 9t0.5 10q-1 6 0.5 18t-0.5 18q-1 5 -1 36
l-3 18l3 18l3 16q-4 28 -2 81q21 11 37 6q6 -2 8 0q3 3 6.5 0.5t5.5 -2.5l14 4l9 -8v-56v-42q0 -12 1 -14q3 -4 3.5 -8.5t-0.5 -10t-1 -7.5q-2 -20 1 -25q1 -2 1 -10q0 -18 -3 -54t-3 -53q0 -6 0.5 -12.5t1.5 -14.5t1 -12q0 -22 1 -34q2 -26 -2 -66q-4 -35 2 -53q2 -6 2 -11
q0 -87 -1 -98q-3 -8 -0.5 -46.5t2.5 -45.5v-312z" />
    <glyph glyph-name="braceright" unicode="}" horiz-adv-x="347" 
d="M123 834l-14 12q-26 3 -30 5q-3 -3 -13.5 -2t-13.5 0l-9 4q-3 1 -1 5q3 2 2.5 24.5t-0.5 25.5v17l-4 13q2 3 10 5q5 0 15.5 -2.5t16.5 -0.5q5 -3 16 -4t17 -3q5 -2 15.5 -4t14.5 -3q17 -3 39 -20q23 -17 24 -37q11 -19 11 -62v-180q0 -29 -4 -36q3 -3 1.5 -9t0.5 -10
q3 -3 1 -13q-4 -27 -3.5 -35.5t6.5 -31.5l7 -6h72q6 -11 8 -25t0.5 -25t0.5 -24q-10 -10 -17 -4q-12 6 -24 1q-1 -1 -10 0t-11 1l-19 -4l-8 -13q-1 -11 -1 -35q0 -3 -0.5 -11.5t-1.5 -13.5q-1 -3 2 -27v-51q0 -19 -4 -25q-1 -2 1 -6.5t1 -5.5q-2 -4 0 -11.5t2 -10.5v-20v-22
q0 -53 1 -79q0 -31 -11 -54l-3 -12q-5 -7 -13.5 -16.5t-10.5 -12.5q-19 -25 -66 -40q-26 -7 -47 -7q-5 0 -17 -2q-6 4 -8 9q-5 15 -5 66l10 20q5 2 9.5 -2t5.5 -4q10 -2 14.5 -1.5t14.5 3t15 3.5q15 17 20 33l-3 11q5 16 3 21q0 2 -1.5 6t-1.5 6q8 34 1 65q-5 17 -1 30
q1 4 0.5 15t2.5 15q3 2 1 13.5t-2 15.5q3 16 -1 31q-2 5 1 40v11q-2 3 -2.5 6t-0.5 7v6q-2 15 7 52q13 18 34 35l-38 34q-3 8 -4 22.5t-4 20.5q-2 4 0 11q4 13 4 70q1 46 1 137v76q0 3 -0.5 9t-0.5 10z" />
    <glyph glyph-name="asciitilde" unicode="~" horiz-adv-x="460" 
d="M337 370q-1 1 -3 1.5t-3 0.5q-2 0 -4.5 -1t-5.5 -2t-5 -2q-2 1 -28 7q-16 5 -46 21q-36 18 -58 19q-2 0 -14 5q-14 -7 -33 -7q-50 -23 -62 -35q-3 1 -4 7.5t-4 6.5q-7 7 -8 12q-2 11 -11.5 31t-10.5 31q6 6 7 6q10 3 52 20q20 7 27 6q7 0 19 4q8 2 25 2q3 0 9 0.5t8 -0.5
q4 -1 26 -6q10 -4 26 -11t26 -10q14 -4 24 -12q28 -3 31 -4l43 10q5 1 15 8t17 7q11 -9 17 -31q0 -8 2 -11q5 -7 12 -39q-18 -8 -27 -13q-41 -19 -59 -21z" />
    <glyph glyph-name="nonbreakingspace" unicode="&#xa0;" horiz-adv-x="245" 
 />
    <glyph glyph-name="exclamdown" unicode="&#xa1;" horiz-adv-x="210" 
d="M166 204q7 -24 0 -44q-2 -6 -1 -8q2 -4 1.5 -12.5t0.5 -12.5q3 -18 0 -36q0 -3 0.5 -12t-0.5 -12t0.5 -9t1.5 -7q-2 -10 -2 -22q0 -1 1.5 -13t-0.5 -13h-12q-28 -3 -51 2l-6 -5q-8 3 -28 2t-27 4q-3 4 -2 16.5t0 16.5q-1 3 -1 27v26q0 19 3 25q-3 8 -3 41q-2 43 3 64
q0 1 3 43q0 24 3 30q1 1 1 5q0 19 4 63.5t3 68.5q-1 23 8 83q2 14 2 20q0 11 0.5 32t0.5 32q3 36 4 39v20q0 13 3 18q7 3 15 3.5t17.5 0t14.5 -0.5q5 -2 4.5 -7.5t1.5 -7.5q1 -1 6 -13l-3 -13q2 -7 4 -19q0 -23 4 -42q1 -4 1 -39l6 -73q1 -4 2 -22t3 -28q2 -7 2 -23t3 -24
q1 -2 1 -14v-6.5v-8.5v-7q0 -2 2 -9.5t2 -12.5l2 -22v-65q0 -13 2 -19zM39 760q6 9 6 32q0 4 1 15.5t0 17.5q0 2 2.5 15t-0.5 16q4 5 8 8q27 -9 45 -1q11 -4 61 -1q7 -10 7 -24q0 -6 0.5 -19.5t-0.5 -24.5t-4 -20q-1 -4 1 -13q2 -6 -3 -22q-35 -7 -108 -2q-7 1 -10 9
q-4 8 -6 14z" />
    <glyph glyph-name="cent" unicode="&#xa2;" horiz-adv-x="396" 
d="M153 227q4 -5 10 -8t10 -4t11 -2.5t11 -2.5q8 -3 21 1t18 4q9 6 12 14q1 4 -4 22q2 3 4 13q-4 9 -0.5 29t1.5 28l2 3l14 7q14 2 22 -4q7 3 15.5 4t14.5 1t15.5 -0.5t14.5 -0.5l9 -6q0 -79 1 -119q0 -22 -14 -48q-6 -14 -17 -25q-20 -20 -32 -20q-3 0 -6 -1t-6.5 -2.5
t-5.5 -2.5t-10 -0.5t-11 -2.5v-44q-1 -17 6 -44l-9 -9q-19 -4 -44 -2q-7 1 -21.5 -2.5t-23.5 -1.5q-6 4 -4 12q0 6 -1.5 21t0.5 20q-3 9 -3.5 26.5t-1.5 23.5q-20 13 -41 17q-27 6 -46 34q-16 20 -18 29q-1 3 -1.5 16t-4.5 19q-4 8 0 16q4 10 4 50v85q0 22 -3 27q3 4 3.5 8
t0 9t-0.5 8v28q1 8 1 25v54q-1 9 -1 28q0 6 -1 23t1 23v3q0 5 -3 16t-2 17q7 22 6 29q15 33 26 43q7 6 20.5 16.5t15.5 12.5q6 3 23 8t24 11q1 4 -2 45v47q3 4 10.5 5.5t10.5 4.5q6 0 18 0.5t22 -0.5t18 -4q6 1 11 4q2 -2 6 -4q2 -4 2 -5q-2 -8 -2 -11q0 -7 -0.5 -22
t0 -26.5t4.5 -21.5q0 -1 -1.5 -4t-1.5 -5q18 -6 20 -6q6 0 12.5 -1.5t14 -4t11.5 -3.5q13 -10 20 -16t12 -10t8 -10l4 -8t4 -12.5t4 -15.5q0 -1 -2 -4.5t-2 -5.5q0 -10 1.5 -36t1.5 -38v-2.5t0.5 -7t0.5 -14.5v-17q-12 -4 -13 -4q-20 -5 -22 -5q-6 0 -14.5 -6t-14.5 -6
q-5 1 -16 -6t-17 -7l-6 4q-4 10 -7 15q7 9 0 21q3 4 0.5 12.5t-1.5 11.5v43q-2 17 -7 22q-28 10 -46 7q-33 -12 -43 -25v-119q0 -5 1 -19t-1 -19q-1 -7 -1 -39v-14v-16v-13q0 -28 -4 -38q8 -30 0 -57q5 -12 5 -33t1 -33z" />
    <glyph glyph-name="sterling" unicode="&#xa3;" horiz-adv-x="450" 
d="M77 637v124q0 5 4 15t4 16q1 1 13 14t18 20q5 6 18.5 13.5t17.5 14.5l42 12h1l1 1q56 2 84 -3q6 -2 8 -2q27 -4 59 -25l32 -27q6 -6 10 -14q8 -17 21 -40v-39v-28q0 -27 -1 -31l-45 -15l-37 -10q-4 -1 -13 -5.5l-11 -5.5q-6 2 -9 6q-2 4 -2 6v74q0 20 -8 35q-5 5 -12.5 8
t-17 5t-14.5 4q-25 -5 -43 -21v-90q2 -8 13 -37.5t14 -45.5q0 -2 6 -16q10 -19 11 -37q0 -2 2 -7.5t3 -8.5l2 -17q9 -2 40 -2q6 0 18 0.5t18 0.5q32 0 38 -2q3 -5 3 -6q0 -91 -1 -102l-5 -6q-3 -3 -9.5 -1t-11.5 0q-9 -6 -21 3q-12 -5 -35.5 -5t-32.5 -1q0 -2 -3 -12.5
t-4 -16.5q-2 -13 -16 -76q-7 -27 -27 -79q-1 -2 -2.5 -11.5t-5.5 -14.5q-4 -4 -13 -22l6 -6q3 -2 7 0.5t6 2.5h17q16 0 25 3q14 6 30 0q14 -5 24 0l11 2q4 1 13 -1t14 0q3 1 31 1h28q3 -3 9 -7q0 -1 -4 -12.5t1 -12.5q-3 -7 1 -21q2 -13 2 -39q0 -12 3 -16q-2 -8 -14 -15
q-2 0 -8.5 -0.5t-9.5 -0.5h-186q-15 0 -22 -2q-25 -8 -44 2q-5 0 -12.5 -3t-11.5 -2h-11.5t-13.5 2t-11.5 -0.5t-10.5 0.5t-3 18q0 26 -4 33q4 2 1 9t-2 9q2 3 2 9.5t1 9.5q5 17 -3 27q2 6 9 11t8 6q4 6 9.5 15.5t6.5 10.5q13 19 28 67q13 45 20 77q1 2 1 7.5t1.5 10
t4.5 7.5q-4 2 -2 11.5t1 13.5q-3 1 -27 1h-30q-19 -2 -27 1l-2 4q-1 0 -1 2v108q7 4 14 9q49 0 69 7q2 7 -3 25q0 2 -3 25q-9 20 -16 47q-11 38 -23 54z" />
    <glyph glyph-name="currency" unicode="&#xa4;" horiz-adv-x="472" 
d="M390 572q11 -18 15 -37q2 -24 -2 -33q-1 -2 -1 -14v-77q0 -15 3 -32q1 -7 1 -62q-5 -10 -9 -30t-6 -26q4 -7 16.5 -25t16.5 -29q-2 -7 -12 -15t-11 -9q-3 -3 -9.5 -11.5t-11.5 -11.5q-8 -2 -15 1q-12 26 -40 49q-12 2 -19 -2q-2 -1 -7 -2t-7 -2q-42 -13 -68 -6
q-6 2 -53 7q-9 3 -11 4q-14 -12 -45 -56l-21 11q-9 17 -27 28q-8 4 -11 14l37 52l-20 43l3 8q-4 11 -4 26v119v28.5v34v28.5q0 5 3.5 13.5t3.5 14.5q-4 7 -18.5 22t-21.5 27q1 1 0.5 2.5t-1.5 6.5q8 9 50 49q3 1 10 1l13.5 -13.5l16 -16l14.5 -14.5q5 2 14 3t12 2q1 0 12 2
t16 4q11 4 22.5 5t27 0.5t22.5 -0.5q10 0 22 -5q6 -2 44 -14q7 4 12.5 10.5t12.5 15.5t9 12q8 5 24 3q14 -17 29 -25q3 -2 13 -14q-3 -14 -14 -24q-15 -14 -30 -40zM175 540q-7 -40 -6.5 -113t-0.5 -89q0 -7 4.5 -11.5t14 -9.5t11.5 -7l20 -8q55 -3 86 16q4 18 3 22
q-1 2 0 9.5t1 10.5q-1 7 0 15t1 11v12.5v13.5v10q0 42 -2 55q-1 4 1 19.5t-2 19.5q0 4 -5 27q-1 1 -7 3l-5 3q-1 5 -19 10q-5 0 -16.5 4t-22 2.5t-27.5 -10.5q-20 -6 -29 -15z" />
    <glyph glyph-name="yen" unicode="&#xa5;" horiz-adv-x="399" 
d="M250 -2q-22 6 -99 6q-6 6 -4 11q7 17 2 41q-2 14 -2 20q0 125 -1 188q0 13 -1 19q-43 9 -92 -2q-7 3 -8 13.5t-4 13.5q3 5 3.5 12t0 12t0.5 12q0 4 -0.5 16.5t1.5 16.5q3 4 13 4h68q0 2 -1.5 9t-1.5 10t-5 22q-1 3 -1 9.5v10.5q-16 3 -25 7q-18 -8 -45 -6l-7 7
q-1 7 -2.5 24.5t-3.5 26.5q-1 9 -0.5 13.5t3 14t3.5 14.5q30 4 49 1q6 4 4 11q-2 3 -10 40q-2 7 -4 27t-6 31q-1 2 -1 8q0 27 -11 54q-3 8 -6 23.5t-3 17.5q-11 37 -12 41q0 5 -2.5 11.5t-6.5 14t-6 12.5q-1 3 -1.5 8t-0.5 7q5 6 12 7q42 6 70 -2h25q15 -2 19 -7
q1 -4 1.5 -8.5t0 -8t0.5 -8.5q0 -14 3 -21q2 -5 2 -17q3 -26 5 -30q-1 -16 6 -43.5t8 -38.5q0 -10 2 -21t5.5 -24.5t4.5 -20.5q3 -9 3 -10q-1 -10 3 -27t4 -24l13 -6q0 1 1.5 2.5t1.5 2.5q1 4 3 23t5 29q1 5 2 15t2 15q2 5 3 15t3 15q2 8 3.5 26.5t5.5 28.5q2 5 2 16
q-1 21 9 61q2 4 2 8q0 9 3.5 26.5t1.5 27.5q5 5 7 6q12 3 17.5 2.5t16.5 -3t16 -2.5h56q5 -7 3 -18q-1 -4 -5.5 -12t-5.5 -12q-1 -5 -4 -12.5t-3 -9.5q-2 -11 -7 -41q-2 -17 -10 -49q-7 -25 -7 -30q0 -6 -3 -16t-4 -13q-8 -46 -14 -68q-1 -5 -1.5 -14t-0.5 -12
q7 -2 15.5 -2.5t15 0t14.5 -0.5q6 -2 9 -8q1 0 1 -4v-8q0 -4 -3 -16.5t-1 -19.5q2 -5 2 -16t1 -15q-5 -8 -17 -8h-56l-8 -16q-6 -47 -7 -50q3 -1 35 -1q17 -2 28 4q7 0 19 -7q5 -8 2 -80q-6 -2 -40 -7q0 -2 -21 -1l-21 1q-8 0 -21 -6l-1 -1v-2q0 -3 3 -8q-4 -10 -5 -16
l4 -13q-8 -17 -3 -24q5 -5 2.5 -17.5t-0.5 -17.5q-7 -42 1 -80v-8q1 -3 -1.5 -9.5t0.5 -9.5q2 -2 0.5 -7.5t-0.5 -8.5q1 -2 1 -19q3 -22 -8 -47z" />
    <glyph glyph-name="section" unicode="&#xa7;" horiz-adv-x="420" 
d="M378 313q-14 -35 -34 -49q3 -5 11 -14t11 -15q2 -5 4.5 -17t5.5 -17q-4 -8 -4 -12q0 -49 1 -73q0 -3 1.5 -8t1.5 -7q-3 -7 -3.5 -21.5t-2.5 -22.5q-12 -29 -65 -55q-45 -12 -108 -8q-9 3 -31 8t-39 11t-33 15q-2 3 -19 20t-24 30v121q5 5 11 5h85q10 0 16 -7v-41v-38
q13 -21 34 -28q29 -2 36.5 0t25.5 13q2 57 -6 93q-8 6 -20 21q-46 24 -69 53q-5 7 -17 15q-33 22 -50 40q-4 6 -8 7q-7 3 -30 26q-8 21 -10 47q0 8 1 13q2 18 -2 25q-2 3 -0.5 11.5t-2.5 11.5q0 4 0.5 11.5t0.5 10.5q16 29 34 38q4 1 10 7t11 8l-15 15q-15 11 -40 42
q-2 7 -3 21.5t-2 21.5q-5 19 2 36q5 13 0 31q-6 20 0 41q2 7 2 23q0 13 10 28q10 18 31 37q2 1 5 2t5.5 2t4.5 2q9 7 28.5 14.5t22.5 8.5t10 1.5t9 0.5q22 2 25 4q5 2 17 0q26 -4 40 -4q37 1 69 -26l15 -13q33 -24 36 -67q2 -28 0 -43q-3 -18 3 -33l-12 -11
q-15 -1 -49 -16.5t-51 -14.5q-9 25 -5 95q-10 12 -24 19q-8 2 -23.5 2t-22.5 4q-2 -1 -6.5 -2.5t-8 -3t-6.5 -3.5q-2 -1 -4.5 -3.5t-3.5 -2.5q-3 -11 0.5 -27.5t2.5 -23.5q-1 0 -1 -26l1 -25q11 -17 36 -36q41 -28 56 -43q1 -1 3 -2.5t4.5 -3t3.5 -2.5l30 -20t38 -23
q6 -3 29 -26q1 -1 9 -17q2 -4 4 -14q-4 -14 -2 -24q0 -4 -1 -13t0 -14q0 -2 1.5 -12t-0.5 -11q-1 -4 0.5 -12.5t-0.5 -11.5q-3 -5 0 -14t1 -14q-1 -3 2 -10.5t1 -10.5zM262 340q7 21 -3 44q9 15 5 38l-8 16q-42 31 -85 54q-3 -9 1 -23q6 -21 -1 -33q-2 -3 0.5 -10.5
t-0.5 -10.5q5 -10 8 -14q1 -2 11 -9q44 -30 64 -49z" />
    <glyph glyph-name="dieresis" unicode="&#xa8;" horiz-adv-x="303" 
d="M130 994q4 -6 4 -8q1 -14 1 -38.5v-38.5q-3 -2 -9.5 -5.5t-8.5 -4.5q-4 2 -25 0.5t-38 -0.5q-5 2 -7.5 6t-3.5 8t-1.5 9t-2.5 8v61q1 1 12 1t12 1q15 1 37 0t30 1zM259 930q-1 -2 2 -7t1 -9l-7 -9q-1 0 -10.5 -1t-14.5 -2q-3 0 -10.5 2t-10.5 -1q-3 -2 -11.5 -1t-9.5 -3
q-14 3 -21 10v78l5 4h7q18 -4 55 0q19 2 23 -1l2 -21q2 -10 0 -18q0 -3 1 -10.5t-1 -10.5z" />
    <glyph glyph-name="copyright" unicode="&#xa9;" horiz-adv-x="420" 
d="M378 196q0 -8 0.5 -25t0.5 -26v-59q-7 -6 -12.5 -20t-9.5 -19q-36 -24 -47 -35l-34 -14q-6 -1 -12 -0.5t-13.5 -0.5t-13.5 -4q-6 0 -19 -0.5t-23 0.5t-19 4q-8 3 -24 5.5t-22 4.5q-33 8 -75 42q-14 20 -14 50q1 0 1 34l-1 34q0 17 3 22v5q-3 14 -3.5 29.5t0 35t0.5 30.5
q-1 19 1 59q0 12 3 25q4 19 -4 44q0 1 2 4t1 5q-2 5 1 40q0 4 1.5 12t1 14.5t-4.5 11.5q10 14 8 29q2 5 5.5 13t5 11.5t6 9t10.5 9.5q8 5 22 9.5t21 8.5q24 11 46 11q4 -1 11 0t9 1t8.5 -1t9.5 0q3 0 8 1.5t6 1.5l59 -11q30 -15 46 -22l2 2q6 -6 17 -13.5t15 -11.5
q14 -32 14 -33q7 -34 6 -46q0 -5 0.5 -21.5t-1.5 -20.5q-1 -6 -1.5 -12t-1 -13.5t-0.5 -11.5q-1 -10 -1 -59v-3l3 -12q4 -11 0 -12q-1 -3 2 -22q0 -17 1 -25q0 -24 2 -36q0 -1 -3 -29zM328 215q4 9 2 44q0 2 -1 7.5t-1 9.5t3 8q0 50 -1 56q-6 35 0 53q1 2 -0.5 4.5t-1.5 3.5
q3 6 0.5 20.5t-2.5 19.5q1 0 0 23v22v3q2 20 -11 34q-2 1 -11.5 4t-14.5 5q-11 7 -25 10.5t-31.5 6t-26.5 4.5q-11 2 -19 -1q-68 -21 -78 -26l-17 -19v-126q1 -5 5 -20q-5 -7 -5 -26v-245q0 -2 3 -11l19 -17q4 -2 14 -4t14 -4q3 -1 32 -4q1 0 3 -0.5t3 -0.5q45 -9 95 4
q34 11 50 30q0 15 1 22v89q0 2 0.5 10t1.5 11zM276 414q2 -28 -3 -42q-4 -11 1 -28q-5 -7 -10 -4q-3 2 -8 0t-8 -1t-14 4q-9 6 -7 22q5 26 -1 58q-2 1 -6 5l-6 3q-5 0 -7 -1l-5 -4q-2 -2 -2 -4v-15t-1 -14q-1 -6 0 -18t1 -16q0 -10 -2 -30q0 -21 -1 -31q0 -26 -2 -31
q-1 -1 0 -3.5t1 -3.5l2 -57v-33q7 -11 26 -8l8 9v63q12 10 30 15q1 -1 2 -1q2 -1 3 -1q1 -1 2.5 -2t2.5 -2.5t2 -2.5q4 -13 1 -26q-1 -2 -1 -10.5t-3 -12.5q0 -1 1 -3t2 -4.5t1 -4.5t-1.5 -6.5t-1.5 -7.5q1 -7 0 -13q0 -2 2 -17q-4 -2 -15.5 -12.5t-21.5 -11.5
q-2 -1 -10.5 -1t-13.5 -3q-3 1 -16.5 4t-19.5 5t-14.5 7.5t-14.5 13.5q0 11 -0.5 33t-0.5 33v37q1 7 -1 18.5t-2 16.5q-2 16 2 22q1 3 1 4t-1.5 4t-1.5 5t1.5 6.5t1.5 6.5v95q4 13 5 17v13q11 19 35 29h38q2 -1 6 -4t6.5 -4.5t6.5 -2.5t8 -1l17 -19q6 -20 7 -32z" />
    <glyph glyph-name="ordfeminine" unicode="&#xaa;" horiz-adv-x="271" 
d="M221 782q-3 -2 -2.5 -33.5t0.5 -33.5t0.5 -5t0.5 -4q0 -18 -1 -57t-1 -57q0 -26 3 -34q1 -3 1 -10q-4 -46 7 -78l1 -2l1 -2q0 -2 1.5 -4.5t2 -3.5t-1.5 -3q-4 -1 -12 -1t-12 -1q-2 -1 -19 -0.5t-19 0.5q-9 3 -16 21q-7 -6 -15.5 -10.5t-12.5 -8.5q-6 -1 -14.5 -3t-12 -2
t-14.5 1l-28 13q-5 6 -9 25t-8 26l4 12q-8 21 0 32q-4 16 -4 22q1 12 4.5 32t3.5 28q17 29 42 41l50 30l10 7q-1 7 0.5 21t-2.5 21q-1 1 0 8.5t1 9.5q0 4 -0.5 9.5t-0.5 8.5q-11 8 -30 2q-11 -6 -9 -38q-9 -7 -30.5 -6.5t-32.5 -0.5q-4 1 -2.5 15t1.5 16q0 1 -0.5 7t-2.5 10
q2 4 3 15t5 17q23 24 64 35q14 3 61 -5l18 -12q17 -11 20 -20q1 -6 2.5 -22.5t4.5 -27.5zM112 584v-11q6 -7 3 -12t-3 -9l7 -19q17 -7 23 -7q3 1 13 7q-5 4 -3 17.5t1 17.5q-1 8 -1 24q0 5 -0.5 26t-1.5 30q-5 -5 -17 -13t-16 -15q-3 -32 -5 -36z" />
    <glyph glyph-name="guillemotleft" unicode="&#xab;" horiz-adv-x="454" 
d="M132 439q38 -58 49 -80q5 -9 20.5 -38.5t24.5 -44.5l-9 -8h-77q-3 1 -7.5 3.5t-5.5 3.5q-3 6 -13 19.5t-13 21.5t-11.5 22t-10.5 17q-20 40 -22 43q-18 31 -21 39q1 5 6.5 11t6.5 7q18 24 32 61q3 7 5 10q5 7 25 49q5 10 22 36q17 2 48 1t48 0l8 -14q-5 -10 -18.5 -26.5
t-18.5 -24.5q-4 -7 -32 -53q-14 -22 -36 -55zM327 483q-4 -6 -13 -20.5t-15 -22.5q13 -27 45 -78.5t46 -79.5v-11q-1 -1 -2 -2.5t-2 -2.5t-2 -1q-8 -3 -21.5 -1.5t-20.5 -0.5t-20 1.5t-20 2.5q-11 13 -12 15q-8 20 -29 53.5t-28 48.5q-7 17 -16 26q-5 4 -7 12q-2 5 -9 17
l57 86q0 1 2 3l19 19q6 13 21 33.5t20 29.5q31 8 88 7l5 -3l4 -4q-5 -15 -35 -54q-9 -14 -28 -38.5t-27 -34.5z" />
    <glyph glyph-name="registered" unicode="&#xae;" horiz-adv-x="353" 
d="M313 613q2 -3 -0.5 -8.5t-2.5 -7.5q2 -41 0 -92q0 -5 -12 -12.5t-13 -12.5q-19 -14 -55 -23q-20 -6 -30 -6q-4 1 -11.5 -1t-10.5 -2q-14 0 -22 -1q-24 9 -52 11q-6 0 -11 3q-2 1 -20 10.5t-23 17.5q-4 9 -5 16q-1 8 -1 43.5t-1 43.5q0 1 -0.5 3.5t-0.5 3.5q2 14 2 84
q0 3 -5 20q1 1 5 17q-7 15 -5 37l3 63q1 4 5.5 9t11 10.5t7.5 6.5q3 1 5.5 2.5t3.5 1.5q4 4 5 7q1 0 3 1h2q13 3 14 3q20 9 92 9q3 0 19 -2.5t19 -2.5q42 -5 69 -29q2 -3 6 -14t5 -14v-13v-11q3 -7 3 -14t-1.5 -15.5t-1.5 -13.5q1 -28 1 -82q0 -17 1 -25q1 -3 0 -10.5
t2 -10.5zM268 585q3 3 1.5 11t-1.5 10v11l-2 62v65q-1 10 -1 44q0 1 -0.5 4t-0.5 5q-4 3 -11.5 9.5t-13 11t-12.5 6.5q-42 12 -58 6q-6 -3 -18 -3t-17 -1q-22 -11 -30 -13q-3 -1 -5.5 -2t-4.5 -4t-3.5 -5t-3.5 -7t-3 -7v-21v-16q1 -2 -0.5 -6t-1.5 -5q0 -10 2.5 -30t1.5 -32
l-3 -153q4 -10 14 -13t13 -7q27 -14 93 -9q11 5 24.5 9.5t21 8.5t16.5 14q0 1 0.5 27t2.5 30zM220 618q1 -5 6 -15.5t6 -16.5q0 -1 2.5 -5t2.5 -7l-6 -6q-3 -2 -15.5 0.5t-14.5 -0.5q-2 1 -5.5 4t-4.5 3q0 1 -1.5 3.5t-1.5 3.5q-8 42 -16 61q-2 1 -4 1q-3 -3 -3 -4v-8
t-0.5 -7.5t0.5 -8t3 -7.5q-3 -7 -3 -30q0 -2 -0.5 -5t-0.5 -4l-3 -3h-28q-2 1 -4.5 0.5t-3.5 0.5q-1 3 -1 12q0 6 0.5 18.5t0.5 19.5v17q0 7 -1 16.5t-1 15.5q0 5 2 20t-1 21v39q0 1 -0.5 9t4.5 8q67 9 91 -7q2 -4 5 -14.5t5 -14.5l1 -52q-1 -8 -8.5 -17.5t-11.5 -9.5
q2 -5 5 -15t5 -16zM187 683q3 4 3 13.5t-2 17.5l-1 7l-4 6q-2 -1 -8.5 -0.5t-10.5 -3.5q0 -21 1 -39v-5q4 -2 12.5 -1t9.5 5z" />
    <glyph glyph-name="macron" unicode="&#xaf;" horiz-adv-x="258" 
d="M42 975q66 4 80 -1q52 0 83 2h2q2 -1 5 -2t6 -1l2 -6v-46q-3 -13 -9 -19q-1 0 -3.5 -0.5t-4.5 -0.5q-32 1 -81 -0.5t-73 0.5q-1 0 -2.5 0.5t-2.5 0.5q-6 22 -2 73z" />
    <glyph glyph-name="degree" unicode="&#xb0;" horiz-adv-x="347" 
d="M293 651l-17 -22q-16 -13 -22 -17q-20 -13 -66 -23q-13 -4 -24 3q-6 4 -16 -2q-23 7 -40 11q-7 2 -13.5 7t-9.5 8t-10.5 11t-8.5 10q-26 31 -28 77q-1 19 -1 58q10 27 14 33t19 17q1 8 12 18.5t14 15.5q38 14 69 15q29 0 50 -9q6 -3 20 -5q24 -12 59 -51q16 -37 14 -65
v-12q2 -43 -15 -78zM153 670l23 -9q22 12 32 20q23 18 23 47q1 13 -2 31q-19 52 -75 43l-25 -18q-7 -9 -10 -26t-6 -22q11 -47 40 -66z" />
    <glyph glyph-name="plusminus" unicode="&#xb1;" horiz-adv-x="552" 
d="M231 484q0 47 3 58q-3 8 -0.5 29t1.5 29q0 9 1 28.5t0 30.5q0 2 2 7t2 6l13 6h15t18.5 -0.5t15.5 -2.5q13 -2 23 2h11q4 -8 1 -24.5t-1 -23.5q2 -12 1.5 -17t-2 -16.5t-1.5 -16.5q0 -31 -2 -47q0 -1 -3 -49q5 -1 14 -1h14q16 -3 31 -3h8.5h10.5h9q42 2 70 -3q3 -1 18 -1
q11 -6 13 -13q-7 -12 -9 -38t-8 -37l-4 -3q-5 -2 -14.5 0t-13.5 1q-6 -1 -27 1q-29 4 -39 2h-14q-2 0 -10 1.5t-12 1.5h-36q-3 -6 -3 -9q0 -14 -2.5 -45t-1.5 -47v-3q-2 -39 4 -57q-8 -9 -22 -9q-11 -2 -22 0q-22 5 -42 -1h-11q-1 1 -2.5 5t-3.5 6q6 18 0 38q3 15 3 16
q0 17 7 80q2 13 -3 19q-6 4 -18.5 4.5t-14.5 0.5q-37 8 -89 6q-2 0 -7 -1.5t-7 -0.5q-9 2 -29 1.5t-31 1.5q8 39 5 85q3 1 11 3.5t12 4.5h5l36 -3q24 0 31 -3q9 -2 14 0q5 3 19.5 1.5t18.5 -1.5q13 1 39 1h5zM59 85l-4 4q-2 9 -2 31t-5 34l7 6q36 0 53 1q3 0 8 1t7 1
q3 -1 9 -1.5t8 -0.5t6 -1.5t7 -2.5q24 3 28 1q3 -1 7.5 0.5t5.5 1.5q7 0 20.5 0.5t20.5 0.5q19 0 39 3q5 1 50 1h64q3 0 9.5 0.5t11.5 1t9 1.5q13 4 27 1q9 -3 25.5 -3t21.5 -1q2 0 4 -1q7 -2 8 -9v-55q0 -3 -8 -11h-65q-56 0 -83 1h-134q-24 -1 -73 -1l-13 -2q-8 -2 -10 -2
h-59z" />
    <glyph glyph-name="twosuperior" unicode="&#xb2;" horiz-adv-x="262" 
d="M121 523q5 -2 10 -2t11 -2q4 2 7 2h66q6 0 8 -3q-5 -40 0 -60l-3 -3q-8 -1 -24 -1h-19.5h-25h-19.5h-37h-18t-20 2q-2 0 -14 -2q-3 8 -3 13v13v6.5v6.5v15v19q0 12 4 21q1 2 9 19.5t13 25.5l8 14q2 5 12 20.5t13 25.5l3 5q21 31 29 49q0 1 5 13.5t9 16.5q2 2 3.5 7.5
t2.5 6.5v46q0 4 -3.5 6t-8 2t-5.5 1q-5 1 -11 -2t-9 -4q-3 -2 -3 -7v-29q0 -10 -2 -13q-57 -3 -62 -3q-2 1 -3.5 2.5t-2 4t-1.5 3.5v4v25q1 5 -1 15q0 4 1 6q1 3 1.5 9t0.5 8q4 4 9 14q11 15 52 23q4 1 18 6h11q8 0 12 -2q1 -1 5 -1q23 0 32 -6q10 -3 12 -2q2 -3 8 -7.5
t8 -7.5l12 -18v-6.5v-8.5v-7v-17v-19q0 -12 -1 -18q-2 -14 -4 -21t-9 -18.5t-9 -17.5q-12 -25 -15 -32t-15 -26q0 -1 -2 -4l-3 -3q-3 -9 -14 -31q-3 -6 -9 -16l-19 -35v-21z" />
    <glyph glyph-name="threesuperior" unicode="&#xb3;" horiz-adv-x="263" 
d="M107 626q-5 8 -4 11v22q-1 5 -1 15v22q0 2 1 3q2 1 13 1q15 -2 29 4q4 2 6 11q3 14 2 29v4q0 26 -1 31q2 4 0.5 8t-1.5 7q-2 9 -6 11q-2 1 -26 1q-5 -1 -8 -6q0 -2 -1.5 -7.5t-1.5 -8.5v-10t1 -10l-2 -2l-1 -2l-3 -2h-28q-3 1 -8.5 -0.5t-8.5 -1.5h-6q-5 2 -8 5
q-1 6 -1 17v17q-1 7 1 30l3 6q6 17 29 26l5 2q10 6 44 9q6 0 18 -0.5t17 -0.5l37 -9q18 -18 25 -54q-1 -3 -1 -11v-28q2 -6 1.5 -17t0.5 -17q1 -5 -1 -15q-1 -2 -1 -18q-10 -21 -26 -33q1 -2 12 -7q15 -15 14 -37v-36q0 -2 0.5 -4.5t0.5 -3.5t0.5 -4.5t0.5 -5.5
q0 -3 -0.5 -11t0.5 -12v-23q0 -2 -1 -9t0 -11q0 -1 1 -3.5t0 -3.5q-5 -16 -21 -30q-6 -5 -37 -12q-11 -3 -20 -2q-3 0 -9 -0.5t-9 -0.5q-40 3 -51 9q-1 1 -4 2t-4 2q-11 3 -15 13q-12 26 -12 28q0 3 -1.5 28t0.5 30q2 2 5 2h56q7 0 11 -4q0 -4 0.5 -15t1.5 -20q7 -7 11 -7
l16 -1q3 1 9 7l5 15q-1 4 -1 9v22v37q0 3 -2 7.5t-2 6.5q-2 7 -10 7q-2 0 -6 0.5t-7 0.5t-5 -1q-3 -1 -15 -1z" />
    <glyph glyph-name="acute" unicode="&#xb4;" horiz-adv-x="214" 
d="M134 1008q3 1 19 2.5t18 1.5q1 -1 6.5 -2.5t7.5 -3t3 -5.5q-11 -18 -39 -51.5t-39 -49.5q-38 3 -47 -1q-3 -1 -11 0.5t-11 -0.5q-7 6 -3 14q8 14 21.5 45.5t22.5 46.5q12 4 18 7q6 -1 10.5 -0.5t11.5 0t12 -3.5z" />
    <glyph glyph-name="paragraph" unicode="&#xb6;" horiz-adv-x="444" 
d="M387 185q3 -5 4 -11.5t0.5 -11.5t0.5 -11q0 -2 -2 -11t2 -11q-2 -4 0 -21q2 -6 0 -11q-4 -11 -4 -56q-1 -9 -1 -28q-13 -7 -15 -8q-3 4 -12.5 2t-11.5 -2h-22l-9 3l-7 5q-5 17 0 38q3 13 3 25v170q0 28 0.5 85.5t0.5 86.5q0 3 1 16t0 16q-1 7 -1 18.5v18.5q0 5 0.5 17
t0.5 17q-2 13 2 19q2 4 -0.5 10t-2.5 9v76q-1 45 -1 135q0 3 -2 5q-3 5 -11.5 1.5t-11.5 -3.5q-9 0 -21 -2q-4 -4 -4 -14v-121q0 -6 -1 -9q-6 -7 -5 -54.5t1 -54.5q5 -3 5 -50v-51q0 -24 -4 -33q-1 -2 -1 -6.5v-7.5q-1 -4 1.5 -13t0.5 -14q-3 -11 2 -24q1 -2 1 -16v-108
q0 -28 4 -38q5 -12 0 -23q-3 -8 -3.5 -18t0 -18.5t-0.5 -18.5q-1 -6 0 -19.5t0 -20.5q-1 -4 1 -12.5t2 -12.5q-2 -1 -7.5 -4t-8.5 -4t-7.5 -1t-9.5 2q-6 -3 -18 -3.5t-17 -3.5h-8l-5 5q-2 14 -1 54t-4 54l3 7q1 7 -0.5 23t0.5 23q-3 7 -3 21t-1 17q-1 5 1 15t0 15
q-1 6 -1 34v65q0 5 -0.5 15.5t-0.5 15.5v66q-6 9 -13 8q-10 -1 -28 5.5t-20 7.5q-3 3 -17 12.5t-22 16.5t-14 16q-3 4 -8 18t-4 18q0 6 -9 29v23v14q0 3 -3 11t-1 13q3 6 3 24q2 19 0 59q0 2 -2 8v2q4 19 14 57q3 19 12 31l13 22q4 5 10.5 9t15.5 9t13 7q7 5 22 7.5t21 4.5
q1 0 6 -2.5t7 -1.5q9 2 30 1.5t30 2.5q18 4 30 -2q10 -5 38 2q20 -7 28 1l12 -5q16 7 31 3q1 0 7.5 -1t9 -2t7 -3.5t6.5 -6.5q1 -6 1 -54q0 -58 -1 -65q-3 -13 -5 -81v-79v-65q0 -15 -4 -22q4 -6 0 -19q-1 -3 0 -11.5t0 -12.5q-1 -5 0.5 -16t-0.5 -16t-1.5 -15t-0.5 -16
q0 -5 0.5 -14.5t0 -17.5t-3.5 -15q3 -9 3.5 -19t-0.5 -23.5t-1 -19.5q1 -19 1 -59q0 -9 -1 -14q0 -1 -4 -9z" />
    <glyph glyph-name="periodcentered" unicode="&#xb7;" horiz-adv-x="174" 
d="M40 482q0 7 3 10q1 0 12 1t16 2q3 1 11 -1t12 0q3 2 12 2t11 4q13 -4 23 -11v-86l-6 -6h-7q-25 6 -61 1q-12 -1 -25 5q-5 3 -2.5 12t2.5 11q-2 5 0 19v3.5t-0.5 2.5t-1 4.5t-0.5 8.5q1 2 0 8.5t1 9.5z" />
    <glyph glyph-name="cedilla" unicode="&#xb8;" horiz-adv-x="197" 
d="M104 -111v21q-8 11 -18 19q-7 1 -17.5 -2t-17.5 -1q-3 0 -7 7v32q18 12 29 31q1 2 5.5 8.5t7.5 8.5q2 1 5.5 1t8.5 -0.5t8 -0.5q2 -1 6 -1t6 -1q0 -1 4 -0.5t6.5 1t3.5 -1.5q-6 -11 -19.5 -23.5t-14.5 -14.5q31 -6 40.5 -12.5t19.5 -30.5v-53q-1 -2 -4.5 -9.5t-5.5 -12.5
q-9 -22 -32 -25q-5 0 -15 -4.5t-17 -3.5q-18 1 -46 18q-4 6 -1 13l3 8l-3 11q1 5 17 12q3 -2 12 -4t12 -5q18 5 24 15z" />
    <glyph glyph-name="onesuperior" unicode="&#xb9;" horiz-adv-x="205" 
d="M164 456q-10 -2 -33.5 -2t-33.5 1q-5 11 -3 19q4 7 0 14q-1 3 -1 20q0 59 -1 89q0 6 1 10q1 1 1 2q-1 6 -1 51q-1 2 -0.5 22t0.5 22q0 3 -0.5 11.5t-1.5 13.5q-1 3 -1 15v7q-2 2 -9 2q-5 -2 -29 -2q-3 0 -9 2q-2 3 -2 8.5v6.5q0 29 -2 34q0 3 1 5q6 4 20 4q8 5 16 6l5 6
q7 6 10 17q0 3 2.5 10t2.5 11q13 4 19 2q2 -1 5.5 0t5.5 1q4 -2 9 0q19 0 28 -3q0 -2 -0.5 -9.5t-1.5 -11.5q-1 -3 0 -9.5t1 -9.5v-23t-2 -29q0 -5 2 -15q0 -34 1 -41q1 -12 0.5 -43t-0.5 -43q0 -37 1 -45q-1 -6 -1 -39v-27q-1 -8 1 -26q0 -3 0.5 -11t0.5 -12q0 -9 -1 -11z
" />
    <glyph glyph-name="ordmasculine" unicode="&#xba;" horiz-adv-x="270" 
d="M42 581q8 71 0 102q3 5 3 29q0 4 -0.5 12t-0.5 12q0 8 2 26q-10 18 -1 34l-5 15q1 7 8 16t8 13q18 21 52 25q7 1 19 8q16 -2 20 -2l17 -3q46 -10 63 -44q0 -30 -1 -37q-1 -8 1.5 -26t0.5 -28q2 -5 0 -14t0 -13q2 -1 0.5 -13t-1.5 -14q-1 -10 -1 -28v-139l-8 -22
q-4 -11 -34 -26q-18 -9 -39 -15q-9 5 -26.5 5.5t-23.5 1.5q-50 34 -54 62q2 7 2 8q-6 17 1 32q4 11 -2 23zM159 545q-2 3 0 8t-1 7v2q1 3 2 5.5t1 3.5l-4 131v22q0 3 -0.5 4.5l-1 3t-0.5 4.5t2.5 10t-0.5 11q-1 3 -0.5 11t0.5 11q0 11 -3 14l-14 7l-19 -7l-6 -19v-48
q0 -28 1 -34q1 -5 0 -15.5t-1 -14.5q0 -3 2 -11q3 -7 0 -14q-1 -3 -1.5 -22.5t-0.5 -21.5q0 -5 1 -11t0 -11t-1 -29q5 -13 10 -16q13 -2 18 -1q6 2 16 20z" />
    <glyph glyph-name="guillemotright" unicode="&#xbb;" horiz-adv-x="454" 
d="M322 438q-38 59 -49 80q-5 9 -20.5 38.5t-24.5 44.5l9 8h77q3 -1 7.5 -3.5t5.5 -3.5q3 -6 13 -19.5t13 -21.5t11.5 -22t10.5 -17q20 -40 22 -43q18 -31 21 -39q-1 -5 -6.5 -11t-6.5 -7q-18 -24 -32 -61q-3 -7 -5 -10q-5 -7 -25 -49q-5 -10 -22 -36q-17 -2 -48 -1t-48 0
l-8 14q5 10 18.5 26.5t18.5 24.5q4 7 32 53q14 22 36 55zM127 394q4 6 13 20.5t15 22.5q-13 27 -45 78.5t-46 79.5v11q1 1 2 2.5t2 2.5t2 1q8 3 21.5 1.5t20.5 0.5t20 -1.5t20 -2.5q11 -13 12 -15q8 -20 29 -53.5t28 -48.5q7 -17 16 -26q5 -4 7 -12q2 -4 9 -17l-57 -86
q0 -1 -2 -3l-19 -19q-6 -13 -21 -33.5t-20 -29.5q-31 -8 -88 -7l-5 3l-4 4q5 15 35 54q9 14 28 38.5t27 34.5z" />
    <glyph glyph-name="onequarter" unicode="&#xbc;" horiz-adv-x="534" 
d="M362 410q6 1 24 1.5t26 2.5q7 -4 17 -2q4 -3 2 -8l-7 -17q-8 -27 -10 -33q-1 -2 -2 -7t-1 -6q-1 -7 -12 -41q-5 -11 -6 -20q-1 -5 -3 -8.5t-3 -8.5q0 -1 -16 -55q-1 -9 -5.5 -25.5t-5.5 -20.5q1 -3 4 -2h7h2q2 1 5 0h13h4.5t5.5 1q1 1 1 4t1 5q0 1 -1 5.5t-1 5.5
q0 11 0.5 22.5t0.5 21.5v3l1 1l1 1h31q10 -6 25 0h4q4 0 4 -2v-1t0.5 -2t0.5 -2q-1 -2 0 -6.5t0 -7.5q-2 -9 0 -12q-1 -9 -2 -34q5 -2 18 0q8 -3 8 -4v-8q3 -5 1 -11q-1 -6 -1.5 -21.5t-0.5 -19.5v-2l-1 -2q-3 -2 -9.5 -1.5t-10.5 -0.5q-1 -11 -1 -23v-34v-33
q-10 -1 -31.5 -0.5t-30.5 0.5q-1 0 -2.5 0.5t-2.5 0.5q-2 4 -1.5 17t0.5 17v33q0 19 -1 24q-1 1 -3 0q-4 -2 -10.5 -2t-10.5 0.5t-5 -0.5q-6 -2 -24.5 -1.5t-24.5 0.5h-23q-1 -1 -5 -0.5t-6 0.5q-2 2 -2.5 6t-1.5 6l2 16q0 1 -1.5 3.5t-0.5 4.5q1 1 1 6l-1 6q0 2 -0.5 7
t-0.5 7q0 10 4 17q4 10 9.5 29.5t7.5 24.5q16 56 20 74q0 2 1 3l18 54l6 25q1 6 6 16.5t6 12.5zM330 862q15 -2 17 -1q10 4 17 1q6 -2 18 0t17 -1q4 -4 2 -12l-24 -82l-3 -14q-2 -6 -4 -18l-3 -18q-19 -67 -29 -114q-1 -6 -5 -21t-6 -23q-2 -9 -14 -43q-6 -20 -15.5 -61
t-15.5 -61q-4 -15 -13 -45.5t-14 -45.5q-5 -16 -4 -20q1 -12 -8 -45q-2 -7 -7.5 -24.5t-8.5 -27.5q-6 -18 -6 -27q0 -7 -4 -19.5t-2 -18.5q-11 -24 -26 -83q-2 -11 -6 -19q-2 -5 -8 -15q-5 0 -11 -1.5t-11 -0.5q-6 2 -17 -0.5t-16 -2.5l-21 6q-5 8 0 18q6 10 15 43l24 85
q15 57 20 65q1 15 5.5 31t11 36t9.5 30q19 72 26 90q3 10 6.5 29.5t6.5 29.5q10 42 16 63q2 8 6 25.5t7 26.5q10 37 12 53q1 6 4.5 15.5t4.5 14.5q7 28 19 84l2 6q6 14 26 90q2 10 10 22zM164 456q-10 -2 -33.5 -2t-33.5 1q-5 11 -3 19q4 7 0 14q-1 3 -1 20q0 59 -1 89
q0 6 1 10q1 1 1 2q-1 6 -1 51q-1 2 -0.5 22t0.5 22q0 3 -0.5 11.5t-1.5 13.5q-1 3 -1 15v7q-2 2 -9 2q-5 -2 -29 -2q-3 0 -9 2q-2 3 -2 8.5v6.5q0 29 -2 34q0 3 1 5q6 4 20 4q8 5 16 6l5 6q7 6 10 17q0 3 2.5 10t2.5 11q13 4 19 2q2 -1 5.5 0t5.5 1q4 -2 9 0q19 0 28 -3
q0 -2 -0.5 -9.5t-1.5 -11.5q-1 -3 0 -9.5t1 -9.5v-23t-2 -29q0 -5 2 -15q0 -34 1 -41q1 -12 0.5 -43t-0.5 -43q0 -37 1 -45q-1 -6 -1 -39v-27q-1 -8 1 -26q0 -3 0.5 -11t0.5 -12q0 -9 -1 -11z" />
    <glyph glyph-name="onehalf" unicode="&#xbd;" horiz-adv-x="549" 
d="M330 862q15 -2 17 -1q10 4 17 1q6 -2 18 0t17 -1q4 -4 2 -12l-24 -82l-3 -14q-2 -6 -4 -18l-3 -18q-19 -67 -29 -114q-1 -6 -5 -21t-6 -23q-2 -9 -14 -43q-6 -20 -15.5 -61t-15.5 -61q-4 -15 -13 -45.5t-14 -45.5q-5 -16 -4 -20q1 -12 -8 -45q-2 -7 -7.5 -24.5
t-8.5 -27.5q-6 -18 -6 -27q0 -7 -4 -19.5t-2 -18.5q-11 -24 -26 -83q-2 -11 -6 -19q-2 -5 -8 -15q-5 0 -11 -1.5t-11 -0.5q-6 2 -17 -0.5t-16 -2.5l-21 6q-5 8 0 18q6 10 15 43l24 85q15 57 20 65q1 15 5.5 31t11 36t9.5 30q19 72 26 90q3 10 6.5 29.5t6.5 29.5q10 42 16 63
q2 8 6 25.5t7 26.5q10 37 12 53q1 6 4.5 15.5t4.5 14.5q7 28 19 84l2 6q6 14 26 90q2 10 10 22zM164 456q-10 -2 -33.5 -2t-33.5 1q-5 11 -3 19q4 7 0 14q-1 3 -1 20q0 59 -1 89q0 6 1 10q1 1 1 2q-1 6 -1 51q-1 2 -0.5 22t0.5 22q0 3 -0.5 11.5t-1.5 13.5q-1 3 -1 15v7
q-2 2 -9 2q-5 -2 -29 -2q-3 0 -9 2q-2 3 -2 8.5v6.5q0 29 -2 34q0 3 1 5q6 4 20 4q8 5 16 6l5 6q7 6 10 17q0 3 2.5 10t2.5 11q13 4 19 2q2 -1 5.5 0t5.5 1q4 -2 9 0q19 0 28 -3q0 -2 -0.5 -9.5t-1.5 -11.5q-1 -3 0 -9.5t1 -9.5v-23t-2 -29q0 -5 2 -15q0 -34 1 -41
q1 -12 0.5 -43t-0.5 -43q0 -37 1 -45q-1 -6 -1 -39v-27q-1 -8 1 -26q0 -3 0.5 -11t0.5 -12q0 -9 -1 -11zM408 71q6 -2 11 -2t10 -2q4 2 7 2h66q6 0 8 -3q-5 -40 0 -60l-3 -3q-8 -1 -24 -1h-64h-37h-17.5t-20.5 2q-2 0 -14 -2q-3 8 -3 13v13q-1 2 0 6.5t0 6.5q-1 0 -1 7l1 8
v19q0 12 4 21q1 2 9 19.5t13 25.5l8 14q2 5 12 20.5t13 25.5l3 5q21 31 29 49q0 1 5 13.5t9 16.5q2 2 4 7.5t2 6.5v46q0 4 -3.5 6t-8 2t-5.5 1q-5 1 -11 -2t-9 -4q-3 -2 -3 -7v-29q0 -10 -2 -13q-57 -3 -62 -3q-2 1 -3.5 2.5t-2 4t-1.5 3.5v4v25q1 5 -1 15q0 4 1 6
q1 3 1.5 9t0.5 8q4 4 9 14q11 15 52 23q4 1 18 6h2h4.5h4.5q8 0 12 -2q1 -1 5 -1q23 0 32 -6q10 -3 12 -2q2 -3 8 -7.5t8 -7.5q1 -2 3.5 -6t4.5 -7t4 -5v-22v-6v-6v-5v-19q0 -12 -1 -18q-2 -14 -4 -21t-9 -18.5t-9 -17.5q-12 -25 -15 -32t-15 -26q0 -1 -3 -4l-2 -3
q-3 -9 -14 -31q-3 -6 -9 -16l-19 -35v-21z" />
    <glyph glyph-name="threequarters" unicode="&#xbe;" horiz-adv-x="574" 
d="M402 410q6 1 24 1.5t26 2.5q7 -4 17 -2q4 -3 2 -8l-7 -17q-8 -27 -10 -33q-1 -2 -2 -7t-1 -6q-1 -7 -12 -41q-5 -11 -6 -20q-1 -5 -3 -8.5t-3 -8.5q0 -1 -16 -55q-1 -9 -5.5 -25.5t-5.5 -20.5q1 -3 4 -2h7h2q2 1 5 0h13h4.5t5.5 1q1 1 1 4t1 5q0 1 -1 5.5t-1 5.5
q0 11 0.5 22.5t0.5 21.5v3l1 1l1 1h31q10 -6 25 0h4q4 0 4 -2v-1t0.5 -2t0.5 -2q-1 -2 0 -6.5t0 -7.5q-2 -9 0 -12q-1 -9 -2 -34q5 -2 18 0q8 -3 8 -4v-8q3 -5 1 -11q-1 -6 -1.5 -21.5t-0.5 -19.5v-2l-1 -2q-3 -2 -9.5 -1.5t-10.5 -0.5q-1 -11 -1 -23v-34v-33
q-10 -1 -31.5 -0.5t-30.5 0.5q-1 0 -2.5 0.5t-2.5 0.5q-2 4 -1.5 17t0.5 17v33q0 19 -1 24q-1 1 -3 0q-4 -2 -10.5 -2t-10.5 0.5t-5 -0.5q-6 -2 -24.5 -1.5t-24.5 0.5h-23q-1 -1 -5 -0.5t-6 0.5q-2 2 -2.5 6t-1.5 6l2 16q0 1 -1.5 3.5t-0.5 4.5q1 1 1 6l-1 6q0 2 -0.5 7
t-0.5 7q0 10 4 17q4 10 9.5 29.5t7.5 24.5q16 56 20 74q0 2 1 3l18 54l6 25q1 6 6 16.5t6 12.5zM370 862q15 -2 17 -1q10 4 17 1q6 -2 18 0t17 -1q4 -4 2 -12l-24 -82l-3 -14q-2 -6 -4 -18l-3 -18q-19 -67 -29 -114q-1 -6 -5 -21t-6 -23q-2 -9 -14 -43q-6 -20 -15.5 -61
t-15.5 -61q-5 -15 -12.5 -45.5t-11.5 -45.5q-5 -16 -4 -20q0 -7 -1.5 -14t-5 -16.5t-4.5 -14.5q-2 -7 -7.5 -24.5t-8.5 -27.5q-6 -18 -6 -27q0 -7 -4 -19.5t-2 -18.5q-11 -24 -26 -83q-2 -11 -6 -19q-2 -5 -8 -15q-5 0 -11 -1.5t-11 -0.5q-6 2 -17 -0.5t-16 -2.5l-21 6
q-5 8 0 18q6 10 15 43l24 85q15 57 20 65q1 15 5.5 31t11 36t9.5 30q19 72 26 90q3 10 6.5 29.5t6.5 29.5q10 42 16 63q2 8 6 25.5t7 26.5q10 37 12 53q1 6 4.5 15.5t4.5 14.5q7 28 19 84l2 6q6 14 26 90q2 10 10 22zM107 626q-5 8 -4 11v22q-1 5 -1 15v22q0 2 1 3q2 1 13 1
q15 -2 29 4q4 2 6 11q3 14 2 29v4q0 26 -1 31q2 4 0.5 8t-1.5 7q-2 9 -6 11q-2 1 -26 1q-5 -1 -8 -6q0 -2 -1.5 -7.5t-1.5 -8.5v-10t1 -10l-2 -2l-1 -2l-3 -2h-28q-3 1 -8.5 -0.5t-8.5 -1.5h-6q-5 2 -8 5q-1 6 -1 17v17q-1 7 1 30l3 6q6 17 29 26l5 2q10 6 44 9q6 0 18 -0.5
t17 -0.5l37 -9q18 -18 25 -54q-1 -3 -1 -11v-28q2 -6 1.5 -17t0.5 -17q1 -5 -1 -15q-1 -2 -1 -18q-10 -21 -26 -33q1 -2 12 -7q15 -15 14 -37v-36q0 -2 0.5 -4.5t0.5 -3.5t0.5 -4.5t0.5 -5.5q0 -3 -0.5 -11t0.5 -12v-23q0 -2 -1 -9t0 -11q0 -1 1 -3.5t0 -3.5q-5 -16 -21 -30
q-6 -5 -37 -12q-11 -3 -20 -2q-3 0 -9 -0.5t-9 -0.5q-40 3 -51 9q-1 1 -4 2t-4 2q-11 3 -15 13q-12 26 -12 28q0 3 -1.5 28t0.5 30q2 2 5 2h56q7 0 11 -4q0 -4 0.5 -15t1.5 -20q7 -7 11 -7l16 -1q3 1 9 7l5 15q-1 4 -1 9v22v37q0 3 -2 7.5t-2 6.5q-2 7 -10 7q-2 0 -6 0.5
t-7 0.5t-5 -1q-3 -1 -15 -1z" />
    <glyph glyph-name="questiondown" unicode="&#xbf;" horiz-adv-x="404" 
d="M40 193q-3 4 -1 16.5t2 16.5q0 22 -1 34q0 6 0.5 17t0.5 16v26q-1 33 23 61q31 36 44 64q10 21 20 34q8 11 19 35v66v3l-3 22q2 2 0.5 10.5t-1.5 10.5q0 3 1.5 10t1.5 10t-0.5 11t-0.5 11q0 1 0.5 3t0.5 3q3 3 8 4t6 2q50 -2 65 1q4 1 38 1q4 -4 6 -5q2 -6 2 -7
q0 -71 -3 -86q3 -1 2 -6.5t-1 -6.5q6 -44 -2 -66v-11q0 -2 -0.5 -5t-0.5 -4l-9 -8q-2 -8 -6.5 -17.5t-8 -15.5t-10.5 -16.5t-10 -15.5q-8 -12 -21 -36t-17 -30q-1 -2 -6 -6.5t-7 -7.5q-8 -12 -12 -20q0 -9 -1 -10q-8 -21 -2 -46q-1 -4 1 -10.5t2 -10.5v-45v-66
q10 -15 31 -15q33 -2 49 1l6 3q3 2 6 8.5t4 8.5v101l8 6q7 0 21 4.5t20 5.5q2 0 14.5 4.5t17.5 3.5q6 0 13.5 4.5t13.5 2.5q5 -4 5 -14v-151l-22 -41q-10 -4 -26 -21t-26 -22l-38.5 -11t-22.5 -6.5t-13 -2.5t-21 -1q-2 -1 -12 -1.5t-11 -0.5q-4 0 -13 2.5t-14 2.5
q-36 3 -72 30q-6 4 -16 17.5t-14 17.5q-5 5 -6 17.5t-3 17.5q1 3 1 12t1 15q0 24 1 37q0 3 -1.5 17.5t0.5 17.5zM138 755q-2 13 1 54t-1 48q1 2 5.5 2.5t5.5 1.5q3 0 11.5 -1.5t11.5 1.5q3 2 21 -3q13 5 34.5 4.5t34.5 0.5q8 -23 6 -35q-4 -19 2 -30l1 -2v-11
q-3 -5 -2.5 -17.5t-3.5 -17.5l-6 -4q-24 -2 -60.5 -0.5t-50.5 -1.5q-8 4 -10 11z" />
    <glyph glyph-name="Agrave" unicode="&#xc0;" horiz-adv-x="457" 
d="M41 95l6 34q1 13 5 39q-30 -3 -31 10q-1 3 -2 5q-1 5 -5.5 19t-3.5 22q1 12 -7 33q-3 7 -3 24q2 3 9.5 3.5t16 0t10.5 -0.5q5 0 15 0.5t14 0.5q0 1 0.5 4t0.5 5l7 26l2 28q2 20 10 62q5 15 5 20q-1 8 3 22q3 18 2 22q0 3 0.5 6t1.5 7t1 6q6 42 11 63q4 14 9.5 23.5
t4.5 15.5q-4 20 3 46q2 5 4 27q1 5 4 18.5t4 21.5l2.5 10t2.5 11.5t1 10.5q-1 1 -1 3.5v8t-2 12.5q-19 69 -19 74q0 1 -0.5 5.5t-1 7.5t0.5 5q2 2 10.5 3.5t11.5 0.5q6 -3 21 -1q0 -2 3 -2t8.5 1t10.5 1q2 0 8.5 1.5t9.5 0.5q4 -1 14 -1t15 -2q4 -1 7 0q5 2 19 0.5t19 -1.5
q3 1 8 -1.5t6 -2.5q5 -2 5 -9q0 -8 5.5 -24.5l6.5 -19.5q4 -21 4 -47q0 -3 1.5 -7t1.5 -7l6 -51l19 -82q2 -8 4 -25t2 -18q2 -13 7 -36.5t7 -32.5l1 -2q1 -3 0 -5q0 -5 5 -38l10 -68q0 -4 4 -12.5t3 -13.5q-1 -16 3 -32.5t4 -23.5q-1 -4 1 -8q5 -15 7 -43t3 -34
q2 -21 11 -79q1 -5 6 -26l7 -21q3 -14 23 -65q3 -22 -1 -22l-4 -1q-3 -1 -4 0t-13.5 1h-27t-18.5 1q-12 2 -26 0q-4 0 -12 -2t-13 -2q-5 1 -5 5l-31 -1l4 2q-8 -3 -11.5 -2t-4 3.5t-0.5 10.5l4 19q1 2 2.5 11t2.5 11q7 28 6 30h1q-1 2 0.5 10t1.5 10q-1 6 -5 21.5t-3 26.5
q0 7 -4 11l-4 4q-2 0 -11 1t-10 0q-5 -1 -22 -1t-24 -1q-8 -1 -19 0t-18 1q-11 -1 -12 -10q-3 -27 -6 -51q-1 -4 1.5 -16t2.5 -15q14 -70 13 -74q-2 -6 -12 -3q-12 2 -31 0q-2 -3 -7 -3t-7 -2l-6 3q-37 -4 -71 0l-1 1q-2 0 -8 -2q-6 -1 -11 1q-10 2 -10 5q-1 2 1.5 9t6 17
t4.5 13q10 27 14 52zM180 285q67 2 88 0q0 2 -2.5 5.5t-1.5 6.5q0 24 -3 36q-1 6 -2 19.5t-3 20.5l-3 24q-2 28 -4 43q0 7 -1.5 20t-1.5 19q0 47 -11 96q-2 15 -8 19q1 -11 -5 -47t-6 -46q0 -11 -2 -13q-4 -7 -4.5 -19.5t-2.5 -17.5t-7 -45q-1 -6 -8 -37.5t-8 -49.5
q0 -2 -2.5 -14t-1.5 -20zM289 906q-8 -9 -19 -6q-12 2 -16 2q-2 0 -8.5 0.5t-9.5 -0.5q-1 0 -11 -1.5t-14 -0.5q-4 6 -21.5 26t-24.5 32q-5 10 -13 14q-14 13 -22 32q0 10 10 14h12q12 -1 19 -3q5 -1 17 -1h44q12 -6 16 -20q6 -22 30 -60q13 -19 11 -28z" />
    <glyph glyph-name="Aacute" unicode="&#xc1;" horiz-adv-x="457" 
d="M265 1008q3 1 19 2.5t18 1.5q1 -1 6.5 -2.5t7.5 -3t3 -5.5q-11 -18 -39 -51.5t-39 -49.5q-38 3 -47 -1q-3 -1 -11 0.5t-11 -0.5q-7 6 -3 14q8 14 21.5 45.5t22.5 46.5q12 4 18 7q6 -1 10.5 -0.5t11.5 0t12 -3.5zM41 95l6 34q1 13 5 39q-30 -3 -31 10q-1 3 -2 5
q-1 5 -5.5 19t-3.5 22q1 12 -7 33q-3 7 -3 24q2 3 9.5 3.5t16 0t10.5 -0.5q5 0 15 0.5t14 0.5q0 1 0.5 4t0.5 5l7 26l2 28q2 20 10 62q5 15 5 20q-1 8 3 22q3 18 2 22q0 3 0.5 6t1.5 7t1 6q6 42 11 63q4 14 9.5 23.5t4.5 15.5q-4 20 3 46q2 5 4 27q1 5 4 18.5t4 21.5l2.5 10
t2.5 11.5t1 10.5q-1 1 -1 3.5v8t-2 12.5q-19 69 -19 74q0 1 -0.5 5.5t-1 7.5t0.5 5q2 2 10.5 3.5t11.5 0.5q6 -3 21 -1q0 -2 3 -2t8.5 1t10.5 1q2 0 8.5 1.5t9.5 0.5q4 -1 14 -1t15 -2q4 -1 7 0q5 2 19 0.5t19 -1.5q3 1 8 -1.5t6 -2.5q5 -2 5 -9q0 -8 5.5 -24.5l6.5 -19.5
q4 -21 4 -47q0 -3 1.5 -7t1.5 -7l6 -51l19 -82q2 -8 4 -25t2 -18q2 -13 7 -36.5t7 -32.5l1 -2q1 -3 0 -5q0 -5 5 -38l10 -68q0 -4 4 -12.5t3 -13.5q-1 -16 3 -32.5t4 -23.5q-1 -4 1 -8q5 -15 7 -43t3 -34q2 -21 11 -79q1 -5 6 -26l7 -21q3 -14 23 -65q3 -22 -1 -22l-4 -1
q-3 -1 -4 0t-13.5 1h-27t-18.5 1q-12 2 -26 0q-4 0 -12 -2t-13 -2q-5 1 -5 5l-31 -1l4 2q-8 -3 -11.5 -2t-4 3.5t-0.5 10.5l4 19q1 2 2.5 11t2.5 11q7 28 6 30h1q-1 2 0.5 10t1.5 10q-1 6 -5 21.5t-3 26.5q0 7 -4 11l-4 4q-2 0 -11 1t-10 0q-5 -1 -22 -1t-24 -1q-8 -1 -19 0
t-18 1q-11 -1 -12 -10q-3 -27 -6 -51q-1 -4 1.5 -16t2.5 -15q14 -70 13 -74q-2 -6 -12 -3q-12 2 -31 0q-2 -3 -7 -3t-7 -2l-6 3q-37 -4 -71 0l-1 1q-2 0 -8 -2q-6 -1 -11 1q-10 2 -10 5q-1 2 1.5 9t6 17t4.5 13q10 27 14 52zM180 285q67 2 88 0q0 2 -2.5 5.5t-1.5 6.5
q0 24 -3 36q-1 6 -2 19.5t-3 20.5l-3 24q-2 28 -4 43q0 7 -1.5 20t-1.5 19q0 47 -11 96q-2 15 -8 19q1 -11 -5 -47t-6 -46q0 -11 -2 -13q-4 -7 -4.5 -19.5t-2.5 -17.5t-7 -45q-1 -6 -8 -37.5t-8 -49.5q0 -2 -2.5 -14t-1.5 -20z" />
    <glyph glyph-name="Acircumflex" unicode="&#xc2;" horiz-adv-x="457" 
d="M131 889q-5 2 -9.5 10.5t-4.5 9.5v19q0 2 -2.5 8.5t-0.5 11.5q1 0 3.5 2.5l3.5 3.5q36 20 51 35q7 7 23 16q3 2 12.5 8t16.5 9q7 2 10 -4q3 -3 18 -8q8 -10 42 -33q7 -4 36 -27q2 -5 -1 -17.5t0 -18.5q-2 -3 -0.5 -12t-3.5 -10q-21 3 -69 30q-14 8 -34 16
q-14 -6 -43.5 -24.5t-47.5 -24.5zM41 95l6 34q1 13 5 39q-30 -3 -31 10q-1 3 -2 5q-1 5 -5.5 19t-3.5 22q1 12 -7 33q-3 7 -3 24q2 3 9.5 3.5t16 0t10.5 -0.5q5 0 15 0.5t14 0.5q0 1 0.5 4t0.5 5l7 26l2 28q2 20 10 62q5 15 5 20q-1 8 3 22q3 18 2 22q0 3 0.5 6t1.5 7t1 6
q6 42 11 63q4 14 9.5 23.5t4.5 15.5q-4 20 3 46q2 5 4 27q1 5 4 18.5t4 21.5l2.5 10t2.5 11.5t1 10.5q-1 1 -1 3.5v8t-2 12.5q-19 69 -19 74q0 1 -0.5 5.5t-1 7.5t0.5 5q2 2 10.5 3.5t11.5 0.5q6 -3 21 -1q0 -2 3 -2t8.5 1t10.5 1q2 0 8.5 1.5t9.5 0.5q4 -1 14 -1t15 -2
q4 -1 7 0q5 2 19 0.5t19 -1.5q3 1 8 -1.5t6 -2.5q5 -2 5 -9q0 -8 5.5 -24.5l6.5 -19.5q4 -21 4 -47q0 -3 1.5 -7t1.5 -7l6 -51l19 -82q2 -8 4 -25t2 -18q2 -13 7 -36.5t7 -32.5l1 -2q1 -3 0 -5q0 -5 5 -38l10 -68q0 -4 4 -12.5t3 -13.5q-1 -16 3 -32.5t4 -23.5q-1 -4 1 -8
q5 -15 7 -43t3 -34q2 -21 11 -79q1 -5 6 -26l7 -21q3 -14 23 -65q3 -22 -1 -22l-4 -1q-3 -1 -4 0t-13.5 1h-27t-18.5 1q-12 2 -26 0q-4 0 -12 -2t-13 -2q-5 1 -5 5l-31 -1l4 2q-8 -3 -11.5 -2t-4 3.5t-0.5 10.5l4 19q1 2 2.5 11t2.5 11q7 28 6 30h1q-1 2 0.5 10t1.5 10
q-1 6 -5 21.5t-3 26.5q0 7 -4 11l-4 4q-2 0 -11 1t-10 0q-5 -1 -22 -1t-24 -1q-8 -1 -19 0t-18 1q-11 -1 -12 -10q-3 -27 -6 -51q-1 -4 1.5 -16t2.5 -15q14 -70 13 -74q-2 -6 -12 -3q-12 2 -31 0q-2 -3 -7 -3t-7 -2l-6 3q-37 -4 -71 0l-1 1q-2 0 -8 -2q-6 -1 -11 1
q-10 2 -10 5q-1 2 1.5 9t6 17t4.5 13q10 27 14 52zM180 285q67 2 88 0q0 2 -2.5 5.5t-1.5 6.5q0 24 -3 36q-1 6 -2 19.5t-3 20.5l-3 24q-2 28 -4 43q0 7 -1.5 20t-1.5 19q0 47 -11 96q-2 15 -8 19q1 -11 -5 -47t-6 -46q0 -11 -2 -13q-4 -7 -4.5 -19.5t-2.5 -17.5t-7 -45
q-1 -6 -8 -37.5t-8 -49.5q0 -2 -2.5 -14t-1.5 -20z" />
    <glyph glyph-name="Atilde" unicode="&#xc3;" horiz-adv-x="457" 
d="M202 1001l46 -27q11 -3 14.5 -1.5t6 5t3.5 3.5q10 3 18 13.5t14 13.5q6 -4 13 -6l27 -33q-3 -4 -10 -14t-10 -15q-3 -7 -11.5 -15t-11.5 -12q-4 -7 -22 -11q-7 -2 -17 -4l-33 10q-3 2 -8 6.5t-8.5 7t-9.5 5t-12 2.5q-9 -2 -15 -6.5t-12.5 -11.5t-10.5 -10q-30 20 -35 46
q5 6 15.5 20.5t16.5 20.5q2 1 11.5 6.5t17.5 6.5q2 1 13 1zM41 95l6 34q1 13 5 39q-30 -3 -31 10q-1 3 -2 5q-1 5 -5.5 19t-3.5 22q1 12 -7 33q-3 7 -3 24q2 3 9.5 3.5t16 0t10.5 -0.5q5 0 15 0.5t14 0.5q0 1 0.5 4t0.5 5l7 26l2 28q2 20 10 62q5 15 5 20q-1 8 3 22
q3 18 2 22q0 3 0.5 6t1.5 7t1 6q6 42 11 63q4 14 9.5 23.5t4.5 15.5q-4 20 3 46q2 5 4 27q1 5 4 18.5t4 21.5l2.5 10t2.5 11.5t1 10.5q-1 1 -1 3.5v8t-2 12.5q-19 69 -19 74q0 1 -0.5 5.5t-1 7.5t0.5 5q2 2 10.5 3.5t11.5 0.5q6 -3 21 -1q0 -2 3 -2t8.5 1t10.5 1
q2 0 8.5 1.5t9.5 0.5q4 -1 14 -1t15 -2q4 -1 7 0q5 2 19 0.5t19 -1.5q3 1 8 -1.5t6 -2.5q5 -2 5 -9q0 -8 5.5 -24.5l6.5 -19.5q4 -21 4 -47q0 -3 1.5 -7t1.5 -7l6 -51l19 -82q2 -8 4 -25t2 -18q2 -13 7 -36.5t7 -32.5l1 -2q1 -3 0 -5q0 -5 5 -38l10 -68q0 -4 4 -12.5
t3 -13.5q-1 -16 3 -32.5t4 -23.5q-1 -4 1 -8q5 -15 7 -43t3 -34q2 -21 11 -79q1 -5 6 -26l7 -21q3 -14 23 -65q3 -22 -1 -22l-4 -1q-3 -1 -4 0t-13.5 1h-27t-18.5 1q-12 2 -26 0q-4 0 -12 -2t-13 -2q-5 1 -5 5l-31 -1l4 2q-8 -3 -11.5 -2t-4 3.5t-0.5 10.5l4 19q1 2 2.5 11
t2.5 11q7 28 6 30h1q-1 2 0.5 10t1.5 10q-1 6 -5 21.5t-3 26.5q0 7 -4 11l-4 4q-2 0 -11 1t-10 0q-5 -1 -22 -1t-24 -1q-8 -1 -19 0t-18 1q-11 -1 -12 -10q-3 -27 -6 -51q-1 -4 1.5 -16t2.5 -15q14 -70 13 -74q-2 -6 -12 -3q-12 2 -31 0q-2 -3 -7 -3t-7 -2l-6 3
q-37 -4 -71 0l-1 1q-2 0 -8 -2q-6 -1 -11 1q-10 2 -10 5q-1 2 1.5 9t6 17t4.5 13q10 27 14 52zM180 285q67 2 88 0q0 2 -2.5 5.5t-1.5 6.5q0 24 -3 36q-1 6 -2 19.5t-3 20.5l-3 24q-2 28 -4 43q0 7 -1.5 20t-1.5 19q0 47 -11 96q-2 15 -8 19q1 -11 -5 -47t-6 -46
q0 -11 -2 -13q-4 -7 -4.5 -19.5t-2.5 -17.5t-7 -45q-1 -6 -8 -37.5t-8 -49.5q0 -2 -2.5 -14t-1.5 -20z" />
    <glyph glyph-name="Adieresis" unicode="&#xc4;" horiz-adv-x="457" 
d="M207 994q4 -6 4 -8q1 -14 1 -38.5v-38.5q-3 -2 -9.5 -5.5t-8.5 -4.5q-4 2 -25 0.5t-38 -0.5q-5 2 -7.5 6t-3.5 8t-1.5 9t-2.5 8v61q2 1 12.5 1t11.5 1q15 1 37 0t30 1zM336 930q-1 -2 2 -7t1 -9l-7 -9q-1 0 -10.5 -1t-14.5 -2q-3 0 -10.5 2t-10.5 -1q-3 -2 -11.5 -1
t-9.5 -3q-14 3 -21 10v78l5 4h7q18 -4 55 0q19 2 23 -1l2 -21q2 -10 0 -18q0 -3 1 -10.5t-1 -10.5zM41 95l6 34q1 13 5 39q-30 -3 -31 10q-1 3 -2 5q-1 5 -5.5 19t-3.5 22q1 12 -7 33q-3 7 -3 24q2 3 9.5 3.5t16 0t10.5 -0.5q5 0 15 0.5t14 0.5q0 1 0.5 4t0.5 5l7 26l2 28
q2 20 10 62q5 15 5 20q-1 8 3 22q3 18 2 22q0 3 0.5 6t1.5 7t1 6q6 42 11 63q4 14 9.5 23.5t4.5 15.5q-4 20 3 46q2 5 4 27q1 5 4 18.5t4 21.5l2.5 10t2.5 11.5t1 10.5q-1 1 -1 3.5v8t-2 12.5q-19 69 -19 74q0 1 -0.5 5.5t-1 7.5t0.5 5q2 2 10.5 3.5t11.5 0.5q6 -3 21 -1
q0 -2 3 -2t8.5 1t10.5 1q2 0 8.5 1.5t9.5 0.5q4 -1 14 -1t15 -2q4 -1 7 0q5 2 19 0.5t19 -1.5q3 1 8 -1.5t6 -2.5q5 -2 5 -9q0 -8 5.5 -24.5l6.5 -19.5q4 -21 4 -47q0 -3 1.5 -7t1.5 -7l6 -51l19 -82q2 -8 4 -25t2 -18q2 -13 7 -36.5t7 -32.5l1 -2q1 -3 0 -5q0 -5 5 -38
l10 -68q0 -4 4 -12.5t3 -13.5q-1 -16 3 -32.5t4 -23.5q-1 -4 1 -8q5 -15 7 -43t3 -34q2 -21 11 -79q1 -5 6 -26l7 -21q3 -14 23 -65q3 -22 -1 -22l-4 -1q-3 -1 -4 0t-13.5 1h-27t-18.5 1q-12 2 -26 0q-4 0 -12 -2t-13 -2q-5 1 -5 5l-31 -1l4 2q-8 -3 -11.5 -2t-4 3.5
t-0.5 10.5l4 19q1 2 2.5 11t2.5 11q7 28 6 30h1q-1 2 0.5 10t1.5 10q-1 6 -5 21.5t-3 26.5q0 7 -4 11l-4 4q-2 0 -11 1t-10 0q-5 -1 -22 -1t-24 -1q-8 -1 -19 0t-18 1q-11 -1 -12 -10q-3 -27 -6 -51q-1 -4 1.5 -16t2.5 -15q14 -70 13 -74q-2 -6 -12 -3q-12 2 -31 0
q-2 -3 -7 -3t-7 -2l-6 3q-37 -4 -71 0l-1 1q-2 0 -8 -2q-6 -1 -11 1q-10 2 -10 5q-1 2 1.5 9t6 17t4.5 13q10 27 14 52zM180 285q67 2 88 0q0 2 -2.5 5.5t-1.5 6.5q0 24 -3 36q-1 6 -2 19.5t-3 20.5l-3 24q-2 28 -4 43q0 7 -1.5 20t-1.5 19q0 47 -11 96q-2 15 -8 19
q1 -11 -5 -47t-6 -46q0 -11 -2 -13q-4 -7 -4.5 -19.5t-2.5 -17.5t-7 -45q-1 -6 -8 -37.5t-8 -49.5q0 -2 -2.5 -14t-1.5 -20z" />
    <glyph glyph-name="Aring" unicode="&#xc5;" horiz-adv-x="457" 
d="M201 1029q8 3 16 4t12 0.5t15 -2.5t13 -2q1 -1 13.5 -9.5t18.5 -15.5l8 -26v-30q-4 -22 -39 -52q-2 -1 -13.5 -2.5t-16.5 -5.5q-38 13 -41 14l-22 22q-6 15 -9 27v27q13 38 45 51zM214 939h20q2 2 7 4t8.5 4.5t5.5 6.5q3 10 0 21q-7 10 -16 14h-18l-15 -7
q-1 -2 -2.5 -5.5t-2.5 -7.5t-1 -8q2 -11 14 -22zM41 95l6 34q1 13 5 39q-30 -3 -31 10q-1 3 -2 5q-1 5 -5.5 19t-3.5 22q1 12 -7 33q-3 7 -3 24q2 3 9.5 3.5t16 0t10.5 -0.5q5 0 15 0.5t14 0.5q0 1 0.5 4t0.5 5l7 26l2 28q2 20 10 62q5 15 5 20q-1 8 3 22q3 18 2 22
q0 3 0.5 6t1.5 7t1 6q6 42 11 63q4 14 9.5 23.5t4.5 15.5q-4 20 3 46q2 5 4 27q1 5 4 18.5t4 21.5l2.5 10t2.5 11.5t1 10.5q-1 1 -1 3.5v8t-2 12.5q-19 69 -19 74q0 1 -0.5 5.5t-1 7.5t0.5 5q2 2 10.5 3.5t11.5 0.5q6 -3 21 -1q0 -2 3 -2t8.5 1t10.5 1q2 0 8.5 1.5t9.5 0.5
q4 -1 14 -1t15 -2q4 -1 7 0q5 2 19 0.5t19 -1.5q3 1 8 -1.5t6 -2.5q5 -2 5 -9q0 -8 5.5 -24.5l6.5 -19.5q4 -21 4 -47q0 -3 1.5 -7t1.5 -7l6 -51l19 -82q2 -8 4 -25t2 -18q2 -13 7 -36.5t7 -32.5l1 -2q1 -3 0 -5q0 -5 5 -38l10 -68q0 -4 4 -12.5t3 -13.5q-1 -16 3 -32.5
t4 -23.5q-1 -4 1 -8q5 -15 7 -43t3 -34q2 -21 11 -79q1 -5 6 -26l7 -21q3 -14 23 -65q3 -22 -1 -22l-4 -1q-3 -1 -4 0t-13.5 1h-27t-18.5 1q-12 2 -26 0q-4 0 -12 -2t-13 -2q-5 1 -5 5l-31 -1l4 2q-8 -3 -11.5 -2t-4 3.5t-0.5 10.5l4 19q1 2 2.5 11t2.5 11q7 28 6 30h1
q-1 2 0.5 10t1.5 10q-1 6 -5 21.5t-3 26.5q0 7 -4 11l-4 4q-2 0 -11 1t-10 0q-5 -1 -22 -1t-24 -1q-8 -1 -19 0t-18 1q-11 -1 -12 -10q-3 -27 -6 -51q-1 -4 1.5 -16t2.5 -15q14 -70 13 -74q-2 -6 -12 -3q-12 2 -31 0q-2 -3 -7 -3t-7 -2l-6 3q-37 -4 -71 0l-1 1q-2 0 -8 -2
q-6 -1 -11 1q-10 2 -10 5q-1 2 1.5 9t6 17t4.5 13q10 27 14 52zM180 285q67 2 88 0q0 2 -2.5 5.5t-1.5 6.5q0 24 -3 36q-1 6 -2 19.5t-3 20.5l-3 24q-2 28 -4 43q0 7 -1.5 20t-1.5 19q0 47 -11 96q-2 15 -8 19q1 -11 -5 -47t-6 -46q0 -11 -2 -13q-4 -7 -4.5 -19.5
t-2.5 -17.5t-7 -45q-1 -6 -8 -37.5t-8 -49.5q0 -2 -2.5 -14t-1.5 -20z" />
    <glyph glyph-name="AE" unicode="&#xc6;" horiz-adv-x="531" 
d="M70 295l3 1q2 6 2 12q0 4 2.5 11.5t2.5 10.5q0 4 0.5 11t0.5 10q4 36 8 53q3 9 5.5 27.5t4.5 27.5q3 19 4 21q2 3 2.5 10.5t2.5 11.5q3 2 1 9t-2 10q9 61 9 64q2 14 7 38.5t6 32.5q0 1 1.5 5t1.5 6q0 9 3.5 33.5t2.5 36.5q-1 10 -2 18t-1 17q0 2 -2.5 19t-2.5 19
q-2 20 -6 40q6 5 48 5h81q33 0 44 6l14 -5q1 0 6 2t7 2h39t39 -2q3 0 10 2t11 1h47q11 -3 20 -10q2 -12 1 -60t5 -60l-6 -17q-6 -2 -7 -2q-11 0 -36 14t-35 14q-30 0 -49 -6q-2 -7 -1.5 -27t-4.5 -27q5 -12 5 -22v-113q0 -4 1.5 -16.5t0.5 -19.5q0 -1 5 -16h27q8 0 34 11
t34 9q1 -1 1 -17l4 -121q0 -14 -7 -19q-6 -2 -30.5 8t-31.5 6q-8 0 -12.5 -0.5t-11.5 -0.5q-12 -8 -7 -21q1 -5 1 -15t2 -14q1 -4 0.5 -6t-2 -5.5t-1.5 -5.5q4 -14 4 -24q0 -16 0.5 -49t0.5 -50q0 -13 4 -18l-4 -17q0 -2 2 -8t-1 -8q3 -2 6 -2.5t6 0t7 -0.5h32q9 1 37 14
t43 8q2 -8 1.5 -31.5t-2.5 -32.5q-5 -37 2 -69l-8 -7h-34q-5 0 -18 0.5t-22 -0.5t-18 -5q-6 -2 -11 0q-20 4 -29 3q-5 -1 -14 -1.5t-14 -1.5h-34q-58 0 -70 -6q-8 5 -15 15q0 7 6 20.5t7 15.5q1 1 3.5 7t4.5 10.5t2 7.5t4 18.5t5 18.5q1 5 1 15q1 4 1 10v9q2 8 0 26
q-8 2 -11 2q-36 0 -54 -1q-3 0 -9.5 -3t-10.5 -2q-9 -16 -8 -25q0 -11 -4 -16.5t-5 -14.5q-2 -9 1 -30.5t3 -26.5q0 -2 6.5 -22t4.5 -25q-8 -4 -17.5 -3.5t-26 2.5t-18.5 2q-5 1 -15 -1.5t-12 -2.5h-15.5t-15.5 -1h-49q-4 7 5.5 26.5t9.5 21.5q2 9 7 21t7 21q1 4 5 24t5 31
q0 2 2 7.5t3 8.5l2 15q-18 0 -18 11q-1 3 -2 5q-1 5 -5.5 19t-3.5 22q1 12 -7 33q-3 7 -3 24q2 3 9.5 3.5t16 0t10.5 -0.5q5 0 15 0.5t14 0.5zM249 301v11q0 38 0.5 115t0.5 116q0 8 -1 12q-1 9 0 30.5t1 27.5q0 4 -6 1q-2 -1 -3 -3q0 -6 -1.5 -14t-2 -10.5t0.5 -8.5
q-3 -12 -7.5 -38t-8.5 -39q1 -13 -5.5 -36.5t-6.5 -34.5q-2 -4 -5 -30q0 -6 -3 -16t-3 -14q-1 -21 -7 -61l-3 -6l14 -7q4 1 11 1.5t11 1.5q7 2 24 2z" />
    <glyph glyph-name="Ccedilla" unicode="&#xc7;" horiz-adv-x="397" 
d="M204 -111v21q-8 11 -18 19q-7 1 -17.5 -2t-17.5 -1q-3 0 -7 7v32q16 11 25 25q-12 -1 -39 6q-5 1 -17 8q-36 24 -54 35q-22 42 -24 51q-3 24 -3 25q0 56 1 84q0 13 2 37q1 6 1 34v61q-2 7 -2 8q6 14 3 33q-1 6 0.5 15.5t0.5 14.5v42q0 6 1 18.5t0 19.5q-1 4 -1 36
q0 35 -1 42q-5 35 -4.5 90t-0.5 89q-2 16 -4 24q1 5 6 13.5t4 13.5t3 11q31 46 63 56q36 12 55 11q7 0 19.5 3t18.5 2q5 -1 20 -1t22 -2q20 -6 24 -6q12 -6 21 -13t13 -11t7 -4q9 7 19 18q3 4 9 6.5t7 3.5q22 15 23 -2l2 -79q3 -43 -6 -121q-12 -6 -36 -16q-4 -2 -14.5 -8.5
t-17.5 -8.5l-16 -8t-23 -5q-6 7 -6 20q-1 5 0 13.5t1 11.5q0 4 -0.5 11.5t-1 13.5t-1.5 11q-1 6 -1 52l-10 15q-30 9 -49 6q-2 -1 -7 -4t-8 -5q-8 -5 -12 -14q-1 -8 -1 -34t-4 -40q0 -2 2 -8.5t2 -9.5q0 -5 1 -55t-3 -55q3 -5 0.5 -20.5t-2.5 -20.5q0 -8 -0.5 -23t-0.5 -22
v-42q0 -127 1 -191q0 -28 -6 -54q1 -2 2.5 -8t2.5 -8q-4 -12 -5 -14q0 -2 4 -10.5t2 -13.5q13 -10 14 -11q28 -14 45 -7q4 1 12.5 2t9.5 1l7 5q1 1 3 4l1 2q-4 40 1 65q5 21 -1 55q4 4 13 4q33 -2 56 3q8 2 16 0l34 -6l5 -10q-3 -16 -3 -81q0 -4 1 -5q3 -44 -18 -87
q-3 -8 -19 -24l-28 -25q-10 -3 -30.5 -6t-26.5 -4q-18 -2 -25 -2l-10 -10t-8 -9q31 -6 40.5 -12.5t19.5 -30.5v-53q-1 -2 -4.5 -9.5t-5.5 -12.5q-9 -22 -32 -25q-5 0 -15 -4.5t-17 -3.5q-18 1 -46 18q-4 6 -1 13l3 8l-3 11q1 5 17 12q3 -2 12 -4t12 -5q18 5 24 15z" />
    <glyph glyph-name="Egrave" unicode="&#xc8;" horiz-adv-x="341" 
d="M296 861q7 -5 9 -10v-17q-1 -11 0 -60.5t-1 -61.5q-10 -3 -28.5 10.5t-26.5 13.5q-3 0 -8.5 4t-8.5 3q-3 0 -11 -4q-17 6 -41 3q-4 -3 -4 -16q3 -24 1 -43v-3q5 -11 3.5 -69.5t-0.5 -70.5v-9.5t0.5 -12t2.5 -9.5q37 0 42 1l45 11q2 0 5 2.5t5.5 4.5t3.5 0q4 -4 2 -22
t0 -21t-0.5 -10.5t0.5 -11.5q-2 -1 -0.5 -10.5t1.5 -10.5v-22l-2 -54q0 -1 -15.5 4.5t-31 12t-17.5 6.5h-28q-3 0 -9 -2q-3 -13 -3.5 -41t-3.5 -43q5 -14 5 -40v-43q-1 -44 0 -44q0 -19 3 -25q0 -1 3 -23q8 1 22 -1q7 0 19 -2q77 23 83 25q3 -2 4 -18.5t2 -18.5
q-2 -22 -2 -67q0 -22 -1 -33q-1 -2 -4 -9q-7 -4 -26 -4q-41 3 -78 -4q-21 -4 -33 4q-4 0 -12.5 -2t-12.5 -2q-3 0 -11 2t-11 2t-11 -2q-2 2 -16.5 2h-16.5h-16t-25.5 1t-14.5 5v15q1 10 8 27.5t8 20.5l8 28q1 4 4.5 10.5t4.5 8.5q1 4 -1 11t0 11q4 1 1.5 13.5t-2.5 13.5
q0 73 -2 219q-3 5 -12 5t-13 4q-1 5 -4 23t-4 29q-1 10 -5 29t-5 22q3 7 13 15q3 1 13 1t15 2q9 67 -2 113q6 17 6 61v28v21q-7 17 -7 22t-5 14t-5 14q-1 12 -7 33q0 2 -4.5 12.5t-5 14.5t0.5 13q6 3 8 2q5 -1 37.5 -1t42.5 -4q8 -2 13 1q4 2 13.5 0.5t13.5 1.5q11 -4 62 -3
t62 0q3 -1 19 4zM239 906q-8 -9 -19 -6q-13 2 -16 2q-2 0 -8.5 0.5t-9.5 -0.5q-1 0 -11 -1.5t-14 -0.5q-4 6 -21.5 26t-24.5 32q-5 10 -13 14q-14 13 -22 32q0 10 10 14h12q12 -1 19 -3q5 -1 17 -1h44q12 -6 16 -20q6 -22 30 -60q13 -19 11 -28z" />
    <glyph glyph-name="Eacute" unicode="&#xc9;" horiz-adv-x="341" 
d="M216 1008q3 1 19 2.5t18 1.5q1 -1 6.5 -2.5t7.5 -3t3 -5.5q-11 -18 -39 -51.5t-39 -49.5q-38 3 -47 -1q-3 -1 -11 0.5t-11 -0.5q-7 6 -3 14q8 14 21.5 45.5t22.5 46.5q12 4 18 7q6 -1 10.5 -0.5t11.5 0t12 -3.5zM296 861q7 -5 9 -10v-17q-1 -11 0 -60.5t-1 -61.5
q-10 -3 -28.5 10.5t-26.5 13.5q-3 0 -8.5 4t-8.5 3q-3 0 -11 -4q-17 6 -41 3q-4 -3 -4 -16q3 -24 1 -43v-3q5 -11 3.5 -69.5t-0.5 -70.5v-9.5t0.5 -12t2.5 -9.5q37 0 42 1l45 11q2 0 5 2.5t5.5 4.5t3.5 0q4 -4 2 -22t0 -21t-0.5 -10.5t0.5 -11.5q-2 -1 -0.5 -10.5t1.5 -10.5
v-22l-2 -54q0 -1 -15.5 4.5t-31 12t-17.5 6.5h-28q-3 0 -9 -2q-3 -13 -3.5 -41t-3.5 -43q5 -14 5 -40v-43q-1 -44 0 -44q0 -19 3 -25q0 -1 3 -23q8 1 22 -1q7 0 19 -2q77 23 83 25q3 -2 4 -18.5t2 -18.5q-2 -22 -2 -67q0 -22 -1 -33q-1 -2 -4 -9q-7 -4 -26 -4q-41 3 -78 -4
q-21 -4 -33 4q-4 0 -12.5 -2t-12.5 -2q-3 0 -11 2t-11 2t-11 -2q-2 2 -16.5 2h-16.5h-16t-25.5 1t-14.5 5v15q1 10 8 27.5t8 20.5l8 28q1 4 4.5 10.5t4.5 8.5q1 4 -1 11t0 11q4 1 1.5 13.5t-2.5 13.5q0 73 -2 219q-3 5 -12 5t-13 4q-1 5 -4 23t-4 29q-1 10 -5 29t-5 22
q3 7 13 15q3 1 13 1t15 2q9 67 -2 113q6 17 6 61v28v21q-7 17 -7 22t-5 14t-5 14q-1 12 -7 33q0 2 -4.5 12.5t-5 14.5t0.5 13q6 3 8 2q5 -1 37.5 -1t42.5 -4q8 -2 13 1q4 2 13.5 0.5t13.5 1.5q11 -4 62 -3t62 0q3 -1 19 4z" />
    <glyph glyph-name="Ecircumflex" unicode="&#xca;" horiz-adv-x="341" 
d="M85 889q-5 2 -9.5 10.5t-4.5 9.5v19q0 2 -2.5 8.5t-0.5 11.5q1 0 3 2.5t4 3.5q36 20 51 35q7 7 23 16q3 2 12.5 8t16.5 9q7 2 10 -4q3 -3 18 -8q8 -10 42 -33q7 -4 36 -27q2 -5 -1 -17.5t0 -18.5q-2 -3 -0.5 -12t-3.5 -10q-21 3 -69 30q-14 8 -34 16q-14 -6 -43.5 -24.5
t-47.5 -24.5zM296 861q7 -5 9 -10v-17q-1 -11 0 -60.5t-1 -61.5q-10 -3 -28.5 10.5t-26.5 13.5q-3 0 -8.5 4t-8.5 3q-3 0 -11 -4q-17 6 -41 3q-4 -3 -4 -16q3 -24 1 -43v-3q5 -11 3.5 -69.5t-0.5 -70.5v-9.5t0.5 -12t2.5 -9.5q37 0 42 1l45 11q2 0 5 2.5t5.5 4.5t3.5 0
q4 -4 2 -22t0 -21t-0.5 -10.5t0.5 -11.5q-2 -1 -0.5 -10.5t1.5 -10.5v-22l-2 -54q0 -1 -15.5 4.5t-31 12t-17.5 6.5h-28q-3 0 -9 -2q-3 -13 -3.5 -41t-3.5 -43q5 -14 5 -40v-43q-1 -44 0 -44q0 -19 3 -25q0 -1 3 -23q8 1 22 -1q7 0 19 -2q77 23 83 25q3 -2 4 -18.5t2 -18.5
q-2 -22 -2 -67q0 -22 -1 -33q-1 -2 -4 -9q-7 -4 -26 -4q-41 3 -78 -4q-21 -4 -33 4q-4 0 -12.5 -2t-12.5 -2q-3 0 -11 2t-11 2t-11 -2q-2 2 -16.5 2h-16.5h-16t-25.5 1t-14.5 5v15q1 10 8 27.5t8 20.5l8 28q1 4 4.5 10.5t4.5 8.5q1 4 -1 11t0 11q4 1 1.5 13.5t-2.5 13.5
q0 73 -2 219q-3 5 -12 5t-13 4q-1 5 -4 23t-4 29q-1 10 -5 29t-5 22q3 7 13 15q3 1 13 1t15 2q9 67 -2 113q6 17 6 61v28v21q-7 17 -7 22t-5 14t-5 14q-1 12 -7 33q0 2 -4.5 12.5t-5 14.5t0.5 13q6 3 8 2q5 -1 37.5 -1t42.5 -4q8 -2 13 1q4 2 13.5 0.5t13.5 1.5q11 -4 62 -3
t62 0q3 -1 19 4z" />
    <glyph glyph-name="Edieresis" unicode="&#xcb;" horiz-adv-x="341" 
d="M157 994q4 -6 4 -8q1 -14 1 -38.5v-38.5q-3 -2 -9.5 -5.5t-8.5 -4.5q-4 2 -25 0.5t-38 -0.5q-5 2 -7.5 6t-3.5 8t-1.5 9t-2.5 8v61q2 1 12 1t12 1q15 1 37 0t30 1zM286 930q-1 -2 2 -7t1 -9l-7 -9q-1 0 -10.5 -1t-14.5 -2q-3 0 -10.5 2t-10.5 -1q-3 -2 -11.5 -1t-9.5 -3
q-14 3 -21 10v78l5 4h7q18 -4 55 0q19 2 23 -1l2 -21q2 -10 0 -18q0 -3 1 -10.5t-1 -10.5zM296 861q7 -5 9 -10v-17q-1 -11 0 -60.5t-1 -61.5q-10 -3 -28.5 10.5t-26.5 13.5q-3 0 -8.5 4t-8.5 3q-3 0 -11 -4q-17 6 -41 3q-4 -3 -4 -16q3 -24 1 -43v-3q5 -11 3.5 -69.5
t-0.5 -70.5v-9.5t0.5 -12t2.5 -9.5q37 0 42 1l45 11q2 0 5 2.5t5.5 4.5t3.5 0q4 -4 2 -22t0 -21t-0.5 -10.5t0.5 -11.5q-2 -1 -0.5 -10.5t1.5 -10.5v-22l-2 -54q0 -1 -15.5 4.5t-31 12t-17.5 6.5h-28q-3 0 -9 -2q-3 -13 -3.5 -41t-3.5 -43q5 -14 5 -40v-43q-1 -44 0 -44
q0 -19 3 -25q0 -1 3 -23q8 1 22 -1q7 0 19 -2q77 23 83 25q3 -2 4 -18.5t2 -18.5q-2 -22 -2 -67q0 -22 -1 -33q-1 -2 -4 -9q-7 -4 -26 -4q-41 3 -78 -4q-21 -4 -33 4q-4 0 -12.5 -2t-12.5 -2q-3 0 -11 2t-11 2t-11 -2q-2 2 -16.5 2h-16.5h-16t-25.5 1t-14.5 5v15
q1 10 8 27.5t8 20.5l8 28q1 4 4.5 10.5t4.5 8.5q1 4 -1 11t0 11q4 1 1.5 13.5t-2.5 13.5q0 73 -2 219q-3 5 -12 5t-13 4q-1 5 -4 23t-4 29q-1 10 -5 29t-5 22q3 7 13 15q3 1 13 1t15 2q9 67 -2 113q6 17 6 61v28v21q-7 17 -7 22t-5 14t-5 14q-1 12 -7 33q0 2 -4.5 12.5
t-5 14.5t0.5 13q6 3 8 2q5 -1 37.5 -1t42.5 -4q8 -2 13 1q4 2 13.5 0.5t13.5 1.5q11 -4 62 -3t62 0q3 -1 19 4z" />
    <glyph glyph-name="Igrave" unicode="&#xcc;" horiz-adv-x="281" 
d="M229 122q3 -1 8 1.5t9 5t5 0.5q1 -1 3.5 -18.5t2.5 -19.5q0 -13 5.5 -36t5.5 -36q0 -2 -0.5 -5.5t-0.5 -5.5q-2 -4 -19 -3t-18 1q-5 -1 -16 -1t-18 -2q-19 -4 -29 -2q-7 2 -30 2l-30 -3h-67q-12 5 -15 13q-2 13 0.5 44.5t-0.5 46.5q2 4 1 9t-1 9.5t3 4.5q6 1 24.5 -8
t23.5 -9q6 8 6 11q-2 10 3 53q0 27 -1 30q0 2 2 19q1 3 -0.5 8.5t-1.5 7.5q0 4 0.5 15t-0.5 15q-1 5 -1 28q0 5 -0.5 15.5t-0.5 15.5q1 6 1 17t1 20t4 17q-10 22 0 41q-4 6 -2 25t1 24q-4 32 1 52q-3 7 -4 16t-0.5 17t-0.5 17v50q0 9 0.5 27t0.5 27q0 17 -2 49q-5 8 -13 4
l-31 -13q-7 21 -7 38q0 4 -4 12t-4 12q0 11 -5 35.5t-5 35.5q10 12 31 8q6 -1 26.5 -1h25.5q11 -1 32 1q14 2 17 1q6 -3 12.5 -3.5t15.5 0.5t13 1q7 0 64 6q3 -2 4 -8.5t5 -7.5q-3 -17 -2 -63t-1 -62q-5 -9 -23.5 2.5t-25.5 6.5q-1 -8 -1 -54q-2 -21 0 -42q0 -7 -2.5 -19.5
t-1.5 -19.5q2 -26 4 -39q0 -5 -1.5 -16t-0.5 -17t1.5 -16.5t0.5 -13.5q0 -5 -2 -17t0 -19q-4 -3 -3 -36t1 -37q3 -7 2.5 -18.5t0.5 -19.5q1 -4 -2 -21q-4 -26 1 -42q1 -3 1 -16q1 -41 1 -124q0 -25 2 -30q7 -2 11 3t10 4zM203 906q-8 -9 -19 -6q-12 2 -16 2q-2 0 -8.5 0.5
t-9.5 -0.5q-1 0 -11 -1.5t-14 -0.5q-4 6 -21.5 26t-24.5 32q-5 10 -13 14q-14 13 -22 32q0 10 10 14h12q12 -1 19 -3q5 -1 17 -1h44q12 -6 16 -20q6 -22 30 -60q13 -19 11 -28z" />
    <glyph glyph-name="Iacute" unicode="&#xcd;" horiz-adv-x="281" 
d="M183 1008q3 1 19 2.5t18 1.5q1 -1 6.5 -2.5t7.5 -3t3 -5.5q-11 -18 -39 -51.5t-39 -49.5q-38 3 -47 -1q-3 -1 -11 0.5t-11 -0.5q-7 6 -3 14q8 14 21.5 45.5t22.5 46.5q12 4 18 7q6 -1 10.5 -0.5t11.5 0t12 -3.5zM229 122q3 -1 8 1.5t9 5t5 0.5q1 -1 3.5 -18.5t2.5 -19.5
q0 -13 5.5 -36t5.5 -36q0 -2 -0.5 -5.5t-0.5 -5.5q-2 -4 -19 -3t-18 1q-5 -1 -16 -1t-18 -2q-19 -4 -29 -2q-7 2 -30 2l-30 -3h-67q-12 5 -15 13q-2 13 0.5 44.5t-0.5 46.5q2 4 1 9t-1 9.5t3 4.5q6 1 24.5 -8t23.5 -9q6 8 6 11q-2 10 3 53q0 27 -1 30q0 2 2 19q1 3 -0.5 8.5
t-1.5 7.5q0 4 0.5 15t-0.5 15q-1 5 -1 28q0 5 -0.5 15.5t-0.5 15.5q1 6 1 17t1 20t4 17q-10 22 0 41q-4 6 -2 25t1 24q-4 32 1 52q-3 7 -4 16t-0.5 17t-0.5 17v50q0 9 0.5 27t0.5 27q0 17 -2 49q-5 8 -13 4l-31 -13q-7 21 -7 38q0 4 -4 12t-4 12q0 11 -5 35.5t-5 35.5
q10 12 31 8q6 -1 26.5 -1h25.5q11 -1 32 1q14 2 17 1q6 -3 12.5 -3.5t15.5 0.5t13 1q7 0 64 6q3 -2 4 -8.5t5 -7.5q-3 -17 -2 -63t-1 -62q-5 -9 -23.5 2.5t-25.5 6.5q-1 -8 -1 -54q-2 -21 0 -42q0 -7 -2.5 -19.5t-1.5 -19.5q2 -26 4 -39q0 -5 -1.5 -16t-0.5 -17t1.5 -16.5
t0.5 -13.5q0 -5 -2 -17t0 -19q-4 -3 -3 -36t1 -37q3 -7 2.5 -18.5t0.5 -19.5q1 -4 -2 -21q-4 -26 1 -42q1 -3 1 -16q1 -41 1 -124q0 -25 2 -30q7 -2 11 3t10 4z" />
    <glyph glyph-name="Icircumflex" unicode="&#xce;" horiz-adv-x="281" 
d="M49 889q-5 2 -9.5 10.5t-4.5 9.5v19q0 2 -2.5 8.5t-0.5 11.5q1 0 3 2.5t4 3.5q36 20 51 35q7 7 23 16q3 2 12.5 8t16.5 9q7 2 10 -4q3 -3 18 -8q8 -10 42 -33q7 -4 36 -27q2 -5 -1 -17.5t0 -18.5q-2 -3 -0.5 -12t-3.5 -10q-21 3 -69 30q-14 8 -34 16q-14 -6 -43.5 -24.5
t-47.5 -24.5zM229 122q3 -1 8 1.5t9 5t5 0.5q1 -1 3.5 -18.5t2.5 -19.5q0 -13 5.5 -36t5.5 -36q0 -2 -0.5 -5.5t-0.5 -5.5q-2 -4 -19 -3t-18 1q-5 -1 -16 -1t-18 -2q-19 -4 -29 -2q-7 2 -30 2l-30 -3h-67q-12 5 -15 13q-2 13 0.5 44.5t-0.5 46.5q2 4 1 9t-1 9.5t3 4.5
q6 1 24.5 -8t23.5 -9q6 8 6 11q-2 10 3 53q0 27 -1 30q0 2 2 19q1 3 -0.5 8.5t-1.5 7.5q0 4 0.5 15t-0.5 15q-1 5 -1 28q0 5 -0.5 15.5t-0.5 15.5q1 6 1 17t1 20t4 17q-10 22 0 41q-4 6 -2 25t1 24q-4 32 1 52q-3 7 -4 16t-0.5 17t-0.5 17v50q0 9 0.5 27t0.5 27q0 17 -2 49
q-5 8 -13 4l-31 -13q-7 21 -7 38q0 4 -4 12t-4 12q0 11 -5 35.5t-5 35.5q10 12 31 8q6 -1 26.5 -1h25.5q11 -1 32 1q14 2 17 1q6 -3 12.5 -3.5t15.5 0.5t13 1q7 0 64 6q3 -2 4 -8.5t5 -7.5q-3 -17 -2 -63t-1 -62q-5 -9 -23.5 2.5t-25.5 6.5q-1 -8 -1 -54q-2 -21 0 -42
q0 -7 -2.5 -19.5t-1.5 -19.5q2 -26 4 -39q0 -5 -1.5 -16t-0.5 -17t1.5 -16.5t0.5 -13.5q0 -5 -2 -17t0 -19q-4 -3 -3 -36t1 -37q3 -7 2.5 -18.5t0.5 -19.5q1 -4 -2 -21q-4 -26 1 -42q1 -3 1 -16q1 -41 1 -124q0 -25 2 -30q7 -2 11 3t10 4z" />
    <glyph glyph-name="Idieresis" unicode="&#xcf;" horiz-adv-x="281" 
d="M122 994q4 -6 4 -8q1 -14 1 -38.5v-38.5q-3 -2 -9.5 -5.5t-8.5 -4.5q-4 2 -25 0.5t-38 -0.5q-5 2 -7.5 6t-3.5 8t-1.5 9t-2.5 8v61q1 1 11.5 1t12.5 1q15 1 37 0t30 1zM251 930q-1 -2 2 -7t1 -9l-7 -9q-1 0 -10.5 -1t-14.5 -2q-3 0 -10.5 2t-10.5 -1q-3 -2 -11.5 -1
t-9.5 -3q-14 3 -21 10v78l5 4h7q18 -4 55 0q19 2 23 -1l2 -21q2 -10 0 -18q0 -3 1 -10.5t-1 -10.5zM229 122q3 -1 8 1.5t9 5t5 0.5q1 -1 3.5 -18.5t2.5 -19.5q0 -13 5.5 -36t5.5 -36q0 -2 -0.5 -5.5t-0.5 -5.5q-2 -4 -19 -3t-18 1q-5 -1 -16 -1t-18 -2q-19 -4 -29 -2
q-7 2 -30 2l-30 -3h-67q-12 5 -15 13q-2 13 0.5 44.5t-0.5 46.5q2 4 1 9t-1 9.5t3 4.5q6 1 24.5 -8t23.5 -9q6 8 6 11q-2 10 3 53q0 27 -1 30q0 2 2 19q1 3 -0.5 8.5t-1.5 7.5q0 4 0.5 15t-0.5 15q-1 5 -1 28q0 5 -0.5 15.5t-0.5 15.5q1 6 1 17t1 20t4 17q-10 22 0 41
q-4 6 -2 25t1 24q-4 32 1 52q-3 7 -4 16t-0.5 17t-0.5 17v50q0 9 0.5 27t0.5 27q0 17 -2 49q-5 8 -13 4l-31 -13q-7 21 -7 38q0 4 -4 12t-4 12q0 11 -5 35.5t-5 35.5q10 12 31 8q6 -1 26.5 -1h25.5q11 -1 32 1q14 2 17 1q6 -3 12.5 -3.5t15.5 0.5t13 1q7 0 64 6q3 -2 4 -8.5
t5 -7.5q-3 -17 -2 -63t-1 -62q-5 -9 -23.5 2.5t-25.5 6.5q-1 -8 -1 -54q-2 -21 0 -42q0 -7 -2.5 -19.5t-1.5 -19.5q2 -26 4 -39q0 -5 -1.5 -16t-0.5 -17t1.5 -16.5t0.5 -13.5q0 -5 -2 -17t0 -19q-4 -3 -3 -36t1 -37q3 -7 2.5 -18.5t0.5 -19.5q1 -4 -2 -21q-4 -26 1 -42
q1 -3 1 -16q1 -41 1 -124q0 -25 2 -30q7 -2 11 3t10 4z" />
    <glyph glyph-name="Eth" unicode="&#xd0;" horiz-adv-x="431" 
d="M65 365h-30q-9 6 -9 18q0 41 -1 62q0 4 -2 14q2 4 9 11q5 2 15.5 2t15.5 3q3 4 3 16q-1 51 -1 152q0 22 -4 30q-1 2 -1 17q0 7 1.5 23.5t1.5 24.5q0 10 -5.5 20.5t-5.5 20.5q0 9 -11.5 35t-11.5 34q0 5 2 9q4 4 28 6t30 1q23 0 63.5 -1.5t63.5 -1.5q12 0 33 1.5t33 1.5
q6 1 18 -1.5t14 -2.5q33 -9 60 -46q17 -23 18 -49q5 -95 -1 -119q0 -21 1.5 -46.5t1.5 -46.5q0 -47 1 -49q2 -6 1 -8q-5 -4 -2.5 -20.5t2.5 -19.5t-1.5 -13t-0.5 -15q2 -9 2 -27v-23q0 -20 -1 -22q-3 -4 -2 -10.5t0 -10.5q-4 -8 -1 -14q3 -5 2.5 -13t0.5 -13q4 -18 -2 -27
q3 -10 4 -21t0 -27.5t-1 -21.5q1 -23 1 -70v-39l-11 -17q-19 -27 -28 -31q-3 -2 -7.5 -6.5l-6.5 -6.5q-12 -12 -24 -15l-22 -11q-1 0 -3.5 1t-4.5 0q-4 -3 -19 -3q-63 0 -78 4q-3 1 -19 1q-6 -1 -11 -0.5t-11.5 0t-10.5 -2.5q-4 2 -10 2.5t-10.5 0t-10.5 0.5h-62
q-12 5 -16 13q0 2 5 14.5t5 14.5q2 7 8 19.5t7 21.5q1 6 4.5 15t3.5 17q1 121 0 245zM274 159q0 17 4 32v39q0 30 -3 45q-6 31 3 52q-4 7 -4 27v28v8v8v7.5v7.5q0 4 1.5 13.5t-0.5 13.5q-1 3 -1 31q0 5 -0.5 14.5t-0.5 13.5q-1 8 0 39t-3 39q3 10 2.5 26.5t0.5 26.5t-5 30
l5 15q-4 6 -4.5 25.5t-1.5 23.5q-18 22 -38 29q-5 0 -13.5 0.5t-15.5 0.5t-13 -1q-5 -5 -5 -15v-18.5v-24.5v-19q0 -11 -1 -17q-3 -19 -3 -20q-1 -4 0.5 -12.5t-0.5 -12.5v-22q0 -4 1 -5q3 -2 1 -10t-2 -9q0 -4 2.5 -11t1.5 -11q0 -2 -2 -8q-3 -8 -1 -11q3 -6 3.5 -13.5
t0 -13.5t0.5 -14q0 -10 4 -13h29q1 -1 8.5 -4.5t9.5 -8.5v-26q0 -15 4 -24q-3 -3 -1 -13.5t2 -13.5t-2 -5q-5 -8 -16 -12h-25q-9 0 -12 -5q-2 -30 4 -44q0 -85 -1 -95q-3 -42 -3 -83q0 -22 2 -26h32l35 12q17 25 21 34z" />
    <glyph glyph-name="Ntilde" unicode="&#xd1;" horiz-adv-x="489" 
d="M224 1001l46 -27q11 -3 14.5 -1.5t6 5t3.5 3.5q10 3 18 13.5t14 13.5q6 -4 13 -6l27 -33q-3 -4 -10 -14t-10 -15q-3 -7 -11.5 -15t-11.5 -12q-4 -7 -22 -11q-7 -2 -17 -4l-33 10q-3 2 -8 6.5t-8.5 7t-9.5 5t-12 2.5q-9 -2 -15 -6.5t-12.5 -11.5t-10.5 -10q-30 20 -35 46
q5 6 15.5 20.5t16.5 20.5q2 1 11.5 6.5t17.5 6.5h23zM284 861q30 -4 176 -4q7 -5 5 -11l-11 -52l-10 -25l-9 -32v-84v-46q0 -4 -1 -18.5t0 -22.5q1 -14 1 -42q0 -5 -0.5 -13.5t-0.5 -15t1 -12.5q1 -4 1.5 -15.5t2.5 -17.5q2 -5 2 -15.5v-12.5q3 -40 2 -49l-3 -60
q0 -10 1 -14q2 -27 2 -32q-1 -16 1.5 -45.5t2.5 -42.5v-58q-1 -7 -1 -14v-13q-1 -7 -1 -41v-21q0 -2 -2.5 -9t-1.5 -11q1 -1 1 -5q-4 -1 -10.5 -5t-10 -4.5t-12.5 1.5q-9 -3 -39 4q-4 1 -14 0t-12 -1h-17q-8 4 -13 20q-20 78 -23 93q-1 4 -4.5 10.5t-4.5 9.5q-6 34 -17 61
q-13 30 -16 41q-3 7 -5 14.5t-4 17t-3 14.5q-21 70 -28 91q-10 38 -13 59l-8 9q2 1 0 4t2 4l-8 9q2 2 1 4.5t0 4.5l-6 7q1 9 -12 32q-5 -7 -2 -22q2 -16 2 -93q2 -26 4 -41q3 -30 1 -68q-1 -2 0 -7t1 -6q-1 -33 3 -101q0 -12 -4 -16q2 -5 5 -30l7 -28l25 -69q-1 -3 0 -8.5
t1 -7.5q0 -1 -2 -1.5t-3 -2.5q-2 -4 -24 -5.5t-26 1.5q-1 3 -11 2.5t-11 -0.5q-11 -8 -43 -2q-44 7 -63 -3q-4 0 -10 8q1 12 11 36t11 35q1 6 6 28t4 34q-1 20 0 39q0 17 -2 22q-2 4 -0.5 15t1.5 15q-1 5 -1 17.5t-1 17.5q-4 25 0 50q2 11 0 22q-1 4 1 29t2 26q1 7 -1.5 21
t-2.5 17q-1 5 0 30t1 30q0 11 -0.5 32t-1 38t-1.5 33q-1 8 0.5 24t1.5 23q1 9 1 29t1 30q3 16 1 39q0 2 -2.5 6.5t-0.5 6.5q-8 12 -7 13q1 7 -3 16t-5 13q-2 8 -7 25.5t-6 26.5q0 2 8 10q3 2 21 1.5t20 -2.5q7 3 12 3t14.5 -1t19.5 -1q7 6 25 3t25 0q7 -3 9 -11
q4 -18 12 -37q3 -6 6.5 -19t7.5 -20q2 -4 3.5 -9.5t3 -12.5t2.5 -11q3 -10 10 -37t12 -41q1 -4 5.5 -19.5t8.5 -23.5q4 -7 9.5 -21.5t7.5 -19.5q3 -6 3 -7q0 -12 10 -34q2 -4 8.5 -32.5t9.5 -33.5q6 -11 15 -46q1 -3 3 -8.5t2.5 -8t-1.5 -9.5q2 -4 6 -2q1 -8 6 -22
q3 34 -1 60q-1 3 -1 10q2 13 -0.5 57t-2.5 49q0 66 -1 80q-3 32 -4 39q-2 21 1 28q1 3 1 10v33q0 6 -2.5 11t-3.5 9q-11 45 -14 55q-2 5 -4 10.5t-3 8.5t-2 6.5t-1.5 5.5l-1 4t0 3t1 2.5t1.5 2.5t2 3z" />
    <glyph glyph-name="Ograve" unicode="&#xd2;" horiz-adv-x="413" 
d="M289 852q12 -12 34 -22q13 -19 26 -26q5 -8 10.5 -27t5.5 -23q0 -3 2.5 -19t-2.5 -19q3 -6 3.5 -13t0 -13t0.5 -13v-37q0 -6 -0.5 -19t-0.5 -20q2 -43 5 -56q2 -11 0 -47q-1 -9 -1 -27q4 -39 -1 -89q-2 -19 -2 -59q0 -22 1 -34q0 -32 4 -44v-20q0 -46 1 -70q1 -27 -8 -78
l-5 -12q-5 -12 -9 -16q-30 -30 -34 -33q-8 -6 -24 -11t-22 -8q-54 -11 -92 -6q-59 8 -111 48q-12 12 -32 57v173q0 12 1 14q4 13 4 62q0 3 1.5 16t-0.5 16q-1 6 -1 37v34v33q0 133 -1 200q0 11 -2 33q-5 20 2 38q0 2 1 10.5t0 11.5q8 11 16 27q11 10 41 42l42 21q22 3 23 3
q51 13 104 -7zM250 117q2 40 2 54q0 10 -0.5 29.5t0.5 34.5t4 28v8q0 9 0.5 24.5t0 28t-3.5 23.5q0 1 0.5 3.5t0.5 4.5q2 10 2 61q-2 5 -5 36q-3 32 -4 36q-5 20 0 39q6 23 3 45q0 5 2 16.5t0 18.5t-2 21.5v17.5q0 26 -3 33q-1 2 -1 14v47q0 1 -0.5 3t-0.5 3q-6 8 -16 12
q-29 4 -48 -1q-14 -9 -18 -15q-3 -4 -4 -8.5t-1 -9.5t-1 -8q3 -10 3.5 -21t0 -25t-0.5 -21q1 -9 -2 -20q-2 -5 -2 -16q0 -28 -0.5 -84.5t-0.5 -84.5q0 -6 0.5 -18t0.5 -18v-34q0 -5 1 -18t-1 -18q-1 -4 1 -11q4 -8 4 -30v-152q0 -23 1 -25q17 -12 54 -18q3 3 12.5 3t11.5 1z
M269 906q-8 -9 -19 -6q-12 2 -16 2q-2 0 -8.5 0.5t-9.5 -0.5q-1 0 -11 -1.5t-14 -0.5q-4 6 -21.5 26t-24.5 32q-5 10 -13 14q-14 13 -22 32q0 10 10 14h12q12 -1 19 -3q5 -1 17 -1h44q12 -6 16 -20q6 -22 30 -60q13 -19 11 -28z" />
    <glyph glyph-name="Oacute" unicode="&#xd3;" horiz-adv-x="413" 
d="M289 852q12 -12 34 -22q13 -19 26 -26q5 -8 10.5 -27t5.5 -23q0 -3 2.5 -19t-2.5 -19q3 -6 3.5 -13t0 -13t0.5 -13v-37q0 -6 -0.5 -19t-0.5 -20q2 -43 5 -56q2 -11 0 -47q-1 -9 -1 -27q4 -39 -1 -89q-2 -19 -2 -59q0 -22 1 -34q0 -32 4 -44v-20q0 -46 1 -70q1 -27 -8 -78
l-5 -12q-5 -12 -9 -16q-30 -30 -34 -33q-8 -6 -24 -11t-22 -8q-54 -11 -92 -6q-59 8 -111 48q-12 12 -32 57v173q0 12 1 14q4 13 4 62q0 3 1.5 16t-0.5 16q-1 6 -1 37v34v33q0 133 -1 200q0 11 -2 33q-5 20 2 38q0 2 1 10.5t0 11.5q8 11 16 27q11 10 41 42l42 21q22 3 23 3
q51 13 104 -7zM250 117q2 40 2 54q0 10 -0.5 29.5t0.5 34.5t4 28v8q0 9 0.5 24.5t0 28t-3.5 23.5q0 1 0.5 3.5t0.5 4.5q2 10 2 61q-2 5 -5 36q-3 32 -4 36q-5 20 0 39q6 23 3 45q0 5 2 16.5t0 18.5t-2 21.5v17.5q0 26 -3 33q-1 2 -1 14v47q0 1 -0.5 3t-0.5 3q-6 8 -16 12
q-29 4 -48 -1q-14 -9 -18 -15q-3 -4 -4 -8.5t-1 -9.5t-1 -8q3 -10 3.5 -21t0 -25t-0.5 -21q1 -9 -2 -20q-2 -5 -2 -16q0 -28 -0.5 -84.5t-0.5 -84.5q0 -6 0.5 -18t0.5 -18v-34q0 -5 1 -18t-1 -18q-1 -4 1 -11q4 -8 4 -30v-152q0 -23 1 -25q17 -12 54 -18q3 3 12.5 3t11.5 1z
M240 1008q3 1 19 2.5t18 1.5q1 -1 6.5 -2.5t7.5 -3t3 -5.5q-11 -18 -39 -51.5t-39 -49.5q-38 3 -47 -1q-3 -1 -11 0.5t-11 -0.5q-7 6 -3 14q8 14 21.5 45.5t22.5 46.5q12 4 18 7q6 -1 10.5 -0.5t11.5 0t12 -3.5z" />
    <glyph glyph-name="Ocircumflex" unicode="&#xd4;" horiz-adv-x="415" 
d="M290 852q12 -12 34 -22q13 -19 26 -26q5 -8 10.5 -27t5.5 -23q0 -3 2.5 -19t-2.5 -19q3 -6 3.5 -13t0 -13t0.5 -13v-37q0 -6 -0.5 -19t-0.5 -20q2 -43 5 -56q2 -11 0 -47q-1 -9 -1 -27q4 -39 -1 -89q-2 -19 -2 -59q0 -22 1 -34q0 -32 4 -44v-20q0 -46 1 -70q1 -27 -8 -78
l-5 -12q-5 -12 -9 -16q-30 -30 -34 -33q-8 -6 -24 -11t-22 -8q-54 -11 -92 -6q-59 8 -111 48q-12 12 -32 57v173q0 12 1 14q4 13 4 62q0 3 1 16t0 16q-1 6 -1 37v34v33q0 133 -1 200q0 11 -2 33q-5 20 2 38q0 2 1 10.5t0 11.5q8 11 16 27q11 10 41 42l42 21q22 3 23 3
q51 13 104 -7zM251 117q2 40 2 54q0 10 -0.5 29.5t0.5 34.5t4 28v8q0 9 0.5 24.5t0 28t-3.5 23.5q0 1 0.5 3.5t0.5 4.5q2 10 2 61q-2 5 -5 36q-3 32 -4 36q-5 20 0 39q6 23 3 45q0 5 2 16.5t0 18.5t-2 21.5v17.5q0 26 -3 33q-1 2 -1 14v47q0 1 -0.5 3t-0.5 3q-6 8 -16 12
q-29 4 -48 -1q-14 -9 -18 -15q-3 -4 -4 -8.5t-1 -9.5t-1 -8q3 -10 3.5 -21t0 -25t-0.5 -21q1 -9 -2 -20q-2 -5 -2 -16q0 -28 -0.5 -84.5t-0.5 -84.5q0 -6 0.5 -18t0.5 -18v-34q0 -5 1 -18t-1 -18q-1 -4 1 -11q4 -8 4 -30v-152q0 -23 1 -25q17 -12 54 -18q3 3 12.5 3t11.5 1z
M111 889q-5 2 -9.5 10.5t-4.5 9.5v19q0 2 -2.5 8.5t-0.5 11.5q1 0 3 2.5t4 3.5q36 20 51 35q7 7 23 16q3 2 12.5 8t16.5 9q7 2 10 -4q3 -3 18 -8q8 -10 42 -33q7 -4 36 -27q2 -5 -1 -17.5t0 -18.5q-2 -3 -0.5 -12t-3.5 -10q-21 3 -69 30q-14 8 -34 16q-14 -6 -43.5 -24.5
t-47.5 -24.5z" />
    <glyph glyph-name="Otilde" unicode="&#xd5;" horiz-adv-x="415" 
d="M290 852q12 -12 34 -22q13 -19 26 -26q5 -8 10.5 -27t5.5 -23q0 -3 2.5 -19t-2.5 -19q3 -6 3.5 -13t0 -13t0.5 -13v-37q0 -6 -0.5 -19t-0.5 -20q2 -43 5 -56q2 -11 0 -47q-1 -9 -1 -27q4 -39 -1 -89q-2 -19 -2 -59q0 -22 1 -34q0 -32 4 -44v-20q0 -46 1 -70q1 -27 -8 -78
l-5 -12q-5 -12 -9 -16q-30 -30 -34 -33q-8 -6 -24 -11t-22 -8q-54 -11 -92 -6q-59 8 -111 48q-12 12 -32 57v173q0 12 1 14q4 13 4 62q0 3 1 16t0 16q-1 6 -1 37v34v33q0 133 -1 200q0 11 -2 33q-5 20 2 38q0 2 1 10.5t0 11.5q8 11 16 27q11 10 41 42l42 21q22 3 23 3
q51 13 104 -7zM251 117q2 40 2 54q0 10 -0.5 29.5t0.5 34.5t4 28v8q0 9 0.5 24.5t0 28t-3.5 23.5q0 1 0.5 3.5t0.5 4.5q2 10 2 61q-2 5 -5 36q-3 32 -4 36q-5 20 0 39q6 23 3 45q0 5 2 16.5t0 18.5t-2 21.5v17.5q0 26 -3 33q-1 2 -1 14v47q0 1 -0.5 3t-0.5 3q-6 8 -16 12
q-29 4 -48 -1q-14 -9 -18 -15q-3 -4 -4 -8.5t-1 -9.5t-1 -8q3 -10 3.5 -21t0 -25t-0.5 -21q1 -9 -2 -20q-2 -5 -2 -16q0 -28 -0.5 -84.5t-0.5 -84.5q0 -6 0.5 -18t0.5 -18v-34q0 -5 1 -18t-1 -18q-1 -4 1 -11q4 -8 4 -30v-152q0 -23 1 -25q17 -12 54 -18q3 3 12.5 3t11.5 1z
M172 1001l46 -27q11 -3 14.5 -1.5t6 5t3.5 3.5q10 3 18 13.5t14 13.5q6 -4 13 -6l27 -33q-3 -4 -10 -14t-10 -15q-3 -7 -11.5 -15t-11.5 -12q-4 -7 -22 -11q-7 -2 -17 -4l-33 10q-3 2 -8 6.5t-8.5 7t-9.5 5t-12 2.5q-9 -2 -15 -6.5t-12.5 -11.5t-10.5 -10q-30 20 -35 46
q5 6 16 20.5t16 20.5q2 1 11.5 6.5t17.5 6.5q2 1 13 1z" />
    <glyph glyph-name="Odieresis" unicode="&#xd6;" horiz-adv-x="415" 
d="M290 852q12 -12 34 -22q13 -19 26 -26q5 -8 10.5 -27t5.5 -23q0 -3 2.5 -19t-2.5 -19q3 -6 3.5 -13t0 -13t0.5 -13v-37q0 -6 -0.5 -19t-0.5 -20q2 -43 5 -56q2 -11 0 -47q-1 -9 -1 -27q4 -39 -1 -89q-2 -19 -2 -59q0 -22 1 -34q0 -32 4 -44v-20q0 -46 1 -70q1 -27 -8 -78
l-5 -12q-5 -12 -9 -16q-30 -30 -34 -33q-8 -6 -24 -11t-22 -8q-54 -11 -92 -6q-59 8 -111 48q-12 12 -32 57v173q0 12 1 14q4 13 4 62q0 3 1 16t0 16q-1 6 -1 37v34v33q0 133 -1 200q0 11 -2 33q-5 20 2 38q0 2 1 10.5t0 11.5q8 11 16 27q11 10 41 42l42 21q22 3 23 3
q51 13 104 -7zM251 117q2 40 2 54q0 10 -0.5 29.5t0.5 34.5t4 28v8q0 9 0.5 24.5t0 28t-3.5 23.5q0 1 0.5 3.5t0.5 4.5q2 10 2 61q-2 5 -5 36q-3 32 -4 36q-5 20 0 39q6 23 3 45q0 5 2 16.5t0 18.5t-2 21.5v17.5q0 26 -3 33q-1 2 -1 14v47q0 1 -0.5 3t-0.5 3q-6 8 -16 12
q-29 4 -48 -1q-14 -9 -18 -15q-3 -4 -4 -8.5t-1 -9.5t-1 -8q3 -10 3.5 -21t0 -25t-0.5 -21q1 -9 -2 -20q-2 -5 -2 -16q0 -28 -0.5 -84.5t-0.5 -84.5q0 -6 0.5 -18t0.5 -18v-34q0 -5 1 -18t-1 -18q-1 -4 1 -11q4 -8 4 -30v-152q0 -23 1 -25q17 -12 54 -18q3 3 12.5 3t11.5 1z
M180 994q4 -6 4 -8q1 -14 1 -38.5v-38.5q-3 -2 -9.5 -5.5t-8.5 -4.5q-4 2 -25 0.5t-38 -0.5q-5 2 -7.5 6t-3.5 8t-1.5 9t-2.5 8v61q2 1 12.5 1t11.5 1q15 1 37 0t30 1zM309 930q-1 -2 2 -7t1 -9l-7 -9q-1 0 -10.5 -1t-14.5 -2q-3 0 -10.5 2t-10.5 -1q-3 -2 -11.5 -1t-9.5 -3
q-14 3 -21 10v78l5 4h7q18 -4 55 0q19 2 23 -1l2 -21q2 -10 0 -18q0 -3 1 -10.5t-1 -10.5z" />
    <glyph glyph-name="multiply" unicode="&#xd7;" horiz-adv-x="466" 
d="M171 442q-35 37 -38 43q-10 6 -22.5 21.5t-18.5 20.5q-7 6 -20 20.5t-21 21.5q-2 2 -3.5 6.5t-2.5 5.5l5 14q2 1 15 14t22 18q11 9 14 18q1 1 2 2.5t3 3t3 2.5q9 -4 18.5 -17.5t15.5 -16.5q7 -4 12.5 -9.5t12 -15t9.5 -12.5q22 -22 32 -35q3 -4 32 -36q5 3 12 10l9 9
q15 10 24 19q9 11 20 20q26 30 51 48q3 1 14 12q11 3 18 0q4 -14 20.5 -33.5t20.5 -31.5v-5q-3 -6 -11 -11t-10 -8q-2 -4 -20 -19q-25 -20 -29 -26q-1 -2 -3 -3.5t-4 -3.5l-3 -3q-2 -2 -8 -6t-9 -7l-26 -26l4 -8q10 -9 30 -33t33 -35q0 -2 2 -2q24 -28 43 -38q1 -12 -9 -22
q-13 -13 -16 -15q-19 -13 -29 -31q-1 -2 -8 -7q-2 0 -6 1.5t-6 1.5q-8 18 -26 27q-9 13 -10 13q-4 4 -51 62q-9 11 -16 11q-5 -1 -9.5 -4t-9.5 -8.5t-8 -7.5q-32 -21 -67 -58q-1 -2 -3.5 -6t-4.5 -6q-9 -5 -22.5 -19.5t-22.5 -20.5q-20 32 -57 64l11 22q1 0 2 1q1 2 2 2
l27 24q20 17 24 19q9 4 10 10q4 7 14.5 15.5t12.5 11.5l27 28z" />
    <glyph glyph-name="Oslash" unicode="&#xd8;" horiz-adv-x="446" 
d="M112 28l-19 -37q-14 -3 -68 -3q-8 4 -11 11q-2 7 3 18q23 36 40 82q-5 13 -5 30q1 55 1 165q0 65 -1 78q-2 21 -4 67q-1 17 -1 151v42v49.5v42.5q0 42 5 55q2 6 7.5 16.5t7.5 14.5q18 18 25 20q5 2 13.5 9t13.5 9l8 4q3 2 15 4.5t17 7.5q53 8 60 8q9 1 27 -1
q31 -4 45 -11q4 -2 13 -4.5t13 -4.5q3 -2 23 -15q4 4 10.5 17t14.5 17q9 0 31 1.5t33 1.5q2 -2 2.5 -9.5t1.5 -9.5q-1 -3 -19 -39.5t-26 -58.5q0 -2 -3 -22t-2 -32q2 -31 0 -46q-1 -11 2 -25q6 -34 1 -69q-2 -19 0 -27q2 -19 -1 -28q-2 -6 -2 -11v-109v-10.5v-12v-10.5
q0 -32 1 -39q2 -5 0.5 -19t-1.5 -19l3 -30q1 -3 1 -20v-130q-7 -24 -15 -36q-18 -30 -61 -50q-10 -4 -30.5 -9.5t-25.5 -7.5q-4 0 -6 -1q-60 -2 -95 12q-3 1 -22 12zM175 408q4 10 18 48.5t18 47.5q6 14 24 69t25 69q3 8 1.5 14t-1.5 19q-2 59 -7 80q-9 9 -17 9q0 1 -16 0
h-17q-5 1 -19 -6q-9 -4 -14 -15q0 -7 -0.5 -22t0.5 -27.5t4 -23.5v-8q-1 -6 -0.5 -18t0.5 -17q-1 -8 1 -38q2 -34 0 -103q0 -1 -1 -20.5t-1 -36t2 -21.5zM263 432q-6 -14 -14.5 -43.5t-17 -52t-16.5 -32.5q-6 -15 -12.5 -31.5t-14.5 -38t-13 -33.5l2 -75q15 -18 52 -25
l23 11q10 16 12 28q-5 11 -5 51v53q0 9 -0.5 26.5t-0.5 26.5q0 8 0.5 26t0.5 27q4 68 4 82z" />
    <glyph glyph-name="Ugrave" unicode="&#xd9;" horiz-adv-x="419" 
d="M8 852l6 6q1 0 2.5 1t2.5 1h17q68 -3 103 0q46 0 51 -6q-2 -20 -18 -74q-12 -42 -12 -46v-27q0 -16 -4 -21q0 -2 2 -6.5t2 -7.5v-21t1 -21q0 -5 2 -19.5t2 -22.5q1 -25 1 -75q1 -23 0.5 -42t0 -42.5t2.5 -42.5q-2 -3 0 -13.5t2 -13.5q0 -33 -2 -39q-2 -8 -2 -24v-163
q0 -16 7 -24q12 -7 18 -8t30 0q24 9 33 17q2 23 -2 35q-5 13 -1 34l3 30q0 4 -0.5 8.5t-1.5 10t-1 8.5q-2 22 1 34q2 7 2 21v17q1 5 -1 17.5t0 17.5t0.5 16.5t1.5 16.5q0 15 0.5 47t0.5 48q0 26 -1 39q0 26 -3 33q-1 4 0 12.5t-1 12.5q2 5 0.5 14t0.5 13q2 2 2 12v12v27
q2 5 0 8q-5 19 -3 78q0 12 -6.5 29.5t-7.5 31.5q0 7 -8 25.5t-9 24.5q7 8 52 8q7 0 20.5 0.5t19.5 0.5q9 0 14 1q41 5 75 -4q1 -4 -9 -29t-10 -33q1 -13 -4 -28.5t-5 -26.5q-2 -28 -4 -36q2 -9 5 -65v-98q7 -31 5 -95v-44t-1 -43q0 -20 -3 -25v-5q3 -14 4 -32t0.5 -32
t0.5 -31q1 0 1 -46l-1 -47q0 -3 -0.5 -8.5t-0.5 -8.5q3 -34 -14 -68q-1 -1 -5.5 -6t-6.5 -8q-32 -39 -92 -49q-4 -1 -14.5 -2t-16.5 -3q-9 -2 -19 0q-37 5 -44 7q-38 10 -56 18q-19 7 -45 37q-3 4 -8 13t-8 13q-4 5 -5 16t-2 13q4 6 1 23.5t-2 23.5v45q0 12 3 24
q1 4 -0.5 12t-1.5 11q-1 3 2 16q0 1 -1.5 7t-1.5 10q0 39 1 59v11q6 31 0 60q-1 10 2 22q1 3 -1 9.5t-2 9.5v161q0 3 1.5 19t-0.5 19v11v14v12q0 14 2 19q4 10 1 16q-3 11 -5 27q0 5 -9 28t-9 29q0 17 -16 49zM266 906q-8 -9 -19 -6q-12 2 -16 2q-2 0 -8.5 0.5t-9.5 -0.5
q-1 0 -11 -1.5t-14 -0.5q-4 6 -21.5 26t-24.5 32q-5 10 -13 14q-14 13 -22 32q0 10 10 14h12q12 -1 19 -3q5 -1 17 -1h44q12 -6 16 -20q6 -22 30 -60q13 -19 11 -28z" />
    <glyph glyph-name="Uacute" unicode="&#xda;" horiz-adv-x="419" 
d="M247 1008q3 1 19 2.5t18 1.5q1 -1 6.5 -2.5t7.5 -3t3 -5.5q-11 -18 -39 -51.5t-39 -49.5q-38 3 -47 -1q-3 -1 -11 0.5t-11 -0.5q-7 6 -3 14q8 14 21.5 45.5t22.5 46.5q12 4 18 7q6 -1 10.5 -0.5t11.5 0t12 -3.5zM8 852l6 6q1 0 2.5 1t2.5 1h17q68 -3 103 0q46 0 51 -6
q-2 -20 -18 -74q-12 -42 -12 -46v-27q0 -16 -4 -21q0 -2 2 -6.5t2 -7.5v-21t1 -21q0 -5 2 -19.5t2 -22.5q1 -25 1 -75q1 -23 0.5 -42t0 -42.5t2.5 -42.5q-2 -3 0 -13.5t2 -13.5q0 -33 -2 -39q-2 -8 -2 -24v-163q0 -16 7 -24q12 -7 18 -8t30 0q24 9 33 17q2 23 -2 35
q-5 13 -1 34l3 30q0 4 -0.5 8.5t-1.5 10t-1 8.5q-2 22 1 34q2 7 2 21v17q1 5 -1 17.5t0 17.5t0.5 16.5t1.5 16.5q0 15 0.5 47t0.5 48q0 26 -1 39q0 26 -3 33q-1 4 0 12.5t-1 12.5q2 5 0.5 14t0.5 13q2 2 2 12v12v27q2 5 0 8q-5 19 -3 78q0 12 -6.5 29.5t-7.5 31.5
q0 7 -8 25.5t-9 24.5q7 8 52 8q7 0 20.5 0.5t19.5 0.5q9 0 14 1q41 5 75 -4q1 -4 -9 -29t-10 -33q1 -13 -4 -28.5t-5 -26.5q-2 -28 -4 -36q2 -9 5 -65v-98q7 -31 5 -95v-44t-1 -43q0 -20 -3 -25v-5q3 -14 4 -32t0.5 -32t0.5 -31q1 0 1 -46l-1 -47q0 -3 -0.5 -8.5t-0.5 -8.5
q3 -34 -14 -68q-1 -1 -5.5 -6t-6.5 -8q-32 -39 -92 -49q-4 -1 -14.5 -2t-16.5 -3q-9 -2 -19 0q-37 5 -44 7q-38 10 -56 18q-19 7 -45 37q-3 4 -8 13t-8 13q-4 5 -5 16t-2 13q4 6 1 23.5t-2 23.5v45q0 12 3 24q1 4 -0.5 12t-1.5 11q-1 3 2 16q0 1 -1.5 7t-1.5 10q0 39 1 59
v11q6 31 0 60q-1 10 2 22q1 3 -1 9.5t-2 9.5v161q0 3 1.5 19t-0.5 19v11v14v12q0 14 2 19q4 10 1 16q-3 11 -5 27q0 5 -9 28t-9 29q0 17 -16 49z" />
    <glyph glyph-name="Ucircumflex" unicode="&#xdb;" horiz-adv-x="421" 
d="M115 889q-5 2 -9.5 10.5t-4.5 9.5v19q0 2 -2.5 8.5t-0.5 11.5q1 0 3 2.5t4 3.5q36 20 51 35q7 7 23 16q3 2 12.5 8t16.5 9q7 2 10 -4q3 -3 18 -8q8 -10 42 -33q7 -4 36 -27q2 -5 -1 -17.5t0 -18.5q-2 -3 -0.5 -12t-3.5 -10q-21 3 -69 30q-14 8 -34 16q-14 -6 -43.5 -24.5
t-47.5 -24.5zM8 852l6 6q1 0 2.5 1t2.5 1h17q68 -3 103 0q46 0 51 -6q-2 -20 -18 -74q-12 -42 -12 -46v-27q0 -16 -4 -21q0 -2 2 -6.5t2 -7.5v-21t1 -21q0 -5 2 -19.5t2 -22.5q1 -25 1 -75q1 -23 0.5 -42t0 -42.5t2.5 -42.5q-2 -3 0 -13.5t2 -13.5q0 -33 -2 -39
q-2 -8 -2 -24v-163q0 -16 7 -24q12 -7 18 -8t30 0q24 9 33 17q2 23 -2 35q-5 13 -1 34l3 30q0 4 -0.5 8.5t-1.5 10t-1 8.5q-2 22 1 34q2 7 2 21v17q1 5 -1 17.5t0 17.5t0.5 16.5t1.5 16.5q0 15 0.5 47t0.5 48q0 26 -1 39q0 26 -3 33q-1 4 0 12.5t-1 12.5q2 5 0.5 14t0.5 13
q2 2 2 12v12v27q2 5 0 8q-5 19 -3 78q0 12 -6.5 29.5t-7.5 31.5q0 7 -8 25.5t-9 24.5q7 8 52 8q7 0 20.5 0.5t19.5 0.5q9 0 14 1q41 5 75 -4q1 -4 -9 -29t-10 -33q1 -13 -4 -28.5t-5 -26.5q-2 -28 -4 -36q2 -9 5 -65v-98q7 -31 5 -95v-44t-1 -43q0 -20 -3 -25v-5
q3 -14 4 -32t0.5 -32t0.5 -31q1 0 1 -46l-1 -47q0 -3 -0.5 -8.5t-0.5 -8.5q3 -34 -14 -68q-1 -1 -5.5 -6t-6.5 -8q-32 -39 -92 -49q-4 -1 -14.5 -2t-16.5 -3q-9 -2 -19 0q-37 5 -44 7q-38 10 -56 18q-19 7 -45 37q-3 4 -8 13t-8 13q-4 5 -5 16t-2 13q4 6 1 23.5t-2 23.5v45
q0 12 3 24q1 4 -0.5 12t-1.5 11q-1 3 2 16q0 1 -1.5 7t-1.5 10q0 39 1 59v11q6 31 0 60q-1 10 2 22q1 3 -1 9.5t-2 9.5v161q0 3 1.5 19t-0.5 19v11v14v12q0 14 2 19q4 10 1 16q-3 11 -5 27q0 5 -9 28t-9 29q0 17 -16 49z" />
    <glyph glyph-name="Udieresis" unicode="&#xdc;" horiz-adv-x="421" 
d="M185 994q4 -6 4 -8q1 -14 1 -38.5v-38.5q-3 -2 -9.5 -5.5t-8.5 -4.5q-4 2 -25 0.5t-38 -0.5q-5 2 -7.5 6t-3.5 8t-1.5 9t-2.5 8v61q1 1 11.5 1t12.5 1q15 1 37 0t30 1zM314 930q-1 -2 2 -7t1 -9l-7 -9q-1 0 -10.5 -1t-14.5 -2q-3 0 -10.5 2t-10.5 -1q-3 -2 -11.5 -1
t-9.5 -3q-14 3 -21 10v78l5 4h7q18 -4 55 0q19 2 23 -1l2 -21q2 -10 0 -18q0 -3 1 -10.5t-1 -10.5zM8 852l6 6q1 0 2.5 1t2.5 1h17q68 -3 103 0q46 0 51 -6q-2 -20 -18 -74q-12 -42 -12 -46v-27q0 -16 -4 -21q0 -2 2 -6.5t2 -7.5v-21t1 -21q0 -5 2 -19.5t2 -22.5
q1 -25 1 -75q1 -23 0.5 -42t0 -42.5t2.5 -42.5q-2 -3 0 -13.5t2 -13.5q0 -33 -2 -39q-2 -8 -2 -24v-163q0 -16 7 -24q12 -7 18 -8t30 0q24 9 33 17q2 23 -2 35q-5 13 -1 34l3 30q0 4 -0.5 8.5t-1.5 10t-1 8.5q-2 22 1 34q2 7 2 21v17q1 5 -1 17.5t0 17.5t0.5 16.5t1.5 16.5
q0 15 0.5 47t0.5 48q0 26 -1 39q0 26 -3 33q-1 4 0 12.5t-1 12.5q2 5 0.5 14t0.5 13q2 2 2 12v12v27q2 5 0 8q-5 19 -3 78q0 12 -6.5 29.5t-7.5 31.5q0 7 -8 25.5t-9 24.5q7 8 52 8q7 0 20.5 0.5t19.5 0.5q9 0 14 1q41 5 75 -4q1 -4 -9 -29t-10 -33q1 -13 -4 -28.5t-5 -26.5
q-2 -28 -4 -36q2 -9 5 -65v-98q7 -31 5 -95v-44t-1 -43q0 -20 -3 -25v-5q3 -14 4 -32t0.5 -32t0.5 -31q1 0 1 -46l-1 -47q0 -3 -0.5 -8.5t-0.5 -8.5q3 -34 -14 -68q-1 -1 -5.5 -6t-6.5 -8q-32 -39 -92 -49q-4 -1 -14.5 -2t-16.5 -3q-9 -2 -19 0q-37 5 -44 7q-38 10 -56 18
q-19 7 -45 37q-3 4 -8 13t-8 13q-4 5 -5 16t-2 13q4 6 1 23.5t-2 23.5v45q0 12 3 24q1 4 -0.5 12t-1.5 11q-1 3 2 16q0 1 -1.5 7t-1.5 10q0 39 1 59v11q6 31 0 60q-1 10 2 22q1 3 -1 9.5t-2 9.5v161q0 3 1.5 19t-0.5 19v11v14v12q0 14 2 19q4 10 1 16q-3 11 -5 27q0 5 -9 28
t-9 29q0 17 -16 49z" />
    <glyph glyph-name="Yacute" unicode="&#xdd;" horiz-adv-x="390" 
d="M243 1008q3 1 19 2.5t18 1.5q1 -1 6.5 -2.5t7.5 -3t3 -5.5q-11 -18 -39 -51.5t-39 -49.5q-38 3 -47 -1q-3 -1 -11 0.5t-11 -0.5q-7 6 -3 14q8 14 21.5 45.5t22.5 46.5q12 4 18 7q6 -1 10.5 -0.5t11.5 0t12 -3.5zM3 854l5 7q10 -2 72 -2q38 -2 79 -2q4 -2 8 -2q5 0 5 -3
q-1 -11 -7 -40t-5 -45q0 -2 -1 -9.5t0 -10.5q1 -4 4 -21t3 -26l6 -36q3 -22 3 -23q3 -11 8 -48t11 -51q0 -1 1 -4l3 -6q2 29 6 40q10 28 7 72q-1 6 3 16q5 14 6 28q2 8 4.5 25t3.5 26q0 2 -5 54q-1 14 -4.5 29.5t-4.5 24.5q4 7 11 11q64 0 84 -1h14q29 -9 47 1l17 -7
q5 -4 -12 -48q-19 -46 -22 -63q-1 -5 -2.5 -14.5t-2.5 -14.5q-2 -13 -11 -50q0 -1 -0.5 -2.5t-0.5 -2.5q-1 -22 -10.5 -61t-11.5 -52q-3 -21 -13 -63q-8 -32 -11 -58q-1 -10 -5.5 -28.5t-5.5 -27.5l3 -10v-2q-8 -17 -16 -63q-11 -46 -10 -66q0 -8 -1 -11q-12 -36 -17 -55
q-3 -11 -3 -38q0 -15 11 -90q4 -26 -2 -26h-2q-11 -2 -37.5 -2t-37.5 1q-6 0 -19.5 -1t-21.5 0q-6 1 -25.5 0.5t-24.5 1.5q-9 9 -6 19l35 89l2 6l2 6q14 56 18 85q1 6 3.5 16.5t3.5 13.5q8 34 9 52q0 3 9 41q2 5 -1 9q-3 2 -11 2t-10 2q-5 5 -7.5 15.5t-5.5 13.5q0 1 1 6
t0 7q-1 5 -3.5 13t-4 15t-1.5 14v2q-5 9 -8 19t-6 23.5t-5 19.5t-3 18t-2 18q-19 64 -23 93q-2 13 -7.5 36t-7.5 33q-2 8 -5 23.5t-4 23.5t-4 18.5t-4 14.5q-2 7 -8 24.5t-7 23.5t-6 17.5t-6 16.5z" />
    <glyph glyph-name="Thorn" unicode="&#xde;" horiz-adv-x="412" 
d="M335 196q-22 -10 -32 -19q-3 0 -9 -0.5t-10 -0.5q-28 0 -42 1q-15 0 -22 2q-2 1 -7.5 3t-8 2h-8.5q-1 1 -2 1l-31 18q-3 -2 -3 -13q0 -19 -1 -38t0 -44q0 -5 3.5 -13.5t8.5 -18.5t6 -14q7 -21 7 -30q0 -2 6 -13t3 -15q-11 -1 -79.5 -0.5t-81.5 -4.5l-7 5l-2 6
q3 11 14 46.5t15 52.5q2 9 0 19q-2 5 -0.5 14t0.5 13v10q0 10 -3 15q6 14 0 30q-1 3 1 10t2 11q-2 15 0 30v15v15v28v25q-2 4 -0.5 12t0.5 12t-2 12t-2 12q-1 5 -1 31v92q0 23 4 30l-3 9q5 17 4 23q0 2 0.5 18.5t-2.5 17.5q4 15 1 33q-1 3 0 10.5t1 10.5v31q1 3 -1.5 10
t-2.5 9q0 3 1.5 11.5t-1.5 11.5q-5 13 -5 26q0 3 -4 18t-3 20q0 9 -2 16t-6 15.5t-6 16.5q15 2 71 -1l28 7q5 -3 33 -4.5t33 -6.5q2 -5 -3 -15.5t-5 -15.5q0 -6 -5.5 -18t-5.5 -18t-4 -14.5t-4 -13.5v-30q0 -30 1 -33q1 -4 -0.5 -15t1.5 -16q16 19 49 24q35 6 64 1
q4 -1 12 -2t12 -2l29 -13q13 -5 23 -20q18 -27 23 -43v-77q0 -45 2 -49q2 -5 2 -22q2 -90 0 -178q0 -38 -22 -59zM259 353q-3 23 -3 97.5t-2 90.5q-3 3 -7 9.5t-8 10t-12 7.5q-15 1 -20 0.5t-17.5 -3.5t-17.5 -4l-6 -4q0 -10 -0.5 -47.5t-0.5 -48.5q0 -17 -1 -19
q-4 -10 -4 -36v-88q0 -14 2 -16q4 -2 5 -2q12 -9 59 -9q16 5 18 16l11 19q1 3 1 13t3 14z" />
    <glyph glyph-name="germandbls" unicode="&#xdf;" horiz-adv-x="782" 
d="M361 95q-1 -6 -2.5 -12.5t-2.5 -9.5q-16 -37 -26 -47t-18 -17q-9 -6 -21 -6l-21 -9q-7 0 -10 -1q-5 -1 -16.5 -1.5t-16.5 -2.5q-18 1 -37 0q-7 0 -23.5 6t-21.5 7q-3 1 -8 3.5t-6 2.5q-6 4 -10 5q-2 1 -7 6l-5 5q-3 4 -30.5 -17t-39.5 -11q-2 2 -1.5 6t-0.5 7q-1 1 -1 47
t-1 49q0 22 -2 81.5t1 84.5q2 5 5.5 7t12.5 3t10 1q4 1 22.5 0t19.5 -1l2 -1q1 -1 2 -3.5t2 -5.5q1 -4 5 -17.5t8 -25.5l4 -11q-1 -4 14 -38q0 -1 2 -8t4 -13.5t3 -7.5q5 -9 3.5 -12t7.5 -10q22 -22 27 -23h22q20 -2 31 23q0 1 -1 3.5t-1 3.5q4 5 4.5 8t0 9t-0.5 9
q0 61 -2 69q-2 10 -4 13q-7 12 -17.5 33.5t-19.5 38.5t-19 32q-8 12 -19.5 36.5t-16.5 33.5q-3 5 -17 33t-26 40q-3 3 -6 10.5t-3 8.5q-1 2 -7.5 14t-8.5 19q-2 9 -10 24.5t-10 22.5l-11 23q-10 23 -11 33q-2 12 -2 50q0 5 1 14t0 14q-3 11 1 20q5 10 9 32q4 23 24 43
q3 3 8 9t10 11t10 8q29 17 40 17q6 0 29 7q25 8 46 1q3 -1 8 0t7 0q30 -5 48 -11q11 -3 30 -21q2 -2 7 1t15.5 11.5t17.5 13.5q5 3 11 3t8 -2q4 -8 4.5 -51.5t0.5 -46.5q2 -11 -1 -15q6 -24 1 -32q-7 -69 0 -120q-7 -5 -10 -4q-1 1 -4 1q-8 -4 -33 -1.5t-32 1.5
q-33 -3 -34 -3q-16 14 -10 32q1 1 0 7t-1 7q-1 11 0 32.5t1 30.5q-1 5 -1 15v15q0 3 -3.5 8.5t-2.5 9.5q-6 0 -19 4t-22 3q-4 -3 -15 -4t-16 -3q0 -3 -4 -7t-5 -7q-6 -26 -2 -54q2 -11 2 -33q0 -9 4 -17q5 -12 7 -23q3 -9 11.5 -19t11.5 -17q4 -4 4 -6q5 -16 25 -51l20 -30
q4 -6 10 -19.5t10 -20.5q41 -62 41 -63q5 -8 13.5 -20.5t13.5 -22.5q31 -53 35 -86q0 -3 1 -7.5t1.5 -8.5t0.5 -8q0 -6 1 -23.5t0 -23.5q0 -6 -2 -21.5t-1 -23.5t-1 -23.5t-2 -21.5zM741 95q-1 -6 -2.5 -12.5t-2.5 -9.5q-16 -37 -26 -47t-18 -17q-9 -6 -21 -6l-21 -9
q-7 0 -10 -1q-5 -1 -16.5 -2t-16.5 -2q-18 1 -37 0q-7 0 -23.5 6t-21.5 7q-3 1 -8 3.5t-6 2.5q-6 4 -10 5q-2 1 -7 6l-5 5q-3 4 -30.5 -17t-39.5 -11q-2 2 -1.5 6t-0.5 7q-1 1 -1 47t-1 49q0 22 -2 81.5t1 84.5q2 5 5.5 7t12.5 3t10 1q4 1 22.5 0t19.5 -1l2 -1q1 -1 2 -3.5
t2 -5.5q1 -4 5 -17.5t8 -25.5l4 -11q-1 -4 14 -38q0 -1 2 -8t4 -13.5t3 -7.5q5 -9 3.5 -12t7.5 -10q22 -22 27 -23h22q20 -2 31 23q0 1 -1 3.5t-1 3.5q4 5 4.5 8t0 9t-0.5 9q0 61 -2 69q-2 10 -4 13q-7 12 -17.5 33.5t-19.5 38.5t-19 32q-8 12 -19.5 36.5t-16.5 33.5
q-3 5 -17 33t-26 40q-3 3 -6 10.5t-3 8.5q-1 2 -7.5 14t-8.5 19q-2 9 -10 24.5t-10 22.5l-11 23q-10 23 -11 33q-2 12 -2 50q0 5 1 14t0 14q-3 11 1 20q5 10 9 32q4 23 24 43q3 3 8 9t10 11t10 8q29 17 40 17q6 0 29 7q25 8 46 1q3 -1 8 0t7 0q30 -5 48 -11q11 -3 30 -21
q2 -2 7 1t15.5 11.5t17.5 13.5q5 3 11 3t8 -2q4 -8 4.5 -51.5t0.5 -46.5q2 -11 -1 -15q6 -24 1 -32q-7 -69 0 -120q-7 -5 -10 -4q-1 1 -4 1q-8 -4 -33 -1.5t-32 1.5q-33 -3 -34 -3q-16 14 -10 32q1 1 0 7t-1 7q-1 11 0 32.5t1 30.5q-1 5 -1 15v15q0 3 -3.5 8.5t-2.5 9.5
q-6 0 -19 4t-22 3q-4 -3 -15 -4t-16 -3q0 -3 -4 -7t-5 -7q-6 -26 -2 -54q2 -11 2 -33q0 -9 4 -17q5 -12 7 -23q3 -9 11.5 -19t11.5 -17q4 -4 4 -6q5 -16 25 -51l20 -30q4 -6 10 -19.5t10 -20.5q41 -62 41 -63q5 -8 13.5 -20.5t13.5 -22.5q31 -53 35 -86q0 -3 1 -7.5
t1.5 -8.5t0.5 -8q0 -7 1 -23.5t0 -23.5q0 -6 -2 -21.5t-1 -23.5t-1 -23.5t-2 -21.5z" />
    <glyph glyph-name="agrave" unicode="&#xe0;" 
d="M260 127q-7 0 -32.5 -1.5t-35.5 -1.5q-4 0 -13 0.5t-13.5 0.5h-6.5q-4 -4 -6 -21q-1 -11 4.5 -29t5.5 -29q0 -4 6 -20t4 -22t-12 -3q-19 6 -57 -2q-38 -4 -76 0q-5 2 -8 0q-6 -1 -14 1t-8 4q-1 2 1.5 9t6 17t4.5 13q10 27 14 52q1 6 3.5 12.5t3.5 9.5q2 11 4 34
q2 11 6.5 33t6.5 34l4 28q8 58 11 66q2 8 1 12q0 13 3 36t4 29q1 7 2.5 19.5t2.5 23t1 19.5q0 7 3 15q0 1 3 19q1 6 1.5 16.5t1.5 19t3 16.5l3 9l3.5 10.5t0.5 8.5q-2 11 2.5 27.5t5.5 32.5q0 12 2 32q4 26 4 38q0 23 10 43l-2 2q-3 3 -4 8t0 16q1 5 -2.5 17t-9 29.5
t-7.5 27.5q-3 12 -1 15q2 2 10.5 3.5t11.5 0.5q6 -3 21 -1q5 1 32.5 0t31.5 -1q7 0 9 1q12 5 28 2q9 -2 27 -2q20 0 22 -2q1 -1 4 -3t5 -5q1 -3 2 -12t1 -10q6 -47 6 -49l3 -18v-7.5t4 -8.5q1 -8 5 -30.5t4 -34.5l3 -36q1 -6 3 -29.5t5 -36.5q4 -23 8 -73l1 -5q1 -5 2 -7
q3 -11 5 -48q2 -20 4 -29q2 -8 3 -22.5t2 -19.5l6 -35q0 -4 3.5 -22.5t3.5 -29.5q0 -16 5 -36q2 -6 2 -18q-1 -12 4 -29q1 -4 4 -29l6 -54q0 -5 2.5 -8.5t3.5 -9.5q10 -50 22 -74q3 -22 -1 -22l-4 -1q-3 -1 -4 0q-5 4 -17 2.5t-18 1.5h-1q-4 -3 -25.5 -1.5t-25.5 1.5l-55 -2
l-2 1l-2 1q-8 -3 -11.5 -2t-4 3.5t-0.5 10.5l4 19q1 3 2.5 11t2.5 11q7 28 6 30q-1 5 0 6.5l2 3t0 6.5q-1 3 -2 10t-3 12zM251 243q-5 65 -7 79q0 1 0.5 4t-1.5 4q-1 1 -1 8q0 3 -4.5 42.5t-6.5 47.5q1 15 -4 41q0 6 -2.5 36t-3.5 33q0 1 -0.5 13t-1.5 13q0 27 -6 51
q-1 2 -4 2q-3 -5 -3 -9l-4 -60q0 -3 -1 -10t0 -11q-2 -6 -4 -22.5t-3.5 -34t-2.5 -21.5q-2 -8 -6.5 -59.5t-7.5 -62.5v-3q5 -9 0 -17v-19q0 -9 -3.5 -26t-4.5 -22q6 0 24.5 -0.5t34 0t23.5 3.5zM269 906q-8 -9 -19 -6q-12 2 -16 2q-2 0 -8.5 0.5t-9.5 -0.5q-1 0 -11 -1.5
t-14 -0.5q-4 6 -21.5 26t-24.5 32q-5 10 -13 14q-14 13 -22 32q0 10 10 14h12q12 -1 19 -3q5 -1 17 -1h44q12 -6 16 -20q6 -22 30 -60q13 -19 11 -28z" />
    <glyph glyph-name="aacute" unicode="&#xe1;" 
d="M258 1008q3 1 19 2.5t18 1.5q1 -1 6.5 -2.5t7.5 -3t3 -5.5q-11 -18 -39 -51.5t-39 -49.5q-38 3 -47 -1q-3 -1 -11 0.5t-11 -0.5q-7 6 -3 14q8 14 21.5 45.5t22.5 46.5q12 4 18 7q6 -1 10.5 -0.5t11.5 0t12 -3.5zM260 127q-7 0 -32.5 -1.5t-35.5 -1.5q-4 0 -13 0.5
t-13.5 0.5h-6.5q-4 -4 -6 -21q-1 -11 4.5 -29t5.5 -29q0 -4 6 -20t4 -22t-12 -3q-19 6 -57 -2q-38 -4 -76 0q-5 2 -8 0q-6 -1 -14 1t-8 4q-1 2 1.5 9t6 17t4.5 13q10 27 14 52q1 6 3.5 12.5t3.5 9.5q2 11 4 34q2 11 6.5 33t6.5 34l4 28q8 58 11 66q2 8 1 12q0 13 3 36t4 29
q1 7 2.5 19.5t2.5 23t1 19.5q0 7 3 15q0 1 3 19q1 6 1.5 16.5t1.5 19t3 16.5l3 9l3.5 10.5t0.5 8.5q-2 11 2.5 27.5t5.5 32.5q0 12 2 32q4 26 4 38q0 23 10 43l-2 2q-3 3 -4 8t0 16q1 5 -2.5 17t-9 29.5t-7.5 27.5q-3 12 -1 15q2 2 10.5 3.5t11.5 0.5q6 -3 21 -1q5 1 32.5 0
t31.5 -1q7 0 9 1q12 5 28 2q9 -2 27 -2q20 0 22 -2q1 -1 4 -3t5 -5q1 -3 2 -12t1 -10q6 -47 6 -49l3 -18v-7.5t4 -8.5q1 -8 5 -30.5t4 -34.5l3 -36q1 -6 3 -29.5t5 -36.5q4 -23 8 -73l1 -5q1 -5 2 -7q3 -11 5 -48q2 -20 4 -29q2 -8 3 -22.5t2 -19.5l6 -35q0 -4 3.5 -22.5
t3.5 -29.5q0 -16 5 -36q2 -6 2 -18q-1 -12 4 -29q1 -4 4 -29l6 -54q0 -5 2.5 -8.5t3.5 -9.5q10 -50 22 -74q3 -22 -1 -22l-4 -1q-3 -1 -4 0q-5 4 -17 2.5t-18 1.5h-1q-4 -3 -25.5 -1.5t-25.5 1.5l-55 -2l-2 1l-2 1q-8 -3 -11.5 -2t-4 3.5t-0.5 10.5l4 19q1 3 2.5 11t2.5 11
q7 28 6 30q-1 5 0 6.5l2 3t0 6.5q-1 3 -2 10t-3 12zM251 243q-5 65 -7 79q0 1 0.5 4t-1.5 4q-1 1 -1 8q0 3 -4.5 42.5t-6.5 47.5q1 15 -4 41q0 6 -2.5 36t-3.5 33q0 1 -0.5 13t-1.5 13q0 27 -6 51q-1 2 -4 2q-3 -5 -3 -9l-4 -60q0 -3 -1 -10t0 -11q-2 -6 -4 -22.5t-3.5 -34
t-2.5 -21.5q-2 -8 -6.5 -59.5t-7.5 -62.5v-3q5 -9 0 -17v-19q0 -9 -3.5 -26t-4.5 -22q6 0 24.5 -0.5t34 0t23.5 3.5z" />
    <glyph glyph-name="acircumflex" unicode="&#xe2;" 
d="M114 889q-5 2 -9.5 10.5t-4.5 9.5v19q0 2 -2.5 8.5t-0.5 11.5q1 0 3 2.5t4 3.5q36 20 51 35q7 7 23 16q3 2 12.5 8t16.5 9q7 2 10 -4q3 -3 18 -8q8 -10 42 -33q7 -4 36 -27q2 -5 -1 -17.5t0 -18.5q-2 -3 -0.5 -12t-3.5 -10q-21 3 -69 30q-14 8 -34 16q-14 -6 -43.5 -24.5
t-47.5 -24.5zM260 127q-7 0 -32.5 -1.5t-35.5 -1.5q-4 0 -13 0.5t-13.5 0.5h-6.5q-4 -4 -6 -21q-1 -11 4.5 -29t5.5 -29q0 -4 6 -20t4 -22t-12 -3q-19 6 -57 -2q-38 -4 -76 0q-5 2 -8 0q-6 -1 -14 1t-8 4q-1 2 1.5 9t6 17t4.5 13q10 27 14 52q1 6 3.5 12.5t3.5 9.5
q2 11 4 34q2 11 6.5 33t6.5 34l4 28q8 58 11 66q2 8 1 12q0 13 3 36t4 29q1 7 2.5 19.5t2.5 23t1 19.5q0 7 3 15q0 1 3 19q1 6 1.5 16.5t1.5 19t3 16.5l3 9l3.5 10.5t0.5 8.5q-2 11 2.5 27.5t5.5 32.5q0 12 2 32q4 26 4 38q0 23 10 43l-2 2q-3 3 -4 8t0 16q1 5 -2.5 17
t-9 29.5t-7.5 27.5q-3 12 -1 15q2 2 10.5 3.5t11.5 0.5q6 -3 21 -1q5 1 32.5 0t31.5 -1q7 0 9 1q12 5 28 2q9 -2 27 -2q20 0 22 -2q1 -1 4 -3t5 -5q1 -3 2 -12t1 -10q6 -47 6 -49l3 -18v-7.5t4 -8.5q1 -8 5 -30.5t4 -34.5l3 -36q1 -6 3 -29.5t5 -36.5q4 -23 8 -73l1 -5
q1 -5 2 -7q3 -11 5 -48q2 -20 4 -29q2 -8 3 -22.5t2 -19.5l6 -35q0 -4 3.5 -22.5t3.5 -29.5q0 -16 5 -36q2 -6 2 -18q-1 -12 4 -29q1 -4 4 -29l6 -54q0 -5 2.5 -8.5t3.5 -9.5q10 -50 22 -74q3 -22 -1 -22l-4 -1q-3 -1 -4 0q-5 4 -17 2.5t-18 1.5h-1q-4 -3 -25.5 -1.5
t-25.5 1.5l-55 -2l-2 1l-2 1q-8 -3 -11.5 -2t-4 3.5t-0.5 10.5l4 19q1 3 2.5 11t2.5 11q7 28 6 30q-1 5 0 6.5l2 3t0 6.5q-1 3 -2 10t-3 12zM251 243q-5 65 -7 79q0 1 0.5 4t-1.5 4q-1 1 -1 8q0 3 -4.5 42.5t-6.5 47.5q1 15 -4 41q0 6 -2.5 36t-3.5 33q0 1 -0.5 13t-1.5 13
q0 27 -6 51q-1 2 -4 2q-3 -5 -3 -9l-4 -60q0 -3 -1 -10t0 -11q-2 -6 -4 -22.5t-3.5 -34t-2.5 -21.5q-2 -8 -6.5 -59.5t-7.5 -62.5v-3q5 -9 0 -17v-19q0 -9 -3.5 -26t-4.5 -22q6 0 24.5 -0.5t34 0t23.5 3.5z" />
    <glyph glyph-name="atilde" unicode="&#xe3;" 
d="M179 1001l46 -27q11 -3 14.5 -1.5t6 5t3.5 3.5q10 3 18 13.5t14 13.5q6 -4 13 -6l27 -33q-3 -4 -10 -14t-10 -15q-3 -7 -11.5 -15t-11.5 -12q-4 -7 -22 -11q-7 -2 -17 -4l-33 10q-3 2 -8 6.5t-8.5 7t-9.5 5t-12 2.5q-9 -2 -15 -6.5t-12.5 -11.5t-10.5 -10q-30 20 -35 46
q5 6 16 20.5t16 20.5q2 1 11.5 6.5t17.5 6.5h23zM260 127q-7 0 -32.5 -1.5t-35.5 -1.5q-4 0 -13 0.5t-13.5 0.5h-6.5q-4 -4 -6 -21q-1 -11 4.5 -29t5.5 -29q0 -4 6 -20t4 -22t-12 -3q-19 6 -57 -2q-38 -4 -76 0q-5 2 -8 0q-6 -1 -14 1t-8 4q-1 2 1.5 9t6 17t4.5 13
q10 27 14 52q1 6 3.5 12.5t3.5 9.5q2 11 4 34q2 11 6.5 33t6.5 34l4 28q8 58 11 66q2 8 1 12q0 13 3 36t4 29q1 7 2.5 19.5t2.5 23t1 19.5q0 7 3 15q0 1 3 19q1 6 1.5 16.5t1.5 19t3 16.5l3 9l3.5 10.5t0.5 8.5q-2 11 2.5 27.5t5.5 32.5q0 12 2 32q4 26 4 38q0 23 10 43
l-2 2q-3 3 -4 8t0 16q1 5 -2.5 17t-9 29.5t-7.5 27.5q-3 12 -1 15q2 2 10.5 3.5t11.5 0.5q6 -3 21 -1q5 1 32.5 0t31.5 -1q7 0 9 1q12 5 28 2q9 -2 27 -2q20 0 22 -2q1 -1 4 -3t5 -5q1 -3 2 -12t1 -10q6 -47 6 -49l3 -18v-7.5t4 -8.5q1 -8 5 -30.5t4 -34.5l3 -36
q1 -6 3 -29.5t5 -36.5q4 -23 8 -73l1 -5q1 -5 2 -7q3 -11 5 -48q2 -20 4 -29q2 -8 3 -22.5t2 -19.5l6 -35q0 -4 3.5 -22.5t3.5 -29.5q0 -16 5 -36q2 -6 2 -18q-1 -12 4 -29q1 -4 4 -29l6 -54q0 -5 2.5 -8.5t3.5 -9.5q10 -50 22 -74q3 -22 -1 -22l-4 -1q-3 -1 -4 0
q-5 4 -17 2.5t-18 1.5h-1q-4 -3 -25.5 -1.5t-25.5 1.5l-55 -2l-2 1l-2 1q-8 -3 -11.5 -2t-4 3.5t-0.5 10.5l4 19q1 3 2.5 11t2.5 11q7 28 6 30q-1 5 0 6.5l2 3t0 6.5q-1 3 -2 10t-3 12zM251 243q-5 65 -7 79q0 1 0.5 4t-1.5 4q-1 1 -1 8q0 3 -4.5 42.5t-6.5 47.5q1 15 -4 41
q0 6 -2.5 36t-3.5 33q0 1 -0.5 13t-1.5 13q0 27 -6 51q-1 2 -4 2q-3 -5 -3 -9l-4 -60q0 -3 -1 -10t0 -11q-2 -6 -4 -22.5t-3.5 -34t-2.5 -21.5q-2 -8 -6.5 -59.5t-7.5 -62.5v-3q5 -9 0 -17v-19q0 -9 -3.5 -26t-4.5 -22q6 0 24.5 -0.5t34 0t23.5 3.5z" />
    <glyph glyph-name="adieresis" unicode="&#xe4;" 
d="M187 994q4 -6 4 -8q1 -14 1 -38.5v-38.5q-3 -2 -9.5 -5.5t-8.5 -4.5q-4 2 -25 0.5t-38 -0.5q-5 2 -7.5 6t-3.5 8t-1.5 9t-2.5 8v61q2 1 12 1t12 1q15 1 37 0t30 1zM316 930q-1 -2 2 -7t1 -9l-7 -9q-1 0 -10.5 -1t-14.5 -2q-3 0 -10.5 2t-10.5 -1q-3 -2 -11.5 -1t-9.5 -3
q-14 3 -21 10v78l5 4h7q18 -4 55 0q19 2 23 -1l2 -21q2 -10 0 -18q0 -3 1 -10.5t-1 -10.5zM260 127q-7 0 -32.5 -1.5t-35.5 -1.5q-4 0 -13 0.5t-13.5 0.5h-6.5q-4 -4 -6 -21q-1 -11 4.5 -29t5.5 -29q0 -4 6 -20t4 -22t-12 -3q-19 6 -57 -2q-38 -4 -76 0q-5 2 -8 0
q-6 -1 -14 1t-8 4q-1 2 1.5 9t6 17t4.5 13q10 27 14 52q1 6 3.5 12.5t3.5 9.5q2 11 4 34q2 11 6.5 33t6.5 34l4 28q8 58 11 66q2 8 1 12q0 13 3 36t4 29q1 7 2.5 19.5t2.5 23t1 19.5q0 7 3 15q0 1 3 19q1 6 1.5 16.5t1.5 19t3 16.5l3 9l3.5 10.5t0.5 8.5q-2 11 2.5 27.5
t5.5 32.5q0 12 2 32q4 26 4 38q0 23 10 43l-2 2q-3 3 -4 8t0 16q1 5 -2.5 17t-9 29.5t-7.5 27.5q-3 12 -1 15q2 2 10.5 3.5t11.5 0.5q6 -3 21 -1q5 1 32.5 0t31.5 -1q7 0 9 1q12 5 28 2q9 -2 27 -2q20 0 22 -2q1 -1 4 -3t5 -5q1 -3 2 -12t1 -10q6 -47 6 -49l3 -18v-7.5
t4 -8.5q1 -8 5 -30.5t4 -34.5l3 -36q1 -6 3 -29.5t5 -36.5q4 -23 8 -73l1 -5q1 -5 2 -7q3 -11 5 -48q2 -20 4 -29q2 -8 3 -22.5t2 -19.5l6 -35q0 -4 3.5 -22.5t3.5 -29.5q0 -16 5 -36q2 -6 2 -18q-1 -12 4 -29q1 -4 4 -29l6 -54q0 -5 2.5 -8.5t3.5 -9.5q10 -50 22 -74
q3 -22 -1 -22l-4 -1q-3 -1 -4 0q-5 4 -17 2.5t-18 1.5h-1q-4 -3 -25.5 -1.5t-25.5 1.5l-55 -2l-2 1l-2 1q-8 -3 -11.5 -2t-4 3.5t-0.5 10.5l4 19q1 3 2.5 11t2.5 11q7 28 6 30q-1 5 0 6.5l2 3t0 6.5q-1 3 -2 10t-3 12zM251 243q-5 65 -7 79q0 1 0.5 4t-1.5 4q-1 1 -1 8
q0 3 -4.5 42.5t-6.5 47.5q1 15 -4 41q0 6 -2.5 36t-3.5 33q0 1 -0.5 13t-1.5 13q0 27 -6 51q-1 2 -4 2q-3 -5 -3 -9l-4 -60q0 -3 -1 -10t0 -11q-2 -6 -4 -22.5t-3.5 -34t-2.5 -21.5q-2 -8 -6.5 -59.5t-7.5 -62.5v-3q5 -9 0 -17v-19q0 -9 -3.5 -26t-4.5 -22q6 0 24.5 -0.5
t34 0t23.5 3.5z" />
    <glyph glyph-name="aring" unicode="&#xe5;" 
d="M183 1029q8 3 16 4t12 0.5t15 -2.5t13 -2q1 -1 13.5 -9.5t18.5 -15.5l8 -26v-30q-4 -22 -39 -52q-2 -1 -13.5 -2.5t-16.5 -5.5q-38 13 -41 14l-22 22q-6 15 -9 27v27q13 38 45 51zM196 939h20q2 2 7 4t8.5 4.5t5.5 6.5q3 10 0 21q-7 10 -16 14h-18l-15 -7
q-1 -2 -2.5 -5.5t-2.5 -7.5t-1 -8q2 -11 14 -22zM260 127q-7 0 -32.5 -1.5t-35.5 -1.5q-4 0 -13 0.5t-13.5 0.5h-6.5q-4 -4 -6 -21q-1 -11 4.5 -29t5.5 -29q0 -4 6 -20t4 -22t-12 -3q-19 6 -57 -2q-38 -4 -76 0q-5 2 -8 0q-6 -1 -14 1t-8 4q-1 2 1.5 9t6 17t4.5 13
q10 27 14 52q1 6 3.5 12.5t3.5 9.5q2 11 4 34q2 11 6.5 33t6.5 34l4 28q8 58 11 66q2 8 1 12q0 13 3 36t4 29q1 7 2.5 19.5t2.5 23t1 19.5q0 7 3 15q0 1 3 19q1 6 1.5 16.5t1.5 19t3 16.5l3 9l3.5 10.5t0.5 8.5q-2 11 2.5 27.5t5.5 32.5q0 12 2 32q4 26 4 38q0 23 10 43
l-2 2q-3 3 -4 8t0 16q1 5 -2.5 17t-9 29.5t-7.5 27.5q-3 12 -1 15q2 2 10.5 3.5t11.5 0.5q6 -3 21 -1q5 1 32.5 0t31.5 -1q7 0 9 1q12 5 28 2q9 -2 27 -2q20 0 22 -2q1 -1 4 -3t5 -5q1 -3 2 -12t1 -10q6 -47 6 -49l3 -18v-7.5t4 -8.5q1 -8 5 -30.5t4 -34.5l3 -36
q1 -6 3 -29.5t5 -36.5q4 -23 8 -73l1 -5q1 -5 2 -7q3 -11 5 -48q2 -20 4 -29q2 -8 3 -22.5t2 -19.5l6 -35q0 -4 3.5 -22.5t3.5 -29.5q0 -16 5 -36q2 -6 2 -18q-1 -12 4 -29q1 -4 4 -29l6 -54q0 -5 2.5 -8.5t3.5 -9.5q10 -50 22 -74q3 -22 -1 -22l-4 -1q-3 -1 -4 0
q-5 4 -17 2.5t-18 1.5h-1q-4 -3 -25.5 -1.5t-25.5 1.5l-55 -2l-2 1l-2 1q-8 -3 -11.5 -2t-4 3.5t-0.5 10.5l4 19q1 3 2.5 11t2.5 11q7 28 6 30q-1 5 0 6.5l2 3t0 6.5q-1 3 -2 10t-3 12zM251 243q-5 65 -7 79q0 1 0.5 4t-1.5 4q-1 1 -1 8q0 3 -4.5 42.5t-6.5 47.5q1 15 -4 41
q0 6 -2.5 36t-3.5 33q0 1 -0.5 13t-1.5 13q0 27 -6 51q-1 2 -4 2q-3 -5 -3 -9l-4 -60q0 -3 -1 -10t0 -11q-2 -6 -4 -22.5t-3.5 -34t-2.5 -21.5q-2 -8 -6.5 -59.5t-7.5 -62.5v-3q5 -9 0 -17v-19q0 -9 -3.5 -26t-4.5 -22q6 0 24.5 -0.5t34 0t23.5 3.5z" />
    <glyph glyph-name="ae" unicode="&#xe6;" horiz-adv-x="531" 
d="M70 295l3 1q2 6 2 12q0 4 2.5 11.5t2.5 10.5q0 4 0.5 11t0.5 10q4 36 8 53q3 9 5.5 27.5t4.5 27.5q3 19 4 21q2 3 2.5 10.5t2.5 11.5q3 2 1 9t-2 10q9 61 9 64q2 14 7 38.5t6 32.5q0 1 1.5 5t1.5 6q0 9 3.5 33.5t2.5 36.5q-1 10 -2 18t-1 17q0 2 -2.5 19t-2.5 19
q-2 20 -6 40q6 5 48 5h81q33 0 44 6l14 -5q1 0 6 2t7 2h39t39 -2q3 0 10 2t11 1h47q11 -3 20 -10q2 -12 1 -60t5 -60l-6 -17q-6 -2 -7 -2q-11 0 -36 14t-35 14q-30 0 -49 -6q-2 -7 -1.5 -27t-4.5 -27q5 -12 5 -22v-113q0 -4 1.5 -16.5t0.5 -19.5q0 -1 5 -16h27q8 0 34 11
t34 9q1 -1 1 -17l4 -121q0 -14 -7 -19q-6 -2 -30.5 8t-31.5 6q-8 0 -12.5 -0.5t-11.5 -0.5q-12 -8 -7 -21q1 -5 1 -15t2 -14q1 -4 0.5 -6t-2 -5.5t-1.5 -5.5q4 -14 4 -24q0 -16 0.5 -49t0.5 -50q0 -13 4 -18l-4 -17q0 -2 2 -8t-1 -8q3 -2 6 -2.5t6 0t7 -0.5h32q9 1 37 14
t43 8q2 -8 1.5 -31.5t-2.5 -32.5q-5 -37 2 -69l-8 -7h-34q-5 0 -18 0.5t-22 -0.5t-18 -5q-6 -2 -11 0q-20 4 -29 3q-5 -1 -14 -1.5t-14 -1.5h-34q-58 0 -70 -6q-8 5 -15 15q0 7 6 20.5t7 15.5q1 1 3.5 7t4.5 10.5t2 7.5t4 18.5t5 18.5q1 5 1 15q1 4 1 10v9q2 8 0 26
q-8 2 -11 2q-36 0 -54 -1q-3 0 -9.5 -3t-10.5 -2q-9 -16 -8 -25q0 -11 -4 -16.5t-5 -14.5q-2 -9 1 -30.5t3 -26.5q0 -2 6.5 -22t4.5 -25q-8 -4 -17.5 -3.5t-26 2.5t-18.5 2q-5 1 -15 -1.5t-12 -2.5h-15.5t-15.5 -1h-49q-4 7 5.5 26.5t9.5 21.5q2 9 7 21t7 21q1 4 5 24t5 31
q0 2 2 7.5t3 8.5l2 15q-18 0 -18 11q-1 3 -2 5q-1 5 -5.5 19t-3.5 22q1 12 -7 33q-3 7 -3 24q2 3 9.5 3.5t16 0t10.5 -0.5q5 0 15 0.5t14 0.5zM249 301v11q0 38 0.5 115t0.5 116q0 8 -1 12q-1 9 0 30.5t1 27.5q0 4 -6 1q-2 -1 -3 -3q0 -6 -1.5 -14t-2 -10.5t0.5 -8.5
q-3 -12 -7.5 -38t-8.5 -39q1 -13 -5.5 -36.5t-6.5 -34.5q-2 -4 -5 -30q0 -6 -3 -16t-3 -14q-1 -21 -7 -61l-3 -6l14 -7q4 1 11 1.5t11 1.5q7 2 24 2z" />
    <glyph glyph-name="ccedilla" unicode="&#xe7;" horiz-adv-x="392" 
d="M203 -111v21q-8 11 -18 19q-7 1 -18 -2t-17 -1q-3 0 -7 7v32q13 9 25 25l-30 7q-12 4 -17 4q-27 1 -55 31l-13 12q-6 7 -18 34l-7 11v105q0 8 -2.5 26t-2.5 26q0 13 2.5 35.5t2.5 35.5q2 23 0 46q-1 7 -1.5 21t-0.5 19q0 7 -1.5 21t-1.5 21q0 10 2.5 37.5t2.5 40.5v30
q0 14 -5 15q7 35 7 58q-1 7 -1 22t-2 45.5t-1 46.5q2 28 24 68q12 4 22 16q28 27 62 38q4 1 11 4.5t8 3.5q6 2 21 -0.5t19 2.5q13 -8 31 -6q35 2 61 -16q2 -1 5 -4q4 -5 9 -3q2 1 17.5 12t18.5 12q11 3 12 3t6 -7q8 -3 6.5 -56t-0.5 -59q2 -9 2 -26.5t1 -24.5t1 -43
q0 -2 -1 -5.5t-1 -6.5t3 -6l-7 -7q-12 1 -57 -0.5t-57 2.5l-2 2l-4 3q-1 8 -1 50q0 8 0.5 24t0.5 25q-15 12 -16 13q-7 2 -44 2q-1 0 -2 -1l-2 -2q-23 -6 -21 -37q2 -21 0 -42q-1 -10 -0.5 -36t0.5 -36q0 -4 -1.5 -11.5t-1.5 -11.5q0 -2 -2 -2.5t-2 -1.5q13 -17 2 -34
q0 -1 3 -3.5t2 -4.5q-2 -8 -0.5 -24t-1.5 -24q-2 -5 0 -15t2 -14v-40t-1 -40q-1 -15 -1 -45q0 -8 1 -23.5t1 -23.5q-3 -32 -2 -59q2 -15 2.5 -44t1.5 -44q0 -6 4 -10q3 -2 1 -9q9 -8 11 -9q3 -1 8 -3t6 -3h27q4 1 9 6q16 14 14 27q-1 9 1 26t2 25q0 14 -4 20q-2 3 -1 9.5
t-1 8.5l9 6q11 0 37 -2t36.5 -2t35.5 3q2 -1 4.5 -2t4.5 -1t4.5 -2.5t4.5 -6.5q-4 -18 -4 -63q0 -15 3 -22t-1 -27l-2 -20q-21 -47 -50 -69q-15 -2 -27 -11t-29 -9q-1 0 -43 -3q-14 -13 -15 -16q31 -6 40.5 -12.5t19.5 -30.5v-53q-1 -2 -4.5 -9.5t-5.5 -12.5q-9 -22 -32 -25
q-5 0 -15 -4.5t-17 -3.5q-18 1 -46 18q-4 6 -1 13l3 8l-3 11q1 5 17 12q3 -2 12 -4t12 -5q18 5 24 15z" />
    <glyph glyph-name="egrave" unicode="&#xe8;" horiz-adv-x="340" 
d="M11 845q4 10 24 10q2 0 32.5 -1.5t38.5 -0.5q13 2 42 1.5t42 2.5q14 2 44 -2q2 0 16 2q6 0 9 -1q8 3 20 1.5t15 -0.5q4 -3 8 -12q-6 -11 -2 -27q2 -6 2 -20.5t3 -22.5q-3 -6 -2 -32t-1 -32q-6 -3 -18.5 4t-14.5 7q-5 1 -18 6.5t-22 5.5q-10 0 -28 1t-27 1q-6 0 -8 -2v-23
v-15t-1 -16q0 -4 1 -7q4 -18 -4 -28q6 -20 3 -33q5 -10 5 -26v-91q9 0 20.5 0.5t19.5 0.5q4 0 12.5 3.5t15.5 4.5q3 -2 16 4t16 5q-1 -5 -1 -26.5v-25.5t2 -20t-2 -20q0 -1 2 -16q0 -3 -1 -5l1 -2l1 -1q-1 -2 -1.5 -23t-3.5 -26q-11 2 -34 11.5t-35 10.5q0 1 -14 0h-15
q-5 -30 1 -76q0 -3 -1.5 -5t-4 -3t-3.5 -2q0 -2 1 -5.5t1.5 -6.5t0.5 -6q2 -12 0 -26q-4 -15 1 -25q2 -5 2 -23q-1 -12 1 -34t2 -31q11 -1 66 -1q2 0 64 22q9 0 10 -4v-82q2 -31 4 -38q4 -11 -3 -22q-6 -3 -51 -1t-51 2q-117 -3 -127 -4q-9 -1 -34.5 0t-34.5 5q-3 8 4.5 25
t7.5 23q0 8 8 35t9 33q1 11 0 26t1 26q0 7 -0.5 30t1.5 29q2 16 2 47v38v37v38q0 5 1 20t0 23q-1 15 0 42.5t1 36.5v79q-1 21 2 48q2 12 -2 47q0 7 1 23t0 23q0 4 -3 15q-1 4 -8.5 20.5t-8.5 21.5q0 6 -6.5 20t-6.5 21q0 2 -2.5 7t-2.5 7zM239 906q-8 -9 -19 -6q-13 2 -16 2
q-2 0 -8.5 0.5t-9.5 -0.5q-1 0 -11 -1.5t-14 -0.5q-4 6 -21.5 26t-24.5 32q-5 10 -13 14q-14 13 -22 32q0 10 10 14h12q12 -1 19 -3q5 -1 17 -1h44q12 -6 16 -20q6 -22 30 -60q13 -19 11 -28z" />
    <glyph glyph-name="eacute" unicode="&#xe9;" horiz-adv-x="340" 
d="M207 1008q3 1 19 2.5t18 1.5q1 -1 6.5 -2.5t7.5 -3t3 -5.5q-11 -18 -39 -51.5t-39 -49.5q-38 3 -47 -1q-3 -1 -11 0.5t-11 -0.5q-7 6 -3 14q8 14 21.5 45.5t22.5 46.5q12 4 18 7q6 -1 10.5 -0.5t11.5 0t12 -3.5zM11 845q4 10 24 10q2 0 32.5 -1.5t38.5 -0.5q13 2 42 1.5
t42 2.5q14 2 44 -2q2 0 16 2q6 0 9 -1q8 3 20 1.5t15 -0.5q4 -3 8 -12q-6 -11 -2 -27q2 -6 2 -20.5t3 -22.5q-3 -6 -2 -32t-1 -32q-6 -3 -18.5 4t-14.5 7q-5 1 -18 6.5t-22 5.5q-10 0 -28 1t-27 1q-6 0 -8 -2v-23v-15t-1 -16q0 -4 1 -7q4 -18 -4 -28q6 -20 3 -33
q5 -10 5 -26v-91q9 0 20.5 0.5t19.5 0.5q4 0 12.5 3.5t15.5 4.5q3 -2 16 4t16 5q-1 -5 -1 -26.5v-25.5t2 -20t-2 -20q0 -1 2 -16q0 -3 -1 -5l1 -2l1 -1q-1 -2 -1.5 -23t-3.5 -26q-11 2 -34 11.5t-35 10.5q0 1 -14 0h-15q-5 -30 1 -76q0 -3 -1.5 -5t-4 -3t-3.5 -2
q0 -2 1 -5.5t1.5 -6.5t0.5 -6q2 -12 0 -26q-4 -15 1 -25q2 -5 2 -23q-1 -12 1 -34t2 -31q11 -1 66 -1q2 0 64 22q9 0 10 -4v-82q2 -31 4 -38q4 -11 -3 -22q-6 -3 -51 -1t-51 2q-117 -3 -127 -4q-9 -1 -34.5 0t-34.5 5q-3 8 4.5 25t7.5 23q0 8 8 35t9 33q1 11 0 26t1 26
q0 7 -0.5 30t1.5 29q2 16 2 47v38v37v38q0 5 1 20t0 23q-1 15 0 42.5t1 36.5v79q-1 21 2 48q2 12 -2 47q0 7 1 23t0 23q0 4 -3 15q-1 4 -8.5 20.5t-8.5 21.5q0 6 -6.5 20t-6.5 21q0 2 -2.5 7t-2.5 7z" />
    <glyph glyph-name="ecircumflex" unicode="&#xea;" horiz-adv-x="340" 
d="M76 889q-5 2 -9.5 10.5t-4.5 9.5v19q0 2 -2.5 8.5t-0.5 11.5q1 0 3 2.5t4 3.5q36 20 51 35q7 7 23 16q3 2 12.5 8t16.5 9q7 2 10 -4q3 -3 18 -8q8 -10 42 -33q7 -4 36 -27q2 -5 -1 -17.5t0 -18.5q-2 -3 -0.5 -12t-3.5 -10q-21 3 -69 30q-14 8 -34 16q-14 -6 -43.5 -24.5
t-47.5 -24.5zM11 845q4 10 24 10q2 0 32.5 -1.5t38.5 -0.5q13 2 42 1.5t42 2.5q14 2 44 -2q2 0 16 2q6 0 9 -1q8 3 20 1.5t15 -0.5q4 -3 8 -12q-6 -11 -2 -27q2 -6 2 -20.5t3 -22.5q-3 -6 -2 -32t-1 -32q-6 -3 -18.5 4t-14.5 7q-5 1 -18 6.5t-22 5.5q-10 0 -28 1t-27 1
q-6 0 -8 -2v-23v-15t-1 -16q0 -4 1 -7q4 -18 -4 -28q6 -20 3 -33q5 -10 5 -26v-91q9 0 20.5 0.5t19.5 0.5q4 0 12.5 3.5t15.5 4.5q3 -2 16 4t16 5q-1 -5 -1 -26.5v-25.5t2 -20t-2 -20q0 -1 2 -16q0 -3 -1 -5l1 -2l1 -1q-1 -2 -1.5 -23t-3.5 -26q-11 2 -34 11.5t-35 10.5
q0 1 -14 0h-15q-5 -30 1 -76q0 -3 -1.5 -5t-4 -3t-3.5 -2q0 -2 1 -5.5t1.5 -6.5t0.5 -6q2 -12 0 -26q-4 -15 1 -25q2 -5 2 -23q-1 -12 1 -34t2 -31q11 -1 66 -1q2 0 64 22q9 0 10 -4v-82q2 -31 4 -38q4 -11 -3 -22q-6 -3 -51 -1t-51 2q-117 -3 -127 -4q-9 -1 -34.5 0
t-34.5 5q-3 8 4.5 25t7.5 23q0 8 8 35t9 33q1 11 0 26t1 26q0 7 -0.5 30t1.5 29q2 16 2 47v38v37v38q0 5 1 20t0 23q-1 15 0 42.5t1 36.5v79q-1 21 2 48q2 12 -2 47q0 7 1 23t0 23q0 4 -3 15q-1 4 -8.5 20.5t-8.5 21.5q0 6 -6.5 20t-6.5 21q0 2 -2.5 7t-2.5 7z" />
    <glyph glyph-name="edieresis" unicode="&#xeb;" horiz-adv-x="340" 
d="M147 994q4 -6 4 -8q1 -14 1 -38.5v-38.5q-3 -2 -9.5 -5.5t-8.5 -4.5q-4 2 -25 0.5t-38 -0.5q-5 2 -7.5 6t-3.5 8t-1.5 9t-2.5 8v61q2 1 12.5 1t11.5 1q15 1 37 0t30 1zM276 930q-1 -2 2 -7t1 -9l-7 -9q-1 0 -10.5 -1t-14.5 -2q-3 0 -10.5 2t-10.5 -1q-3 -2 -11.5 -1
t-9.5 -3q-14 3 -21 10v78l5 4h7q18 -4 55 0q19 2 23 -1l2 -21q2 -10 0 -18q0 -3 1 -10.5t-1 -10.5zM11 845q4 10 24 10q2 0 32.5 -1.5t38.5 -0.5q13 2 42 1.5t42 2.5q14 2 44 -2q2 0 16 2q6 0 9 -1q8 3 20 1.5t15 -0.5q4 -3 8 -12q-6 -11 -2 -27q2 -6 2 -20.5t3 -22.5
q-3 -6 -2 -32t-1 -32q-6 -3 -18.5 4t-14.5 7q-5 1 -18 6.5t-22 5.5q-10 0 -28 1t-27 1q-6 0 -8 -2v-23v-15t-1 -16q0 -4 1 -7q4 -18 -4 -28q6 -20 3 -33q5 -10 5 -26v-91q9 0 20.5 0.5t19.5 0.5q4 0 12.5 3.5t15.5 4.5q3 -2 16 4t16 5q-1 -5 -1 -26.5v-25.5t2 -20t-2 -20
q0 -1 2 -16q0 -3 -1 -5l1 -2l1 -1q-1 -2 -1.5 -23t-3.5 -26q-11 2 -34 11.5t-35 10.5q0 1 -14 0h-15q-5 -30 1 -76q0 -3 -1.5 -5t-4 -3t-3.5 -2q0 -2 1 -5.5t1.5 -6.5t0.5 -6q2 -12 0 -26q-4 -15 1 -25q2 -5 2 -23q-1 -12 1 -34t2 -31q11 -1 66 -1q2 0 64 22q9 0 10 -4v-82
q2 -31 4 -38q4 -11 -3 -22q-6 -3 -51 -1t-51 2q-117 -3 -127 -4q-9 -1 -34.5 0t-34.5 5q-3 8 4.5 25t7.5 23q0 8 8 35t9 33q1 11 0 26t1 26q0 7 -0.5 30t1.5 29q2 16 2 47v38v37v38q0 5 1 20t0 23q-1 15 0 42.5t1 36.5v79q-1 21 2 48q2 12 -2 47q0 7 1 23t0 23q0 4 -3 15
q-1 4 -8.5 20.5t-8.5 21.5q0 6 -6.5 20t-6.5 21q0 2 -2.5 7t-2.5 7z" />
    <glyph glyph-name="igrave" unicode="&#xec;" horiz-adv-x="215" 
d="M9 849q0 4 1 5.5t3.5 1.5t3.5 1q7 1 19.5 0.5t27.5 0t20 2.5q4 0 5 -1q9 -3 16 1q8 -5 42 -1.5t43 0.5q3 -2 10 -9q-2 -4 -11 -30.5t-13 -32.5q-2 -2 -0.5 -7.5t0.5 -7.5q-11 -30 -11 -36q-1 -14 0 -40t0 -39q-3 -28 1 -65q2 -21 -3 -39q-2 -8 0 -29q1 0 1 -22l-1 -22
v-26q3 -15 -1 -18q-1 -1 0.5 -2.5t1.5 -2.5q3 -13 -4 -23h2h1.5t1.5 -1q-2 -5 0.5 -20t-3.5 -19q5 -13 1 -43q-1 -2 1 -3q1 0 2 -1t1 -2l4 -60v-57q2 -56 2 -81q0 -3 5 -31l5.5 -16.5t3.5 -22.5q-1 -5 18 -43q1 -5 -5 -10q-8 7 -83 5t-83 -1l-17 7q-2 6 8.5 30t10.5 28
q0 11 5.5 28t6.5 26q1 7 0 9t-1 9q0 8 0.5 34t1.5 40q0 3 -0.5 9t-0.5 9q2 38 1 45q-1 10 -1 31t-1 31q0 4 0.5 15.5t-0.5 15.5q-2 8 -1 22.5t0 22.5q-1 5 -0.5 18.5t0.5 19.5q-1 9 -1 57v56q0 54 -3 68q-1 6 0.5 17t1.5 14q0 46 -1 52q-2 14 2 25q1 4 -3 11t-4 10
q-1 11 -6.5 19.5t-5.5 21.5q-7 33 -17 46zM169 906q-8 -9 -19 -6q-13 2 -16 2q-2 0 -8.5 0.5t-9.5 -0.5q-1 0 -11 -1.5t-14 -0.5q-4 6 -21.5 26t-24.5 32q-5 10 -13 14q-14 13 -22 32q0 10 10 14h12q12 -1 19 -3q5 -1 17 -1h44q12 -6 16 -20q6 -22 30 -60q13 -19 11 -28z
" />
    <glyph glyph-name="iacute" unicode="&#xed;" horiz-adv-x="215" 
d="M138 1008q3 1 19 2.5t18 1.5q1 -1 6.5 -2.5t7.5 -3t3 -5.5q-11 -18 -39 -51.5t-39 -49.5q-38 3 -47 -1q-3 -1 -11 0.5t-11 -0.5q-7 6 -3 14q8 14 21.5 45.5t22.5 46.5q12 4 18 7q6 -1 10.5 -0.5t11.5 0t12 -3.5zM9 849q0 4 1 5.5t3.5 1.5t3.5 1q7 1 19.5 0.5t27.5 0
t20 2.5q4 0 5 -1q9 -3 16 1q8 -5 42 -1.5t43 0.5q3 -2 10 -9q-2 -4 -11 -30.5t-13 -32.5q-2 -2 -0.5 -7.5t0.5 -7.5q-11 -30 -11 -36q-1 -14 0 -40t0 -39q-3 -28 1 -65q2 -21 -3 -39q-2 -8 0 -29q1 0 1 -22l-1 -22v-26q3 -15 -1 -18q-1 -1 0.5 -2.5t1.5 -2.5q3 -13 -4 -23h2
h1.5t1.5 -1q-2 -5 0.5 -20t-3.5 -19q5 -13 1 -43q-1 -2 1 -3q1 0 2 -1t1 -2l4 -60v-57q2 -56 2 -81q0 -3 5 -31l5.5 -16.5t3.5 -22.5q-1 -5 18 -43q1 -5 -5 -10q-8 7 -83 5t-83 -1l-17 7q-2 6 8.5 30t10.5 28q0 11 5.5 28t6.5 26q1 7 0 9t-1 9q0 8 0.5 34t1.5 40q0 3 -0.5 9
t-0.5 9q2 38 1 45q-1 10 -1 31t-1 31q0 4 0.5 15.5t-0.5 15.5q-2 8 -1 22.5t0 22.5q-1 5 -0.5 18.5t0.5 19.5q-1 9 -1 57v56q0 54 -3 68q-1 6 0.5 17t1.5 14q0 46 -1 52q-2 14 2 25q1 4 -3 11t-4 10q-1 11 -6.5 19.5t-5.5 21.5q-7 33 -17 46z" />
    </font>
</defs>
</svg>
